G04 #@! TF.GenerationSoftware,KiCad,Pcbnew,(5.1.5)-3*
G04 #@! TF.CreationDate,2019-12-24T16:56:49-08:00*
G04 #@! TF.ProjectId,NBIoT Wing,4e42496f-5420-4576-996e-672e6b696361,rev?*
G04 #@! TF.SameCoordinates,Original*
G04 #@! TF.FileFunction,Copper,L4,Bot*
G04 #@! TF.FilePolarity,Positive*
%FSLAX46Y46*%
G04 Gerber Fmt 4.6, Leading zero omitted, Abs format (unit mm)*
G04 Created by KiCad (PCBNEW (5.1.5)-3) date 2019-12-24 16:56:49*
%MOMM*%
%LPD*%
G04 APERTURE LIST*
%ADD10C,1.700000*%
%ADD11O,1.700000X1.700000*%
%ADD12R,1.300000X0.450000*%
%ADD13R,1.150000X0.600000*%
%ADD14R,1.700000X1.400000*%
%ADD15R,0.800000X0.540000*%
%ADD16R,1.400000X1.200000*%
%ADD17R,1.400000X1.000000*%
%ADD18C,3.556000*%
%ADD19C,0.100000*%
%ADD20O,1.500000X1.100000*%
%ADD21O,1.700000X1.350000*%
%ADD22C,0.800000*%
%ADD23C,0.900000*%
%ADD24C,0.250000*%
G04 APERTURE END LIST*
D10*
X146050000Y-90170000D03*
D11*
X148590000Y-90170000D03*
X151130000Y-90170000D03*
X153670000Y-90170000D03*
X156210000Y-90170000D03*
X158750000Y-90170000D03*
X161290000Y-90170000D03*
X163830000Y-90170000D03*
X166370000Y-90170000D03*
X168910000Y-90170000D03*
X171450000Y-90170000D03*
X173990000Y-90170000D03*
D10*
X135890000Y-110490000D03*
D11*
X138430000Y-110490000D03*
X140970000Y-110490000D03*
X143510000Y-110490000D03*
X146050000Y-110490000D03*
X148590000Y-110490000D03*
X151130000Y-110490000D03*
X153670000Y-110490000D03*
X156210000Y-110490000D03*
X158750000Y-110490000D03*
X161290000Y-110490000D03*
X163830000Y-110490000D03*
X166370000Y-110490000D03*
X168910000Y-110490000D03*
X171450000Y-110490000D03*
X173990000Y-110490000D03*
D12*
X169256000Y-106600000D03*
X167256000Y-106600000D03*
X169256000Y-94060000D03*
X167256000Y-94060000D03*
D13*
X165086000Y-98005000D03*
X165086000Y-99275000D03*
X165086000Y-100545000D03*
X165086000Y-101815000D03*
X165086000Y-103085000D03*
X165086000Y-104355000D03*
D14*
X178816000Y-94220000D03*
D15*
X178236000Y-97790000D03*
D14*
X178816000Y-106420000D03*
D15*
X178236000Y-102870000D03*
D16*
X157840500Y-97036000D03*
D17*
X157840500Y-95316000D03*
X160040500Y-95316000D03*
X160040500Y-97216000D03*
D10*
X136779000Y-107315000D03*
D11*
X136779000Y-104775000D03*
X139319000Y-107315000D03*
X139319000Y-104775000D03*
X141859000Y-107315000D03*
X141859000Y-104775000D03*
D18*
X177800000Y-109220000D03*
X132080000Y-109220000D03*
X177800000Y-91440000D03*
X132080000Y-91440000D03*
G04 #@! TA.AperFunction,SMDPad,CuDef*
D19*
G36*
X163587691Y-98268553D02*
G01*
X163608926Y-98271703D01*
X163629750Y-98276919D01*
X163649962Y-98284151D01*
X163669368Y-98293330D01*
X163687781Y-98304366D01*
X163705024Y-98317154D01*
X163720930Y-98331570D01*
X163735346Y-98347476D01*
X163748134Y-98364719D01*
X163759170Y-98383132D01*
X163768349Y-98402538D01*
X163775581Y-98422750D01*
X163780797Y-98443574D01*
X163783947Y-98464809D01*
X163785000Y-98486250D01*
X163785000Y-98998750D01*
X163783947Y-99020191D01*
X163780797Y-99041426D01*
X163775581Y-99062250D01*
X163768349Y-99082462D01*
X163759170Y-99101868D01*
X163748134Y-99120281D01*
X163735346Y-99137524D01*
X163720930Y-99153430D01*
X163705024Y-99167846D01*
X163687781Y-99180634D01*
X163669368Y-99191670D01*
X163649962Y-99200849D01*
X163629750Y-99208081D01*
X163608926Y-99213297D01*
X163587691Y-99216447D01*
X163566250Y-99217500D01*
X163128750Y-99217500D01*
X163107309Y-99216447D01*
X163086074Y-99213297D01*
X163065250Y-99208081D01*
X163045038Y-99200849D01*
X163025632Y-99191670D01*
X163007219Y-99180634D01*
X162989976Y-99167846D01*
X162974070Y-99153430D01*
X162959654Y-99137524D01*
X162946866Y-99120281D01*
X162935830Y-99101868D01*
X162926651Y-99082462D01*
X162919419Y-99062250D01*
X162914203Y-99041426D01*
X162911053Y-99020191D01*
X162910000Y-98998750D01*
X162910000Y-98486250D01*
X162911053Y-98464809D01*
X162914203Y-98443574D01*
X162919419Y-98422750D01*
X162926651Y-98402538D01*
X162935830Y-98383132D01*
X162946866Y-98364719D01*
X162959654Y-98347476D01*
X162974070Y-98331570D01*
X162989976Y-98317154D01*
X163007219Y-98304366D01*
X163025632Y-98293330D01*
X163045038Y-98284151D01*
X163065250Y-98276919D01*
X163086074Y-98271703D01*
X163107309Y-98268553D01*
X163128750Y-98267500D01*
X163566250Y-98267500D01*
X163587691Y-98268553D01*
G37*
G04 #@! TD.AperFunction*
G04 #@! TA.AperFunction,SMDPad,CuDef*
G36*
X162012691Y-98268553D02*
G01*
X162033926Y-98271703D01*
X162054750Y-98276919D01*
X162074962Y-98284151D01*
X162094368Y-98293330D01*
X162112781Y-98304366D01*
X162130024Y-98317154D01*
X162145930Y-98331570D01*
X162160346Y-98347476D01*
X162173134Y-98364719D01*
X162184170Y-98383132D01*
X162193349Y-98402538D01*
X162200581Y-98422750D01*
X162205797Y-98443574D01*
X162208947Y-98464809D01*
X162210000Y-98486250D01*
X162210000Y-98998750D01*
X162208947Y-99020191D01*
X162205797Y-99041426D01*
X162200581Y-99062250D01*
X162193349Y-99082462D01*
X162184170Y-99101868D01*
X162173134Y-99120281D01*
X162160346Y-99137524D01*
X162145930Y-99153430D01*
X162130024Y-99167846D01*
X162112781Y-99180634D01*
X162094368Y-99191670D01*
X162074962Y-99200849D01*
X162054750Y-99208081D01*
X162033926Y-99213297D01*
X162012691Y-99216447D01*
X161991250Y-99217500D01*
X161553750Y-99217500D01*
X161532309Y-99216447D01*
X161511074Y-99213297D01*
X161490250Y-99208081D01*
X161470038Y-99200849D01*
X161450632Y-99191670D01*
X161432219Y-99180634D01*
X161414976Y-99167846D01*
X161399070Y-99153430D01*
X161384654Y-99137524D01*
X161371866Y-99120281D01*
X161360830Y-99101868D01*
X161351651Y-99082462D01*
X161344419Y-99062250D01*
X161339203Y-99041426D01*
X161336053Y-99020191D01*
X161335000Y-98998750D01*
X161335000Y-98486250D01*
X161336053Y-98464809D01*
X161339203Y-98443574D01*
X161344419Y-98422750D01*
X161351651Y-98402538D01*
X161360830Y-98383132D01*
X161371866Y-98364719D01*
X161384654Y-98347476D01*
X161399070Y-98331570D01*
X161414976Y-98317154D01*
X161432219Y-98304366D01*
X161450632Y-98293330D01*
X161470038Y-98284151D01*
X161490250Y-98276919D01*
X161511074Y-98271703D01*
X161532309Y-98268553D01*
X161553750Y-98267500D01*
X161991250Y-98267500D01*
X162012691Y-98268553D01*
G37*
G04 #@! TD.AperFunction*
G04 #@! TA.AperFunction,SMDPad,CuDef*
G36*
X162012691Y-99729053D02*
G01*
X162033926Y-99732203D01*
X162054750Y-99737419D01*
X162074962Y-99744651D01*
X162094368Y-99753830D01*
X162112781Y-99764866D01*
X162130024Y-99777654D01*
X162145930Y-99792070D01*
X162160346Y-99807976D01*
X162173134Y-99825219D01*
X162184170Y-99843632D01*
X162193349Y-99863038D01*
X162200581Y-99883250D01*
X162205797Y-99904074D01*
X162208947Y-99925309D01*
X162210000Y-99946750D01*
X162210000Y-100459250D01*
X162208947Y-100480691D01*
X162205797Y-100501926D01*
X162200581Y-100522750D01*
X162193349Y-100542962D01*
X162184170Y-100562368D01*
X162173134Y-100580781D01*
X162160346Y-100598024D01*
X162145930Y-100613930D01*
X162130024Y-100628346D01*
X162112781Y-100641134D01*
X162094368Y-100652170D01*
X162074962Y-100661349D01*
X162054750Y-100668581D01*
X162033926Y-100673797D01*
X162012691Y-100676947D01*
X161991250Y-100678000D01*
X161553750Y-100678000D01*
X161532309Y-100676947D01*
X161511074Y-100673797D01*
X161490250Y-100668581D01*
X161470038Y-100661349D01*
X161450632Y-100652170D01*
X161432219Y-100641134D01*
X161414976Y-100628346D01*
X161399070Y-100613930D01*
X161384654Y-100598024D01*
X161371866Y-100580781D01*
X161360830Y-100562368D01*
X161351651Y-100542962D01*
X161344419Y-100522750D01*
X161339203Y-100501926D01*
X161336053Y-100480691D01*
X161335000Y-100459250D01*
X161335000Y-99946750D01*
X161336053Y-99925309D01*
X161339203Y-99904074D01*
X161344419Y-99883250D01*
X161351651Y-99863038D01*
X161360830Y-99843632D01*
X161371866Y-99825219D01*
X161384654Y-99807976D01*
X161399070Y-99792070D01*
X161414976Y-99777654D01*
X161432219Y-99764866D01*
X161450632Y-99753830D01*
X161470038Y-99744651D01*
X161490250Y-99737419D01*
X161511074Y-99732203D01*
X161532309Y-99729053D01*
X161553750Y-99728000D01*
X161991250Y-99728000D01*
X162012691Y-99729053D01*
G37*
G04 #@! TD.AperFunction*
G04 #@! TA.AperFunction,SMDPad,CuDef*
G36*
X163587691Y-99729053D02*
G01*
X163608926Y-99732203D01*
X163629750Y-99737419D01*
X163649962Y-99744651D01*
X163669368Y-99753830D01*
X163687781Y-99764866D01*
X163705024Y-99777654D01*
X163720930Y-99792070D01*
X163735346Y-99807976D01*
X163748134Y-99825219D01*
X163759170Y-99843632D01*
X163768349Y-99863038D01*
X163775581Y-99883250D01*
X163780797Y-99904074D01*
X163783947Y-99925309D01*
X163785000Y-99946750D01*
X163785000Y-100459250D01*
X163783947Y-100480691D01*
X163780797Y-100501926D01*
X163775581Y-100522750D01*
X163768349Y-100542962D01*
X163759170Y-100562368D01*
X163748134Y-100580781D01*
X163735346Y-100598024D01*
X163720930Y-100613930D01*
X163705024Y-100628346D01*
X163687781Y-100641134D01*
X163669368Y-100652170D01*
X163649962Y-100661349D01*
X163629750Y-100668581D01*
X163608926Y-100673797D01*
X163587691Y-100676947D01*
X163566250Y-100678000D01*
X163128750Y-100678000D01*
X163107309Y-100676947D01*
X163086074Y-100673797D01*
X163065250Y-100668581D01*
X163045038Y-100661349D01*
X163025632Y-100652170D01*
X163007219Y-100641134D01*
X162989976Y-100628346D01*
X162974070Y-100613930D01*
X162959654Y-100598024D01*
X162946866Y-100580781D01*
X162935830Y-100562368D01*
X162926651Y-100542962D01*
X162919419Y-100522750D01*
X162914203Y-100501926D01*
X162911053Y-100480691D01*
X162910000Y-100459250D01*
X162910000Y-99946750D01*
X162911053Y-99925309D01*
X162914203Y-99904074D01*
X162919419Y-99883250D01*
X162926651Y-99863038D01*
X162935830Y-99843632D01*
X162946866Y-99825219D01*
X162959654Y-99807976D01*
X162974070Y-99792070D01*
X162989976Y-99777654D01*
X163007219Y-99764866D01*
X163025632Y-99753830D01*
X163045038Y-99744651D01*
X163065250Y-99737419D01*
X163086074Y-99732203D01*
X163107309Y-99729053D01*
X163128750Y-99728000D01*
X163566250Y-99728000D01*
X163587691Y-99729053D01*
G37*
G04 #@! TD.AperFunction*
G04 #@! TA.AperFunction,SMDPad,CuDef*
G36*
X165123691Y-94712053D02*
G01*
X165144926Y-94715203D01*
X165165750Y-94720419D01*
X165185962Y-94727651D01*
X165205368Y-94736830D01*
X165223781Y-94747866D01*
X165241024Y-94760654D01*
X165256930Y-94775070D01*
X165271346Y-94790976D01*
X165284134Y-94808219D01*
X165295170Y-94826632D01*
X165304349Y-94846038D01*
X165311581Y-94866250D01*
X165316797Y-94887074D01*
X165319947Y-94908309D01*
X165321000Y-94929750D01*
X165321000Y-95367250D01*
X165319947Y-95388691D01*
X165316797Y-95409926D01*
X165311581Y-95430750D01*
X165304349Y-95450962D01*
X165295170Y-95470368D01*
X165284134Y-95488781D01*
X165271346Y-95506024D01*
X165256930Y-95521930D01*
X165241024Y-95536346D01*
X165223781Y-95549134D01*
X165205368Y-95560170D01*
X165185962Y-95569349D01*
X165165750Y-95576581D01*
X165144926Y-95581797D01*
X165123691Y-95584947D01*
X165102250Y-95586000D01*
X164589750Y-95586000D01*
X164568309Y-95584947D01*
X164547074Y-95581797D01*
X164526250Y-95576581D01*
X164506038Y-95569349D01*
X164486632Y-95560170D01*
X164468219Y-95549134D01*
X164450976Y-95536346D01*
X164435070Y-95521930D01*
X164420654Y-95506024D01*
X164407866Y-95488781D01*
X164396830Y-95470368D01*
X164387651Y-95450962D01*
X164380419Y-95430750D01*
X164375203Y-95409926D01*
X164372053Y-95388691D01*
X164371000Y-95367250D01*
X164371000Y-94929750D01*
X164372053Y-94908309D01*
X164375203Y-94887074D01*
X164380419Y-94866250D01*
X164387651Y-94846038D01*
X164396830Y-94826632D01*
X164407866Y-94808219D01*
X164420654Y-94790976D01*
X164435070Y-94775070D01*
X164450976Y-94760654D01*
X164468219Y-94747866D01*
X164486632Y-94736830D01*
X164506038Y-94727651D01*
X164526250Y-94720419D01*
X164547074Y-94715203D01*
X164568309Y-94712053D01*
X164589750Y-94711000D01*
X165102250Y-94711000D01*
X165123691Y-94712053D01*
G37*
G04 #@! TD.AperFunction*
G04 #@! TA.AperFunction,SMDPad,CuDef*
G36*
X165123691Y-93137053D02*
G01*
X165144926Y-93140203D01*
X165165750Y-93145419D01*
X165185962Y-93152651D01*
X165205368Y-93161830D01*
X165223781Y-93172866D01*
X165241024Y-93185654D01*
X165256930Y-93200070D01*
X165271346Y-93215976D01*
X165284134Y-93233219D01*
X165295170Y-93251632D01*
X165304349Y-93271038D01*
X165311581Y-93291250D01*
X165316797Y-93312074D01*
X165319947Y-93333309D01*
X165321000Y-93354750D01*
X165321000Y-93792250D01*
X165319947Y-93813691D01*
X165316797Y-93834926D01*
X165311581Y-93855750D01*
X165304349Y-93875962D01*
X165295170Y-93895368D01*
X165284134Y-93913781D01*
X165271346Y-93931024D01*
X165256930Y-93946930D01*
X165241024Y-93961346D01*
X165223781Y-93974134D01*
X165205368Y-93985170D01*
X165185962Y-93994349D01*
X165165750Y-94001581D01*
X165144926Y-94006797D01*
X165123691Y-94009947D01*
X165102250Y-94011000D01*
X164589750Y-94011000D01*
X164568309Y-94009947D01*
X164547074Y-94006797D01*
X164526250Y-94001581D01*
X164506038Y-93994349D01*
X164486632Y-93985170D01*
X164468219Y-93974134D01*
X164450976Y-93961346D01*
X164435070Y-93946930D01*
X164420654Y-93931024D01*
X164407866Y-93913781D01*
X164396830Y-93895368D01*
X164387651Y-93875962D01*
X164380419Y-93855750D01*
X164375203Y-93834926D01*
X164372053Y-93813691D01*
X164371000Y-93792250D01*
X164371000Y-93354750D01*
X164372053Y-93333309D01*
X164375203Y-93312074D01*
X164380419Y-93291250D01*
X164387651Y-93271038D01*
X164396830Y-93251632D01*
X164407866Y-93233219D01*
X164420654Y-93215976D01*
X164435070Y-93200070D01*
X164450976Y-93185654D01*
X164468219Y-93172866D01*
X164486632Y-93161830D01*
X164506038Y-93152651D01*
X164526250Y-93145419D01*
X164547074Y-93140203D01*
X164568309Y-93137053D01*
X164589750Y-93136000D01*
X165102250Y-93136000D01*
X165123691Y-93137053D01*
G37*
G04 #@! TD.AperFunction*
G04 #@! TA.AperFunction,SMDPad,CuDef*
G36*
X162012691Y-101253053D02*
G01*
X162033926Y-101256203D01*
X162054750Y-101261419D01*
X162074962Y-101268651D01*
X162094368Y-101277830D01*
X162112781Y-101288866D01*
X162130024Y-101301654D01*
X162145930Y-101316070D01*
X162160346Y-101331976D01*
X162173134Y-101349219D01*
X162184170Y-101367632D01*
X162193349Y-101387038D01*
X162200581Y-101407250D01*
X162205797Y-101428074D01*
X162208947Y-101449309D01*
X162210000Y-101470750D01*
X162210000Y-101983250D01*
X162208947Y-102004691D01*
X162205797Y-102025926D01*
X162200581Y-102046750D01*
X162193349Y-102066962D01*
X162184170Y-102086368D01*
X162173134Y-102104781D01*
X162160346Y-102122024D01*
X162145930Y-102137930D01*
X162130024Y-102152346D01*
X162112781Y-102165134D01*
X162094368Y-102176170D01*
X162074962Y-102185349D01*
X162054750Y-102192581D01*
X162033926Y-102197797D01*
X162012691Y-102200947D01*
X161991250Y-102202000D01*
X161553750Y-102202000D01*
X161532309Y-102200947D01*
X161511074Y-102197797D01*
X161490250Y-102192581D01*
X161470038Y-102185349D01*
X161450632Y-102176170D01*
X161432219Y-102165134D01*
X161414976Y-102152346D01*
X161399070Y-102137930D01*
X161384654Y-102122024D01*
X161371866Y-102104781D01*
X161360830Y-102086368D01*
X161351651Y-102066962D01*
X161344419Y-102046750D01*
X161339203Y-102025926D01*
X161336053Y-102004691D01*
X161335000Y-101983250D01*
X161335000Y-101470750D01*
X161336053Y-101449309D01*
X161339203Y-101428074D01*
X161344419Y-101407250D01*
X161351651Y-101387038D01*
X161360830Y-101367632D01*
X161371866Y-101349219D01*
X161384654Y-101331976D01*
X161399070Y-101316070D01*
X161414976Y-101301654D01*
X161432219Y-101288866D01*
X161450632Y-101277830D01*
X161470038Y-101268651D01*
X161490250Y-101261419D01*
X161511074Y-101256203D01*
X161532309Y-101253053D01*
X161553750Y-101252000D01*
X161991250Y-101252000D01*
X162012691Y-101253053D01*
G37*
G04 #@! TD.AperFunction*
G04 #@! TA.AperFunction,SMDPad,CuDef*
G36*
X163587691Y-101253053D02*
G01*
X163608926Y-101256203D01*
X163629750Y-101261419D01*
X163649962Y-101268651D01*
X163669368Y-101277830D01*
X163687781Y-101288866D01*
X163705024Y-101301654D01*
X163720930Y-101316070D01*
X163735346Y-101331976D01*
X163748134Y-101349219D01*
X163759170Y-101367632D01*
X163768349Y-101387038D01*
X163775581Y-101407250D01*
X163780797Y-101428074D01*
X163783947Y-101449309D01*
X163785000Y-101470750D01*
X163785000Y-101983250D01*
X163783947Y-102004691D01*
X163780797Y-102025926D01*
X163775581Y-102046750D01*
X163768349Y-102066962D01*
X163759170Y-102086368D01*
X163748134Y-102104781D01*
X163735346Y-102122024D01*
X163720930Y-102137930D01*
X163705024Y-102152346D01*
X163687781Y-102165134D01*
X163669368Y-102176170D01*
X163649962Y-102185349D01*
X163629750Y-102192581D01*
X163608926Y-102197797D01*
X163587691Y-102200947D01*
X163566250Y-102202000D01*
X163128750Y-102202000D01*
X163107309Y-102200947D01*
X163086074Y-102197797D01*
X163065250Y-102192581D01*
X163045038Y-102185349D01*
X163025632Y-102176170D01*
X163007219Y-102165134D01*
X162989976Y-102152346D01*
X162974070Y-102137930D01*
X162959654Y-102122024D01*
X162946866Y-102104781D01*
X162935830Y-102086368D01*
X162926651Y-102066962D01*
X162919419Y-102046750D01*
X162914203Y-102025926D01*
X162911053Y-102004691D01*
X162910000Y-101983250D01*
X162910000Y-101470750D01*
X162911053Y-101449309D01*
X162914203Y-101428074D01*
X162919419Y-101407250D01*
X162926651Y-101387038D01*
X162935830Y-101367632D01*
X162946866Y-101349219D01*
X162959654Y-101331976D01*
X162974070Y-101316070D01*
X162989976Y-101301654D01*
X163007219Y-101288866D01*
X163025632Y-101277830D01*
X163045038Y-101268651D01*
X163065250Y-101261419D01*
X163086074Y-101256203D01*
X163107309Y-101253053D01*
X163128750Y-101252000D01*
X163566250Y-101252000D01*
X163587691Y-101253053D01*
G37*
G04 #@! TD.AperFunction*
G04 #@! TA.AperFunction,SMDPad,CuDef*
G36*
X154773691Y-94585553D02*
G01*
X154794926Y-94588703D01*
X154815750Y-94593919D01*
X154835962Y-94601151D01*
X154855368Y-94610330D01*
X154873781Y-94621366D01*
X154891024Y-94634154D01*
X154906930Y-94648570D01*
X154921346Y-94664476D01*
X154934134Y-94681719D01*
X154945170Y-94700132D01*
X154954349Y-94719538D01*
X154961581Y-94739750D01*
X154966797Y-94760574D01*
X154969947Y-94781809D01*
X154971000Y-94803250D01*
X154971000Y-95315750D01*
X154969947Y-95337191D01*
X154966797Y-95358426D01*
X154961581Y-95379250D01*
X154954349Y-95399462D01*
X154945170Y-95418868D01*
X154934134Y-95437281D01*
X154921346Y-95454524D01*
X154906930Y-95470430D01*
X154891024Y-95484846D01*
X154873781Y-95497634D01*
X154855368Y-95508670D01*
X154835962Y-95517849D01*
X154815750Y-95525081D01*
X154794926Y-95530297D01*
X154773691Y-95533447D01*
X154752250Y-95534500D01*
X154314750Y-95534500D01*
X154293309Y-95533447D01*
X154272074Y-95530297D01*
X154251250Y-95525081D01*
X154231038Y-95517849D01*
X154211632Y-95508670D01*
X154193219Y-95497634D01*
X154175976Y-95484846D01*
X154160070Y-95470430D01*
X154145654Y-95454524D01*
X154132866Y-95437281D01*
X154121830Y-95418868D01*
X154112651Y-95399462D01*
X154105419Y-95379250D01*
X154100203Y-95358426D01*
X154097053Y-95337191D01*
X154096000Y-95315750D01*
X154096000Y-94803250D01*
X154097053Y-94781809D01*
X154100203Y-94760574D01*
X154105419Y-94739750D01*
X154112651Y-94719538D01*
X154121830Y-94700132D01*
X154132866Y-94681719D01*
X154145654Y-94664476D01*
X154160070Y-94648570D01*
X154175976Y-94634154D01*
X154193219Y-94621366D01*
X154211632Y-94610330D01*
X154231038Y-94601151D01*
X154251250Y-94593919D01*
X154272074Y-94588703D01*
X154293309Y-94585553D01*
X154314750Y-94584500D01*
X154752250Y-94584500D01*
X154773691Y-94585553D01*
G37*
G04 #@! TD.AperFunction*
G04 #@! TA.AperFunction,SMDPad,CuDef*
G36*
X156348691Y-94585553D02*
G01*
X156369926Y-94588703D01*
X156390750Y-94593919D01*
X156410962Y-94601151D01*
X156430368Y-94610330D01*
X156448781Y-94621366D01*
X156466024Y-94634154D01*
X156481930Y-94648570D01*
X156496346Y-94664476D01*
X156509134Y-94681719D01*
X156520170Y-94700132D01*
X156529349Y-94719538D01*
X156536581Y-94739750D01*
X156541797Y-94760574D01*
X156544947Y-94781809D01*
X156546000Y-94803250D01*
X156546000Y-95315750D01*
X156544947Y-95337191D01*
X156541797Y-95358426D01*
X156536581Y-95379250D01*
X156529349Y-95399462D01*
X156520170Y-95418868D01*
X156509134Y-95437281D01*
X156496346Y-95454524D01*
X156481930Y-95470430D01*
X156466024Y-95484846D01*
X156448781Y-95497634D01*
X156430368Y-95508670D01*
X156410962Y-95517849D01*
X156390750Y-95525081D01*
X156369926Y-95530297D01*
X156348691Y-95533447D01*
X156327250Y-95534500D01*
X155889750Y-95534500D01*
X155868309Y-95533447D01*
X155847074Y-95530297D01*
X155826250Y-95525081D01*
X155806038Y-95517849D01*
X155786632Y-95508670D01*
X155768219Y-95497634D01*
X155750976Y-95484846D01*
X155735070Y-95470430D01*
X155720654Y-95454524D01*
X155707866Y-95437281D01*
X155696830Y-95418868D01*
X155687651Y-95399462D01*
X155680419Y-95379250D01*
X155675203Y-95358426D01*
X155672053Y-95337191D01*
X155671000Y-95315750D01*
X155671000Y-94803250D01*
X155672053Y-94781809D01*
X155675203Y-94760574D01*
X155680419Y-94739750D01*
X155687651Y-94719538D01*
X155696830Y-94700132D01*
X155707866Y-94681719D01*
X155720654Y-94664476D01*
X155735070Y-94648570D01*
X155750976Y-94634154D01*
X155768219Y-94621366D01*
X155786632Y-94610330D01*
X155806038Y-94601151D01*
X155826250Y-94593919D01*
X155847074Y-94588703D01*
X155868309Y-94585553D01*
X155889750Y-94584500D01*
X156327250Y-94584500D01*
X156348691Y-94585553D01*
G37*
G04 #@! TD.AperFunction*
D17*
X163025000Y-105344000D03*
X163025000Y-103444000D03*
X160825000Y-103444000D03*
D16*
X160825000Y-105164000D03*
D20*
X134473000Y-97885000D03*
X134473000Y-102725000D03*
D21*
X131473000Y-97575000D03*
X131473000Y-103035000D03*
G04 #@! TA.AperFunction,SMDPad,CuDef*
D19*
G36*
X157186691Y-103412053D02*
G01*
X157207926Y-103415203D01*
X157228750Y-103420419D01*
X157248962Y-103427651D01*
X157268368Y-103436830D01*
X157286781Y-103447866D01*
X157304024Y-103460654D01*
X157319930Y-103475070D01*
X157334346Y-103490976D01*
X157347134Y-103508219D01*
X157358170Y-103526632D01*
X157367349Y-103546038D01*
X157374581Y-103566250D01*
X157379797Y-103587074D01*
X157382947Y-103608309D01*
X157384000Y-103629750D01*
X157384000Y-104142250D01*
X157382947Y-104163691D01*
X157379797Y-104184926D01*
X157374581Y-104205750D01*
X157367349Y-104225962D01*
X157358170Y-104245368D01*
X157347134Y-104263781D01*
X157334346Y-104281024D01*
X157319930Y-104296930D01*
X157304024Y-104311346D01*
X157286781Y-104324134D01*
X157268368Y-104335170D01*
X157248962Y-104344349D01*
X157228750Y-104351581D01*
X157207926Y-104356797D01*
X157186691Y-104359947D01*
X157165250Y-104361000D01*
X156727750Y-104361000D01*
X156706309Y-104359947D01*
X156685074Y-104356797D01*
X156664250Y-104351581D01*
X156644038Y-104344349D01*
X156624632Y-104335170D01*
X156606219Y-104324134D01*
X156588976Y-104311346D01*
X156573070Y-104296930D01*
X156558654Y-104281024D01*
X156545866Y-104263781D01*
X156534830Y-104245368D01*
X156525651Y-104225962D01*
X156518419Y-104205750D01*
X156513203Y-104184926D01*
X156510053Y-104163691D01*
X156509000Y-104142250D01*
X156509000Y-103629750D01*
X156510053Y-103608309D01*
X156513203Y-103587074D01*
X156518419Y-103566250D01*
X156525651Y-103546038D01*
X156534830Y-103526632D01*
X156545866Y-103508219D01*
X156558654Y-103490976D01*
X156573070Y-103475070D01*
X156588976Y-103460654D01*
X156606219Y-103447866D01*
X156624632Y-103436830D01*
X156644038Y-103427651D01*
X156664250Y-103420419D01*
X156685074Y-103415203D01*
X156706309Y-103412053D01*
X156727750Y-103411000D01*
X157165250Y-103411000D01*
X157186691Y-103412053D01*
G37*
G04 #@! TD.AperFunction*
G04 #@! TA.AperFunction,SMDPad,CuDef*
G36*
X158761691Y-103412053D02*
G01*
X158782926Y-103415203D01*
X158803750Y-103420419D01*
X158823962Y-103427651D01*
X158843368Y-103436830D01*
X158861781Y-103447866D01*
X158879024Y-103460654D01*
X158894930Y-103475070D01*
X158909346Y-103490976D01*
X158922134Y-103508219D01*
X158933170Y-103526632D01*
X158942349Y-103546038D01*
X158949581Y-103566250D01*
X158954797Y-103587074D01*
X158957947Y-103608309D01*
X158959000Y-103629750D01*
X158959000Y-104142250D01*
X158957947Y-104163691D01*
X158954797Y-104184926D01*
X158949581Y-104205750D01*
X158942349Y-104225962D01*
X158933170Y-104245368D01*
X158922134Y-104263781D01*
X158909346Y-104281024D01*
X158894930Y-104296930D01*
X158879024Y-104311346D01*
X158861781Y-104324134D01*
X158843368Y-104335170D01*
X158823962Y-104344349D01*
X158803750Y-104351581D01*
X158782926Y-104356797D01*
X158761691Y-104359947D01*
X158740250Y-104361000D01*
X158302750Y-104361000D01*
X158281309Y-104359947D01*
X158260074Y-104356797D01*
X158239250Y-104351581D01*
X158219038Y-104344349D01*
X158199632Y-104335170D01*
X158181219Y-104324134D01*
X158163976Y-104311346D01*
X158148070Y-104296930D01*
X158133654Y-104281024D01*
X158120866Y-104263781D01*
X158109830Y-104245368D01*
X158100651Y-104225962D01*
X158093419Y-104205750D01*
X158088203Y-104184926D01*
X158085053Y-104163691D01*
X158084000Y-104142250D01*
X158084000Y-103629750D01*
X158085053Y-103608309D01*
X158088203Y-103587074D01*
X158093419Y-103566250D01*
X158100651Y-103546038D01*
X158109830Y-103526632D01*
X158120866Y-103508219D01*
X158133654Y-103490976D01*
X158148070Y-103475070D01*
X158163976Y-103460654D01*
X158181219Y-103447866D01*
X158199632Y-103436830D01*
X158219038Y-103427651D01*
X158239250Y-103420419D01*
X158260074Y-103415203D01*
X158281309Y-103412053D01*
X158302750Y-103411000D01*
X158740250Y-103411000D01*
X158761691Y-103412053D01*
G37*
G04 #@! TD.AperFunction*
G04 #@! TA.AperFunction,SMDPad,CuDef*
G36*
X163599691Y-93886553D02*
G01*
X163620926Y-93889703D01*
X163641750Y-93894919D01*
X163661962Y-93902151D01*
X163681368Y-93911330D01*
X163699781Y-93922366D01*
X163717024Y-93935154D01*
X163732930Y-93949570D01*
X163747346Y-93965476D01*
X163760134Y-93982719D01*
X163771170Y-94001132D01*
X163780349Y-94020538D01*
X163787581Y-94040750D01*
X163792797Y-94061574D01*
X163795947Y-94082809D01*
X163797000Y-94104250D01*
X163797000Y-94541750D01*
X163795947Y-94563191D01*
X163792797Y-94584426D01*
X163787581Y-94605250D01*
X163780349Y-94625462D01*
X163771170Y-94644868D01*
X163760134Y-94663281D01*
X163747346Y-94680524D01*
X163732930Y-94696430D01*
X163717024Y-94710846D01*
X163699781Y-94723634D01*
X163681368Y-94734670D01*
X163661962Y-94743849D01*
X163641750Y-94751081D01*
X163620926Y-94756297D01*
X163599691Y-94759447D01*
X163578250Y-94760500D01*
X163065750Y-94760500D01*
X163044309Y-94759447D01*
X163023074Y-94756297D01*
X163002250Y-94751081D01*
X162982038Y-94743849D01*
X162962632Y-94734670D01*
X162944219Y-94723634D01*
X162926976Y-94710846D01*
X162911070Y-94696430D01*
X162896654Y-94680524D01*
X162883866Y-94663281D01*
X162872830Y-94644868D01*
X162863651Y-94625462D01*
X162856419Y-94605250D01*
X162851203Y-94584426D01*
X162848053Y-94563191D01*
X162847000Y-94541750D01*
X162847000Y-94104250D01*
X162848053Y-94082809D01*
X162851203Y-94061574D01*
X162856419Y-94040750D01*
X162863651Y-94020538D01*
X162872830Y-94001132D01*
X162883866Y-93982719D01*
X162896654Y-93965476D01*
X162911070Y-93949570D01*
X162926976Y-93935154D01*
X162944219Y-93922366D01*
X162962632Y-93911330D01*
X162982038Y-93902151D01*
X163002250Y-93894919D01*
X163023074Y-93889703D01*
X163044309Y-93886553D01*
X163065750Y-93885500D01*
X163578250Y-93885500D01*
X163599691Y-93886553D01*
G37*
G04 #@! TD.AperFunction*
G04 #@! TA.AperFunction,SMDPad,CuDef*
G36*
X163599691Y-92311553D02*
G01*
X163620926Y-92314703D01*
X163641750Y-92319919D01*
X163661962Y-92327151D01*
X163681368Y-92336330D01*
X163699781Y-92347366D01*
X163717024Y-92360154D01*
X163732930Y-92374570D01*
X163747346Y-92390476D01*
X163760134Y-92407719D01*
X163771170Y-92426132D01*
X163780349Y-92445538D01*
X163787581Y-92465750D01*
X163792797Y-92486574D01*
X163795947Y-92507809D01*
X163797000Y-92529250D01*
X163797000Y-92966750D01*
X163795947Y-92988191D01*
X163792797Y-93009426D01*
X163787581Y-93030250D01*
X163780349Y-93050462D01*
X163771170Y-93069868D01*
X163760134Y-93088281D01*
X163747346Y-93105524D01*
X163732930Y-93121430D01*
X163717024Y-93135846D01*
X163699781Y-93148634D01*
X163681368Y-93159670D01*
X163661962Y-93168849D01*
X163641750Y-93176081D01*
X163620926Y-93181297D01*
X163599691Y-93184447D01*
X163578250Y-93185500D01*
X163065750Y-93185500D01*
X163044309Y-93184447D01*
X163023074Y-93181297D01*
X163002250Y-93176081D01*
X162982038Y-93168849D01*
X162962632Y-93159670D01*
X162944219Y-93148634D01*
X162926976Y-93135846D01*
X162911070Y-93121430D01*
X162896654Y-93105524D01*
X162883866Y-93088281D01*
X162872830Y-93069868D01*
X162863651Y-93050462D01*
X162856419Y-93030250D01*
X162851203Y-93009426D01*
X162848053Y-92988191D01*
X162847000Y-92966750D01*
X162847000Y-92529250D01*
X162848053Y-92507809D01*
X162851203Y-92486574D01*
X162856419Y-92465750D01*
X162863651Y-92445538D01*
X162872830Y-92426132D01*
X162883866Y-92407719D01*
X162896654Y-92390476D01*
X162911070Y-92374570D01*
X162926976Y-92360154D01*
X162944219Y-92347366D01*
X162962632Y-92336330D01*
X162982038Y-92327151D01*
X163002250Y-92319919D01*
X163023074Y-92314703D01*
X163044309Y-92311553D01*
X163065750Y-92310500D01*
X163578250Y-92310500D01*
X163599691Y-92311553D01*
G37*
G04 #@! TD.AperFunction*
G04 #@! TA.AperFunction,SMDPad,CuDef*
G36*
X163599691Y-96871053D02*
G01*
X163620926Y-96874203D01*
X163641750Y-96879419D01*
X163661962Y-96886651D01*
X163681368Y-96895830D01*
X163699781Y-96906866D01*
X163717024Y-96919654D01*
X163732930Y-96934070D01*
X163747346Y-96949976D01*
X163760134Y-96967219D01*
X163771170Y-96985632D01*
X163780349Y-97005038D01*
X163787581Y-97025250D01*
X163792797Y-97046074D01*
X163795947Y-97067309D01*
X163797000Y-97088750D01*
X163797000Y-97526250D01*
X163795947Y-97547691D01*
X163792797Y-97568926D01*
X163787581Y-97589750D01*
X163780349Y-97609962D01*
X163771170Y-97629368D01*
X163760134Y-97647781D01*
X163747346Y-97665024D01*
X163732930Y-97680930D01*
X163717024Y-97695346D01*
X163699781Y-97708134D01*
X163681368Y-97719170D01*
X163661962Y-97728349D01*
X163641750Y-97735581D01*
X163620926Y-97740797D01*
X163599691Y-97743947D01*
X163578250Y-97745000D01*
X163065750Y-97745000D01*
X163044309Y-97743947D01*
X163023074Y-97740797D01*
X163002250Y-97735581D01*
X162982038Y-97728349D01*
X162962632Y-97719170D01*
X162944219Y-97708134D01*
X162926976Y-97695346D01*
X162911070Y-97680930D01*
X162896654Y-97665024D01*
X162883866Y-97647781D01*
X162872830Y-97629368D01*
X162863651Y-97609962D01*
X162856419Y-97589750D01*
X162851203Y-97568926D01*
X162848053Y-97547691D01*
X162847000Y-97526250D01*
X162847000Y-97088750D01*
X162848053Y-97067309D01*
X162851203Y-97046074D01*
X162856419Y-97025250D01*
X162863651Y-97005038D01*
X162872830Y-96985632D01*
X162883866Y-96967219D01*
X162896654Y-96949976D01*
X162911070Y-96934070D01*
X162926976Y-96919654D01*
X162944219Y-96906866D01*
X162962632Y-96895830D01*
X162982038Y-96886651D01*
X163002250Y-96879419D01*
X163023074Y-96874203D01*
X163044309Y-96871053D01*
X163065750Y-96870000D01*
X163578250Y-96870000D01*
X163599691Y-96871053D01*
G37*
G04 #@! TD.AperFunction*
G04 #@! TA.AperFunction,SMDPad,CuDef*
G36*
X163599691Y-95296053D02*
G01*
X163620926Y-95299203D01*
X163641750Y-95304419D01*
X163661962Y-95311651D01*
X163681368Y-95320830D01*
X163699781Y-95331866D01*
X163717024Y-95344654D01*
X163732930Y-95359070D01*
X163747346Y-95374976D01*
X163760134Y-95392219D01*
X163771170Y-95410632D01*
X163780349Y-95430038D01*
X163787581Y-95450250D01*
X163792797Y-95471074D01*
X163795947Y-95492309D01*
X163797000Y-95513750D01*
X163797000Y-95951250D01*
X163795947Y-95972691D01*
X163792797Y-95993926D01*
X163787581Y-96014750D01*
X163780349Y-96034962D01*
X163771170Y-96054368D01*
X163760134Y-96072781D01*
X163747346Y-96090024D01*
X163732930Y-96105930D01*
X163717024Y-96120346D01*
X163699781Y-96133134D01*
X163681368Y-96144170D01*
X163661962Y-96153349D01*
X163641750Y-96160581D01*
X163620926Y-96165797D01*
X163599691Y-96168947D01*
X163578250Y-96170000D01*
X163065750Y-96170000D01*
X163044309Y-96168947D01*
X163023074Y-96165797D01*
X163002250Y-96160581D01*
X162982038Y-96153349D01*
X162962632Y-96144170D01*
X162944219Y-96133134D01*
X162926976Y-96120346D01*
X162911070Y-96105930D01*
X162896654Y-96090024D01*
X162883866Y-96072781D01*
X162872830Y-96054368D01*
X162863651Y-96034962D01*
X162856419Y-96014750D01*
X162851203Y-95993926D01*
X162848053Y-95972691D01*
X162847000Y-95951250D01*
X162847000Y-95513750D01*
X162848053Y-95492309D01*
X162851203Y-95471074D01*
X162856419Y-95450250D01*
X162863651Y-95430038D01*
X162872830Y-95410632D01*
X162883866Y-95392219D01*
X162896654Y-95374976D01*
X162911070Y-95359070D01*
X162926976Y-95344654D01*
X162944219Y-95331866D01*
X162962632Y-95320830D01*
X162982038Y-95311651D01*
X163002250Y-95304419D01*
X163023074Y-95299203D01*
X163044309Y-95296053D01*
X163065750Y-95295000D01*
X163578250Y-95295000D01*
X163599691Y-95296053D01*
G37*
G04 #@! TD.AperFunction*
G04 #@! TA.AperFunction,SMDPad,CuDef*
G36*
X162075691Y-95296053D02*
G01*
X162096926Y-95299203D01*
X162117750Y-95304419D01*
X162137962Y-95311651D01*
X162157368Y-95320830D01*
X162175781Y-95331866D01*
X162193024Y-95344654D01*
X162208930Y-95359070D01*
X162223346Y-95374976D01*
X162236134Y-95392219D01*
X162247170Y-95410632D01*
X162256349Y-95430038D01*
X162263581Y-95450250D01*
X162268797Y-95471074D01*
X162271947Y-95492309D01*
X162273000Y-95513750D01*
X162273000Y-95951250D01*
X162271947Y-95972691D01*
X162268797Y-95993926D01*
X162263581Y-96014750D01*
X162256349Y-96034962D01*
X162247170Y-96054368D01*
X162236134Y-96072781D01*
X162223346Y-96090024D01*
X162208930Y-96105930D01*
X162193024Y-96120346D01*
X162175781Y-96133134D01*
X162157368Y-96144170D01*
X162137962Y-96153349D01*
X162117750Y-96160581D01*
X162096926Y-96165797D01*
X162075691Y-96168947D01*
X162054250Y-96170000D01*
X161541750Y-96170000D01*
X161520309Y-96168947D01*
X161499074Y-96165797D01*
X161478250Y-96160581D01*
X161458038Y-96153349D01*
X161438632Y-96144170D01*
X161420219Y-96133134D01*
X161402976Y-96120346D01*
X161387070Y-96105930D01*
X161372654Y-96090024D01*
X161359866Y-96072781D01*
X161348830Y-96054368D01*
X161339651Y-96034962D01*
X161332419Y-96014750D01*
X161327203Y-95993926D01*
X161324053Y-95972691D01*
X161323000Y-95951250D01*
X161323000Y-95513750D01*
X161324053Y-95492309D01*
X161327203Y-95471074D01*
X161332419Y-95450250D01*
X161339651Y-95430038D01*
X161348830Y-95410632D01*
X161359866Y-95392219D01*
X161372654Y-95374976D01*
X161387070Y-95359070D01*
X161402976Y-95344654D01*
X161420219Y-95331866D01*
X161438632Y-95320830D01*
X161458038Y-95311651D01*
X161478250Y-95304419D01*
X161499074Y-95299203D01*
X161520309Y-95296053D01*
X161541750Y-95295000D01*
X162054250Y-95295000D01*
X162075691Y-95296053D01*
G37*
G04 #@! TD.AperFunction*
G04 #@! TA.AperFunction,SMDPad,CuDef*
G36*
X162075691Y-96871053D02*
G01*
X162096926Y-96874203D01*
X162117750Y-96879419D01*
X162137962Y-96886651D01*
X162157368Y-96895830D01*
X162175781Y-96906866D01*
X162193024Y-96919654D01*
X162208930Y-96934070D01*
X162223346Y-96949976D01*
X162236134Y-96967219D01*
X162247170Y-96985632D01*
X162256349Y-97005038D01*
X162263581Y-97025250D01*
X162268797Y-97046074D01*
X162271947Y-97067309D01*
X162273000Y-97088750D01*
X162273000Y-97526250D01*
X162271947Y-97547691D01*
X162268797Y-97568926D01*
X162263581Y-97589750D01*
X162256349Y-97609962D01*
X162247170Y-97629368D01*
X162236134Y-97647781D01*
X162223346Y-97665024D01*
X162208930Y-97680930D01*
X162193024Y-97695346D01*
X162175781Y-97708134D01*
X162157368Y-97719170D01*
X162137962Y-97728349D01*
X162117750Y-97735581D01*
X162096926Y-97740797D01*
X162075691Y-97743947D01*
X162054250Y-97745000D01*
X161541750Y-97745000D01*
X161520309Y-97743947D01*
X161499074Y-97740797D01*
X161478250Y-97735581D01*
X161458038Y-97728349D01*
X161438632Y-97719170D01*
X161420219Y-97708134D01*
X161402976Y-97695346D01*
X161387070Y-97680930D01*
X161372654Y-97665024D01*
X161359866Y-97647781D01*
X161348830Y-97629368D01*
X161339651Y-97609962D01*
X161332419Y-97589750D01*
X161327203Y-97568926D01*
X161324053Y-97547691D01*
X161323000Y-97526250D01*
X161323000Y-97088750D01*
X161324053Y-97067309D01*
X161327203Y-97046074D01*
X161332419Y-97025250D01*
X161339651Y-97005038D01*
X161348830Y-96985632D01*
X161359866Y-96967219D01*
X161372654Y-96949976D01*
X161387070Y-96934070D01*
X161402976Y-96919654D01*
X161420219Y-96906866D01*
X161438632Y-96895830D01*
X161458038Y-96886651D01*
X161478250Y-96879419D01*
X161499074Y-96874203D01*
X161520309Y-96871053D01*
X161541750Y-96870000D01*
X162054250Y-96870000D01*
X162075691Y-96871053D01*
G37*
G04 #@! TD.AperFunction*
D22*
X177355500Y-101028500D03*
X178879500Y-101028500D03*
X178117500Y-99504500D03*
X176593500Y-99250500D03*
X178371500Y-96456500D03*
X175831500Y-101028500D03*
X172910500Y-108204000D03*
X177800000Y-104140000D03*
X174244000Y-107950000D03*
X171196000Y-106680000D03*
X174752000Y-96520000D03*
X139787669Y-99955662D03*
X160274000Y-99314000D03*
X152781000Y-92646500D03*
X148526500Y-102362000D03*
X169291000Y-99250500D03*
X169989500Y-92900500D03*
X174752000Y-93027500D03*
X168211500Y-105791000D03*
X177292000Y-94234000D03*
X171704000Y-108458000D03*
X170434000Y-108458000D03*
X177419000Y-106680000D03*
X157226000Y-105156000D03*
X165100000Y-91079989D03*
X167386000Y-94996000D03*
X156926330Y-96737010D03*
X159766000Y-105030002D03*
D23*
X172212000Y-97790000D03*
X156357989Y-98535909D03*
X143677015Y-95036015D03*
X146494500Y-107823000D03*
X137604500Y-94996000D03*
X149352000Y-98044000D03*
D22*
X145006096Y-106581021D03*
X144526000Y-101854000D03*
X142430500Y-90106500D03*
X142105284Y-94406505D03*
X143002000Y-91186000D03*
X143129000Y-106299000D03*
X144145000Y-107188000D03*
X143673990Y-104140000D03*
X140589000Y-102743000D03*
X148336000Y-107696000D03*
X147574000Y-101600000D03*
X151384000Y-101092000D03*
X155932350Y-102854938D03*
X152971500Y-93789500D03*
X141097000Y-97028000D03*
X141351000Y-99758500D03*
X156676801Y-101320219D03*
X156260003Y-100388968D03*
X142748000Y-101346000D03*
X154434960Y-93915847D03*
X154559000Y-92710000D03*
X161925000Y-94980011D03*
X167386000Y-91529998D03*
X166052500Y-94996000D03*
X151459964Y-104830955D03*
X161376915Y-107656044D03*
X150936678Y-103978784D03*
X162709995Y-107557001D03*
X168910000Y-102616000D03*
X151132250Y-102877077D03*
X168159223Y-101599428D03*
X150829294Y-101924060D03*
X163953105Y-101294194D03*
X155257500Y-96012000D03*
X159131000Y-93980000D03*
X159512000Y-101727000D03*
X166433500Y-103378000D03*
D24*
X161747000Y-100203000D02*
X161163000Y-100203000D01*
X161163000Y-100203000D02*
X160274000Y-99314000D01*
X160782000Y-98806000D02*
X160274000Y-99314000D01*
X161772500Y-98806000D02*
X160782000Y-98806000D01*
X161772500Y-100228500D02*
X161747000Y-100203000D01*
X161772500Y-101600000D02*
X161772500Y-100228500D01*
X161747000Y-98831500D02*
X161772500Y-98806000D01*
X161747000Y-100203000D02*
X161747000Y-98831500D01*
X167256000Y-94060000D02*
X169256000Y-94060000D01*
X167256000Y-106600000D02*
X169256000Y-106600000D01*
X178816000Y-94220000D02*
X177306000Y-94220000D01*
X177306000Y-94220000D02*
X177292000Y-94234000D01*
X177482500Y-106420000D02*
X178816000Y-106420000D01*
X177419000Y-106680000D02*
X177482500Y-106420000D01*
X164719000Y-93573500D02*
X164719000Y-91460989D01*
X164719000Y-91460989D02*
X165100000Y-91079989D01*
X167256000Y-94060000D02*
X167256000Y-94866000D01*
X167256000Y-94866000D02*
X167386000Y-94996000D01*
X158158000Y-97290000D02*
X157208000Y-97290000D01*
X156926330Y-97008330D02*
X156926330Y-96737010D01*
X157208000Y-97290000D02*
X156926330Y-97008330D01*
X160825000Y-105164000D02*
X159899998Y-105164000D01*
X159899998Y-105164000D02*
X159766000Y-105030002D01*
X145006096Y-106015336D02*
X145006096Y-106581021D01*
X144526000Y-101854000D02*
X145006096Y-102108000D01*
X145006096Y-102108000D02*
X145006096Y-106015336D01*
X142030501Y-94331722D02*
X142105284Y-94406505D01*
X142430500Y-90106500D02*
X142030501Y-90506499D01*
X142030501Y-90506499D02*
X142030501Y-94331722D01*
X143002000Y-91186000D02*
X143720703Y-91403010D01*
X143720703Y-91403010D02*
X162596990Y-91403010D01*
X162596990Y-91403010D02*
X163830000Y-90170000D01*
X168109002Y-110490000D02*
X166934001Y-109314999D01*
X168910000Y-110490000D02*
X168109002Y-110490000D01*
X166934001Y-109314999D02*
X143858999Y-109314999D01*
X143858999Y-109314999D02*
X143129000Y-108585000D01*
X143129000Y-106864685D02*
X143129000Y-106299000D01*
X143129000Y-108585000D02*
X143129000Y-106864685D01*
X170237991Y-109277991D02*
X167533403Y-109277991D01*
X144145000Y-107823000D02*
X144145000Y-107188000D01*
X167120401Y-108864988D02*
X145186988Y-108864988D01*
X167533403Y-109277991D02*
X167120401Y-108864988D01*
X171450000Y-110490000D02*
X170237991Y-109277991D01*
X145186988Y-108864988D02*
X144145000Y-107823000D01*
X141859000Y-107315000D02*
X141859000Y-106520675D01*
X143673990Y-104705685D02*
X143673990Y-104140000D01*
X141859000Y-106520675D02*
X143673990Y-104705685D01*
X140589000Y-103505000D02*
X141859000Y-104775000D01*
X140589000Y-102743000D02*
X140589000Y-103505000D01*
X147570000Y-107456000D02*
X148336000Y-107696000D01*
X147574000Y-101600000D02*
X147570000Y-107456000D01*
X154169412Y-101092000D02*
X155932350Y-102854938D01*
X151384000Y-101092000D02*
X154169412Y-101092000D01*
X152405815Y-93789500D02*
X152151815Y-94043500D01*
X152971500Y-93789500D02*
X152405815Y-93789500D01*
X152151815Y-94043500D02*
X143573500Y-94043500D01*
X143573500Y-94043500D02*
X142748000Y-94869000D01*
X142748000Y-94869000D02*
X142748000Y-95377000D01*
X142748000Y-95377000D02*
X141097000Y-97028000D01*
X157076800Y-100920220D02*
X156676801Y-101320219D01*
X141798590Y-99310910D02*
X156266014Y-99310910D01*
X141351000Y-99758500D02*
X141798590Y-99310910D01*
X156266014Y-99310910D02*
X157076800Y-100121696D01*
X157076800Y-100121696D02*
X157076800Y-100920220D01*
X155694318Y-100388968D02*
X156260003Y-100388968D01*
X155344318Y-100038968D02*
X155694318Y-100388968D01*
X147434098Y-100038968D02*
X155344318Y-100038968D01*
X147407811Y-100036007D02*
X147434098Y-100038968D01*
X147382843Y-100027270D02*
X147407811Y-100036007D01*
X147290195Y-99847185D02*
X147304269Y-99869583D01*
X147224124Y-99805669D02*
X147249092Y-99814406D01*
X147197838Y-99802707D02*
X147224124Y-99805669D01*
X146834098Y-99802707D02*
X147197838Y-99802707D01*
X146807811Y-99805669D02*
X146834098Y-99802707D01*
X147327666Y-99972093D02*
X147341740Y-99994491D01*
X146782843Y-99814406D02*
X146807811Y-99805669D01*
X146760445Y-99828480D02*
X146782843Y-99814406D01*
X147271490Y-99828480D02*
X147290195Y-99847185D01*
X146741740Y-99847185D02*
X146760445Y-99828480D01*
X146727666Y-99869583D02*
X146741740Y-99847185D01*
X146718929Y-99894551D02*
X146727666Y-99869583D01*
X146715968Y-99920837D02*
X146718929Y-99894551D01*
X146715968Y-100475229D02*
X146715968Y-99920837D01*
X146708446Y-100541985D02*
X146715968Y-100475229D01*
X146686258Y-100605394D02*
X146708446Y-100541985D01*
X146650517Y-100662275D02*
X146686258Y-100605394D01*
X146603014Y-100709778D02*
X146650517Y-100662275D01*
X146546133Y-100745519D02*
X146603014Y-100709778D01*
X146482724Y-100767707D02*
X146546133Y-100745519D01*
X147313006Y-99894551D02*
X147318929Y-99947125D01*
X146415968Y-100775229D02*
X146482724Y-100767707D01*
X146349211Y-100767707D02*
X146415968Y-100775229D01*
X145450517Y-100662275D02*
X145486258Y-100605394D01*
X146181418Y-100662275D02*
X146228921Y-100709778D01*
X145403014Y-100709778D02*
X145450517Y-100662275D01*
X144886258Y-100208802D02*
X144908446Y-100272211D01*
X147304269Y-99869583D02*
X147313006Y-99894551D01*
X145215968Y-100775229D02*
X145282724Y-100767707D01*
X145346133Y-100745519D02*
X145403014Y-100709778D01*
X145149211Y-100767707D02*
X145215968Y-100775229D01*
X145085802Y-100745519D02*
X145149211Y-100767707D01*
X144746133Y-100068677D02*
X144803014Y-100104418D01*
X144981418Y-100662275D02*
X145028921Y-100709778D01*
X144923489Y-100541985D02*
X144945677Y-100605394D01*
X144615968Y-100038968D02*
X144682724Y-100046489D01*
X147318929Y-99947125D02*
X147327666Y-99972093D01*
X142748000Y-101346000D02*
X144272000Y-100076000D01*
X145486258Y-100605394D02*
X145508446Y-100541985D01*
X145282724Y-100767707D02*
X145346133Y-100745519D01*
X144272000Y-100076000D02*
X144615968Y-100038968D01*
X147360445Y-100013196D02*
X147382843Y-100027270D01*
X144915968Y-100475229D02*
X144923489Y-100541985D01*
X146113006Y-99894551D02*
X146115968Y-99920837D01*
X144803014Y-100104418D02*
X144850517Y-100151921D01*
X144850517Y-100151921D02*
X144886258Y-100208802D01*
X145634098Y-99802707D02*
X145997838Y-99802707D01*
X145028921Y-100709778D02*
X145085802Y-100745519D01*
X144682724Y-100046489D02*
X144746133Y-100068677D01*
X144908446Y-100272211D02*
X144915968Y-100338968D01*
X144945677Y-100605394D02*
X144981418Y-100662275D01*
X144915968Y-100338968D02*
X144915968Y-100475229D01*
X145508446Y-100541985D02*
X145515968Y-100475229D01*
X145515968Y-100475229D02*
X145515968Y-99920837D01*
X145515968Y-99920837D02*
X145518929Y-99894551D01*
X146285802Y-100745519D02*
X146349211Y-100767707D01*
X145518929Y-99894551D02*
X145527666Y-99869583D01*
X145541740Y-99847185D02*
X145560445Y-99828480D01*
X145527666Y-99869583D02*
X145541740Y-99847185D01*
X147341740Y-99994491D02*
X147360445Y-100013196D01*
X146049092Y-99814406D02*
X146071490Y-99828480D01*
X145560445Y-99828480D02*
X145582843Y-99814406D01*
X145582843Y-99814406D02*
X145607811Y-99805669D01*
X147249092Y-99814406D02*
X147271490Y-99828480D01*
X146228921Y-100709778D02*
X146285802Y-100745519D01*
X145607811Y-99805669D02*
X145634098Y-99802707D01*
X145997838Y-99802707D02*
X146024124Y-99805669D01*
X146024124Y-99805669D02*
X146049092Y-99814406D01*
X146071490Y-99828480D02*
X146090195Y-99847185D01*
X146090195Y-99847185D02*
X146104269Y-99869583D01*
X146104269Y-99869583D02*
X146113006Y-99894551D01*
X146115968Y-99920837D02*
X146115968Y-100475229D01*
X146115968Y-100475229D02*
X146123489Y-100541985D01*
X146123489Y-100541985D02*
X146145677Y-100605394D01*
X146145677Y-100605394D02*
X146181418Y-100662275D01*
X153770990Y-94014132D02*
X153869275Y-93915847D01*
X153869275Y-93915847D02*
X154434960Y-93915847D01*
X153770990Y-95858990D02*
X153770990Y-94014132D01*
X155374012Y-97462012D02*
X153770990Y-95858990D01*
X158072733Y-99153235D02*
X156381510Y-97462012D01*
X157283989Y-103073511D02*
X157283989Y-101716404D01*
X156381510Y-97462012D02*
X155374012Y-97462012D01*
X156946500Y-103411000D02*
X157283989Y-103073511D01*
X157283989Y-101716404D02*
X158072733Y-100927661D01*
X156946500Y-103886000D02*
X156946500Y-103411000D01*
X158072733Y-100927661D02*
X158072733Y-99153235D01*
X163322000Y-92938500D02*
X154787500Y-92938500D01*
X154787500Y-92938500D02*
X154559000Y-92710000D01*
X163322000Y-96997000D02*
X163322000Y-97434500D01*
X161925000Y-95859500D02*
X161925000Y-94980011D01*
X163062500Y-96997000D02*
X163322000Y-96997000D01*
X161925000Y-95859500D02*
X163062500Y-96997000D01*
X166052500Y-93154500D02*
X167386000Y-91529998D01*
X166052500Y-94996000D02*
X166052500Y-93154500D01*
X153643042Y-107014033D02*
X158752388Y-107014033D01*
X161101916Y-107381045D02*
X161376915Y-107656044D01*
X159119399Y-107381045D02*
X161101916Y-107381045D01*
X158752388Y-107014033D02*
X159119399Y-107381045D01*
X151459964Y-104830955D02*
X153643042Y-107014033D01*
X150536679Y-105070679D02*
X153030022Y-107564022D01*
X150936678Y-103978784D02*
X150536679Y-104378783D01*
X160651913Y-108004046D02*
X161028913Y-108381046D01*
X153030022Y-107564022D02*
X158665966Y-107564022D01*
X161724917Y-108381046D02*
X162148963Y-107957000D01*
X162309996Y-107957000D02*
X162709995Y-107557001D01*
X161028913Y-108381046D02*
X161724917Y-108381046D01*
X162148963Y-107957000D02*
X162309996Y-107957000D01*
X158665966Y-107564022D02*
X159105990Y-108004046D01*
X159105990Y-108004046D02*
X160651913Y-108004046D01*
X150536679Y-104378783D02*
X150536679Y-105070679D01*
X154586185Y-106331012D02*
X151532249Y-103277076D01*
X165472673Y-106619012D02*
X158993777Y-106619012D01*
X158705777Y-106331012D02*
X154586185Y-106331012D01*
X158993777Y-106619012D02*
X158705777Y-106331012D01*
X151532249Y-103277076D02*
X151132250Y-102877077D01*
X168910000Y-103181685D02*
X165472673Y-106619012D01*
X168910000Y-102616000D02*
X168910000Y-103181685D01*
X164969501Y-106169001D02*
X159180177Y-106169001D01*
X168159223Y-101599428D02*
X168159223Y-102979279D01*
X158892177Y-105881001D02*
X155351920Y-105881001D01*
X155351920Y-105881001D02*
X151394979Y-101924060D01*
X151394979Y-101924060D02*
X150829294Y-101924060D01*
X168159223Y-102979279D02*
X164969501Y-106169001D01*
X159180177Y-106169001D02*
X158892177Y-105881001D01*
X164837000Y-99275000D02*
X165086000Y-99275000D01*
X163322000Y-98780500D02*
X163347500Y-98806000D01*
X161889500Y-97470000D02*
X161925000Y-97434500D01*
X160358000Y-97470000D02*
X161889500Y-97470000D01*
X161976000Y-97434500D02*
X163347500Y-98806000D01*
X161925000Y-97434500D02*
X161976000Y-97434500D01*
X164261000Y-99275000D02*
X165086000Y-99275000D01*
X163347500Y-98806000D02*
X163785000Y-98806000D01*
X164254000Y-99275000D02*
X164261000Y-99275000D01*
X163785000Y-98806000D02*
X164254000Y-99275000D01*
X164811000Y-100545000D02*
X165086000Y-100545000D01*
X163664000Y-100545000D02*
X163322000Y-100203000D01*
X162884500Y-100203000D02*
X163322000Y-100203000D01*
X163025000Y-102936000D02*
X162584990Y-102495990D01*
X165086000Y-100545000D02*
X163664000Y-100545000D01*
X162584990Y-100502510D02*
X162884500Y-100203000D01*
X162584990Y-102495990D02*
X162584990Y-100502510D01*
X162553970Y-102527010D02*
X159283490Y-102527010D01*
X162584990Y-102495990D02*
X162553970Y-102527010D01*
X158521500Y-103289000D02*
X158521500Y-103886000D01*
X159283490Y-102527010D02*
X158521500Y-103289000D01*
X163025000Y-102936000D02*
X163025000Y-103444000D01*
X164084000Y-94513500D02*
X164719000Y-95148500D01*
X163322000Y-94513500D02*
X164084000Y-94513500D01*
X164719000Y-97638000D02*
X165086000Y-98005000D01*
X164719000Y-95148500D02*
X164719000Y-97638000D01*
X161034002Y-94143998D02*
X162477498Y-94143998D01*
X162477498Y-94143998D02*
X162847000Y-94513500D01*
X160358000Y-94820000D02*
X161034002Y-94143998D01*
X160358000Y-95570000D02*
X160358000Y-94820000D01*
X162847000Y-94513500D02*
X163322000Y-94513500D01*
X164583000Y-103085000D02*
X165086000Y-103085000D01*
X164261000Y-103085000D02*
X164084000Y-102908000D01*
X163785000Y-101600000D02*
X163347500Y-101600000D01*
X164084000Y-101899000D02*
X163785000Y-101600000D01*
X164084000Y-102908000D02*
X164084000Y-101899000D01*
X163653306Y-101294194D02*
X163347500Y-101600000D01*
X163953105Y-101294194D02*
X163653306Y-101294194D01*
X154940000Y-94996000D02*
X154914500Y-94996000D01*
X155257500Y-96012000D02*
X154940000Y-94996000D01*
X163155010Y-105213990D02*
X163025000Y-105213990D01*
X163225000Y-105144000D02*
X163155010Y-105213990D01*
X164185999Y-96349999D02*
X164185999Y-98565001D01*
X164185999Y-98565001D02*
X164270997Y-98649999D01*
X166116000Y-98844998D02*
X166116000Y-102330000D01*
X163322000Y-95961000D02*
X163797000Y-95961000D01*
X165361000Y-103085000D02*
X165086000Y-103085000D01*
X165921001Y-98649999D02*
X166116000Y-98844998D01*
X166116000Y-102330000D02*
X165361000Y-103085000D01*
X164270997Y-98649999D02*
X165921001Y-98649999D01*
X163797000Y-95961000D02*
X164185999Y-96349999D01*
X163025000Y-104594000D02*
X163034500Y-104584500D01*
X163025000Y-105344000D02*
X163025000Y-104594000D01*
X164050001Y-104204001D02*
X164050001Y-103295999D01*
X164050001Y-103295999D02*
X164261000Y-103085000D01*
X163669502Y-104584500D02*
X164050001Y-104204001D01*
X164261000Y-103085000D02*
X165086000Y-103085000D01*
X163034500Y-104584500D02*
X163669502Y-104584500D01*
X159131000Y-93980000D02*
X158481789Y-94000933D01*
X158481789Y-94000933D02*
X157009567Y-94000933D01*
X157009567Y-94000933D02*
X156489500Y-94521000D01*
X156489500Y-94521000D02*
X156489500Y-94996000D01*
X159131000Y-93980000D02*
X158881788Y-94966617D01*
X158881788Y-94966617D02*
X158881788Y-100755016D01*
X158881788Y-100755016D02*
X158881788Y-101096788D01*
X158881788Y-101096788D02*
X159512000Y-101727000D01*
X165456500Y-104355000D02*
X165086000Y-104355000D01*
X166433500Y-103378000D02*
X165456500Y-104355000D01*
M02*
