G04 #@! TF.GenerationSoftware,KiCad,Pcbnew,(5.1.5)-3*
G04 #@! TF.CreationDate,2019-12-24T16:56:49-08:00*
G04 #@! TF.ProjectId,NBIoT Wing,4e42496f-5420-4576-996e-672e6b696361,rev?*
G04 #@! TF.SameCoordinates,Original*
G04 #@! TF.FileFunction,Copper,L1,Top*
G04 #@! TF.FilePolarity,Positive*
%FSLAX46Y46*%
G04 Gerber Fmt 4.6, Leading zero omitted, Abs format (unit mm)*
G04 Created by KiCad (PCBNEW (5.1.5)-3) date 2019-12-24 16:56:49*
%MOMM*%
%LPD*%
G04 APERTURE LIST*
%ADD10C,1.700000*%
%ADD11O,1.700000X1.700000*%
%ADD12C,3.556000*%
%ADD13R,2.200000X1.050000*%
%ADD14R,1.000000X1.000000*%
%ADD15C,0.100000*%
%ADD16R,1.200000X1.400000*%
%ADD17R,1.000000X1.400000*%
%ADD18R,2.000000X1.350000*%
%ADD19R,0.700000X1.825000*%
%ADD20R,1.500000X2.000000*%
%ADD21R,1.650000X0.400000*%
%ADD22O,1.500000X1.100000*%
%ADD23O,1.700000X1.350000*%
%ADD24R,2.500000X1.430000*%
%ADD25R,0.900000X0.800000*%
%ADD26R,0.800000X0.900000*%
%ADD27R,0.240000X0.900000*%
%ADD28R,0.900000X0.240000*%
%ADD29R,1.000000X2.900000*%
%ADD30R,0.700000X1.800000*%
%ADD31R,1.800000X0.700000*%
%ADD32C,0.800000*%
%ADD33C,0.900000*%
%ADD34C,0.250000*%
%ADD35C,0.350000*%
%ADD36C,0.254000*%
G04 APERTURE END LIST*
D10*
X146050000Y-90170000D03*
D11*
X148590000Y-90170000D03*
X151130000Y-90170000D03*
X153670000Y-90170000D03*
X156210000Y-90170000D03*
X158750000Y-90170000D03*
X161290000Y-90170000D03*
X163830000Y-90170000D03*
X166370000Y-90170000D03*
X168910000Y-90170000D03*
X171450000Y-90170000D03*
X173990000Y-90170000D03*
D10*
X135890000Y-110490000D03*
D11*
X138430000Y-110490000D03*
X140970000Y-110490000D03*
X143510000Y-110490000D03*
X146050000Y-110490000D03*
X148590000Y-110490000D03*
X151130000Y-110490000D03*
X153670000Y-110490000D03*
X156210000Y-110490000D03*
X158750000Y-110490000D03*
X161290000Y-110490000D03*
X163830000Y-110490000D03*
X166370000Y-110490000D03*
X168910000Y-110490000D03*
X171450000Y-110490000D03*
X173990000Y-110490000D03*
D10*
X136779000Y-107315000D03*
D11*
X136779000Y-104775000D03*
X139319000Y-107315000D03*
X139319000Y-104775000D03*
X141859000Y-107315000D03*
X141859000Y-104775000D03*
D12*
X177800000Y-109220000D03*
X132080000Y-109220000D03*
X177800000Y-91440000D03*
X132080000Y-91440000D03*
D13*
X177800000Y-102665000D03*
X177800000Y-105615000D03*
D14*
X179300000Y-104140000D03*
X176300000Y-104140000D03*
G04 #@! TA.AperFunction,SMDPad,CuDef*
D15*
G36*
X173651505Y-95092204D02*
G01*
X173675773Y-95095804D01*
X173699572Y-95101765D01*
X173722671Y-95110030D01*
X173744850Y-95120520D01*
X173765893Y-95133132D01*
X173785599Y-95147747D01*
X173803777Y-95164223D01*
X173820253Y-95182401D01*
X173834868Y-95202107D01*
X173847480Y-95223150D01*
X173857970Y-95245329D01*
X173866235Y-95268428D01*
X173872196Y-95292227D01*
X173875796Y-95316495D01*
X173877000Y-95340999D01*
X173877000Y-97191001D01*
X173875796Y-97215505D01*
X173872196Y-97239773D01*
X173866235Y-97263572D01*
X173857970Y-97286671D01*
X173847480Y-97308850D01*
X173834868Y-97329893D01*
X173820253Y-97349599D01*
X173803777Y-97367777D01*
X173785599Y-97384253D01*
X173765893Y-97398868D01*
X173744850Y-97411480D01*
X173722671Y-97421970D01*
X173699572Y-97430235D01*
X173675773Y-97436196D01*
X173651505Y-97439796D01*
X173627001Y-97441000D01*
X172801999Y-97441000D01*
X172777495Y-97439796D01*
X172753227Y-97436196D01*
X172729428Y-97430235D01*
X172706329Y-97421970D01*
X172684150Y-97411480D01*
X172663107Y-97398868D01*
X172643401Y-97384253D01*
X172625223Y-97367777D01*
X172608747Y-97349599D01*
X172594132Y-97329893D01*
X172581520Y-97308850D01*
X172571030Y-97286671D01*
X172562765Y-97263572D01*
X172556804Y-97239773D01*
X172553204Y-97215505D01*
X172552000Y-97191001D01*
X172552000Y-95340999D01*
X172553204Y-95316495D01*
X172556804Y-95292227D01*
X172562765Y-95268428D01*
X172571030Y-95245329D01*
X172581520Y-95223150D01*
X172594132Y-95202107D01*
X172608747Y-95182401D01*
X172625223Y-95164223D01*
X172643401Y-95147747D01*
X172663107Y-95133132D01*
X172684150Y-95120520D01*
X172706329Y-95110030D01*
X172729428Y-95101765D01*
X172753227Y-95095804D01*
X172777495Y-95092204D01*
X172801999Y-95091000D01*
X173627001Y-95091000D01*
X173651505Y-95092204D01*
G37*
G04 #@! TD.AperFunction*
G04 #@! TA.AperFunction,SMDPad,CuDef*
G36*
X176726505Y-95092204D02*
G01*
X176750773Y-95095804D01*
X176774572Y-95101765D01*
X176797671Y-95110030D01*
X176819850Y-95120520D01*
X176840893Y-95133132D01*
X176860599Y-95147747D01*
X176878777Y-95164223D01*
X176895253Y-95182401D01*
X176909868Y-95202107D01*
X176922480Y-95223150D01*
X176932970Y-95245329D01*
X176941235Y-95268428D01*
X176947196Y-95292227D01*
X176950796Y-95316495D01*
X176952000Y-95340999D01*
X176952000Y-97191001D01*
X176950796Y-97215505D01*
X176947196Y-97239773D01*
X176941235Y-97263572D01*
X176932970Y-97286671D01*
X176922480Y-97308850D01*
X176909868Y-97329893D01*
X176895253Y-97349599D01*
X176878777Y-97367777D01*
X176860599Y-97384253D01*
X176840893Y-97398868D01*
X176819850Y-97411480D01*
X176797671Y-97421970D01*
X176774572Y-97430235D01*
X176750773Y-97436196D01*
X176726505Y-97439796D01*
X176702001Y-97441000D01*
X175876999Y-97441000D01*
X175852495Y-97439796D01*
X175828227Y-97436196D01*
X175804428Y-97430235D01*
X175781329Y-97421970D01*
X175759150Y-97411480D01*
X175738107Y-97398868D01*
X175718401Y-97384253D01*
X175700223Y-97367777D01*
X175683747Y-97349599D01*
X175669132Y-97329893D01*
X175656520Y-97308850D01*
X175646030Y-97286671D01*
X175637765Y-97263572D01*
X175631804Y-97239773D01*
X175628204Y-97215505D01*
X175627000Y-97191001D01*
X175627000Y-95340999D01*
X175628204Y-95316495D01*
X175631804Y-95292227D01*
X175637765Y-95268428D01*
X175646030Y-95245329D01*
X175656520Y-95223150D01*
X175669132Y-95202107D01*
X175683747Y-95182401D01*
X175700223Y-95164223D01*
X175718401Y-95147747D01*
X175738107Y-95133132D01*
X175759150Y-95120520D01*
X175781329Y-95110030D01*
X175804428Y-95101765D01*
X175828227Y-95095804D01*
X175852495Y-95092204D01*
X175876999Y-95091000D01*
X176702001Y-95091000D01*
X176726505Y-95092204D01*
G37*
G04 #@! TD.AperFunction*
G04 #@! TA.AperFunction,SMDPad,CuDef*
G36*
X174763691Y-101380053D02*
G01*
X174784926Y-101383203D01*
X174805750Y-101388419D01*
X174825962Y-101395651D01*
X174845368Y-101404830D01*
X174863781Y-101415866D01*
X174881024Y-101428654D01*
X174896930Y-101443070D01*
X174911346Y-101458976D01*
X174924134Y-101476219D01*
X174935170Y-101494632D01*
X174944349Y-101514038D01*
X174951581Y-101534250D01*
X174956797Y-101555074D01*
X174959947Y-101576309D01*
X174961000Y-101597750D01*
X174961000Y-102110250D01*
X174959947Y-102131691D01*
X174956797Y-102152926D01*
X174951581Y-102173750D01*
X174944349Y-102193962D01*
X174935170Y-102213368D01*
X174924134Y-102231781D01*
X174911346Y-102249024D01*
X174896930Y-102264930D01*
X174881024Y-102279346D01*
X174863781Y-102292134D01*
X174845368Y-102303170D01*
X174825962Y-102312349D01*
X174805750Y-102319581D01*
X174784926Y-102324797D01*
X174763691Y-102327947D01*
X174742250Y-102329000D01*
X174304750Y-102329000D01*
X174283309Y-102327947D01*
X174262074Y-102324797D01*
X174241250Y-102319581D01*
X174221038Y-102312349D01*
X174201632Y-102303170D01*
X174183219Y-102292134D01*
X174165976Y-102279346D01*
X174150070Y-102264930D01*
X174135654Y-102249024D01*
X174122866Y-102231781D01*
X174111830Y-102213368D01*
X174102651Y-102193962D01*
X174095419Y-102173750D01*
X174090203Y-102152926D01*
X174087053Y-102131691D01*
X174086000Y-102110250D01*
X174086000Y-101597750D01*
X174087053Y-101576309D01*
X174090203Y-101555074D01*
X174095419Y-101534250D01*
X174102651Y-101514038D01*
X174111830Y-101494632D01*
X174122866Y-101476219D01*
X174135654Y-101458976D01*
X174150070Y-101443070D01*
X174165976Y-101428654D01*
X174183219Y-101415866D01*
X174201632Y-101404830D01*
X174221038Y-101395651D01*
X174241250Y-101388419D01*
X174262074Y-101383203D01*
X174283309Y-101380053D01*
X174304750Y-101379000D01*
X174742250Y-101379000D01*
X174763691Y-101380053D01*
G37*
G04 #@! TD.AperFunction*
G04 #@! TA.AperFunction,SMDPad,CuDef*
G36*
X173188691Y-101380053D02*
G01*
X173209926Y-101383203D01*
X173230750Y-101388419D01*
X173250962Y-101395651D01*
X173270368Y-101404830D01*
X173288781Y-101415866D01*
X173306024Y-101428654D01*
X173321930Y-101443070D01*
X173336346Y-101458976D01*
X173349134Y-101476219D01*
X173360170Y-101494632D01*
X173369349Y-101514038D01*
X173376581Y-101534250D01*
X173381797Y-101555074D01*
X173384947Y-101576309D01*
X173386000Y-101597750D01*
X173386000Y-102110250D01*
X173384947Y-102131691D01*
X173381797Y-102152926D01*
X173376581Y-102173750D01*
X173369349Y-102193962D01*
X173360170Y-102213368D01*
X173349134Y-102231781D01*
X173336346Y-102249024D01*
X173321930Y-102264930D01*
X173306024Y-102279346D01*
X173288781Y-102292134D01*
X173270368Y-102303170D01*
X173250962Y-102312349D01*
X173230750Y-102319581D01*
X173209926Y-102324797D01*
X173188691Y-102327947D01*
X173167250Y-102329000D01*
X172729750Y-102329000D01*
X172708309Y-102327947D01*
X172687074Y-102324797D01*
X172666250Y-102319581D01*
X172646038Y-102312349D01*
X172626632Y-102303170D01*
X172608219Y-102292134D01*
X172590976Y-102279346D01*
X172575070Y-102264930D01*
X172560654Y-102249024D01*
X172547866Y-102231781D01*
X172536830Y-102213368D01*
X172527651Y-102193962D01*
X172520419Y-102173750D01*
X172515203Y-102152926D01*
X172512053Y-102131691D01*
X172511000Y-102110250D01*
X172511000Y-101597750D01*
X172512053Y-101576309D01*
X172515203Y-101555074D01*
X172520419Y-101534250D01*
X172527651Y-101514038D01*
X172536830Y-101494632D01*
X172547866Y-101476219D01*
X172560654Y-101458976D01*
X172575070Y-101443070D01*
X172590976Y-101428654D01*
X172608219Y-101415866D01*
X172626632Y-101404830D01*
X172646038Y-101395651D01*
X172666250Y-101388419D01*
X172687074Y-101383203D01*
X172708309Y-101380053D01*
X172729750Y-101379000D01*
X173167250Y-101379000D01*
X173188691Y-101380053D01*
G37*
G04 #@! TD.AperFunction*
G04 #@! TA.AperFunction,SMDPad,CuDef*
G36*
X173188691Y-98332053D02*
G01*
X173209926Y-98335203D01*
X173230750Y-98340419D01*
X173250962Y-98347651D01*
X173270368Y-98356830D01*
X173288781Y-98367866D01*
X173306024Y-98380654D01*
X173321930Y-98395070D01*
X173336346Y-98410976D01*
X173349134Y-98428219D01*
X173360170Y-98446632D01*
X173369349Y-98466038D01*
X173376581Y-98486250D01*
X173381797Y-98507074D01*
X173384947Y-98528309D01*
X173386000Y-98549750D01*
X173386000Y-99062250D01*
X173384947Y-99083691D01*
X173381797Y-99104926D01*
X173376581Y-99125750D01*
X173369349Y-99145962D01*
X173360170Y-99165368D01*
X173349134Y-99183781D01*
X173336346Y-99201024D01*
X173321930Y-99216930D01*
X173306024Y-99231346D01*
X173288781Y-99244134D01*
X173270368Y-99255170D01*
X173250962Y-99264349D01*
X173230750Y-99271581D01*
X173209926Y-99276797D01*
X173188691Y-99279947D01*
X173167250Y-99281000D01*
X172729750Y-99281000D01*
X172708309Y-99279947D01*
X172687074Y-99276797D01*
X172666250Y-99271581D01*
X172646038Y-99264349D01*
X172626632Y-99255170D01*
X172608219Y-99244134D01*
X172590976Y-99231346D01*
X172575070Y-99216930D01*
X172560654Y-99201024D01*
X172547866Y-99183781D01*
X172536830Y-99165368D01*
X172527651Y-99145962D01*
X172520419Y-99125750D01*
X172515203Y-99104926D01*
X172512053Y-99083691D01*
X172511000Y-99062250D01*
X172511000Y-98549750D01*
X172512053Y-98528309D01*
X172515203Y-98507074D01*
X172520419Y-98486250D01*
X172527651Y-98466038D01*
X172536830Y-98446632D01*
X172547866Y-98428219D01*
X172560654Y-98410976D01*
X172575070Y-98395070D01*
X172590976Y-98380654D01*
X172608219Y-98367866D01*
X172626632Y-98356830D01*
X172646038Y-98347651D01*
X172666250Y-98340419D01*
X172687074Y-98335203D01*
X172708309Y-98332053D01*
X172729750Y-98331000D01*
X173167250Y-98331000D01*
X173188691Y-98332053D01*
G37*
G04 #@! TD.AperFunction*
G04 #@! TA.AperFunction,SMDPad,CuDef*
G36*
X174763691Y-98332053D02*
G01*
X174784926Y-98335203D01*
X174805750Y-98340419D01*
X174825962Y-98347651D01*
X174845368Y-98356830D01*
X174863781Y-98367866D01*
X174881024Y-98380654D01*
X174896930Y-98395070D01*
X174911346Y-98410976D01*
X174924134Y-98428219D01*
X174935170Y-98446632D01*
X174944349Y-98466038D01*
X174951581Y-98486250D01*
X174956797Y-98507074D01*
X174959947Y-98528309D01*
X174961000Y-98549750D01*
X174961000Y-99062250D01*
X174959947Y-99083691D01*
X174956797Y-99104926D01*
X174951581Y-99125750D01*
X174944349Y-99145962D01*
X174935170Y-99165368D01*
X174924134Y-99183781D01*
X174911346Y-99201024D01*
X174896930Y-99216930D01*
X174881024Y-99231346D01*
X174863781Y-99244134D01*
X174845368Y-99255170D01*
X174825962Y-99264349D01*
X174805750Y-99271581D01*
X174784926Y-99276797D01*
X174763691Y-99279947D01*
X174742250Y-99281000D01*
X174304750Y-99281000D01*
X174283309Y-99279947D01*
X174262074Y-99276797D01*
X174241250Y-99271581D01*
X174221038Y-99264349D01*
X174201632Y-99255170D01*
X174183219Y-99244134D01*
X174165976Y-99231346D01*
X174150070Y-99216930D01*
X174135654Y-99201024D01*
X174122866Y-99183781D01*
X174111830Y-99165368D01*
X174102651Y-99145962D01*
X174095419Y-99125750D01*
X174090203Y-99104926D01*
X174087053Y-99083691D01*
X174086000Y-99062250D01*
X174086000Y-98549750D01*
X174087053Y-98528309D01*
X174090203Y-98507074D01*
X174095419Y-98486250D01*
X174102651Y-98466038D01*
X174111830Y-98446632D01*
X174122866Y-98428219D01*
X174135654Y-98410976D01*
X174150070Y-98395070D01*
X174165976Y-98380654D01*
X174183219Y-98367866D01*
X174201632Y-98356830D01*
X174221038Y-98347651D01*
X174241250Y-98340419D01*
X174262074Y-98335203D01*
X174283309Y-98332053D01*
X174304750Y-98331000D01*
X174742250Y-98331000D01*
X174763691Y-98332053D01*
G37*
G04 #@! TD.AperFunction*
G04 #@! TA.AperFunction,SMDPad,CuDef*
G36*
X174763691Y-99856053D02*
G01*
X174784926Y-99859203D01*
X174805750Y-99864419D01*
X174825962Y-99871651D01*
X174845368Y-99880830D01*
X174863781Y-99891866D01*
X174881024Y-99904654D01*
X174896930Y-99919070D01*
X174911346Y-99934976D01*
X174924134Y-99952219D01*
X174935170Y-99970632D01*
X174944349Y-99990038D01*
X174951581Y-100010250D01*
X174956797Y-100031074D01*
X174959947Y-100052309D01*
X174961000Y-100073750D01*
X174961000Y-100586250D01*
X174959947Y-100607691D01*
X174956797Y-100628926D01*
X174951581Y-100649750D01*
X174944349Y-100669962D01*
X174935170Y-100689368D01*
X174924134Y-100707781D01*
X174911346Y-100725024D01*
X174896930Y-100740930D01*
X174881024Y-100755346D01*
X174863781Y-100768134D01*
X174845368Y-100779170D01*
X174825962Y-100788349D01*
X174805750Y-100795581D01*
X174784926Y-100800797D01*
X174763691Y-100803947D01*
X174742250Y-100805000D01*
X174304750Y-100805000D01*
X174283309Y-100803947D01*
X174262074Y-100800797D01*
X174241250Y-100795581D01*
X174221038Y-100788349D01*
X174201632Y-100779170D01*
X174183219Y-100768134D01*
X174165976Y-100755346D01*
X174150070Y-100740930D01*
X174135654Y-100725024D01*
X174122866Y-100707781D01*
X174111830Y-100689368D01*
X174102651Y-100669962D01*
X174095419Y-100649750D01*
X174090203Y-100628926D01*
X174087053Y-100607691D01*
X174086000Y-100586250D01*
X174086000Y-100073750D01*
X174087053Y-100052309D01*
X174090203Y-100031074D01*
X174095419Y-100010250D01*
X174102651Y-99990038D01*
X174111830Y-99970632D01*
X174122866Y-99952219D01*
X174135654Y-99934976D01*
X174150070Y-99919070D01*
X174165976Y-99904654D01*
X174183219Y-99891866D01*
X174201632Y-99880830D01*
X174221038Y-99871651D01*
X174241250Y-99864419D01*
X174262074Y-99859203D01*
X174283309Y-99856053D01*
X174304750Y-99855000D01*
X174742250Y-99855000D01*
X174763691Y-99856053D01*
G37*
G04 #@! TD.AperFunction*
G04 #@! TA.AperFunction,SMDPad,CuDef*
G36*
X173188691Y-99856053D02*
G01*
X173209926Y-99859203D01*
X173230750Y-99864419D01*
X173250962Y-99871651D01*
X173270368Y-99880830D01*
X173288781Y-99891866D01*
X173306024Y-99904654D01*
X173321930Y-99919070D01*
X173336346Y-99934976D01*
X173349134Y-99952219D01*
X173360170Y-99970632D01*
X173369349Y-99990038D01*
X173376581Y-100010250D01*
X173381797Y-100031074D01*
X173384947Y-100052309D01*
X173386000Y-100073750D01*
X173386000Y-100586250D01*
X173384947Y-100607691D01*
X173381797Y-100628926D01*
X173376581Y-100649750D01*
X173369349Y-100669962D01*
X173360170Y-100689368D01*
X173349134Y-100707781D01*
X173336346Y-100725024D01*
X173321930Y-100740930D01*
X173306024Y-100755346D01*
X173288781Y-100768134D01*
X173270368Y-100779170D01*
X173250962Y-100788349D01*
X173230750Y-100795581D01*
X173209926Y-100800797D01*
X173188691Y-100803947D01*
X173167250Y-100805000D01*
X172729750Y-100805000D01*
X172708309Y-100803947D01*
X172687074Y-100800797D01*
X172666250Y-100795581D01*
X172646038Y-100788349D01*
X172626632Y-100779170D01*
X172608219Y-100768134D01*
X172590976Y-100755346D01*
X172575070Y-100740930D01*
X172560654Y-100725024D01*
X172547866Y-100707781D01*
X172536830Y-100689368D01*
X172527651Y-100669962D01*
X172520419Y-100649750D01*
X172515203Y-100628926D01*
X172512053Y-100607691D01*
X172511000Y-100586250D01*
X172511000Y-100073750D01*
X172512053Y-100052309D01*
X172515203Y-100031074D01*
X172520419Y-100010250D01*
X172527651Y-99990038D01*
X172536830Y-99970632D01*
X172547866Y-99952219D01*
X172560654Y-99934976D01*
X172575070Y-99919070D01*
X172590976Y-99904654D01*
X172608219Y-99891866D01*
X172626632Y-99880830D01*
X172646038Y-99871651D01*
X172666250Y-99864419D01*
X172687074Y-99859203D01*
X172708309Y-99856053D01*
X172729750Y-99855000D01*
X173167250Y-99855000D01*
X173188691Y-99856053D01*
G37*
G04 #@! TD.AperFunction*
D16*
X138176000Y-99060000D03*
D17*
X136456000Y-99060000D03*
X136456000Y-101260000D03*
X138356000Y-101260000D03*
G04 #@! TA.AperFunction,SMDPad,CuDef*
D15*
G36*
X150836691Y-95792053D02*
G01*
X150857926Y-95795203D01*
X150878750Y-95800419D01*
X150898962Y-95807651D01*
X150918368Y-95816830D01*
X150936781Y-95827866D01*
X150954024Y-95840654D01*
X150969930Y-95855070D01*
X150984346Y-95870976D01*
X150997134Y-95888219D01*
X151008170Y-95906632D01*
X151017349Y-95926038D01*
X151024581Y-95946250D01*
X151029797Y-95967074D01*
X151032947Y-95988309D01*
X151034000Y-96009750D01*
X151034000Y-96522250D01*
X151032947Y-96543691D01*
X151029797Y-96564926D01*
X151024581Y-96585750D01*
X151017349Y-96605962D01*
X151008170Y-96625368D01*
X150997134Y-96643781D01*
X150984346Y-96661024D01*
X150969930Y-96676930D01*
X150954024Y-96691346D01*
X150936781Y-96704134D01*
X150918368Y-96715170D01*
X150898962Y-96724349D01*
X150878750Y-96731581D01*
X150857926Y-96736797D01*
X150836691Y-96739947D01*
X150815250Y-96741000D01*
X150377750Y-96741000D01*
X150356309Y-96739947D01*
X150335074Y-96736797D01*
X150314250Y-96731581D01*
X150294038Y-96724349D01*
X150274632Y-96715170D01*
X150256219Y-96704134D01*
X150238976Y-96691346D01*
X150223070Y-96676930D01*
X150208654Y-96661024D01*
X150195866Y-96643781D01*
X150184830Y-96625368D01*
X150175651Y-96605962D01*
X150168419Y-96585750D01*
X150163203Y-96564926D01*
X150160053Y-96543691D01*
X150159000Y-96522250D01*
X150159000Y-96009750D01*
X150160053Y-95988309D01*
X150163203Y-95967074D01*
X150168419Y-95946250D01*
X150175651Y-95926038D01*
X150184830Y-95906632D01*
X150195866Y-95888219D01*
X150208654Y-95870976D01*
X150223070Y-95855070D01*
X150238976Y-95840654D01*
X150256219Y-95827866D01*
X150274632Y-95816830D01*
X150294038Y-95807651D01*
X150314250Y-95800419D01*
X150335074Y-95795203D01*
X150356309Y-95792053D01*
X150377750Y-95791000D01*
X150815250Y-95791000D01*
X150836691Y-95792053D01*
G37*
G04 #@! TD.AperFunction*
G04 #@! TA.AperFunction,SMDPad,CuDef*
G36*
X152411691Y-95792053D02*
G01*
X152432926Y-95795203D01*
X152453750Y-95800419D01*
X152473962Y-95807651D01*
X152493368Y-95816830D01*
X152511781Y-95827866D01*
X152529024Y-95840654D01*
X152544930Y-95855070D01*
X152559346Y-95870976D01*
X152572134Y-95888219D01*
X152583170Y-95906632D01*
X152592349Y-95926038D01*
X152599581Y-95946250D01*
X152604797Y-95967074D01*
X152607947Y-95988309D01*
X152609000Y-96009750D01*
X152609000Y-96522250D01*
X152607947Y-96543691D01*
X152604797Y-96564926D01*
X152599581Y-96585750D01*
X152592349Y-96605962D01*
X152583170Y-96625368D01*
X152572134Y-96643781D01*
X152559346Y-96661024D01*
X152544930Y-96676930D01*
X152529024Y-96691346D01*
X152511781Y-96704134D01*
X152493368Y-96715170D01*
X152473962Y-96724349D01*
X152453750Y-96731581D01*
X152432926Y-96736797D01*
X152411691Y-96739947D01*
X152390250Y-96741000D01*
X151952750Y-96741000D01*
X151931309Y-96739947D01*
X151910074Y-96736797D01*
X151889250Y-96731581D01*
X151869038Y-96724349D01*
X151849632Y-96715170D01*
X151831219Y-96704134D01*
X151813976Y-96691346D01*
X151798070Y-96676930D01*
X151783654Y-96661024D01*
X151770866Y-96643781D01*
X151759830Y-96625368D01*
X151750651Y-96605962D01*
X151743419Y-96585750D01*
X151738203Y-96564926D01*
X151735053Y-96543691D01*
X151734000Y-96522250D01*
X151734000Y-96009750D01*
X151735053Y-95988309D01*
X151738203Y-95967074D01*
X151743419Y-95946250D01*
X151750651Y-95926038D01*
X151759830Y-95906632D01*
X151770866Y-95888219D01*
X151783654Y-95870976D01*
X151798070Y-95855070D01*
X151813976Y-95840654D01*
X151831219Y-95827866D01*
X151849632Y-95816830D01*
X151869038Y-95807651D01*
X151889250Y-95800419D01*
X151910074Y-95795203D01*
X151931309Y-95792053D01*
X151952750Y-95791000D01*
X152390250Y-95791000D01*
X152411691Y-95792053D01*
G37*
G04 #@! TD.AperFunction*
D18*
X132403000Y-103055000D03*
X132403000Y-97575000D03*
D19*
X133153000Y-97355000D03*
X133153000Y-103305000D03*
D20*
X134453000Y-97455000D03*
X134473000Y-103205000D03*
D21*
X134353000Y-99005000D03*
X134353000Y-99655000D03*
X134353000Y-100305000D03*
X134353000Y-100955000D03*
X134353000Y-101605000D03*
D22*
X134473000Y-97885000D03*
X134473000Y-102725000D03*
D23*
X131473000Y-97575000D03*
X131473000Y-103035000D03*
D24*
X131203000Y-99345000D03*
X131203000Y-101265000D03*
D25*
X151812500Y-94485500D03*
X151812500Y-92585500D03*
X149812500Y-93535500D03*
D26*
X145100000Y-94218000D03*
X147000000Y-94218000D03*
X146050000Y-92218000D03*
X140081000Y-92218000D03*
X141031000Y-94218000D03*
X139131000Y-94218000D03*
G04 #@! TA.AperFunction,SMDPad,CuDef*
D15*
G36*
X174001691Y-92617053D02*
G01*
X174022926Y-92620203D01*
X174043750Y-92625419D01*
X174063962Y-92632651D01*
X174083368Y-92641830D01*
X174101781Y-92652866D01*
X174119024Y-92665654D01*
X174134930Y-92680070D01*
X174149346Y-92695976D01*
X174162134Y-92713219D01*
X174173170Y-92731632D01*
X174182349Y-92751038D01*
X174189581Y-92771250D01*
X174194797Y-92792074D01*
X174197947Y-92813309D01*
X174199000Y-92834750D01*
X174199000Y-93347250D01*
X174197947Y-93368691D01*
X174194797Y-93389926D01*
X174189581Y-93410750D01*
X174182349Y-93430962D01*
X174173170Y-93450368D01*
X174162134Y-93468781D01*
X174149346Y-93486024D01*
X174134930Y-93501930D01*
X174119024Y-93516346D01*
X174101781Y-93529134D01*
X174083368Y-93540170D01*
X174063962Y-93549349D01*
X174043750Y-93556581D01*
X174022926Y-93561797D01*
X174001691Y-93564947D01*
X173980250Y-93566000D01*
X173542750Y-93566000D01*
X173521309Y-93564947D01*
X173500074Y-93561797D01*
X173479250Y-93556581D01*
X173459038Y-93549349D01*
X173439632Y-93540170D01*
X173421219Y-93529134D01*
X173403976Y-93516346D01*
X173388070Y-93501930D01*
X173373654Y-93486024D01*
X173360866Y-93468781D01*
X173349830Y-93450368D01*
X173340651Y-93430962D01*
X173333419Y-93410750D01*
X173328203Y-93389926D01*
X173325053Y-93368691D01*
X173324000Y-93347250D01*
X173324000Y-92834750D01*
X173325053Y-92813309D01*
X173328203Y-92792074D01*
X173333419Y-92771250D01*
X173340651Y-92751038D01*
X173349830Y-92731632D01*
X173360866Y-92713219D01*
X173373654Y-92695976D01*
X173388070Y-92680070D01*
X173403976Y-92665654D01*
X173421219Y-92652866D01*
X173439632Y-92641830D01*
X173459038Y-92632651D01*
X173479250Y-92625419D01*
X173500074Y-92620203D01*
X173521309Y-92617053D01*
X173542750Y-92616000D01*
X173980250Y-92616000D01*
X174001691Y-92617053D01*
G37*
G04 #@! TD.AperFunction*
G04 #@! TA.AperFunction,SMDPad,CuDef*
G36*
X172426691Y-92617053D02*
G01*
X172447926Y-92620203D01*
X172468750Y-92625419D01*
X172488962Y-92632651D01*
X172508368Y-92641830D01*
X172526781Y-92652866D01*
X172544024Y-92665654D01*
X172559930Y-92680070D01*
X172574346Y-92695976D01*
X172587134Y-92713219D01*
X172598170Y-92731632D01*
X172607349Y-92751038D01*
X172614581Y-92771250D01*
X172619797Y-92792074D01*
X172622947Y-92813309D01*
X172624000Y-92834750D01*
X172624000Y-93347250D01*
X172622947Y-93368691D01*
X172619797Y-93389926D01*
X172614581Y-93410750D01*
X172607349Y-93430962D01*
X172598170Y-93450368D01*
X172587134Y-93468781D01*
X172574346Y-93486024D01*
X172559930Y-93501930D01*
X172544024Y-93516346D01*
X172526781Y-93529134D01*
X172508368Y-93540170D01*
X172488962Y-93549349D01*
X172468750Y-93556581D01*
X172447926Y-93561797D01*
X172426691Y-93564947D01*
X172405250Y-93566000D01*
X171967750Y-93566000D01*
X171946309Y-93564947D01*
X171925074Y-93561797D01*
X171904250Y-93556581D01*
X171884038Y-93549349D01*
X171864632Y-93540170D01*
X171846219Y-93529134D01*
X171828976Y-93516346D01*
X171813070Y-93501930D01*
X171798654Y-93486024D01*
X171785866Y-93468781D01*
X171774830Y-93450368D01*
X171765651Y-93430962D01*
X171758419Y-93410750D01*
X171753203Y-93389926D01*
X171750053Y-93368691D01*
X171749000Y-93347250D01*
X171749000Y-92834750D01*
X171750053Y-92813309D01*
X171753203Y-92792074D01*
X171758419Y-92771250D01*
X171765651Y-92751038D01*
X171774830Y-92731632D01*
X171785866Y-92713219D01*
X171798654Y-92695976D01*
X171813070Y-92680070D01*
X171828976Y-92665654D01*
X171846219Y-92652866D01*
X171864632Y-92641830D01*
X171884038Y-92632651D01*
X171904250Y-92625419D01*
X171925074Y-92620203D01*
X171946309Y-92617053D01*
X171967750Y-92616000D01*
X172405250Y-92616000D01*
X172426691Y-92617053D01*
G37*
G04 #@! TD.AperFunction*
G04 #@! TA.AperFunction,SMDPad,CuDef*
G36*
X140168691Y-98332053D02*
G01*
X140189926Y-98335203D01*
X140210750Y-98340419D01*
X140230962Y-98347651D01*
X140250368Y-98356830D01*
X140268781Y-98367866D01*
X140286024Y-98380654D01*
X140301930Y-98395070D01*
X140316346Y-98410976D01*
X140329134Y-98428219D01*
X140340170Y-98446632D01*
X140349349Y-98466038D01*
X140356581Y-98486250D01*
X140361797Y-98507074D01*
X140364947Y-98528309D01*
X140366000Y-98549750D01*
X140366000Y-99062250D01*
X140364947Y-99083691D01*
X140361797Y-99104926D01*
X140356581Y-99125750D01*
X140349349Y-99145962D01*
X140340170Y-99165368D01*
X140329134Y-99183781D01*
X140316346Y-99201024D01*
X140301930Y-99216930D01*
X140286024Y-99231346D01*
X140268781Y-99244134D01*
X140250368Y-99255170D01*
X140230962Y-99264349D01*
X140210750Y-99271581D01*
X140189926Y-99276797D01*
X140168691Y-99279947D01*
X140147250Y-99281000D01*
X139709750Y-99281000D01*
X139688309Y-99279947D01*
X139667074Y-99276797D01*
X139646250Y-99271581D01*
X139626038Y-99264349D01*
X139606632Y-99255170D01*
X139588219Y-99244134D01*
X139570976Y-99231346D01*
X139555070Y-99216930D01*
X139540654Y-99201024D01*
X139527866Y-99183781D01*
X139516830Y-99165368D01*
X139507651Y-99145962D01*
X139500419Y-99125750D01*
X139495203Y-99104926D01*
X139492053Y-99083691D01*
X139491000Y-99062250D01*
X139491000Y-98549750D01*
X139492053Y-98528309D01*
X139495203Y-98507074D01*
X139500419Y-98486250D01*
X139507651Y-98466038D01*
X139516830Y-98446632D01*
X139527866Y-98428219D01*
X139540654Y-98410976D01*
X139555070Y-98395070D01*
X139570976Y-98380654D01*
X139588219Y-98367866D01*
X139606632Y-98356830D01*
X139626038Y-98347651D01*
X139646250Y-98340419D01*
X139667074Y-98335203D01*
X139688309Y-98332053D01*
X139709750Y-98331000D01*
X140147250Y-98331000D01*
X140168691Y-98332053D01*
G37*
G04 #@! TD.AperFunction*
G04 #@! TA.AperFunction,SMDPad,CuDef*
G36*
X141743691Y-98332053D02*
G01*
X141764926Y-98335203D01*
X141785750Y-98340419D01*
X141805962Y-98347651D01*
X141825368Y-98356830D01*
X141843781Y-98367866D01*
X141861024Y-98380654D01*
X141876930Y-98395070D01*
X141891346Y-98410976D01*
X141904134Y-98428219D01*
X141915170Y-98446632D01*
X141924349Y-98466038D01*
X141931581Y-98486250D01*
X141936797Y-98507074D01*
X141939947Y-98528309D01*
X141941000Y-98549750D01*
X141941000Y-99062250D01*
X141939947Y-99083691D01*
X141936797Y-99104926D01*
X141931581Y-99125750D01*
X141924349Y-99145962D01*
X141915170Y-99165368D01*
X141904134Y-99183781D01*
X141891346Y-99201024D01*
X141876930Y-99216930D01*
X141861024Y-99231346D01*
X141843781Y-99244134D01*
X141825368Y-99255170D01*
X141805962Y-99264349D01*
X141785750Y-99271581D01*
X141764926Y-99276797D01*
X141743691Y-99279947D01*
X141722250Y-99281000D01*
X141284750Y-99281000D01*
X141263309Y-99279947D01*
X141242074Y-99276797D01*
X141221250Y-99271581D01*
X141201038Y-99264349D01*
X141181632Y-99255170D01*
X141163219Y-99244134D01*
X141145976Y-99231346D01*
X141130070Y-99216930D01*
X141115654Y-99201024D01*
X141102866Y-99183781D01*
X141091830Y-99165368D01*
X141082651Y-99145962D01*
X141075419Y-99125750D01*
X141070203Y-99104926D01*
X141067053Y-99083691D01*
X141066000Y-99062250D01*
X141066000Y-98549750D01*
X141067053Y-98528309D01*
X141070203Y-98507074D01*
X141075419Y-98486250D01*
X141082651Y-98466038D01*
X141091830Y-98446632D01*
X141102866Y-98428219D01*
X141115654Y-98410976D01*
X141130070Y-98395070D01*
X141145976Y-98380654D01*
X141163219Y-98367866D01*
X141181632Y-98356830D01*
X141201038Y-98347651D01*
X141221250Y-98340419D01*
X141242074Y-98335203D01*
X141263309Y-98332053D01*
X141284750Y-98331000D01*
X141722250Y-98331000D01*
X141743691Y-98332053D01*
G37*
G04 #@! TD.AperFunction*
G04 #@! TA.AperFunction,SMDPad,CuDef*
G36*
X141743691Y-101126053D02*
G01*
X141764926Y-101129203D01*
X141785750Y-101134419D01*
X141805962Y-101141651D01*
X141825368Y-101150830D01*
X141843781Y-101161866D01*
X141861024Y-101174654D01*
X141876930Y-101189070D01*
X141891346Y-101204976D01*
X141904134Y-101222219D01*
X141915170Y-101240632D01*
X141924349Y-101260038D01*
X141931581Y-101280250D01*
X141936797Y-101301074D01*
X141939947Y-101322309D01*
X141941000Y-101343750D01*
X141941000Y-101856250D01*
X141939947Y-101877691D01*
X141936797Y-101898926D01*
X141931581Y-101919750D01*
X141924349Y-101939962D01*
X141915170Y-101959368D01*
X141904134Y-101977781D01*
X141891346Y-101995024D01*
X141876930Y-102010930D01*
X141861024Y-102025346D01*
X141843781Y-102038134D01*
X141825368Y-102049170D01*
X141805962Y-102058349D01*
X141785750Y-102065581D01*
X141764926Y-102070797D01*
X141743691Y-102073947D01*
X141722250Y-102075000D01*
X141284750Y-102075000D01*
X141263309Y-102073947D01*
X141242074Y-102070797D01*
X141221250Y-102065581D01*
X141201038Y-102058349D01*
X141181632Y-102049170D01*
X141163219Y-102038134D01*
X141145976Y-102025346D01*
X141130070Y-102010930D01*
X141115654Y-101995024D01*
X141102866Y-101977781D01*
X141091830Y-101959368D01*
X141082651Y-101939962D01*
X141075419Y-101919750D01*
X141070203Y-101898926D01*
X141067053Y-101877691D01*
X141066000Y-101856250D01*
X141066000Y-101343750D01*
X141067053Y-101322309D01*
X141070203Y-101301074D01*
X141075419Y-101280250D01*
X141082651Y-101260038D01*
X141091830Y-101240632D01*
X141102866Y-101222219D01*
X141115654Y-101204976D01*
X141130070Y-101189070D01*
X141145976Y-101174654D01*
X141163219Y-101161866D01*
X141181632Y-101150830D01*
X141201038Y-101141651D01*
X141221250Y-101134419D01*
X141242074Y-101129203D01*
X141263309Y-101126053D01*
X141284750Y-101125000D01*
X141722250Y-101125000D01*
X141743691Y-101126053D01*
G37*
G04 #@! TD.AperFunction*
G04 #@! TA.AperFunction,SMDPad,CuDef*
G36*
X140168691Y-101126053D02*
G01*
X140189926Y-101129203D01*
X140210750Y-101134419D01*
X140230962Y-101141651D01*
X140250368Y-101150830D01*
X140268781Y-101161866D01*
X140286024Y-101174654D01*
X140301930Y-101189070D01*
X140316346Y-101204976D01*
X140329134Y-101222219D01*
X140340170Y-101240632D01*
X140349349Y-101260038D01*
X140356581Y-101280250D01*
X140361797Y-101301074D01*
X140364947Y-101322309D01*
X140366000Y-101343750D01*
X140366000Y-101856250D01*
X140364947Y-101877691D01*
X140361797Y-101898926D01*
X140356581Y-101919750D01*
X140349349Y-101939962D01*
X140340170Y-101959368D01*
X140329134Y-101977781D01*
X140316346Y-101995024D01*
X140301930Y-102010930D01*
X140286024Y-102025346D01*
X140268781Y-102038134D01*
X140250368Y-102049170D01*
X140230962Y-102058349D01*
X140210750Y-102065581D01*
X140189926Y-102070797D01*
X140168691Y-102073947D01*
X140147250Y-102075000D01*
X139709750Y-102075000D01*
X139688309Y-102073947D01*
X139667074Y-102070797D01*
X139646250Y-102065581D01*
X139626038Y-102058349D01*
X139606632Y-102049170D01*
X139588219Y-102038134D01*
X139570976Y-102025346D01*
X139555070Y-102010930D01*
X139540654Y-101995024D01*
X139527866Y-101977781D01*
X139516830Y-101959368D01*
X139507651Y-101939962D01*
X139500419Y-101919750D01*
X139495203Y-101898926D01*
X139492053Y-101877691D01*
X139491000Y-101856250D01*
X139491000Y-101343750D01*
X139492053Y-101322309D01*
X139495203Y-101301074D01*
X139500419Y-101280250D01*
X139507651Y-101260038D01*
X139516830Y-101240632D01*
X139527866Y-101222219D01*
X139540654Y-101204976D01*
X139555070Y-101189070D01*
X139570976Y-101174654D01*
X139588219Y-101161866D01*
X139606632Y-101150830D01*
X139626038Y-101141651D01*
X139646250Y-101134419D01*
X139667074Y-101129203D01*
X139688309Y-101126053D01*
X139709750Y-101125000D01*
X140147250Y-101125000D01*
X140168691Y-101126053D01*
G37*
G04 #@! TD.AperFunction*
G04 #@! TA.AperFunction,SMDPad,CuDef*
G36*
X150773191Y-97316053D02*
G01*
X150794426Y-97319203D01*
X150815250Y-97324419D01*
X150835462Y-97331651D01*
X150854868Y-97340830D01*
X150873281Y-97351866D01*
X150890524Y-97364654D01*
X150906430Y-97379070D01*
X150920846Y-97394976D01*
X150933634Y-97412219D01*
X150944670Y-97430632D01*
X150953849Y-97450038D01*
X150961081Y-97470250D01*
X150966297Y-97491074D01*
X150969447Y-97512309D01*
X150970500Y-97533750D01*
X150970500Y-98046250D01*
X150969447Y-98067691D01*
X150966297Y-98088926D01*
X150961081Y-98109750D01*
X150953849Y-98129962D01*
X150944670Y-98149368D01*
X150933634Y-98167781D01*
X150920846Y-98185024D01*
X150906430Y-98200930D01*
X150890524Y-98215346D01*
X150873281Y-98228134D01*
X150854868Y-98239170D01*
X150835462Y-98248349D01*
X150815250Y-98255581D01*
X150794426Y-98260797D01*
X150773191Y-98263947D01*
X150751750Y-98265000D01*
X150314250Y-98265000D01*
X150292809Y-98263947D01*
X150271574Y-98260797D01*
X150250750Y-98255581D01*
X150230538Y-98248349D01*
X150211132Y-98239170D01*
X150192719Y-98228134D01*
X150175476Y-98215346D01*
X150159570Y-98200930D01*
X150145154Y-98185024D01*
X150132366Y-98167781D01*
X150121330Y-98149368D01*
X150112151Y-98129962D01*
X150104919Y-98109750D01*
X150099703Y-98088926D01*
X150096553Y-98067691D01*
X150095500Y-98046250D01*
X150095500Y-97533750D01*
X150096553Y-97512309D01*
X150099703Y-97491074D01*
X150104919Y-97470250D01*
X150112151Y-97450038D01*
X150121330Y-97430632D01*
X150132366Y-97412219D01*
X150145154Y-97394976D01*
X150159570Y-97379070D01*
X150175476Y-97364654D01*
X150192719Y-97351866D01*
X150211132Y-97340830D01*
X150230538Y-97331651D01*
X150250750Y-97324419D01*
X150271574Y-97319203D01*
X150292809Y-97316053D01*
X150314250Y-97315000D01*
X150751750Y-97315000D01*
X150773191Y-97316053D01*
G37*
G04 #@! TD.AperFunction*
G04 #@! TA.AperFunction,SMDPad,CuDef*
G36*
X152348191Y-97316053D02*
G01*
X152369426Y-97319203D01*
X152390250Y-97324419D01*
X152410462Y-97331651D01*
X152429868Y-97340830D01*
X152448281Y-97351866D01*
X152465524Y-97364654D01*
X152481430Y-97379070D01*
X152495846Y-97394976D01*
X152508634Y-97412219D01*
X152519670Y-97430632D01*
X152528849Y-97450038D01*
X152536081Y-97470250D01*
X152541297Y-97491074D01*
X152544447Y-97512309D01*
X152545500Y-97533750D01*
X152545500Y-98046250D01*
X152544447Y-98067691D01*
X152541297Y-98088926D01*
X152536081Y-98109750D01*
X152528849Y-98129962D01*
X152519670Y-98149368D01*
X152508634Y-98167781D01*
X152495846Y-98185024D01*
X152481430Y-98200930D01*
X152465524Y-98215346D01*
X152448281Y-98228134D01*
X152429868Y-98239170D01*
X152410462Y-98248349D01*
X152390250Y-98255581D01*
X152369426Y-98260797D01*
X152348191Y-98263947D01*
X152326750Y-98265000D01*
X151889250Y-98265000D01*
X151867809Y-98263947D01*
X151846574Y-98260797D01*
X151825750Y-98255581D01*
X151805538Y-98248349D01*
X151786132Y-98239170D01*
X151767719Y-98228134D01*
X151750476Y-98215346D01*
X151734570Y-98200930D01*
X151720154Y-98185024D01*
X151707366Y-98167781D01*
X151696330Y-98149368D01*
X151687151Y-98129962D01*
X151679919Y-98109750D01*
X151674703Y-98088926D01*
X151671553Y-98067691D01*
X151670500Y-98046250D01*
X151670500Y-97533750D01*
X151671553Y-97512309D01*
X151674703Y-97491074D01*
X151679919Y-97470250D01*
X151687151Y-97450038D01*
X151696330Y-97430632D01*
X151707366Y-97412219D01*
X151720154Y-97394976D01*
X151734570Y-97379070D01*
X151750476Y-97364654D01*
X151767719Y-97351866D01*
X151786132Y-97340830D01*
X151805538Y-97331651D01*
X151825750Y-97324419D01*
X151846574Y-97319203D01*
X151867809Y-97316053D01*
X151889250Y-97315000D01*
X152326750Y-97315000D01*
X152348191Y-97316053D01*
G37*
G04 #@! TD.AperFunction*
G04 #@! TA.AperFunction,SMDPad,CuDef*
G36*
X145375691Y-95284053D02*
G01*
X145396926Y-95287203D01*
X145417750Y-95292419D01*
X145437962Y-95299651D01*
X145457368Y-95308830D01*
X145475781Y-95319866D01*
X145493024Y-95332654D01*
X145508930Y-95347070D01*
X145523346Y-95362976D01*
X145536134Y-95380219D01*
X145547170Y-95398632D01*
X145556349Y-95418038D01*
X145563581Y-95438250D01*
X145568797Y-95459074D01*
X145571947Y-95480309D01*
X145573000Y-95501750D01*
X145573000Y-96014250D01*
X145571947Y-96035691D01*
X145568797Y-96056926D01*
X145563581Y-96077750D01*
X145556349Y-96097962D01*
X145547170Y-96117368D01*
X145536134Y-96135781D01*
X145523346Y-96153024D01*
X145508930Y-96168930D01*
X145493024Y-96183346D01*
X145475781Y-96196134D01*
X145457368Y-96207170D01*
X145437962Y-96216349D01*
X145417750Y-96223581D01*
X145396926Y-96228797D01*
X145375691Y-96231947D01*
X145354250Y-96233000D01*
X144916750Y-96233000D01*
X144895309Y-96231947D01*
X144874074Y-96228797D01*
X144853250Y-96223581D01*
X144833038Y-96216349D01*
X144813632Y-96207170D01*
X144795219Y-96196134D01*
X144777976Y-96183346D01*
X144762070Y-96168930D01*
X144747654Y-96153024D01*
X144734866Y-96135781D01*
X144723830Y-96117368D01*
X144714651Y-96097962D01*
X144707419Y-96077750D01*
X144702203Y-96056926D01*
X144699053Y-96035691D01*
X144698000Y-96014250D01*
X144698000Y-95501750D01*
X144699053Y-95480309D01*
X144702203Y-95459074D01*
X144707419Y-95438250D01*
X144714651Y-95418038D01*
X144723830Y-95398632D01*
X144734866Y-95380219D01*
X144747654Y-95362976D01*
X144762070Y-95347070D01*
X144777976Y-95332654D01*
X144795219Y-95319866D01*
X144813632Y-95308830D01*
X144833038Y-95299651D01*
X144853250Y-95292419D01*
X144874074Y-95287203D01*
X144895309Y-95284053D01*
X144916750Y-95283000D01*
X145354250Y-95283000D01*
X145375691Y-95284053D01*
G37*
G04 #@! TD.AperFunction*
G04 #@! TA.AperFunction,SMDPad,CuDef*
G36*
X146950691Y-95284053D02*
G01*
X146971926Y-95287203D01*
X146992750Y-95292419D01*
X147012962Y-95299651D01*
X147032368Y-95308830D01*
X147050781Y-95319866D01*
X147068024Y-95332654D01*
X147083930Y-95347070D01*
X147098346Y-95362976D01*
X147111134Y-95380219D01*
X147122170Y-95398632D01*
X147131349Y-95418038D01*
X147138581Y-95438250D01*
X147143797Y-95459074D01*
X147146947Y-95480309D01*
X147148000Y-95501750D01*
X147148000Y-96014250D01*
X147146947Y-96035691D01*
X147143797Y-96056926D01*
X147138581Y-96077750D01*
X147131349Y-96097962D01*
X147122170Y-96117368D01*
X147111134Y-96135781D01*
X147098346Y-96153024D01*
X147083930Y-96168930D01*
X147068024Y-96183346D01*
X147050781Y-96196134D01*
X147032368Y-96207170D01*
X147012962Y-96216349D01*
X146992750Y-96223581D01*
X146971926Y-96228797D01*
X146950691Y-96231947D01*
X146929250Y-96233000D01*
X146491750Y-96233000D01*
X146470309Y-96231947D01*
X146449074Y-96228797D01*
X146428250Y-96223581D01*
X146408038Y-96216349D01*
X146388632Y-96207170D01*
X146370219Y-96196134D01*
X146352976Y-96183346D01*
X146337070Y-96168930D01*
X146322654Y-96153024D01*
X146309866Y-96135781D01*
X146298830Y-96117368D01*
X146289651Y-96097962D01*
X146282419Y-96077750D01*
X146277203Y-96056926D01*
X146274053Y-96035691D01*
X146273000Y-96014250D01*
X146273000Y-95501750D01*
X146274053Y-95480309D01*
X146277203Y-95459074D01*
X146282419Y-95438250D01*
X146289651Y-95418038D01*
X146298830Y-95398632D01*
X146309866Y-95380219D01*
X146322654Y-95362976D01*
X146337070Y-95347070D01*
X146352976Y-95332654D01*
X146370219Y-95319866D01*
X146388632Y-95308830D01*
X146408038Y-95299651D01*
X146428250Y-95292419D01*
X146449074Y-95287203D01*
X146470309Y-95284053D01*
X146491750Y-95283000D01*
X146929250Y-95283000D01*
X146950691Y-95284053D01*
G37*
G04 #@! TD.AperFunction*
G04 #@! TA.AperFunction,SMDPad,CuDef*
G36*
X141108691Y-95284053D02*
G01*
X141129926Y-95287203D01*
X141150750Y-95292419D01*
X141170962Y-95299651D01*
X141190368Y-95308830D01*
X141208781Y-95319866D01*
X141226024Y-95332654D01*
X141241930Y-95347070D01*
X141256346Y-95362976D01*
X141269134Y-95380219D01*
X141280170Y-95398632D01*
X141289349Y-95418038D01*
X141296581Y-95438250D01*
X141301797Y-95459074D01*
X141304947Y-95480309D01*
X141306000Y-95501750D01*
X141306000Y-96014250D01*
X141304947Y-96035691D01*
X141301797Y-96056926D01*
X141296581Y-96077750D01*
X141289349Y-96097962D01*
X141280170Y-96117368D01*
X141269134Y-96135781D01*
X141256346Y-96153024D01*
X141241930Y-96168930D01*
X141226024Y-96183346D01*
X141208781Y-96196134D01*
X141190368Y-96207170D01*
X141170962Y-96216349D01*
X141150750Y-96223581D01*
X141129926Y-96228797D01*
X141108691Y-96231947D01*
X141087250Y-96233000D01*
X140649750Y-96233000D01*
X140628309Y-96231947D01*
X140607074Y-96228797D01*
X140586250Y-96223581D01*
X140566038Y-96216349D01*
X140546632Y-96207170D01*
X140528219Y-96196134D01*
X140510976Y-96183346D01*
X140495070Y-96168930D01*
X140480654Y-96153024D01*
X140467866Y-96135781D01*
X140456830Y-96117368D01*
X140447651Y-96097962D01*
X140440419Y-96077750D01*
X140435203Y-96056926D01*
X140432053Y-96035691D01*
X140431000Y-96014250D01*
X140431000Y-95501750D01*
X140432053Y-95480309D01*
X140435203Y-95459074D01*
X140440419Y-95438250D01*
X140447651Y-95418038D01*
X140456830Y-95398632D01*
X140467866Y-95380219D01*
X140480654Y-95362976D01*
X140495070Y-95347070D01*
X140510976Y-95332654D01*
X140528219Y-95319866D01*
X140546632Y-95308830D01*
X140566038Y-95299651D01*
X140586250Y-95292419D01*
X140607074Y-95287203D01*
X140628309Y-95284053D01*
X140649750Y-95283000D01*
X141087250Y-95283000D01*
X141108691Y-95284053D01*
G37*
G04 #@! TD.AperFunction*
G04 #@! TA.AperFunction,SMDPad,CuDef*
G36*
X139533691Y-95284053D02*
G01*
X139554926Y-95287203D01*
X139575750Y-95292419D01*
X139595962Y-95299651D01*
X139615368Y-95308830D01*
X139633781Y-95319866D01*
X139651024Y-95332654D01*
X139666930Y-95347070D01*
X139681346Y-95362976D01*
X139694134Y-95380219D01*
X139705170Y-95398632D01*
X139714349Y-95418038D01*
X139721581Y-95438250D01*
X139726797Y-95459074D01*
X139729947Y-95480309D01*
X139731000Y-95501750D01*
X139731000Y-96014250D01*
X139729947Y-96035691D01*
X139726797Y-96056926D01*
X139721581Y-96077750D01*
X139714349Y-96097962D01*
X139705170Y-96117368D01*
X139694134Y-96135781D01*
X139681346Y-96153024D01*
X139666930Y-96168930D01*
X139651024Y-96183346D01*
X139633781Y-96196134D01*
X139615368Y-96207170D01*
X139595962Y-96216349D01*
X139575750Y-96223581D01*
X139554926Y-96228797D01*
X139533691Y-96231947D01*
X139512250Y-96233000D01*
X139074750Y-96233000D01*
X139053309Y-96231947D01*
X139032074Y-96228797D01*
X139011250Y-96223581D01*
X138991038Y-96216349D01*
X138971632Y-96207170D01*
X138953219Y-96196134D01*
X138935976Y-96183346D01*
X138920070Y-96168930D01*
X138905654Y-96153024D01*
X138892866Y-96135781D01*
X138881830Y-96117368D01*
X138872651Y-96097962D01*
X138865419Y-96077750D01*
X138860203Y-96056926D01*
X138857053Y-96035691D01*
X138856000Y-96014250D01*
X138856000Y-95501750D01*
X138857053Y-95480309D01*
X138860203Y-95459074D01*
X138865419Y-95438250D01*
X138872651Y-95418038D01*
X138881830Y-95398632D01*
X138892866Y-95380219D01*
X138905654Y-95362976D01*
X138920070Y-95347070D01*
X138935976Y-95332654D01*
X138953219Y-95319866D01*
X138971632Y-95308830D01*
X138991038Y-95299651D01*
X139011250Y-95292419D01*
X139032074Y-95287203D01*
X139053309Y-95284053D01*
X139074750Y-95283000D01*
X139512250Y-95283000D01*
X139533691Y-95284053D01*
G37*
G04 #@! TD.AperFunction*
G04 #@! TA.AperFunction,SMDPad,CuDef*
G36*
X143787691Y-93569053D02*
G01*
X143808926Y-93572203D01*
X143829750Y-93577419D01*
X143849962Y-93584651D01*
X143869368Y-93593830D01*
X143887781Y-93604866D01*
X143905024Y-93617654D01*
X143920930Y-93632070D01*
X143935346Y-93647976D01*
X143948134Y-93665219D01*
X143959170Y-93683632D01*
X143968349Y-93703038D01*
X143975581Y-93723250D01*
X143980797Y-93744074D01*
X143983947Y-93765309D01*
X143985000Y-93786750D01*
X143985000Y-94224250D01*
X143983947Y-94245691D01*
X143980797Y-94266926D01*
X143975581Y-94287750D01*
X143968349Y-94307962D01*
X143959170Y-94327368D01*
X143948134Y-94345781D01*
X143935346Y-94363024D01*
X143920930Y-94378930D01*
X143905024Y-94393346D01*
X143887781Y-94406134D01*
X143869368Y-94417170D01*
X143849962Y-94426349D01*
X143829750Y-94433581D01*
X143808926Y-94438797D01*
X143787691Y-94441947D01*
X143766250Y-94443000D01*
X143253750Y-94443000D01*
X143232309Y-94441947D01*
X143211074Y-94438797D01*
X143190250Y-94433581D01*
X143170038Y-94426349D01*
X143150632Y-94417170D01*
X143132219Y-94406134D01*
X143114976Y-94393346D01*
X143099070Y-94378930D01*
X143084654Y-94363024D01*
X143071866Y-94345781D01*
X143060830Y-94327368D01*
X143051651Y-94307962D01*
X143044419Y-94287750D01*
X143039203Y-94266926D01*
X143036053Y-94245691D01*
X143035000Y-94224250D01*
X143035000Y-93786750D01*
X143036053Y-93765309D01*
X143039203Y-93744074D01*
X143044419Y-93723250D01*
X143051651Y-93703038D01*
X143060830Y-93683632D01*
X143071866Y-93665219D01*
X143084654Y-93647976D01*
X143099070Y-93632070D01*
X143114976Y-93617654D01*
X143132219Y-93604866D01*
X143150632Y-93593830D01*
X143170038Y-93584651D01*
X143190250Y-93577419D01*
X143211074Y-93572203D01*
X143232309Y-93569053D01*
X143253750Y-93568000D01*
X143766250Y-93568000D01*
X143787691Y-93569053D01*
G37*
G04 #@! TD.AperFunction*
G04 #@! TA.AperFunction,SMDPad,CuDef*
G36*
X143787691Y-91994053D02*
G01*
X143808926Y-91997203D01*
X143829750Y-92002419D01*
X143849962Y-92009651D01*
X143869368Y-92018830D01*
X143887781Y-92029866D01*
X143905024Y-92042654D01*
X143920930Y-92057070D01*
X143935346Y-92072976D01*
X143948134Y-92090219D01*
X143959170Y-92108632D01*
X143968349Y-92128038D01*
X143975581Y-92148250D01*
X143980797Y-92169074D01*
X143983947Y-92190309D01*
X143985000Y-92211750D01*
X143985000Y-92649250D01*
X143983947Y-92670691D01*
X143980797Y-92691926D01*
X143975581Y-92712750D01*
X143968349Y-92732962D01*
X143959170Y-92752368D01*
X143948134Y-92770781D01*
X143935346Y-92788024D01*
X143920930Y-92803930D01*
X143905024Y-92818346D01*
X143887781Y-92831134D01*
X143869368Y-92842170D01*
X143849962Y-92851349D01*
X143829750Y-92858581D01*
X143808926Y-92863797D01*
X143787691Y-92866947D01*
X143766250Y-92868000D01*
X143253750Y-92868000D01*
X143232309Y-92866947D01*
X143211074Y-92863797D01*
X143190250Y-92858581D01*
X143170038Y-92851349D01*
X143150632Y-92842170D01*
X143132219Y-92831134D01*
X143114976Y-92818346D01*
X143099070Y-92803930D01*
X143084654Y-92788024D01*
X143071866Y-92770781D01*
X143060830Y-92752368D01*
X143051651Y-92732962D01*
X143044419Y-92712750D01*
X143039203Y-92691926D01*
X143036053Y-92670691D01*
X143035000Y-92649250D01*
X143035000Y-92211750D01*
X143036053Y-92190309D01*
X143039203Y-92169074D01*
X143044419Y-92148250D01*
X143051651Y-92128038D01*
X143060830Y-92108632D01*
X143071866Y-92090219D01*
X143084654Y-92072976D01*
X143099070Y-92057070D01*
X143114976Y-92042654D01*
X143132219Y-92029866D01*
X143150632Y-92018830D01*
X143170038Y-92009651D01*
X143190250Y-92002419D01*
X143211074Y-91997203D01*
X143232309Y-91994053D01*
X143253750Y-91993000D01*
X143766250Y-91993000D01*
X143787691Y-91994053D01*
G37*
G04 #@! TD.AperFunction*
G04 #@! TA.AperFunction,SMDPad,CuDef*
G36*
X137691691Y-93569053D02*
G01*
X137712926Y-93572203D01*
X137733750Y-93577419D01*
X137753962Y-93584651D01*
X137773368Y-93593830D01*
X137791781Y-93604866D01*
X137809024Y-93617654D01*
X137824930Y-93632070D01*
X137839346Y-93647976D01*
X137852134Y-93665219D01*
X137863170Y-93683632D01*
X137872349Y-93703038D01*
X137879581Y-93723250D01*
X137884797Y-93744074D01*
X137887947Y-93765309D01*
X137889000Y-93786750D01*
X137889000Y-94224250D01*
X137887947Y-94245691D01*
X137884797Y-94266926D01*
X137879581Y-94287750D01*
X137872349Y-94307962D01*
X137863170Y-94327368D01*
X137852134Y-94345781D01*
X137839346Y-94363024D01*
X137824930Y-94378930D01*
X137809024Y-94393346D01*
X137791781Y-94406134D01*
X137773368Y-94417170D01*
X137753962Y-94426349D01*
X137733750Y-94433581D01*
X137712926Y-94438797D01*
X137691691Y-94441947D01*
X137670250Y-94443000D01*
X137157750Y-94443000D01*
X137136309Y-94441947D01*
X137115074Y-94438797D01*
X137094250Y-94433581D01*
X137074038Y-94426349D01*
X137054632Y-94417170D01*
X137036219Y-94406134D01*
X137018976Y-94393346D01*
X137003070Y-94378930D01*
X136988654Y-94363024D01*
X136975866Y-94345781D01*
X136964830Y-94327368D01*
X136955651Y-94307962D01*
X136948419Y-94287750D01*
X136943203Y-94266926D01*
X136940053Y-94245691D01*
X136939000Y-94224250D01*
X136939000Y-93786750D01*
X136940053Y-93765309D01*
X136943203Y-93744074D01*
X136948419Y-93723250D01*
X136955651Y-93703038D01*
X136964830Y-93683632D01*
X136975866Y-93665219D01*
X136988654Y-93647976D01*
X137003070Y-93632070D01*
X137018976Y-93617654D01*
X137036219Y-93604866D01*
X137054632Y-93593830D01*
X137074038Y-93584651D01*
X137094250Y-93577419D01*
X137115074Y-93572203D01*
X137136309Y-93569053D01*
X137157750Y-93568000D01*
X137670250Y-93568000D01*
X137691691Y-93569053D01*
G37*
G04 #@! TD.AperFunction*
G04 #@! TA.AperFunction,SMDPad,CuDef*
G36*
X137691691Y-91994053D02*
G01*
X137712926Y-91997203D01*
X137733750Y-92002419D01*
X137753962Y-92009651D01*
X137773368Y-92018830D01*
X137791781Y-92029866D01*
X137809024Y-92042654D01*
X137824930Y-92057070D01*
X137839346Y-92072976D01*
X137852134Y-92090219D01*
X137863170Y-92108632D01*
X137872349Y-92128038D01*
X137879581Y-92148250D01*
X137884797Y-92169074D01*
X137887947Y-92190309D01*
X137889000Y-92211750D01*
X137889000Y-92649250D01*
X137887947Y-92670691D01*
X137884797Y-92691926D01*
X137879581Y-92712750D01*
X137872349Y-92732962D01*
X137863170Y-92752368D01*
X137852134Y-92770781D01*
X137839346Y-92788024D01*
X137824930Y-92803930D01*
X137809024Y-92818346D01*
X137791781Y-92831134D01*
X137773368Y-92842170D01*
X137753962Y-92851349D01*
X137733750Y-92858581D01*
X137712926Y-92863797D01*
X137691691Y-92866947D01*
X137670250Y-92868000D01*
X137157750Y-92868000D01*
X137136309Y-92866947D01*
X137115074Y-92863797D01*
X137094250Y-92858581D01*
X137074038Y-92851349D01*
X137054632Y-92842170D01*
X137036219Y-92831134D01*
X137018976Y-92818346D01*
X137003070Y-92803930D01*
X136988654Y-92788024D01*
X136975866Y-92770781D01*
X136964830Y-92752368D01*
X136955651Y-92732962D01*
X136948419Y-92712750D01*
X136943203Y-92691926D01*
X136940053Y-92670691D01*
X136939000Y-92649250D01*
X136939000Y-92211750D01*
X136940053Y-92190309D01*
X136943203Y-92169074D01*
X136948419Y-92148250D01*
X136955651Y-92128038D01*
X136964830Y-92108632D01*
X136975866Y-92090219D01*
X136988654Y-92072976D01*
X137003070Y-92057070D01*
X137018976Y-92042654D01*
X137036219Y-92029866D01*
X137054632Y-92018830D01*
X137074038Y-92009651D01*
X137094250Y-92002419D01*
X137115074Y-91997203D01*
X137136309Y-91994053D01*
X137157750Y-91993000D01*
X137670250Y-91993000D01*
X137691691Y-91994053D01*
G37*
G04 #@! TD.AperFunction*
D27*
X147570000Y-107456000D03*
X147070000Y-107456000D03*
X147570000Y-102856000D03*
X147070000Y-102856000D03*
D28*
X148620000Y-106906000D03*
X148620000Y-106406000D03*
X148620000Y-105906000D03*
X148620000Y-105406000D03*
X148620000Y-104906000D03*
X148620000Y-104406000D03*
X148620000Y-103906000D03*
X148620000Y-103406000D03*
X146020000Y-106906000D03*
X146020000Y-106406000D03*
X146020000Y-105906000D03*
X146020000Y-105406000D03*
X146020000Y-104906000D03*
X146020000Y-104406000D03*
X146020000Y-103906000D03*
X146020000Y-103406000D03*
D29*
X147320000Y-105156000D03*
D30*
X169160000Y-93030000D03*
X168060000Y-93030000D03*
X166960000Y-93030000D03*
X165860000Y-93030000D03*
X164760000Y-93030000D03*
X163660000Y-93030000D03*
X162560000Y-93030000D03*
X161460000Y-93030000D03*
X160360000Y-93030000D03*
X159260000Y-93030000D03*
X158160000Y-93030000D03*
X157060000Y-93030000D03*
X155960000Y-93030000D03*
D31*
X154310000Y-95930000D03*
X154310000Y-97030000D03*
X154310000Y-98130000D03*
X154310000Y-99230000D03*
X154310000Y-100330000D03*
X154310000Y-101430000D03*
X154310000Y-102530000D03*
X154310000Y-103630000D03*
X154310000Y-104730000D03*
D30*
X155960000Y-107630000D03*
X157060000Y-107630000D03*
X158160000Y-107630000D03*
X159260000Y-107630000D03*
X161460000Y-107630000D03*
X162560000Y-107630000D03*
X163660000Y-107630000D03*
X164760000Y-107630000D03*
X165860000Y-107630000D03*
X166960000Y-107630000D03*
X168060000Y-107630000D03*
X169160000Y-107630000D03*
D31*
X170810000Y-104730000D03*
X170810000Y-103630000D03*
X170810000Y-102530000D03*
X170810000Y-101430000D03*
X170810000Y-100330000D03*
X170810000Y-99230000D03*
X170810000Y-98130000D03*
X170810000Y-97030000D03*
X170810000Y-95930000D03*
D14*
X165260000Y-96730000D03*
X163460000Y-96730000D03*
X161660000Y-96730000D03*
X159860000Y-96730000D03*
X158060000Y-98530000D03*
X158060000Y-100330000D03*
X158060000Y-102130000D03*
X159860000Y-103930000D03*
X161660000Y-103930000D03*
X163460000Y-103930000D03*
X165260000Y-103930000D03*
X167060000Y-102130000D03*
X167060000Y-100330000D03*
X167060000Y-98530000D03*
D30*
X160360000Y-107630000D03*
G04 #@! TA.AperFunction,SMDPad,CuDef*
D15*
G36*
X173251691Y-102916053D02*
G01*
X173272926Y-102919203D01*
X173293750Y-102924419D01*
X173313962Y-102931651D01*
X173333368Y-102940830D01*
X173351781Y-102951866D01*
X173369024Y-102964654D01*
X173384930Y-102979070D01*
X173399346Y-102994976D01*
X173412134Y-103012219D01*
X173423170Y-103030632D01*
X173432349Y-103050038D01*
X173439581Y-103070250D01*
X173444797Y-103091074D01*
X173447947Y-103112309D01*
X173449000Y-103133750D01*
X173449000Y-103571250D01*
X173447947Y-103592691D01*
X173444797Y-103613926D01*
X173439581Y-103634750D01*
X173432349Y-103654962D01*
X173423170Y-103674368D01*
X173412134Y-103692781D01*
X173399346Y-103710024D01*
X173384930Y-103725930D01*
X173369024Y-103740346D01*
X173351781Y-103753134D01*
X173333368Y-103764170D01*
X173313962Y-103773349D01*
X173293750Y-103780581D01*
X173272926Y-103785797D01*
X173251691Y-103788947D01*
X173230250Y-103790000D01*
X172717750Y-103790000D01*
X172696309Y-103788947D01*
X172675074Y-103785797D01*
X172654250Y-103780581D01*
X172634038Y-103773349D01*
X172614632Y-103764170D01*
X172596219Y-103753134D01*
X172578976Y-103740346D01*
X172563070Y-103725930D01*
X172548654Y-103710024D01*
X172535866Y-103692781D01*
X172524830Y-103674368D01*
X172515651Y-103654962D01*
X172508419Y-103634750D01*
X172503203Y-103613926D01*
X172500053Y-103592691D01*
X172499000Y-103571250D01*
X172499000Y-103133750D01*
X172500053Y-103112309D01*
X172503203Y-103091074D01*
X172508419Y-103070250D01*
X172515651Y-103050038D01*
X172524830Y-103030632D01*
X172535866Y-103012219D01*
X172548654Y-102994976D01*
X172563070Y-102979070D01*
X172578976Y-102964654D01*
X172596219Y-102951866D01*
X172614632Y-102940830D01*
X172634038Y-102931651D01*
X172654250Y-102924419D01*
X172675074Y-102919203D01*
X172696309Y-102916053D01*
X172717750Y-102915000D01*
X173230250Y-102915000D01*
X173251691Y-102916053D01*
G37*
G04 #@! TD.AperFunction*
G04 #@! TA.AperFunction,SMDPad,CuDef*
G36*
X173251691Y-104491053D02*
G01*
X173272926Y-104494203D01*
X173293750Y-104499419D01*
X173313962Y-104506651D01*
X173333368Y-104515830D01*
X173351781Y-104526866D01*
X173369024Y-104539654D01*
X173384930Y-104554070D01*
X173399346Y-104569976D01*
X173412134Y-104587219D01*
X173423170Y-104605632D01*
X173432349Y-104625038D01*
X173439581Y-104645250D01*
X173444797Y-104666074D01*
X173447947Y-104687309D01*
X173449000Y-104708750D01*
X173449000Y-105146250D01*
X173447947Y-105167691D01*
X173444797Y-105188926D01*
X173439581Y-105209750D01*
X173432349Y-105229962D01*
X173423170Y-105249368D01*
X173412134Y-105267781D01*
X173399346Y-105285024D01*
X173384930Y-105300930D01*
X173369024Y-105315346D01*
X173351781Y-105328134D01*
X173333368Y-105339170D01*
X173313962Y-105348349D01*
X173293750Y-105355581D01*
X173272926Y-105360797D01*
X173251691Y-105363947D01*
X173230250Y-105365000D01*
X172717750Y-105365000D01*
X172696309Y-105363947D01*
X172675074Y-105360797D01*
X172654250Y-105355581D01*
X172634038Y-105348349D01*
X172614632Y-105339170D01*
X172596219Y-105328134D01*
X172578976Y-105315346D01*
X172563070Y-105300930D01*
X172548654Y-105285024D01*
X172535866Y-105267781D01*
X172524830Y-105249368D01*
X172515651Y-105229962D01*
X172508419Y-105209750D01*
X172503203Y-105188926D01*
X172500053Y-105167691D01*
X172499000Y-105146250D01*
X172499000Y-104708750D01*
X172500053Y-104687309D01*
X172503203Y-104666074D01*
X172508419Y-104645250D01*
X172515651Y-104625038D01*
X172524830Y-104605632D01*
X172535866Y-104587219D01*
X172548654Y-104569976D01*
X172563070Y-104554070D01*
X172578976Y-104539654D01*
X172596219Y-104526866D01*
X172614632Y-104515830D01*
X172634038Y-104506651D01*
X172654250Y-104499419D01*
X172675074Y-104494203D01*
X172696309Y-104491053D01*
X172717750Y-104490000D01*
X173230250Y-104490000D01*
X173251691Y-104491053D01*
G37*
G04 #@! TD.AperFunction*
G04 #@! TA.AperFunction,SMDPad,CuDef*
G36*
X174775691Y-104491053D02*
G01*
X174796926Y-104494203D01*
X174817750Y-104499419D01*
X174837962Y-104506651D01*
X174857368Y-104515830D01*
X174875781Y-104526866D01*
X174893024Y-104539654D01*
X174908930Y-104554070D01*
X174923346Y-104569976D01*
X174936134Y-104587219D01*
X174947170Y-104605632D01*
X174956349Y-104625038D01*
X174963581Y-104645250D01*
X174968797Y-104666074D01*
X174971947Y-104687309D01*
X174973000Y-104708750D01*
X174973000Y-105146250D01*
X174971947Y-105167691D01*
X174968797Y-105188926D01*
X174963581Y-105209750D01*
X174956349Y-105229962D01*
X174947170Y-105249368D01*
X174936134Y-105267781D01*
X174923346Y-105285024D01*
X174908930Y-105300930D01*
X174893024Y-105315346D01*
X174875781Y-105328134D01*
X174857368Y-105339170D01*
X174837962Y-105348349D01*
X174817750Y-105355581D01*
X174796926Y-105360797D01*
X174775691Y-105363947D01*
X174754250Y-105365000D01*
X174241750Y-105365000D01*
X174220309Y-105363947D01*
X174199074Y-105360797D01*
X174178250Y-105355581D01*
X174158038Y-105348349D01*
X174138632Y-105339170D01*
X174120219Y-105328134D01*
X174102976Y-105315346D01*
X174087070Y-105300930D01*
X174072654Y-105285024D01*
X174059866Y-105267781D01*
X174048830Y-105249368D01*
X174039651Y-105229962D01*
X174032419Y-105209750D01*
X174027203Y-105188926D01*
X174024053Y-105167691D01*
X174023000Y-105146250D01*
X174023000Y-104708750D01*
X174024053Y-104687309D01*
X174027203Y-104666074D01*
X174032419Y-104645250D01*
X174039651Y-104625038D01*
X174048830Y-104605632D01*
X174059866Y-104587219D01*
X174072654Y-104569976D01*
X174087070Y-104554070D01*
X174102976Y-104539654D01*
X174120219Y-104526866D01*
X174138632Y-104515830D01*
X174158038Y-104506651D01*
X174178250Y-104499419D01*
X174199074Y-104494203D01*
X174220309Y-104491053D01*
X174241750Y-104490000D01*
X174754250Y-104490000D01*
X174775691Y-104491053D01*
G37*
G04 #@! TD.AperFunction*
G04 #@! TA.AperFunction,SMDPad,CuDef*
G36*
X174775691Y-102916053D02*
G01*
X174796926Y-102919203D01*
X174817750Y-102924419D01*
X174837962Y-102931651D01*
X174857368Y-102940830D01*
X174875781Y-102951866D01*
X174893024Y-102964654D01*
X174908930Y-102979070D01*
X174923346Y-102994976D01*
X174936134Y-103012219D01*
X174947170Y-103030632D01*
X174956349Y-103050038D01*
X174963581Y-103070250D01*
X174968797Y-103091074D01*
X174971947Y-103112309D01*
X174973000Y-103133750D01*
X174973000Y-103571250D01*
X174971947Y-103592691D01*
X174968797Y-103613926D01*
X174963581Y-103634750D01*
X174956349Y-103654962D01*
X174947170Y-103674368D01*
X174936134Y-103692781D01*
X174923346Y-103710024D01*
X174908930Y-103725930D01*
X174893024Y-103740346D01*
X174875781Y-103753134D01*
X174857368Y-103764170D01*
X174837962Y-103773349D01*
X174817750Y-103780581D01*
X174796926Y-103785797D01*
X174775691Y-103788947D01*
X174754250Y-103790000D01*
X174241750Y-103790000D01*
X174220309Y-103788947D01*
X174199074Y-103785797D01*
X174178250Y-103780581D01*
X174158038Y-103773349D01*
X174138632Y-103764170D01*
X174120219Y-103753134D01*
X174102976Y-103740346D01*
X174087070Y-103725930D01*
X174072654Y-103710024D01*
X174059866Y-103692781D01*
X174048830Y-103674368D01*
X174039651Y-103654962D01*
X174032419Y-103634750D01*
X174027203Y-103613926D01*
X174024053Y-103592691D01*
X174023000Y-103571250D01*
X174023000Y-103133750D01*
X174024053Y-103112309D01*
X174027203Y-103091074D01*
X174032419Y-103070250D01*
X174039651Y-103050038D01*
X174048830Y-103030632D01*
X174059866Y-103012219D01*
X174072654Y-102994976D01*
X174087070Y-102979070D01*
X174102976Y-102964654D01*
X174120219Y-102951866D01*
X174138632Y-102940830D01*
X174158038Y-102931651D01*
X174178250Y-102924419D01*
X174199074Y-102919203D01*
X174220309Y-102916053D01*
X174241750Y-102915000D01*
X174754250Y-102915000D01*
X174775691Y-102916053D01*
G37*
G04 #@! TD.AperFunction*
G04 #@! TA.AperFunction,SMDPad,CuDef*
G36*
X174763691Y-105952053D02*
G01*
X174784926Y-105955203D01*
X174805750Y-105960419D01*
X174825962Y-105967651D01*
X174845368Y-105976830D01*
X174863781Y-105987866D01*
X174881024Y-106000654D01*
X174896930Y-106015070D01*
X174911346Y-106030976D01*
X174924134Y-106048219D01*
X174935170Y-106066632D01*
X174944349Y-106086038D01*
X174951581Y-106106250D01*
X174956797Y-106127074D01*
X174959947Y-106148309D01*
X174961000Y-106169750D01*
X174961000Y-106682250D01*
X174959947Y-106703691D01*
X174956797Y-106724926D01*
X174951581Y-106745750D01*
X174944349Y-106765962D01*
X174935170Y-106785368D01*
X174924134Y-106803781D01*
X174911346Y-106821024D01*
X174896930Y-106836930D01*
X174881024Y-106851346D01*
X174863781Y-106864134D01*
X174845368Y-106875170D01*
X174825962Y-106884349D01*
X174805750Y-106891581D01*
X174784926Y-106896797D01*
X174763691Y-106899947D01*
X174742250Y-106901000D01*
X174304750Y-106901000D01*
X174283309Y-106899947D01*
X174262074Y-106896797D01*
X174241250Y-106891581D01*
X174221038Y-106884349D01*
X174201632Y-106875170D01*
X174183219Y-106864134D01*
X174165976Y-106851346D01*
X174150070Y-106836930D01*
X174135654Y-106821024D01*
X174122866Y-106803781D01*
X174111830Y-106785368D01*
X174102651Y-106765962D01*
X174095419Y-106745750D01*
X174090203Y-106724926D01*
X174087053Y-106703691D01*
X174086000Y-106682250D01*
X174086000Y-106169750D01*
X174087053Y-106148309D01*
X174090203Y-106127074D01*
X174095419Y-106106250D01*
X174102651Y-106086038D01*
X174111830Y-106066632D01*
X174122866Y-106048219D01*
X174135654Y-106030976D01*
X174150070Y-106015070D01*
X174165976Y-106000654D01*
X174183219Y-105987866D01*
X174201632Y-105976830D01*
X174221038Y-105967651D01*
X174241250Y-105960419D01*
X174262074Y-105955203D01*
X174283309Y-105952053D01*
X174304750Y-105951000D01*
X174742250Y-105951000D01*
X174763691Y-105952053D01*
G37*
G04 #@! TD.AperFunction*
G04 #@! TA.AperFunction,SMDPad,CuDef*
G36*
X173188691Y-105952053D02*
G01*
X173209926Y-105955203D01*
X173230750Y-105960419D01*
X173250962Y-105967651D01*
X173270368Y-105976830D01*
X173288781Y-105987866D01*
X173306024Y-106000654D01*
X173321930Y-106015070D01*
X173336346Y-106030976D01*
X173349134Y-106048219D01*
X173360170Y-106066632D01*
X173369349Y-106086038D01*
X173376581Y-106106250D01*
X173381797Y-106127074D01*
X173384947Y-106148309D01*
X173386000Y-106169750D01*
X173386000Y-106682250D01*
X173384947Y-106703691D01*
X173381797Y-106724926D01*
X173376581Y-106745750D01*
X173369349Y-106765962D01*
X173360170Y-106785368D01*
X173349134Y-106803781D01*
X173336346Y-106821024D01*
X173321930Y-106836930D01*
X173306024Y-106851346D01*
X173288781Y-106864134D01*
X173270368Y-106875170D01*
X173250962Y-106884349D01*
X173230750Y-106891581D01*
X173209926Y-106896797D01*
X173188691Y-106899947D01*
X173167250Y-106901000D01*
X172729750Y-106901000D01*
X172708309Y-106899947D01*
X172687074Y-106896797D01*
X172666250Y-106891581D01*
X172646038Y-106884349D01*
X172626632Y-106875170D01*
X172608219Y-106864134D01*
X172590976Y-106851346D01*
X172575070Y-106836930D01*
X172560654Y-106821024D01*
X172547866Y-106803781D01*
X172536830Y-106785368D01*
X172527651Y-106765962D01*
X172520419Y-106745750D01*
X172515203Y-106724926D01*
X172512053Y-106703691D01*
X172511000Y-106682250D01*
X172511000Y-106169750D01*
X172512053Y-106148309D01*
X172515203Y-106127074D01*
X172520419Y-106106250D01*
X172527651Y-106086038D01*
X172536830Y-106066632D01*
X172547866Y-106048219D01*
X172560654Y-106030976D01*
X172575070Y-106015070D01*
X172590976Y-106000654D01*
X172608219Y-105987866D01*
X172626632Y-105976830D01*
X172646038Y-105967651D01*
X172666250Y-105960419D01*
X172687074Y-105955203D01*
X172708309Y-105952053D01*
X172729750Y-105951000D01*
X173167250Y-105951000D01*
X173188691Y-105952053D01*
G37*
G04 #@! TD.AperFunction*
D32*
X177355500Y-101028500D03*
X178879500Y-101028500D03*
X178117500Y-99504500D03*
X176593500Y-99250500D03*
X178371500Y-96456500D03*
X175831500Y-101028500D03*
X172910500Y-108204000D03*
X177800000Y-104140000D03*
X174244000Y-107950000D03*
X171196000Y-106680000D03*
X174752000Y-96520000D03*
X139787669Y-99955662D03*
X160274000Y-99314000D03*
X152781000Y-92646500D03*
X148526500Y-102362000D03*
X169291000Y-99250500D03*
X169989500Y-92900500D03*
X174752000Y-93027500D03*
X168211500Y-105791000D03*
X177292000Y-94234000D03*
X171704000Y-108458000D03*
X170434000Y-108458000D03*
X177419000Y-106680000D03*
X157226000Y-105156000D03*
X165100000Y-91079989D03*
X167386000Y-94996000D03*
X156926330Y-96737010D03*
X159766000Y-105030002D03*
D33*
X172212000Y-97790000D03*
X156357989Y-98535909D03*
X143677015Y-95036015D03*
X146494500Y-107823000D03*
X137604500Y-94996000D03*
X149352000Y-98044000D03*
D32*
X145006096Y-106581021D03*
X144526000Y-101854000D03*
X142430500Y-90106500D03*
X142105284Y-94406505D03*
X143002000Y-91186000D03*
X143129000Y-106299000D03*
X144145000Y-107188000D03*
X143673990Y-104140000D03*
X140589000Y-102743000D03*
X148336000Y-107696000D03*
X147574000Y-101600000D03*
X151384000Y-101092000D03*
X155932350Y-102854938D03*
X152971500Y-93789500D03*
X141097000Y-97028000D03*
X141351000Y-99758500D03*
X156676801Y-101320219D03*
X156260003Y-100388968D03*
X142748000Y-101346000D03*
X154434960Y-93915847D03*
X154559000Y-92710000D03*
X161925000Y-94980011D03*
X167386000Y-91529998D03*
X166052500Y-94996000D03*
X151459964Y-104830955D03*
X161376915Y-107656044D03*
X150936678Y-103978784D03*
X162709995Y-107557001D03*
X168910000Y-102616000D03*
X151132250Y-102877077D03*
X168159223Y-101599428D03*
X150829294Y-101924060D03*
X163953105Y-101294194D03*
X155257500Y-96012000D03*
X159131000Y-93980000D03*
X159512000Y-101727000D03*
X166433500Y-103378000D03*
D34*
X174523500Y-101854000D02*
X174523500Y-100330000D01*
X174523500Y-100330000D02*
X174523500Y-98806000D01*
X174523500Y-98286000D02*
X176289500Y-96520000D01*
X174523500Y-98806000D02*
X174523500Y-98286000D01*
X174498000Y-101879500D02*
X174523500Y-101854000D01*
X174498000Y-103352500D02*
X174498000Y-101879500D01*
X172974000Y-103352500D02*
X174498000Y-103352500D01*
X170810000Y-104730000D02*
X170810000Y-103630000D01*
X170810000Y-100330000D02*
X170810000Y-99230000D01*
X172696500Y-103630000D02*
X172974000Y-103352500D01*
X170810000Y-103630000D02*
X172696500Y-103630000D01*
X179300000Y-104890000D02*
X179300000Y-104140000D01*
X179150000Y-105615000D02*
X179300000Y-105465000D01*
X179300000Y-105465000D02*
X179300000Y-104890000D01*
X177800000Y-105615000D02*
X179150000Y-105615000D01*
X179150000Y-102665000D02*
X177800000Y-102665000D01*
X179300000Y-102815000D02*
X179150000Y-102665000D01*
X179300000Y-104140000D02*
X179300000Y-102815000D01*
X131203000Y-97845000D02*
X131473000Y-97575000D01*
X131203000Y-99345000D02*
X131203000Y-97845000D01*
X131203000Y-102765000D02*
X131473000Y-103035000D01*
X131203000Y-101265000D02*
X131203000Y-102765000D01*
X134473000Y-101725000D02*
X134353000Y-101605000D01*
X134473000Y-103205000D02*
X134473000Y-101725000D01*
X151812500Y-92585500D02*
X152720000Y-92585500D01*
X152720000Y-92585500D02*
X152781000Y-92646500D01*
X147842000Y-102856000D02*
X147570000Y-102856000D01*
X148526500Y-102362000D02*
X147842000Y-102856000D01*
X174752000Y-96520000D02*
X176289500Y-96520000D01*
X170810000Y-99230000D02*
X169311500Y-99230000D01*
X169311500Y-99230000D02*
X169291000Y-99250500D01*
X169606000Y-93030000D02*
X169160000Y-93030000D01*
X169989500Y-92900500D02*
X169606000Y-93030000D01*
X173761500Y-93091000D02*
X174688500Y-93091000D01*
X174688500Y-93091000D02*
X174752000Y-93027500D01*
X168060000Y-107630000D02*
X168060000Y-105942500D01*
X168060000Y-105942500D02*
X168211500Y-105791000D01*
X177800000Y-106299000D02*
X177419000Y-106680000D01*
X177800000Y-105615000D02*
X177800000Y-106299000D01*
X177800000Y-104140000D02*
X179300000Y-104140000D01*
X177800000Y-105615000D02*
X177800000Y-104140000D01*
X177800000Y-104140000D02*
X177800000Y-102665000D01*
X159036000Y-105156000D02*
X157226000Y-105156000D01*
X160360000Y-106480000D02*
X159036000Y-105156000D01*
X160360000Y-107630000D02*
X160360000Y-106480000D01*
X139192000Y-99822000D02*
X139787669Y-99955662D01*
X138176000Y-99060000D02*
X138729229Y-99613229D01*
X138729229Y-99613229D02*
X139192000Y-99822000D01*
X176300000Y-105087000D02*
X176300000Y-104890000D01*
X176300000Y-104890000D02*
X176300000Y-104140000D01*
X174961000Y-106426000D02*
X176300000Y-105087000D01*
X174523500Y-106426000D02*
X174961000Y-106426000D01*
X174523500Y-104953000D02*
X174498000Y-104927500D01*
X174523500Y-106426000D02*
X174523500Y-104953000D01*
X170810000Y-98130000D02*
X170810000Y-97030000D01*
X172704500Y-97030000D02*
X173214500Y-96520000D01*
X170810000Y-97030000D02*
X172704500Y-97030000D01*
X172948500Y-101854000D02*
X172948500Y-100330000D01*
X172948500Y-100330000D02*
X172948500Y-98806000D01*
X172948500Y-96786000D02*
X173214500Y-96520000D01*
X172948500Y-98806000D02*
X172948500Y-96786000D01*
X147070000Y-107786000D02*
X147070000Y-107456000D01*
D35*
X172212000Y-97522500D02*
X173214500Y-96520000D01*
X172212000Y-97790000D02*
X172212000Y-97522500D01*
X156363898Y-98530000D02*
X156357989Y-98535909D01*
X158060000Y-98530000D02*
X156363898Y-98530000D01*
X143637000Y-94996000D02*
X143677015Y-95036015D01*
X143637000Y-94005500D02*
X143637000Y-94996000D01*
X147070000Y-107456000D02*
X146861500Y-107456000D01*
X146861500Y-107456000D02*
X146494500Y-107823000D01*
X137668000Y-94443000D02*
X137668000Y-94005500D01*
X137604500Y-94506500D02*
X137668000Y-94443000D01*
X137604500Y-94996000D02*
X137604500Y-94506500D01*
X150533000Y-97790000D02*
X150533000Y-97536000D01*
X149352000Y-98044000D02*
X150533000Y-97790000D01*
D34*
X135861000Y-99655000D02*
X136456000Y-99060000D01*
X134353000Y-99655000D02*
X135861000Y-99655000D01*
X139674500Y-98331000D02*
X139674500Y-98806000D01*
X136456000Y-99060000D02*
X136456000Y-98110000D01*
X139674500Y-98215496D02*
X139674500Y-98331000D01*
X136456000Y-98110000D02*
X136522500Y-98110000D01*
X139494003Y-98034999D02*
X139674500Y-98215496D01*
X136597501Y-98034999D02*
X139494003Y-98034999D01*
X136522500Y-98110000D02*
X136597501Y-98034999D01*
X136144000Y-100948000D02*
X136456000Y-101260000D01*
X136144000Y-100584000D02*
X136144000Y-100948000D01*
X134353000Y-100305000D02*
X135865000Y-100305000D01*
X135865000Y-100305000D02*
X136144000Y-100584000D01*
X136456000Y-100310000D02*
X136531001Y-100234999D01*
X136531001Y-100234999D02*
X138994002Y-100234999D01*
X139674500Y-101125000D02*
X139674500Y-101600000D01*
X138994002Y-100234999D02*
X139674500Y-100915497D01*
X136456000Y-101260000D02*
X136456000Y-100310000D01*
X139674500Y-100915497D02*
X139674500Y-101125000D01*
X149812500Y-95665500D02*
X150159000Y-96012000D01*
X150159000Y-96012000D02*
X150596500Y-96012000D01*
X149812500Y-93535500D02*
X149812500Y-95665500D01*
X152108000Y-96075500D02*
X152171500Y-96012000D01*
X152108000Y-97536000D02*
X152108000Y-96075500D01*
X145181117Y-106406000D02*
X145006096Y-106581021D01*
X146020000Y-106406000D02*
X145181117Y-106406000D01*
X142494000Y-95250000D02*
X142105284Y-94972190D01*
X144526000Y-101854000D02*
X142494000Y-99568000D01*
X142105284Y-94972190D02*
X142105284Y-94406505D01*
X142494000Y-99568000D02*
X142494000Y-95250000D01*
X143700500Y-90106500D02*
X142430500Y-90106500D01*
X144170011Y-90576011D02*
X143700500Y-90106500D01*
X144170011Y-91345001D02*
X144170011Y-90576011D01*
X158750000Y-90170000D02*
X157574999Y-91345001D01*
X157574999Y-91345001D02*
X144170011Y-91345001D01*
X158463599Y-91354988D02*
X160105012Y-91354988D01*
X149286001Y-91804999D02*
X158013588Y-91804999D01*
X160440001Y-91019999D02*
X161290000Y-90170000D01*
X158013588Y-91804999D02*
X158463599Y-91354988D01*
X160105012Y-91354988D02*
X160440001Y-91019999D01*
X148844000Y-92247000D02*
X149286001Y-91804999D01*
X148844000Y-92345000D02*
X148844000Y-92247000D01*
X148631500Y-92557500D02*
X148844000Y-92345000D01*
X146431000Y-92557500D02*
X148631500Y-92557500D01*
X145837500Y-92430500D02*
X146050000Y-92218000D01*
X143637000Y-92430500D02*
X145837500Y-92430500D01*
X139868500Y-92430500D02*
X140081000Y-92218000D01*
X137668000Y-92430500D02*
X139868500Y-92430500D01*
X142340028Y-92218000D02*
X140081000Y-92218000D01*
X142755019Y-91803009D02*
X142340028Y-92218000D01*
X143002000Y-91186000D02*
X142755019Y-91803009D01*
X144161012Y-108764988D02*
X146020000Y-106906000D01*
X135890000Y-110490000D02*
X137615012Y-108764988D01*
X137615012Y-108764988D02*
X144161012Y-108764988D01*
X143964996Y-105406000D02*
X143292998Y-106077998D01*
X146020000Y-105406000D02*
X143964996Y-105406000D01*
X143292998Y-106077998D02*
X143292998Y-106135002D01*
X143292998Y-106135002D02*
X143129000Y-106299000D01*
X145320000Y-105906000D02*
X145270011Y-105856011D01*
X146020000Y-105906000D02*
X145320000Y-105906000D01*
X144587989Y-105856011D02*
X144145000Y-106299000D01*
X145270011Y-105856011D02*
X144587989Y-105856011D01*
X144145000Y-106299000D02*
X144018000Y-106426000D01*
X144018000Y-107061000D02*
X144145000Y-107188000D01*
X144018000Y-106426000D02*
X144018000Y-107061000D01*
X137954001Y-106139999D02*
X137628999Y-106465001D01*
X146020000Y-104906000D02*
X143448996Y-104906000D01*
X137628999Y-106465001D02*
X136779000Y-107315000D01*
X142214997Y-106139999D02*
X137954001Y-106139999D01*
X143448996Y-104906000D02*
X142214997Y-106139999D01*
X146020000Y-104406000D02*
X144907000Y-104394000D01*
X144907000Y-104394000D02*
X144789179Y-104406000D01*
X144907000Y-104394000D02*
X144399000Y-104394000D01*
X144145000Y-104140000D02*
X143673990Y-104140000D01*
X144399000Y-104394000D02*
X144145000Y-104140000D01*
X145320000Y-103406000D02*
X144657000Y-102743000D01*
X144657000Y-102743000D02*
X141154685Y-102743000D01*
X141154685Y-102743000D02*
X140589000Y-102743000D01*
X146020000Y-103406000D02*
X145320000Y-103406000D01*
X143362996Y-103468002D02*
X143415999Y-103414999D01*
X145320000Y-103906000D02*
X146020000Y-103906000D01*
X144112001Y-103414999D02*
X144603002Y-103906000D01*
X138085998Y-103468002D02*
X143362996Y-103468002D01*
X144603002Y-103906000D02*
X145320000Y-103906000D01*
X136779000Y-104775000D02*
X138085998Y-103468002D01*
X143415999Y-103414999D02*
X144112001Y-103414999D01*
X153160000Y-98130000D02*
X154310000Y-98130000D01*
X152934010Y-97904010D02*
X153160000Y-98130000D01*
X152512500Y-94485500D02*
X152934010Y-94907010D01*
X152934010Y-94907010D02*
X152934010Y-97904010D01*
X151812500Y-94485500D02*
X152512500Y-94485500D01*
D35*
X145415000Y-95758000D02*
X145440500Y-95758000D01*
D34*
X147570000Y-107456000D02*
X147570000Y-108156000D01*
X153598998Y-108156000D02*
X155349999Y-106404999D01*
X155349999Y-106404999D02*
X156984999Y-106404999D01*
X156984999Y-106404999D02*
X157060000Y-106480000D01*
X147570000Y-108156000D02*
X153598998Y-108156000D01*
X157060000Y-106480000D02*
X157060000Y-107630000D01*
X148082000Y-107950000D02*
X147570000Y-108156000D01*
X148336000Y-107696000D02*
X148082000Y-107950000D01*
X147574000Y-101600000D02*
X147402087Y-101823913D01*
X147070000Y-102156000D02*
X147070000Y-102856000D01*
X147402087Y-101823913D02*
X147070000Y-102156000D01*
X145135500Y-94253500D02*
X145100000Y-94218000D01*
X145135500Y-95631000D02*
X145135500Y-94253500D01*
X139293500Y-94380500D02*
X139131000Y-94218000D01*
X139293500Y-95631000D02*
X139293500Y-94380500D01*
X145135500Y-96106000D02*
X147574000Y-98544500D01*
X145135500Y-95631000D02*
X145135500Y-96106000D01*
X147574000Y-98544500D02*
X147574000Y-101600000D01*
X144824990Y-93242990D02*
X145100000Y-93518000D01*
X145100000Y-93518000D02*
X145100000Y-94218000D01*
X139406010Y-93242990D02*
X144824990Y-93242990D01*
X139131000Y-94218000D02*
X139131000Y-93518000D01*
X139131000Y-93518000D02*
X139406010Y-93242990D01*
X146710500Y-94507500D02*
X147000000Y-94218000D01*
X146710500Y-95631000D02*
X146710500Y-94507500D01*
X146710500Y-96984185D02*
X146710500Y-96106000D01*
X146710500Y-96106000D02*
X146710500Y-95631000D01*
X150818315Y-101092000D02*
X146710500Y-96984185D01*
X151384000Y-101092000D02*
X150818315Y-101092000D01*
X155607412Y-102530000D02*
X155932350Y-102854938D01*
X154310000Y-102530000D02*
X155607412Y-102530000D01*
X162560000Y-94180000D02*
X162560000Y-93030000D01*
X159229789Y-95125933D02*
X160100721Y-94255001D01*
X160100721Y-94255001D02*
X162484999Y-94255001D01*
X162484999Y-94255001D02*
X162560000Y-94180000D01*
X140868500Y-94380500D02*
X141031000Y-94218000D01*
X140868500Y-95631000D02*
X140868500Y-94380500D01*
X159229789Y-95125933D02*
X154307933Y-95125933D01*
X154307933Y-95125933D02*
X152971500Y-93789500D01*
X141097000Y-95859500D02*
X140868500Y-95631000D01*
X141097000Y-97028000D02*
X141097000Y-95859500D01*
X171749000Y-93091000D02*
X172186500Y-93091000D01*
X170934002Y-93091000D02*
X171749000Y-93091000D01*
X161660000Y-96730000D02*
X161660000Y-97480000D01*
X161660000Y-97480000D02*
X161970000Y-97790000D01*
X161970000Y-97790000D02*
X162055001Y-97704999D01*
X162055001Y-97704999D02*
X166320003Y-97704999D01*
X166320003Y-97704999D02*
X170934002Y-93091000D01*
X141351000Y-99758500D02*
X141249500Y-99086308D01*
X141249500Y-99086308D02*
X141249500Y-98806000D01*
X157310000Y-102130000D02*
X156676801Y-101496801D01*
X156676801Y-101496801D02*
X156676801Y-101320219D01*
X158060000Y-102130000D02*
X157310000Y-102130000D01*
X158060000Y-100330000D02*
X156318971Y-100330000D01*
X156318971Y-100330000D02*
X156260003Y-100388968D01*
X141355977Y-101493523D02*
X141249500Y-101600000D01*
X142748000Y-101346000D02*
X141355977Y-101493523D01*
X156635001Y-93030000D02*
X156635001Y-94190001D01*
X156570001Y-94255001D02*
X154774114Y-94255001D01*
X157060000Y-93030000D02*
X156635001Y-93030000D01*
X156635001Y-94190001D02*
X156570001Y-94255001D01*
X154774114Y-94255001D02*
X154434960Y-93915847D01*
X155640000Y-92710000D02*
X155960000Y-93030000D01*
X154559000Y-92710000D02*
X155640000Y-92710000D01*
X158584999Y-91869999D02*
X158584999Y-93030000D01*
X158584999Y-93030000D02*
X158160000Y-93030000D01*
X167386000Y-91529998D02*
X167110999Y-91804999D01*
X167110999Y-91804999D02*
X158649999Y-91804999D01*
X158649999Y-91804999D02*
X158584999Y-91869999D01*
X161940989Y-94996000D02*
X161925000Y-94980011D01*
X166052500Y-94996000D02*
X161940989Y-94996000D01*
X156681002Y-104437585D02*
X154212587Y-106906000D01*
X149320000Y-106906000D02*
X148620000Y-106906000D01*
X155460000Y-97030000D02*
X155535002Y-97105002D01*
X155535002Y-101300472D02*
X156681002Y-102446472D01*
X154310000Y-97030000D02*
X155460000Y-97030000D01*
X154212587Y-106906000D02*
X149320000Y-106906000D01*
X155535002Y-97105002D02*
X155535002Y-101300472D01*
X156681002Y-102446472D02*
X156681002Y-104437585D01*
X149636000Y-106406000D02*
X149685990Y-106455990D01*
X153084999Y-105864166D02*
X153084999Y-101990825D01*
X149685990Y-106455990D02*
X152493175Y-106455990D01*
X148620000Y-106406000D02*
X149636000Y-106406000D01*
X152493175Y-106455990D02*
X153084999Y-105864166D01*
X153645824Y-101430000D02*
X154310000Y-101430000D01*
X153084999Y-101990825D02*
X153645824Y-101430000D01*
X148620000Y-105906000D02*
X150715112Y-105906000D01*
X152306775Y-106005979D02*
X152634988Y-105677766D01*
X152813012Y-101626401D02*
X152813012Y-100676988D01*
X153160000Y-100330000D02*
X154310000Y-100330000D01*
X152634988Y-101804425D02*
X152813012Y-101626401D01*
X150715112Y-105906000D02*
X150815091Y-106005979D01*
X152634988Y-105677766D02*
X152634988Y-101804425D01*
X150815091Y-106005979D02*
X152306775Y-106005979D01*
X152813012Y-100676988D02*
X153160000Y-100330000D01*
X152363001Y-101440001D02*
X152363001Y-100112999D01*
X153246000Y-99230000D02*
X154310000Y-99230000D01*
X152184977Y-105288802D02*
X152184977Y-101618025D01*
X151001491Y-105555968D02*
X151917811Y-105555968D01*
X148620000Y-105406000D02*
X150851523Y-105406000D01*
X150851523Y-105406000D02*
X151001491Y-105555968D01*
X152363001Y-100112999D02*
X153246000Y-99230000D01*
X152184977Y-101618025D02*
X152363001Y-101440001D01*
X151917811Y-105555968D02*
X152184977Y-105288802D01*
X150819234Y-104906000D02*
X150894279Y-104830955D01*
X150894279Y-104830955D02*
X151459964Y-104830955D01*
X149636000Y-104906000D02*
X150819234Y-104906000D01*
X149636000Y-104906000D02*
X148620000Y-104906000D01*
X161433956Y-107656044D02*
X161376915Y-107656044D01*
X161460000Y-107630000D02*
X161433956Y-107656044D01*
X150936678Y-103978784D02*
X150509462Y-104406000D01*
X149636000Y-104406000D02*
X148620000Y-104406000D01*
X150509462Y-104406000D02*
X149636000Y-104406000D01*
X162560000Y-107630000D02*
X162695814Y-107630000D01*
X162709995Y-107615819D02*
X162709995Y-107557001D01*
X162695814Y-107630000D02*
X162709995Y-107615819D01*
X170724000Y-102616000D02*
X170810000Y-102530000D01*
X168910000Y-102616000D02*
X170724000Y-102616000D01*
X150732251Y-103277076D02*
X151132250Y-102877077D01*
X150565384Y-103277076D02*
X150732251Y-103277076D01*
X148620000Y-103906000D02*
X149936460Y-103906000D01*
X149936460Y-103906000D02*
X150565384Y-103277076D01*
X170640572Y-101599428D02*
X170810000Y-101430000D01*
X168159223Y-101599428D02*
X170640572Y-101599428D01*
X148620000Y-103406000D02*
X149347354Y-103406000D01*
X149347354Y-103406000D02*
X150829294Y-101924060D01*
X146884999Y-105192999D02*
X147098000Y-105406000D01*
X172948500Y-106901000D02*
X172948500Y-106426000D01*
X172219500Y-107630000D02*
X172948500Y-106901000D01*
X169160000Y-107630000D02*
X172219500Y-107630000D01*
X172948500Y-104953000D02*
X172974000Y-104927500D01*
X172948500Y-106426000D02*
X172948500Y-104953000D01*
X163942300Y-101304999D02*
X163953105Y-101294194D01*
X154392000Y-96012000D02*
X154310000Y-95930000D01*
X157988000Y-96443002D02*
X159512000Y-97967002D01*
X155257500Y-96012000D02*
X154392000Y-96012000D01*
X160486999Y-101304999D02*
X163942300Y-101304999D01*
X155257500Y-96012000D02*
X157988000Y-96012000D01*
X157988000Y-96012000D02*
X157988000Y-96443002D01*
X159512000Y-97967002D02*
X159512000Y-100330000D01*
X159512000Y-100330000D02*
X160486999Y-101304999D01*
X159131000Y-93980000D02*
X159260000Y-94022720D01*
X159260000Y-94022720D02*
X159260000Y-93030000D01*
X165182499Y-102126999D02*
X166433500Y-103378000D01*
X159911999Y-102126999D02*
X165182499Y-102126999D01*
X159512000Y-101727000D02*
X159911999Y-102126999D01*
X138245594Y-101149594D02*
X138245594Y-100960009D01*
X138356000Y-101260000D02*
X138245594Y-101149594D01*
D36*
G36*
X176261802Y-89565701D02*
G01*
X175925701Y-89901802D01*
X175661628Y-90297016D01*
X175479731Y-90736154D01*
X175387000Y-91202340D01*
X175387000Y-91677660D01*
X175479731Y-92143846D01*
X175661628Y-92582984D01*
X175925701Y-92978198D01*
X176261802Y-93314299D01*
X176657016Y-93578372D01*
X177096154Y-93760269D01*
X177562340Y-93853000D01*
X178037660Y-93853000D01*
X178503846Y-93760269D01*
X178942984Y-93578372D01*
X179338198Y-93314299D01*
X179674299Y-92978198D01*
X179680000Y-92969666D01*
X179680001Y-103003649D01*
X179585750Y-103005000D01*
X179536331Y-103054419D01*
X179535000Y-102950750D01*
X179376250Y-102792000D01*
X177927000Y-102792000D01*
X177927000Y-103666250D01*
X178085750Y-103825000D01*
X178164585Y-103825297D01*
X178165000Y-103854250D01*
X178323750Y-104013000D01*
X179173000Y-104013000D01*
X179173000Y-103993000D01*
X179427000Y-103993000D01*
X179427000Y-104013000D01*
X179447000Y-104013000D01*
X179447000Y-104267000D01*
X179427000Y-104267000D01*
X179427000Y-104287000D01*
X179173000Y-104287000D01*
X179173000Y-104267000D01*
X178323750Y-104267000D01*
X178165000Y-104425750D01*
X178164585Y-104454703D01*
X178085750Y-104455000D01*
X177927000Y-104613750D01*
X177927000Y-105488000D01*
X179376250Y-105488000D01*
X179535000Y-105329250D01*
X179536331Y-105225581D01*
X179585750Y-105275000D01*
X179680001Y-105276351D01*
X179680001Y-107690336D01*
X179674299Y-107681802D01*
X179338198Y-107345701D01*
X178942984Y-107081628D01*
X178503846Y-106899731D01*
X178037660Y-106807000D01*
X177562340Y-106807000D01*
X177096154Y-106899731D01*
X176657016Y-107081628D01*
X176261802Y-107345701D01*
X175925701Y-107681802D01*
X175661628Y-108077016D01*
X175479731Y-108516154D01*
X175387000Y-108982340D01*
X175387000Y-109457660D01*
X175479731Y-109923846D01*
X175661628Y-110362984D01*
X175925701Y-110758198D01*
X176261802Y-111094299D01*
X176270334Y-111100000D01*
X175341696Y-111100000D01*
X175431481Y-110846891D01*
X175310814Y-110617000D01*
X174117000Y-110617000D01*
X174117000Y-110637000D01*
X173863000Y-110637000D01*
X173863000Y-110617000D01*
X173843000Y-110617000D01*
X173843000Y-110363000D01*
X173863000Y-110363000D01*
X173863000Y-109169845D01*
X174117000Y-109169845D01*
X174117000Y-110363000D01*
X175310814Y-110363000D01*
X175431481Y-110133109D01*
X175334157Y-109858748D01*
X175185178Y-109608645D01*
X174990269Y-109392412D01*
X174756920Y-109218359D01*
X174494099Y-109093175D01*
X174346890Y-109048524D01*
X174117000Y-109169845D01*
X173863000Y-109169845D01*
X173633110Y-109048524D01*
X173485901Y-109093175D01*
X173223080Y-109218359D01*
X172989731Y-109392412D01*
X172794822Y-109608645D01*
X172725195Y-109725534D01*
X172603475Y-109543368D01*
X172396632Y-109336525D01*
X172153411Y-109174010D01*
X171883158Y-109062068D01*
X171596260Y-109005000D01*
X171303740Y-109005000D01*
X171016842Y-109062068D01*
X170746589Y-109174010D01*
X170503368Y-109336525D01*
X170296525Y-109543368D01*
X170180000Y-109717760D01*
X170063475Y-109543368D01*
X169856632Y-109336525D01*
X169727624Y-109250325D01*
X169727290Y-109127659D01*
X169754180Y-109119502D01*
X169864494Y-109060537D01*
X169961185Y-108981185D01*
X170040537Y-108884494D01*
X170099502Y-108774180D01*
X170135812Y-108654482D01*
X170148072Y-108530000D01*
X170148072Y-108390000D01*
X172182178Y-108390000D01*
X172219500Y-108393676D01*
X172256822Y-108390000D01*
X172256833Y-108390000D01*
X172368486Y-108379003D01*
X172511747Y-108335546D01*
X172643776Y-108264974D01*
X172759501Y-108170001D01*
X172783303Y-108140998D01*
X173430992Y-107493310D01*
X173495142Y-107473850D01*
X173643275Y-107394671D01*
X173736000Y-107318574D01*
X173828725Y-107394671D01*
X173976858Y-107473850D01*
X174137592Y-107522608D01*
X174304750Y-107539072D01*
X174742250Y-107539072D01*
X174909408Y-107522608D01*
X175070142Y-107473850D01*
X175218275Y-107394671D01*
X175348115Y-107288115D01*
X175454671Y-107158275D01*
X175533850Y-107010142D01*
X175569639Y-106892162D01*
X176102846Y-106358955D01*
X176110498Y-106384180D01*
X176169463Y-106494494D01*
X176248815Y-106591185D01*
X176345506Y-106670537D01*
X176455820Y-106729502D01*
X176575518Y-106765812D01*
X176700000Y-106778072D01*
X177514250Y-106775000D01*
X177673000Y-106616250D01*
X177673000Y-105742000D01*
X177927000Y-105742000D01*
X177927000Y-106616250D01*
X178085750Y-106775000D01*
X178900000Y-106778072D01*
X179024482Y-106765812D01*
X179144180Y-106729502D01*
X179254494Y-106670537D01*
X179351185Y-106591185D01*
X179430537Y-106494494D01*
X179489502Y-106384180D01*
X179525812Y-106264482D01*
X179538072Y-106140000D01*
X179535000Y-105900750D01*
X179376250Y-105742000D01*
X177927000Y-105742000D01*
X177673000Y-105742000D01*
X177653000Y-105742000D01*
X177653000Y-105488000D01*
X177673000Y-105488000D01*
X177673000Y-104613750D01*
X177514250Y-104455000D01*
X177438072Y-104454713D01*
X177438072Y-103825287D01*
X177514250Y-103825000D01*
X177673000Y-103666250D01*
X177673000Y-102792000D01*
X176223750Y-102792000D01*
X176065000Y-102950750D01*
X176064343Y-103001928D01*
X175800000Y-103001928D01*
X175675518Y-103014188D01*
X175608653Y-103034471D01*
X175611072Y-102915000D01*
X175598812Y-102790518D01*
X175562502Y-102670820D01*
X175530407Y-102610775D01*
X175550502Y-102573180D01*
X175586812Y-102453482D01*
X175599072Y-102329000D01*
X175596005Y-102140000D01*
X176061928Y-102140000D01*
X176065000Y-102379250D01*
X176223750Y-102538000D01*
X177673000Y-102538000D01*
X177673000Y-101663750D01*
X177927000Y-101663750D01*
X177927000Y-102538000D01*
X179376250Y-102538000D01*
X179535000Y-102379250D01*
X179538072Y-102140000D01*
X179525812Y-102015518D01*
X179489502Y-101895820D01*
X179430537Y-101785506D01*
X179351185Y-101688815D01*
X179254494Y-101609463D01*
X179144180Y-101550498D01*
X179024482Y-101514188D01*
X178900000Y-101501928D01*
X178085750Y-101505000D01*
X177927000Y-101663750D01*
X177673000Y-101663750D01*
X177514250Y-101505000D01*
X176700000Y-101501928D01*
X176575518Y-101514188D01*
X176455820Y-101550498D01*
X176345506Y-101609463D01*
X176248815Y-101688815D01*
X176169463Y-101785506D01*
X176110498Y-101895820D01*
X176074188Y-102015518D01*
X176061928Y-102140000D01*
X175596005Y-102140000D01*
X175596000Y-102139750D01*
X175437250Y-101981000D01*
X174650500Y-101981000D01*
X174650500Y-102413250D01*
X174625000Y-102438750D01*
X174625000Y-103225500D01*
X174645000Y-103225500D01*
X174645000Y-103479500D01*
X174625000Y-103479500D01*
X174625000Y-103499500D01*
X174371000Y-103499500D01*
X174371000Y-103479500D01*
X173101000Y-103479500D01*
X173101000Y-103499500D01*
X172847000Y-103499500D01*
X172847000Y-103479500D01*
X172827000Y-103479500D01*
X172827000Y-103225500D01*
X172847000Y-103225500D01*
X172847000Y-103205500D01*
X173101000Y-103205500D01*
X173101000Y-103225500D01*
X174371000Y-103225500D01*
X174371000Y-102830750D01*
X174396500Y-102805250D01*
X174396500Y-101981000D01*
X174376500Y-101981000D01*
X174376500Y-101727000D01*
X174396500Y-101727000D01*
X174396500Y-100457000D01*
X174650500Y-100457000D01*
X174650500Y-101727000D01*
X175437250Y-101727000D01*
X175596000Y-101568250D01*
X175599072Y-101379000D01*
X175586812Y-101254518D01*
X175550502Y-101134820D01*
X175527614Y-101092000D01*
X175550502Y-101049180D01*
X175586812Y-100929482D01*
X175599072Y-100805000D01*
X175596000Y-100615750D01*
X175437250Y-100457000D01*
X174650500Y-100457000D01*
X174396500Y-100457000D01*
X174376500Y-100457000D01*
X174376500Y-100203000D01*
X174396500Y-100203000D01*
X174396500Y-98933000D01*
X174650500Y-98933000D01*
X174650500Y-100203000D01*
X175437250Y-100203000D01*
X175596000Y-100044250D01*
X175599072Y-99855000D01*
X175586812Y-99730518D01*
X175550502Y-99610820D01*
X175527614Y-99568000D01*
X175550502Y-99525180D01*
X175586812Y-99405482D01*
X175599072Y-99281000D01*
X175596000Y-99091750D01*
X175437250Y-98933000D01*
X174650500Y-98933000D01*
X174396500Y-98933000D01*
X174376500Y-98933000D01*
X174376500Y-98679000D01*
X174396500Y-98679000D01*
X174396500Y-97854750D01*
X174650500Y-97854750D01*
X174650500Y-98679000D01*
X175437250Y-98679000D01*
X175596000Y-98520250D01*
X175599072Y-98331000D01*
X175586812Y-98206518D01*
X175550502Y-98086820D01*
X175541879Y-98070689D01*
X175627000Y-98079072D01*
X176003750Y-98076000D01*
X176162500Y-97917250D01*
X176162500Y-96393000D01*
X176416500Y-96393000D01*
X176416500Y-97917250D01*
X176575250Y-98076000D01*
X176952000Y-98079072D01*
X177076482Y-98066812D01*
X177196180Y-98030502D01*
X177306494Y-97971537D01*
X177403185Y-97892185D01*
X177482537Y-97795494D01*
X177541502Y-97685180D01*
X177577812Y-97565482D01*
X177590072Y-97441000D01*
X177587000Y-96551750D01*
X177428250Y-96393000D01*
X176416500Y-96393000D01*
X176162500Y-96393000D01*
X175150750Y-96393000D01*
X174992000Y-96551750D01*
X174988928Y-97441000D01*
X175001188Y-97565482D01*
X175037498Y-97685180D01*
X175046121Y-97701311D01*
X174961000Y-97692928D01*
X174809250Y-97696000D01*
X174650500Y-97854750D01*
X174396500Y-97854750D01*
X174302629Y-97760879D01*
X174365405Y-97684387D01*
X174447472Y-97530851D01*
X174498008Y-97364255D01*
X174515072Y-97191001D01*
X174515072Y-95340999D01*
X174498008Y-95167745D01*
X174474728Y-95091000D01*
X174988928Y-95091000D01*
X174992000Y-95980250D01*
X175150750Y-96139000D01*
X176162500Y-96139000D01*
X176162500Y-94614750D01*
X176416500Y-94614750D01*
X176416500Y-96139000D01*
X177428250Y-96139000D01*
X177587000Y-95980250D01*
X177590072Y-95091000D01*
X177577812Y-94966518D01*
X177541502Y-94846820D01*
X177482537Y-94736506D01*
X177403185Y-94639815D01*
X177306494Y-94560463D01*
X177196180Y-94501498D01*
X177076482Y-94465188D01*
X176952000Y-94452928D01*
X176575250Y-94456000D01*
X176416500Y-94614750D01*
X176162500Y-94614750D01*
X176003750Y-94456000D01*
X175627000Y-94452928D01*
X175502518Y-94465188D01*
X175382820Y-94501498D01*
X175272506Y-94560463D01*
X175175815Y-94639815D01*
X175096463Y-94736506D01*
X175037498Y-94846820D01*
X175001188Y-94966518D01*
X174988928Y-95091000D01*
X174474728Y-95091000D01*
X174447472Y-95001149D01*
X174365405Y-94847613D01*
X174254962Y-94713038D01*
X174120387Y-94602595D01*
X173966851Y-94520528D01*
X173800255Y-94469992D01*
X173627001Y-94452928D01*
X172801999Y-94452928D01*
X172628745Y-94469992D01*
X172462149Y-94520528D01*
X172308613Y-94602595D01*
X172174038Y-94713038D01*
X172063595Y-94847613D01*
X171981528Y-95001149D01*
X171980493Y-95004563D01*
X171954180Y-94990498D01*
X171834482Y-94954188D01*
X171710000Y-94941928D01*
X170157876Y-94941928D01*
X171248804Y-93851000D01*
X171278082Y-93851000D01*
X171361885Y-93953115D01*
X171491725Y-94059671D01*
X171639858Y-94138850D01*
X171800592Y-94187608D01*
X171967750Y-94204072D01*
X172405250Y-94204072D01*
X172572408Y-94187608D01*
X172733142Y-94138850D01*
X172881275Y-94059671D01*
X172902930Y-94041900D01*
X172969506Y-94096537D01*
X173079820Y-94155502D01*
X173199518Y-94191812D01*
X173324000Y-94204072D01*
X173475750Y-94201000D01*
X173634500Y-94042250D01*
X173634500Y-93218000D01*
X173888500Y-93218000D01*
X173888500Y-94042250D01*
X174047250Y-94201000D01*
X174199000Y-94204072D01*
X174323482Y-94191812D01*
X174443180Y-94155502D01*
X174553494Y-94096537D01*
X174650185Y-94017185D01*
X174729537Y-93920494D01*
X174788502Y-93810180D01*
X174824812Y-93690482D01*
X174837072Y-93566000D01*
X174834000Y-93376750D01*
X174675250Y-93218000D01*
X173888500Y-93218000D01*
X173634500Y-93218000D01*
X173614500Y-93218000D01*
X173614500Y-92964000D01*
X173634500Y-92964000D01*
X173634500Y-92139750D01*
X173888500Y-92139750D01*
X173888500Y-92964000D01*
X174675250Y-92964000D01*
X174834000Y-92805250D01*
X174837072Y-92616000D01*
X174824812Y-92491518D01*
X174788502Y-92371820D01*
X174729537Y-92261506D01*
X174650185Y-92164815D01*
X174553494Y-92085463D01*
X174443180Y-92026498D01*
X174323482Y-91990188D01*
X174199000Y-91977928D01*
X174047250Y-91981000D01*
X173888500Y-92139750D01*
X173634500Y-92139750D01*
X173475750Y-91981000D01*
X173324000Y-91977928D01*
X173199518Y-91990188D01*
X173079820Y-92026498D01*
X172969506Y-92085463D01*
X172902930Y-92140100D01*
X172881275Y-92122329D01*
X172733142Y-92043150D01*
X172572408Y-91994392D01*
X172405250Y-91977928D01*
X171967750Y-91977928D01*
X171800592Y-91994392D01*
X171639858Y-92043150D01*
X171491725Y-92122329D01*
X171361885Y-92228885D01*
X171278082Y-92331000D01*
X170971325Y-92331000D01*
X170934002Y-92327324D01*
X170896679Y-92331000D01*
X170896669Y-92331000D01*
X170785016Y-92341997D01*
X170641755Y-92385454D01*
X170509725Y-92456026D01*
X170447787Y-92506858D01*
X170394001Y-92550999D01*
X170370203Y-92579997D01*
X170047202Y-92902998D01*
X169986252Y-92902998D01*
X170145000Y-92744250D01*
X170148072Y-92130000D01*
X170135812Y-92005518D01*
X170099502Y-91885820D01*
X170040537Y-91775506D01*
X169961185Y-91678815D01*
X169864494Y-91599463D01*
X169754180Y-91540498D01*
X169679307Y-91517785D01*
X169679101Y-91442098D01*
X169856632Y-91323475D01*
X170063475Y-91116632D01*
X170180000Y-90942240D01*
X170296525Y-91116632D01*
X170503368Y-91323475D01*
X170746589Y-91485990D01*
X171016842Y-91597932D01*
X171303740Y-91655000D01*
X171596260Y-91655000D01*
X171883158Y-91597932D01*
X172153411Y-91485990D01*
X172396632Y-91323475D01*
X172603475Y-91116632D01*
X172720000Y-90942240D01*
X172836525Y-91116632D01*
X173043368Y-91323475D01*
X173286589Y-91485990D01*
X173556842Y-91597932D01*
X173843740Y-91655000D01*
X174136260Y-91655000D01*
X174423158Y-91597932D01*
X174693411Y-91485990D01*
X174936632Y-91323475D01*
X175143475Y-91116632D01*
X175305990Y-90873411D01*
X175417932Y-90603158D01*
X175475000Y-90316260D01*
X175475000Y-90023740D01*
X175417932Y-89736842D01*
X175344682Y-89560000D01*
X176270334Y-89560000D01*
X176261802Y-89565701D01*
G37*
X176261802Y-89565701D02*
X175925701Y-89901802D01*
X175661628Y-90297016D01*
X175479731Y-90736154D01*
X175387000Y-91202340D01*
X175387000Y-91677660D01*
X175479731Y-92143846D01*
X175661628Y-92582984D01*
X175925701Y-92978198D01*
X176261802Y-93314299D01*
X176657016Y-93578372D01*
X177096154Y-93760269D01*
X177562340Y-93853000D01*
X178037660Y-93853000D01*
X178503846Y-93760269D01*
X178942984Y-93578372D01*
X179338198Y-93314299D01*
X179674299Y-92978198D01*
X179680000Y-92969666D01*
X179680001Y-103003649D01*
X179585750Y-103005000D01*
X179536331Y-103054419D01*
X179535000Y-102950750D01*
X179376250Y-102792000D01*
X177927000Y-102792000D01*
X177927000Y-103666250D01*
X178085750Y-103825000D01*
X178164585Y-103825297D01*
X178165000Y-103854250D01*
X178323750Y-104013000D01*
X179173000Y-104013000D01*
X179173000Y-103993000D01*
X179427000Y-103993000D01*
X179427000Y-104013000D01*
X179447000Y-104013000D01*
X179447000Y-104267000D01*
X179427000Y-104267000D01*
X179427000Y-104287000D01*
X179173000Y-104287000D01*
X179173000Y-104267000D01*
X178323750Y-104267000D01*
X178165000Y-104425750D01*
X178164585Y-104454703D01*
X178085750Y-104455000D01*
X177927000Y-104613750D01*
X177927000Y-105488000D01*
X179376250Y-105488000D01*
X179535000Y-105329250D01*
X179536331Y-105225581D01*
X179585750Y-105275000D01*
X179680001Y-105276351D01*
X179680001Y-107690336D01*
X179674299Y-107681802D01*
X179338198Y-107345701D01*
X178942984Y-107081628D01*
X178503846Y-106899731D01*
X178037660Y-106807000D01*
X177562340Y-106807000D01*
X177096154Y-106899731D01*
X176657016Y-107081628D01*
X176261802Y-107345701D01*
X175925701Y-107681802D01*
X175661628Y-108077016D01*
X175479731Y-108516154D01*
X175387000Y-108982340D01*
X175387000Y-109457660D01*
X175479731Y-109923846D01*
X175661628Y-110362984D01*
X175925701Y-110758198D01*
X176261802Y-111094299D01*
X176270334Y-111100000D01*
X175341696Y-111100000D01*
X175431481Y-110846891D01*
X175310814Y-110617000D01*
X174117000Y-110617000D01*
X174117000Y-110637000D01*
X173863000Y-110637000D01*
X173863000Y-110617000D01*
X173843000Y-110617000D01*
X173843000Y-110363000D01*
X173863000Y-110363000D01*
X173863000Y-109169845D01*
X174117000Y-109169845D01*
X174117000Y-110363000D01*
X175310814Y-110363000D01*
X175431481Y-110133109D01*
X175334157Y-109858748D01*
X175185178Y-109608645D01*
X174990269Y-109392412D01*
X174756920Y-109218359D01*
X174494099Y-109093175D01*
X174346890Y-109048524D01*
X174117000Y-109169845D01*
X173863000Y-109169845D01*
X173633110Y-109048524D01*
X173485901Y-109093175D01*
X173223080Y-109218359D01*
X172989731Y-109392412D01*
X172794822Y-109608645D01*
X172725195Y-109725534D01*
X172603475Y-109543368D01*
X172396632Y-109336525D01*
X172153411Y-109174010D01*
X171883158Y-109062068D01*
X171596260Y-109005000D01*
X171303740Y-109005000D01*
X171016842Y-109062068D01*
X170746589Y-109174010D01*
X170503368Y-109336525D01*
X170296525Y-109543368D01*
X170180000Y-109717760D01*
X170063475Y-109543368D01*
X169856632Y-109336525D01*
X169727624Y-109250325D01*
X169727290Y-109127659D01*
X169754180Y-109119502D01*
X169864494Y-109060537D01*
X169961185Y-108981185D01*
X170040537Y-108884494D01*
X170099502Y-108774180D01*
X170135812Y-108654482D01*
X170148072Y-108530000D01*
X170148072Y-108390000D01*
X172182178Y-108390000D01*
X172219500Y-108393676D01*
X172256822Y-108390000D01*
X172256833Y-108390000D01*
X172368486Y-108379003D01*
X172511747Y-108335546D01*
X172643776Y-108264974D01*
X172759501Y-108170001D01*
X172783303Y-108140998D01*
X173430992Y-107493310D01*
X173495142Y-107473850D01*
X173643275Y-107394671D01*
X173736000Y-107318574D01*
X173828725Y-107394671D01*
X173976858Y-107473850D01*
X174137592Y-107522608D01*
X174304750Y-107539072D01*
X174742250Y-107539072D01*
X174909408Y-107522608D01*
X175070142Y-107473850D01*
X175218275Y-107394671D01*
X175348115Y-107288115D01*
X175454671Y-107158275D01*
X175533850Y-107010142D01*
X175569639Y-106892162D01*
X176102846Y-106358955D01*
X176110498Y-106384180D01*
X176169463Y-106494494D01*
X176248815Y-106591185D01*
X176345506Y-106670537D01*
X176455820Y-106729502D01*
X176575518Y-106765812D01*
X176700000Y-106778072D01*
X177514250Y-106775000D01*
X177673000Y-106616250D01*
X177673000Y-105742000D01*
X177927000Y-105742000D01*
X177927000Y-106616250D01*
X178085750Y-106775000D01*
X178900000Y-106778072D01*
X179024482Y-106765812D01*
X179144180Y-106729502D01*
X179254494Y-106670537D01*
X179351185Y-106591185D01*
X179430537Y-106494494D01*
X179489502Y-106384180D01*
X179525812Y-106264482D01*
X179538072Y-106140000D01*
X179535000Y-105900750D01*
X179376250Y-105742000D01*
X177927000Y-105742000D01*
X177673000Y-105742000D01*
X177653000Y-105742000D01*
X177653000Y-105488000D01*
X177673000Y-105488000D01*
X177673000Y-104613750D01*
X177514250Y-104455000D01*
X177438072Y-104454713D01*
X177438072Y-103825287D01*
X177514250Y-103825000D01*
X177673000Y-103666250D01*
X177673000Y-102792000D01*
X176223750Y-102792000D01*
X176065000Y-102950750D01*
X176064343Y-103001928D01*
X175800000Y-103001928D01*
X175675518Y-103014188D01*
X175608653Y-103034471D01*
X175611072Y-102915000D01*
X175598812Y-102790518D01*
X175562502Y-102670820D01*
X175530407Y-102610775D01*
X175550502Y-102573180D01*
X175586812Y-102453482D01*
X175599072Y-102329000D01*
X175596005Y-102140000D01*
X176061928Y-102140000D01*
X176065000Y-102379250D01*
X176223750Y-102538000D01*
X177673000Y-102538000D01*
X177673000Y-101663750D01*
X177927000Y-101663750D01*
X177927000Y-102538000D01*
X179376250Y-102538000D01*
X179535000Y-102379250D01*
X179538072Y-102140000D01*
X179525812Y-102015518D01*
X179489502Y-101895820D01*
X179430537Y-101785506D01*
X179351185Y-101688815D01*
X179254494Y-101609463D01*
X179144180Y-101550498D01*
X179024482Y-101514188D01*
X178900000Y-101501928D01*
X178085750Y-101505000D01*
X177927000Y-101663750D01*
X177673000Y-101663750D01*
X177514250Y-101505000D01*
X176700000Y-101501928D01*
X176575518Y-101514188D01*
X176455820Y-101550498D01*
X176345506Y-101609463D01*
X176248815Y-101688815D01*
X176169463Y-101785506D01*
X176110498Y-101895820D01*
X176074188Y-102015518D01*
X176061928Y-102140000D01*
X175596005Y-102140000D01*
X175596000Y-102139750D01*
X175437250Y-101981000D01*
X174650500Y-101981000D01*
X174650500Y-102413250D01*
X174625000Y-102438750D01*
X174625000Y-103225500D01*
X174645000Y-103225500D01*
X174645000Y-103479500D01*
X174625000Y-103479500D01*
X174625000Y-103499500D01*
X174371000Y-103499500D01*
X174371000Y-103479500D01*
X173101000Y-103479500D01*
X173101000Y-103499500D01*
X172847000Y-103499500D01*
X172847000Y-103479500D01*
X172827000Y-103479500D01*
X172827000Y-103225500D01*
X172847000Y-103225500D01*
X172847000Y-103205500D01*
X173101000Y-103205500D01*
X173101000Y-103225500D01*
X174371000Y-103225500D01*
X174371000Y-102830750D01*
X174396500Y-102805250D01*
X174396500Y-101981000D01*
X174376500Y-101981000D01*
X174376500Y-101727000D01*
X174396500Y-101727000D01*
X174396500Y-100457000D01*
X174650500Y-100457000D01*
X174650500Y-101727000D01*
X175437250Y-101727000D01*
X175596000Y-101568250D01*
X175599072Y-101379000D01*
X175586812Y-101254518D01*
X175550502Y-101134820D01*
X175527614Y-101092000D01*
X175550502Y-101049180D01*
X175586812Y-100929482D01*
X175599072Y-100805000D01*
X175596000Y-100615750D01*
X175437250Y-100457000D01*
X174650500Y-100457000D01*
X174396500Y-100457000D01*
X174376500Y-100457000D01*
X174376500Y-100203000D01*
X174396500Y-100203000D01*
X174396500Y-98933000D01*
X174650500Y-98933000D01*
X174650500Y-100203000D01*
X175437250Y-100203000D01*
X175596000Y-100044250D01*
X175599072Y-99855000D01*
X175586812Y-99730518D01*
X175550502Y-99610820D01*
X175527614Y-99568000D01*
X175550502Y-99525180D01*
X175586812Y-99405482D01*
X175599072Y-99281000D01*
X175596000Y-99091750D01*
X175437250Y-98933000D01*
X174650500Y-98933000D01*
X174396500Y-98933000D01*
X174376500Y-98933000D01*
X174376500Y-98679000D01*
X174396500Y-98679000D01*
X174396500Y-97854750D01*
X174650500Y-97854750D01*
X174650500Y-98679000D01*
X175437250Y-98679000D01*
X175596000Y-98520250D01*
X175599072Y-98331000D01*
X175586812Y-98206518D01*
X175550502Y-98086820D01*
X175541879Y-98070689D01*
X175627000Y-98079072D01*
X176003750Y-98076000D01*
X176162500Y-97917250D01*
X176162500Y-96393000D01*
X176416500Y-96393000D01*
X176416500Y-97917250D01*
X176575250Y-98076000D01*
X176952000Y-98079072D01*
X177076482Y-98066812D01*
X177196180Y-98030502D01*
X177306494Y-97971537D01*
X177403185Y-97892185D01*
X177482537Y-97795494D01*
X177541502Y-97685180D01*
X177577812Y-97565482D01*
X177590072Y-97441000D01*
X177587000Y-96551750D01*
X177428250Y-96393000D01*
X176416500Y-96393000D01*
X176162500Y-96393000D01*
X175150750Y-96393000D01*
X174992000Y-96551750D01*
X174988928Y-97441000D01*
X175001188Y-97565482D01*
X175037498Y-97685180D01*
X175046121Y-97701311D01*
X174961000Y-97692928D01*
X174809250Y-97696000D01*
X174650500Y-97854750D01*
X174396500Y-97854750D01*
X174302629Y-97760879D01*
X174365405Y-97684387D01*
X174447472Y-97530851D01*
X174498008Y-97364255D01*
X174515072Y-97191001D01*
X174515072Y-95340999D01*
X174498008Y-95167745D01*
X174474728Y-95091000D01*
X174988928Y-95091000D01*
X174992000Y-95980250D01*
X175150750Y-96139000D01*
X176162500Y-96139000D01*
X176162500Y-94614750D01*
X176416500Y-94614750D01*
X176416500Y-96139000D01*
X177428250Y-96139000D01*
X177587000Y-95980250D01*
X177590072Y-95091000D01*
X177577812Y-94966518D01*
X177541502Y-94846820D01*
X177482537Y-94736506D01*
X177403185Y-94639815D01*
X177306494Y-94560463D01*
X177196180Y-94501498D01*
X177076482Y-94465188D01*
X176952000Y-94452928D01*
X176575250Y-94456000D01*
X176416500Y-94614750D01*
X176162500Y-94614750D01*
X176003750Y-94456000D01*
X175627000Y-94452928D01*
X175502518Y-94465188D01*
X175382820Y-94501498D01*
X175272506Y-94560463D01*
X175175815Y-94639815D01*
X175096463Y-94736506D01*
X175037498Y-94846820D01*
X175001188Y-94966518D01*
X174988928Y-95091000D01*
X174474728Y-95091000D01*
X174447472Y-95001149D01*
X174365405Y-94847613D01*
X174254962Y-94713038D01*
X174120387Y-94602595D01*
X173966851Y-94520528D01*
X173800255Y-94469992D01*
X173627001Y-94452928D01*
X172801999Y-94452928D01*
X172628745Y-94469992D01*
X172462149Y-94520528D01*
X172308613Y-94602595D01*
X172174038Y-94713038D01*
X172063595Y-94847613D01*
X171981528Y-95001149D01*
X171980493Y-95004563D01*
X171954180Y-94990498D01*
X171834482Y-94954188D01*
X171710000Y-94941928D01*
X170157876Y-94941928D01*
X171248804Y-93851000D01*
X171278082Y-93851000D01*
X171361885Y-93953115D01*
X171491725Y-94059671D01*
X171639858Y-94138850D01*
X171800592Y-94187608D01*
X171967750Y-94204072D01*
X172405250Y-94204072D01*
X172572408Y-94187608D01*
X172733142Y-94138850D01*
X172881275Y-94059671D01*
X172902930Y-94041900D01*
X172969506Y-94096537D01*
X173079820Y-94155502D01*
X173199518Y-94191812D01*
X173324000Y-94204072D01*
X173475750Y-94201000D01*
X173634500Y-94042250D01*
X173634500Y-93218000D01*
X173888500Y-93218000D01*
X173888500Y-94042250D01*
X174047250Y-94201000D01*
X174199000Y-94204072D01*
X174323482Y-94191812D01*
X174443180Y-94155502D01*
X174553494Y-94096537D01*
X174650185Y-94017185D01*
X174729537Y-93920494D01*
X174788502Y-93810180D01*
X174824812Y-93690482D01*
X174837072Y-93566000D01*
X174834000Y-93376750D01*
X174675250Y-93218000D01*
X173888500Y-93218000D01*
X173634500Y-93218000D01*
X173614500Y-93218000D01*
X173614500Y-92964000D01*
X173634500Y-92964000D01*
X173634500Y-92139750D01*
X173888500Y-92139750D01*
X173888500Y-92964000D01*
X174675250Y-92964000D01*
X174834000Y-92805250D01*
X174837072Y-92616000D01*
X174824812Y-92491518D01*
X174788502Y-92371820D01*
X174729537Y-92261506D01*
X174650185Y-92164815D01*
X174553494Y-92085463D01*
X174443180Y-92026498D01*
X174323482Y-91990188D01*
X174199000Y-91977928D01*
X174047250Y-91981000D01*
X173888500Y-92139750D01*
X173634500Y-92139750D01*
X173475750Y-91981000D01*
X173324000Y-91977928D01*
X173199518Y-91990188D01*
X173079820Y-92026498D01*
X172969506Y-92085463D01*
X172902930Y-92140100D01*
X172881275Y-92122329D01*
X172733142Y-92043150D01*
X172572408Y-91994392D01*
X172405250Y-91977928D01*
X171967750Y-91977928D01*
X171800592Y-91994392D01*
X171639858Y-92043150D01*
X171491725Y-92122329D01*
X171361885Y-92228885D01*
X171278082Y-92331000D01*
X170971325Y-92331000D01*
X170934002Y-92327324D01*
X170896679Y-92331000D01*
X170896669Y-92331000D01*
X170785016Y-92341997D01*
X170641755Y-92385454D01*
X170509725Y-92456026D01*
X170447787Y-92506858D01*
X170394001Y-92550999D01*
X170370203Y-92579997D01*
X170047202Y-92902998D01*
X169986252Y-92902998D01*
X170145000Y-92744250D01*
X170148072Y-92130000D01*
X170135812Y-92005518D01*
X170099502Y-91885820D01*
X170040537Y-91775506D01*
X169961185Y-91678815D01*
X169864494Y-91599463D01*
X169754180Y-91540498D01*
X169679307Y-91517785D01*
X169679101Y-91442098D01*
X169856632Y-91323475D01*
X170063475Y-91116632D01*
X170180000Y-90942240D01*
X170296525Y-91116632D01*
X170503368Y-91323475D01*
X170746589Y-91485990D01*
X171016842Y-91597932D01*
X171303740Y-91655000D01*
X171596260Y-91655000D01*
X171883158Y-91597932D01*
X172153411Y-91485990D01*
X172396632Y-91323475D01*
X172603475Y-91116632D01*
X172720000Y-90942240D01*
X172836525Y-91116632D01*
X173043368Y-91323475D01*
X173286589Y-91485990D01*
X173556842Y-91597932D01*
X173843740Y-91655000D01*
X174136260Y-91655000D01*
X174423158Y-91597932D01*
X174693411Y-91485990D01*
X174936632Y-91323475D01*
X175143475Y-91116632D01*
X175305990Y-90873411D01*
X175417932Y-90603158D01*
X175475000Y-90316260D01*
X175475000Y-90023740D01*
X175417932Y-89736842D01*
X175344682Y-89560000D01*
X176270334Y-89560000D01*
X176261802Y-89565701D01*
G36*
X170957000Y-103757000D02*
G01*
X170937000Y-103757000D01*
X170937000Y-104603000D01*
X170957000Y-104603000D01*
X170957000Y-104857000D01*
X170937000Y-104857000D01*
X170937000Y-105556250D01*
X171095750Y-105715000D01*
X171710000Y-105718072D01*
X171834482Y-105705812D01*
X171954180Y-105669502D01*
X172016673Y-105636098D01*
X172040647Y-105665311D01*
X172017329Y-105693725D01*
X171938150Y-105841858D01*
X171889392Y-106002592D01*
X171872928Y-106169750D01*
X171872928Y-106682250D01*
X171889392Y-106849408D01*
X171895638Y-106870000D01*
X170148072Y-106870000D01*
X170148072Y-106730000D01*
X170135812Y-106605518D01*
X170099502Y-106485820D01*
X170040537Y-106375506D01*
X169961185Y-106278815D01*
X169864494Y-106199463D01*
X169754180Y-106140498D01*
X169719122Y-106129863D01*
X169717911Y-105685303D01*
X169785518Y-105705812D01*
X169910000Y-105718072D01*
X170524250Y-105715000D01*
X170683000Y-105556250D01*
X170683000Y-104857000D01*
X170663000Y-104857000D01*
X170663000Y-104603000D01*
X170683000Y-104603000D01*
X170683000Y-103757000D01*
X170663000Y-103757000D01*
X170663000Y-103518072D01*
X170957000Y-103518072D01*
X170957000Y-103757000D01*
G37*
X170957000Y-103757000D02*
X170937000Y-103757000D01*
X170937000Y-104603000D01*
X170957000Y-104603000D01*
X170957000Y-104857000D01*
X170937000Y-104857000D01*
X170937000Y-105556250D01*
X171095750Y-105715000D01*
X171710000Y-105718072D01*
X171834482Y-105705812D01*
X171954180Y-105669502D01*
X172016673Y-105636098D01*
X172040647Y-105665311D01*
X172017329Y-105693725D01*
X171938150Y-105841858D01*
X171889392Y-106002592D01*
X171872928Y-106169750D01*
X171872928Y-106682250D01*
X171889392Y-106849408D01*
X171895638Y-106870000D01*
X170148072Y-106870000D01*
X170148072Y-106730000D01*
X170135812Y-106605518D01*
X170099502Y-106485820D01*
X170040537Y-106375506D01*
X169961185Y-106278815D01*
X169864494Y-106199463D01*
X169754180Y-106140498D01*
X169719122Y-106129863D01*
X169717911Y-105685303D01*
X169785518Y-105705812D01*
X169910000Y-105718072D01*
X170524250Y-105715000D01*
X170683000Y-105556250D01*
X170683000Y-104857000D01*
X170663000Y-104857000D01*
X170663000Y-104603000D01*
X170683000Y-104603000D01*
X170683000Y-103757000D01*
X170663000Y-103757000D01*
X170663000Y-103518072D01*
X170957000Y-103518072D01*
X170957000Y-103757000D01*
G36*
X170957000Y-99357000D02*
G01*
X170937000Y-99357000D01*
X170937000Y-100203000D01*
X170957000Y-100203000D01*
X170957000Y-100441928D01*
X170663000Y-100441928D01*
X170663000Y-100203000D01*
X170683000Y-100203000D01*
X170683000Y-99357000D01*
X170663000Y-99357000D01*
X170663000Y-99118072D01*
X170957000Y-99118072D01*
X170957000Y-99357000D01*
G37*
X170957000Y-99357000D02*
X170937000Y-99357000D01*
X170937000Y-100203000D01*
X170957000Y-100203000D01*
X170957000Y-100441928D01*
X170663000Y-100441928D01*
X170663000Y-100203000D01*
X170683000Y-100203000D01*
X170683000Y-99357000D01*
X170663000Y-99357000D01*
X170663000Y-99118072D01*
X170957000Y-99118072D01*
X170957000Y-99357000D01*
M02*
