G04 #@! TF.GenerationSoftware,KiCad,Pcbnew,(5.1.5)-3*
G04 #@! TF.CreationDate,2019-12-24T16:56:49-08:00*
G04 #@! TF.ProjectId,NBIoT Wing,4e42496f-5420-4576-996e-672e6b696361,rev?*
G04 #@! TF.SameCoordinates,Original*
G04 #@! TF.FileFunction,Paste,Top*
G04 #@! TF.FilePolarity,Positive*
%FSLAX46Y46*%
G04 Gerber Fmt 4.6, Leading zero omitted, Abs format (unit mm)*
G04 Created by KiCad (PCBNEW (5.1.5)-3) date 2019-12-24 16:56:49*
%MOMM*%
%LPD*%
G04 APERTURE LIST*
%ADD10C,0.000100*%
%ADD11R,2.200000X1.050000*%
%ADD12R,1.000000X1.000000*%
%ADD13C,0.100000*%
%ADD14R,1.200000X1.400000*%
%ADD15R,1.000000X1.400000*%
%ADD16R,2.000000X1.350000*%
%ADD17R,0.700000X1.825000*%
%ADD18R,1.500000X2.000000*%
%ADD19R,1.650000X0.400000*%
%ADD20R,2.500000X1.430000*%
%ADD21R,0.900000X0.800000*%
%ADD22R,0.800000X0.900000*%
%ADD23R,0.240000X0.900000*%
%ADD24R,0.900000X0.240000*%
%ADD25R,0.800000X0.800000*%
%ADD26R,0.500000X1.600000*%
%ADD27R,1.600000X0.500000*%
G04 APERTURE END LIST*
D10*
G36*
X167060000Y-100330000D02*
G01*
X167065000Y-100330000D01*
X167065000Y-100802000D01*
X167074792Y-100802007D01*
X167099347Y-100800720D01*
X167123801Y-100798150D01*
X167148087Y-100794303D01*
X167172139Y-100789191D01*
X167195890Y-100782827D01*
X167219276Y-100775229D01*
X167242231Y-100766417D01*
X167264695Y-100756416D01*
X167286604Y-100745253D01*
X167307898Y-100732959D01*
X167328520Y-100719567D01*
X167348413Y-100705114D01*
X167367523Y-100689640D01*
X167385796Y-100673187D01*
X167403183Y-100655800D01*
X167419636Y-100637527D01*
X167435111Y-100618418D01*
X167449564Y-100598525D01*
X167462956Y-100577903D01*
X167475251Y-100556608D01*
X167486414Y-100534700D01*
X167496415Y-100512237D01*
X167505227Y-100489281D01*
X167512826Y-100465895D01*
X167519190Y-100442144D01*
X167524302Y-100418093D01*
X167528149Y-100393807D01*
X167530719Y-100369352D01*
X167532007Y-100344797D01*
X167532000Y-100330000D01*
X167532000Y-100317643D01*
X167530706Y-100292957D01*
X167528123Y-100268373D01*
X167524256Y-100243958D01*
X167519117Y-100219779D01*
X167512719Y-100195902D01*
X167505080Y-100172392D01*
X167496222Y-100149314D01*
X167486167Y-100126732D01*
X167474945Y-100104706D01*
X167462586Y-100083299D01*
X167449122Y-100062567D01*
X167434593Y-100042568D01*
X167419036Y-100023358D01*
X167402496Y-100004987D01*
X167385017Y-99987508D01*
X167366647Y-99970967D01*
X167347436Y-99955411D01*
X167327438Y-99940881D01*
X167306706Y-99927417D01*
X167285299Y-99915058D01*
X167263273Y-99903835D01*
X167240691Y-99893781D01*
X167217613Y-99884922D01*
X167194104Y-99877283D01*
X167170227Y-99870885D01*
X167146047Y-99865745D01*
X167121632Y-99861878D01*
X167097048Y-99859294D01*
X167072363Y-99858000D01*
X167060000Y-99858000D01*
X167047643Y-99858000D01*
X167022957Y-99859294D01*
X166998373Y-99861877D01*
X166973958Y-99865744D01*
X166949779Y-99870883D01*
X166925902Y-99877281D01*
X166902392Y-99884920D01*
X166879314Y-99893778D01*
X166856732Y-99903833D01*
X166834706Y-99915055D01*
X166813299Y-99927414D01*
X166792567Y-99940878D01*
X166772568Y-99955407D01*
X166753358Y-99970964D01*
X166734987Y-99987504D01*
X166717508Y-100004983D01*
X166700967Y-100023353D01*
X166685411Y-100042564D01*
X166670881Y-100062562D01*
X166657417Y-100083294D01*
X166645058Y-100104701D01*
X166633835Y-100126727D01*
X166623781Y-100149309D01*
X166614922Y-100172387D01*
X166607283Y-100195896D01*
X166600885Y-100219773D01*
X166595745Y-100243953D01*
X166591878Y-100268368D01*
X166589294Y-100292952D01*
X166588000Y-100317637D01*
X166588000Y-100330000D01*
X166588000Y-100342357D01*
X166589294Y-100367043D01*
X166591877Y-100391627D01*
X166595744Y-100416042D01*
X166600883Y-100440221D01*
X166607281Y-100464098D01*
X166614920Y-100487608D01*
X166623778Y-100510686D01*
X166633833Y-100533268D01*
X166645055Y-100555294D01*
X166657414Y-100576701D01*
X166670878Y-100597433D01*
X166685407Y-100617432D01*
X166700964Y-100636642D01*
X166717504Y-100655013D01*
X166734983Y-100672492D01*
X166753353Y-100689033D01*
X166772564Y-100704589D01*
X166792562Y-100719119D01*
X166813294Y-100732583D01*
X166834701Y-100744942D01*
X166856727Y-100756165D01*
X166879309Y-100766219D01*
X166902387Y-100775078D01*
X166925896Y-100782717D01*
X166949773Y-100789115D01*
X166973953Y-100794255D01*
X166998368Y-100798122D01*
X167022952Y-100800706D01*
X167047637Y-100802000D01*
X167060000Y-100802000D01*
X167060000Y-100330000D01*
G37*
X167060000Y-100330000D02*
X167065000Y-100330000D01*
X167065000Y-100802000D01*
X167074792Y-100802007D01*
X167099347Y-100800720D01*
X167123801Y-100798150D01*
X167148087Y-100794303D01*
X167172139Y-100789191D01*
X167195890Y-100782827D01*
X167219276Y-100775229D01*
X167242231Y-100766417D01*
X167264695Y-100756416D01*
X167286604Y-100745253D01*
X167307898Y-100732959D01*
X167328520Y-100719567D01*
X167348413Y-100705114D01*
X167367523Y-100689640D01*
X167385796Y-100673187D01*
X167403183Y-100655800D01*
X167419636Y-100637527D01*
X167435111Y-100618418D01*
X167449564Y-100598525D01*
X167462956Y-100577903D01*
X167475251Y-100556608D01*
X167486414Y-100534700D01*
X167496415Y-100512237D01*
X167505227Y-100489281D01*
X167512826Y-100465895D01*
X167519190Y-100442144D01*
X167524302Y-100418093D01*
X167528149Y-100393807D01*
X167530719Y-100369352D01*
X167532007Y-100344797D01*
X167532000Y-100330000D01*
X167532000Y-100317643D01*
X167530706Y-100292957D01*
X167528123Y-100268373D01*
X167524256Y-100243958D01*
X167519117Y-100219779D01*
X167512719Y-100195902D01*
X167505080Y-100172392D01*
X167496222Y-100149314D01*
X167486167Y-100126732D01*
X167474945Y-100104706D01*
X167462586Y-100083299D01*
X167449122Y-100062567D01*
X167434593Y-100042568D01*
X167419036Y-100023358D01*
X167402496Y-100004987D01*
X167385017Y-99987508D01*
X167366647Y-99970967D01*
X167347436Y-99955411D01*
X167327438Y-99940881D01*
X167306706Y-99927417D01*
X167285299Y-99915058D01*
X167263273Y-99903835D01*
X167240691Y-99893781D01*
X167217613Y-99884922D01*
X167194104Y-99877283D01*
X167170227Y-99870885D01*
X167146047Y-99865745D01*
X167121632Y-99861878D01*
X167097048Y-99859294D01*
X167072363Y-99858000D01*
X167060000Y-99858000D01*
X167047643Y-99858000D01*
X167022957Y-99859294D01*
X166998373Y-99861877D01*
X166973958Y-99865744D01*
X166949779Y-99870883D01*
X166925902Y-99877281D01*
X166902392Y-99884920D01*
X166879314Y-99893778D01*
X166856732Y-99903833D01*
X166834706Y-99915055D01*
X166813299Y-99927414D01*
X166792567Y-99940878D01*
X166772568Y-99955407D01*
X166753358Y-99970964D01*
X166734987Y-99987504D01*
X166717508Y-100004983D01*
X166700967Y-100023353D01*
X166685411Y-100042564D01*
X166670881Y-100062562D01*
X166657417Y-100083294D01*
X166645058Y-100104701D01*
X166633835Y-100126727D01*
X166623781Y-100149309D01*
X166614922Y-100172387D01*
X166607283Y-100195896D01*
X166600885Y-100219773D01*
X166595745Y-100243953D01*
X166591878Y-100268368D01*
X166589294Y-100292952D01*
X166588000Y-100317637D01*
X166588000Y-100330000D01*
X166588000Y-100342357D01*
X166589294Y-100367043D01*
X166591877Y-100391627D01*
X166595744Y-100416042D01*
X166600883Y-100440221D01*
X166607281Y-100464098D01*
X166614920Y-100487608D01*
X166623778Y-100510686D01*
X166633833Y-100533268D01*
X166645055Y-100555294D01*
X166657414Y-100576701D01*
X166670878Y-100597433D01*
X166685407Y-100617432D01*
X166700964Y-100636642D01*
X166717504Y-100655013D01*
X166734983Y-100672492D01*
X166753353Y-100689033D01*
X166772564Y-100704589D01*
X166792562Y-100719119D01*
X166813294Y-100732583D01*
X166834701Y-100744942D01*
X166856727Y-100756165D01*
X166879309Y-100766219D01*
X166902387Y-100775078D01*
X166925896Y-100782717D01*
X166949773Y-100789115D01*
X166973953Y-100794255D01*
X166998368Y-100798122D01*
X167022952Y-100800706D01*
X167047637Y-100802000D01*
X167060000Y-100802000D01*
X167060000Y-100330000D01*
G36*
X158060000Y-100330000D02*
G01*
X158065000Y-100330000D01*
X158065000Y-100802000D01*
X158074792Y-100802007D01*
X158099347Y-100800720D01*
X158123801Y-100798150D01*
X158148087Y-100794303D01*
X158172139Y-100789191D01*
X158195890Y-100782827D01*
X158219276Y-100775229D01*
X158242231Y-100766417D01*
X158264695Y-100756416D01*
X158286604Y-100745253D01*
X158307898Y-100732959D01*
X158328520Y-100719567D01*
X158348413Y-100705114D01*
X158367523Y-100689640D01*
X158385796Y-100673187D01*
X158403183Y-100655800D01*
X158419636Y-100637527D01*
X158435111Y-100618418D01*
X158449564Y-100598525D01*
X158462956Y-100577903D01*
X158475251Y-100556608D01*
X158486414Y-100534700D01*
X158496415Y-100512237D01*
X158505227Y-100489281D01*
X158512826Y-100465895D01*
X158519190Y-100442144D01*
X158524302Y-100418093D01*
X158528149Y-100393807D01*
X158530719Y-100369352D01*
X158532007Y-100344797D01*
X158532000Y-100330000D01*
X158532000Y-100317643D01*
X158530706Y-100292957D01*
X158528123Y-100268373D01*
X158524256Y-100243958D01*
X158519117Y-100219779D01*
X158512719Y-100195902D01*
X158505080Y-100172392D01*
X158496222Y-100149314D01*
X158486167Y-100126732D01*
X158474945Y-100104706D01*
X158462586Y-100083299D01*
X158449122Y-100062567D01*
X158434593Y-100042568D01*
X158419036Y-100023358D01*
X158402496Y-100004987D01*
X158385017Y-99987508D01*
X158366647Y-99970967D01*
X158347436Y-99955411D01*
X158327438Y-99940881D01*
X158306706Y-99927417D01*
X158285299Y-99915058D01*
X158263273Y-99903835D01*
X158240691Y-99893781D01*
X158217613Y-99884922D01*
X158194104Y-99877283D01*
X158170227Y-99870885D01*
X158146047Y-99865745D01*
X158121632Y-99861878D01*
X158097048Y-99859294D01*
X158072363Y-99858000D01*
X158060000Y-99858000D01*
X158047643Y-99858000D01*
X158022957Y-99859294D01*
X157998373Y-99861877D01*
X157973958Y-99865744D01*
X157949779Y-99870883D01*
X157925902Y-99877281D01*
X157902392Y-99884920D01*
X157879314Y-99893778D01*
X157856732Y-99903833D01*
X157834706Y-99915055D01*
X157813299Y-99927414D01*
X157792567Y-99940878D01*
X157772568Y-99955407D01*
X157753358Y-99970964D01*
X157734987Y-99987504D01*
X157717508Y-100004983D01*
X157700967Y-100023353D01*
X157685411Y-100042564D01*
X157670881Y-100062562D01*
X157657417Y-100083294D01*
X157645058Y-100104701D01*
X157633835Y-100126727D01*
X157623781Y-100149309D01*
X157614922Y-100172387D01*
X157607283Y-100195896D01*
X157600885Y-100219773D01*
X157595745Y-100243953D01*
X157591878Y-100268368D01*
X157589294Y-100292952D01*
X157588000Y-100317637D01*
X157588000Y-100330000D01*
X157588000Y-100342357D01*
X157589294Y-100367043D01*
X157591877Y-100391627D01*
X157595744Y-100416042D01*
X157600883Y-100440221D01*
X157607281Y-100464098D01*
X157614920Y-100487608D01*
X157623778Y-100510686D01*
X157633833Y-100533268D01*
X157645055Y-100555294D01*
X157657414Y-100576701D01*
X157670878Y-100597433D01*
X157685407Y-100617432D01*
X157700964Y-100636642D01*
X157717504Y-100655013D01*
X157734983Y-100672492D01*
X157753353Y-100689033D01*
X157772564Y-100704589D01*
X157792562Y-100719119D01*
X157813294Y-100732583D01*
X157834701Y-100744942D01*
X157856727Y-100756165D01*
X157879309Y-100766219D01*
X157902387Y-100775078D01*
X157925896Y-100782717D01*
X157949773Y-100789115D01*
X157973953Y-100794255D01*
X157998368Y-100798122D01*
X158022952Y-100800706D01*
X158047637Y-100802000D01*
X158060000Y-100802000D01*
X158060000Y-100330000D01*
G37*
X158060000Y-100330000D02*
X158065000Y-100330000D01*
X158065000Y-100802000D01*
X158074792Y-100802007D01*
X158099347Y-100800720D01*
X158123801Y-100798150D01*
X158148087Y-100794303D01*
X158172139Y-100789191D01*
X158195890Y-100782827D01*
X158219276Y-100775229D01*
X158242231Y-100766417D01*
X158264695Y-100756416D01*
X158286604Y-100745253D01*
X158307898Y-100732959D01*
X158328520Y-100719567D01*
X158348413Y-100705114D01*
X158367523Y-100689640D01*
X158385796Y-100673187D01*
X158403183Y-100655800D01*
X158419636Y-100637527D01*
X158435111Y-100618418D01*
X158449564Y-100598525D01*
X158462956Y-100577903D01*
X158475251Y-100556608D01*
X158486414Y-100534700D01*
X158496415Y-100512237D01*
X158505227Y-100489281D01*
X158512826Y-100465895D01*
X158519190Y-100442144D01*
X158524302Y-100418093D01*
X158528149Y-100393807D01*
X158530719Y-100369352D01*
X158532007Y-100344797D01*
X158532000Y-100330000D01*
X158532000Y-100317643D01*
X158530706Y-100292957D01*
X158528123Y-100268373D01*
X158524256Y-100243958D01*
X158519117Y-100219779D01*
X158512719Y-100195902D01*
X158505080Y-100172392D01*
X158496222Y-100149314D01*
X158486167Y-100126732D01*
X158474945Y-100104706D01*
X158462586Y-100083299D01*
X158449122Y-100062567D01*
X158434593Y-100042568D01*
X158419036Y-100023358D01*
X158402496Y-100004987D01*
X158385017Y-99987508D01*
X158366647Y-99970967D01*
X158347436Y-99955411D01*
X158327438Y-99940881D01*
X158306706Y-99927417D01*
X158285299Y-99915058D01*
X158263273Y-99903835D01*
X158240691Y-99893781D01*
X158217613Y-99884922D01*
X158194104Y-99877283D01*
X158170227Y-99870885D01*
X158146047Y-99865745D01*
X158121632Y-99861878D01*
X158097048Y-99859294D01*
X158072363Y-99858000D01*
X158060000Y-99858000D01*
X158047643Y-99858000D01*
X158022957Y-99859294D01*
X157998373Y-99861877D01*
X157973958Y-99865744D01*
X157949779Y-99870883D01*
X157925902Y-99877281D01*
X157902392Y-99884920D01*
X157879314Y-99893778D01*
X157856732Y-99903833D01*
X157834706Y-99915055D01*
X157813299Y-99927414D01*
X157792567Y-99940878D01*
X157772568Y-99955407D01*
X157753358Y-99970964D01*
X157734987Y-99987504D01*
X157717508Y-100004983D01*
X157700967Y-100023353D01*
X157685411Y-100042564D01*
X157670881Y-100062562D01*
X157657417Y-100083294D01*
X157645058Y-100104701D01*
X157633835Y-100126727D01*
X157623781Y-100149309D01*
X157614922Y-100172387D01*
X157607283Y-100195896D01*
X157600885Y-100219773D01*
X157595745Y-100243953D01*
X157591878Y-100268368D01*
X157589294Y-100292952D01*
X157588000Y-100317637D01*
X157588000Y-100330000D01*
X157588000Y-100342357D01*
X157589294Y-100367043D01*
X157591877Y-100391627D01*
X157595744Y-100416042D01*
X157600883Y-100440221D01*
X157607281Y-100464098D01*
X157614920Y-100487608D01*
X157623778Y-100510686D01*
X157633833Y-100533268D01*
X157645055Y-100555294D01*
X157657414Y-100576701D01*
X157670878Y-100597433D01*
X157685407Y-100617432D01*
X157700964Y-100636642D01*
X157717504Y-100655013D01*
X157734983Y-100672492D01*
X157753353Y-100689033D01*
X157772564Y-100704589D01*
X157792562Y-100719119D01*
X157813294Y-100732583D01*
X157834701Y-100744942D01*
X157856727Y-100756165D01*
X157879309Y-100766219D01*
X157902387Y-100775078D01*
X157925896Y-100782717D01*
X157949773Y-100789115D01*
X157973953Y-100794255D01*
X157998368Y-100798122D01*
X158022952Y-100800706D01*
X158047637Y-100802000D01*
X158060000Y-100802000D01*
X158060000Y-100330000D01*
G36*
X167060000Y-98530000D02*
G01*
X167065000Y-98530000D01*
X167065000Y-99002000D01*
X167074792Y-99002007D01*
X167099347Y-99000720D01*
X167123801Y-98998150D01*
X167148087Y-98994303D01*
X167172139Y-98989191D01*
X167195890Y-98982827D01*
X167219276Y-98975229D01*
X167242231Y-98966417D01*
X167264695Y-98956416D01*
X167286604Y-98945253D01*
X167307898Y-98932959D01*
X167328520Y-98919567D01*
X167348413Y-98905114D01*
X167367523Y-98889640D01*
X167385796Y-98873187D01*
X167403183Y-98855800D01*
X167419636Y-98837527D01*
X167435111Y-98818418D01*
X167449564Y-98798525D01*
X167462956Y-98777903D01*
X167475251Y-98756608D01*
X167486414Y-98734700D01*
X167496415Y-98712237D01*
X167505227Y-98689281D01*
X167512826Y-98665895D01*
X167519190Y-98642144D01*
X167524302Y-98618093D01*
X167528149Y-98593807D01*
X167530719Y-98569352D01*
X167532007Y-98544797D01*
X167532000Y-98530000D01*
X167532000Y-98517643D01*
X167530706Y-98492957D01*
X167528123Y-98468373D01*
X167524256Y-98443958D01*
X167519117Y-98419779D01*
X167512719Y-98395902D01*
X167505080Y-98372392D01*
X167496222Y-98349314D01*
X167486167Y-98326732D01*
X167474945Y-98304706D01*
X167462586Y-98283299D01*
X167449122Y-98262567D01*
X167434593Y-98242568D01*
X167419036Y-98223358D01*
X167402496Y-98204987D01*
X167385017Y-98187508D01*
X167366647Y-98170967D01*
X167347436Y-98155411D01*
X167327438Y-98140881D01*
X167306706Y-98127417D01*
X167285299Y-98115058D01*
X167263273Y-98103835D01*
X167240691Y-98093781D01*
X167217613Y-98084922D01*
X167194104Y-98077283D01*
X167170227Y-98070885D01*
X167146047Y-98065745D01*
X167121632Y-98061878D01*
X167097048Y-98059294D01*
X167072363Y-98058000D01*
X167060000Y-98058000D01*
X167047643Y-98058000D01*
X167022957Y-98059294D01*
X166998373Y-98061877D01*
X166973958Y-98065744D01*
X166949779Y-98070883D01*
X166925902Y-98077281D01*
X166902392Y-98084920D01*
X166879314Y-98093778D01*
X166856732Y-98103833D01*
X166834706Y-98115055D01*
X166813299Y-98127414D01*
X166792567Y-98140878D01*
X166772568Y-98155407D01*
X166753358Y-98170964D01*
X166734987Y-98187504D01*
X166717508Y-98204983D01*
X166700967Y-98223353D01*
X166685411Y-98242564D01*
X166670881Y-98262562D01*
X166657417Y-98283294D01*
X166645058Y-98304701D01*
X166633835Y-98326727D01*
X166623781Y-98349309D01*
X166614922Y-98372387D01*
X166607283Y-98395896D01*
X166600885Y-98419773D01*
X166595745Y-98443953D01*
X166591878Y-98468368D01*
X166589294Y-98492952D01*
X166588000Y-98517637D01*
X166588000Y-98530000D01*
X166588000Y-98542357D01*
X166589294Y-98567043D01*
X166591877Y-98591627D01*
X166595744Y-98616042D01*
X166600883Y-98640221D01*
X166607281Y-98664098D01*
X166614920Y-98687608D01*
X166623778Y-98710686D01*
X166633833Y-98733268D01*
X166645055Y-98755294D01*
X166657414Y-98776701D01*
X166670878Y-98797433D01*
X166685407Y-98817432D01*
X166700964Y-98836642D01*
X166717504Y-98855013D01*
X166734983Y-98872492D01*
X166753353Y-98889033D01*
X166772564Y-98904589D01*
X166792562Y-98919119D01*
X166813294Y-98932583D01*
X166834701Y-98944942D01*
X166856727Y-98956165D01*
X166879309Y-98966219D01*
X166902387Y-98975078D01*
X166925896Y-98982717D01*
X166949773Y-98989115D01*
X166973953Y-98994255D01*
X166998368Y-98998122D01*
X167022952Y-99000706D01*
X167047637Y-99002000D01*
X167060000Y-99002000D01*
X167060000Y-98530000D01*
G37*
X167060000Y-98530000D02*
X167065000Y-98530000D01*
X167065000Y-99002000D01*
X167074792Y-99002007D01*
X167099347Y-99000720D01*
X167123801Y-98998150D01*
X167148087Y-98994303D01*
X167172139Y-98989191D01*
X167195890Y-98982827D01*
X167219276Y-98975229D01*
X167242231Y-98966417D01*
X167264695Y-98956416D01*
X167286604Y-98945253D01*
X167307898Y-98932959D01*
X167328520Y-98919567D01*
X167348413Y-98905114D01*
X167367523Y-98889640D01*
X167385796Y-98873187D01*
X167403183Y-98855800D01*
X167419636Y-98837527D01*
X167435111Y-98818418D01*
X167449564Y-98798525D01*
X167462956Y-98777903D01*
X167475251Y-98756608D01*
X167486414Y-98734700D01*
X167496415Y-98712237D01*
X167505227Y-98689281D01*
X167512826Y-98665895D01*
X167519190Y-98642144D01*
X167524302Y-98618093D01*
X167528149Y-98593807D01*
X167530719Y-98569352D01*
X167532007Y-98544797D01*
X167532000Y-98530000D01*
X167532000Y-98517643D01*
X167530706Y-98492957D01*
X167528123Y-98468373D01*
X167524256Y-98443958D01*
X167519117Y-98419779D01*
X167512719Y-98395902D01*
X167505080Y-98372392D01*
X167496222Y-98349314D01*
X167486167Y-98326732D01*
X167474945Y-98304706D01*
X167462586Y-98283299D01*
X167449122Y-98262567D01*
X167434593Y-98242568D01*
X167419036Y-98223358D01*
X167402496Y-98204987D01*
X167385017Y-98187508D01*
X167366647Y-98170967D01*
X167347436Y-98155411D01*
X167327438Y-98140881D01*
X167306706Y-98127417D01*
X167285299Y-98115058D01*
X167263273Y-98103835D01*
X167240691Y-98093781D01*
X167217613Y-98084922D01*
X167194104Y-98077283D01*
X167170227Y-98070885D01*
X167146047Y-98065745D01*
X167121632Y-98061878D01*
X167097048Y-98059294D01*
X167072363Y-98058000D01*
X167060000Y-98058000D01*
X167047643Y-98058000D01*
X167022957Y-98059294D01*
X166998373Y-98061877D01*
X166973958Y-98065744D01*
X166949779Y-98070883D01*
X166925902Y-98077281D01*
X166902392Y-98084920D01*
X166879314Y-98093778D01*
X166856732Y-98103833D01*
X166834706Y-98115055D01*
X166813299Y-98127414D01*
X166792567Y-98140878D01*
X166772568Y-98155407D01*
X166753358Y-98170964D01*
X166734987Y-98187504D01*
X166717508Y-98204983D01*
X166700967Y-98223353D01*
X166685411Y-98242564D01*
X166670881Y-98262562D01*
X166657417Y-98283294D01*
X166645058Y-98304701D01*
X166633835Y-98326727D01*
X166623781Y-98349309D01*
X166614922Y-98372387D01*
X166607283Y-98395896D01*
X166600885Y-98419773D01*
X166595745Y-98443953D01*
X166591878Y-98468368D01*
X166589294Y-98492952D01*
X166588000Y-98517637D01*
X166588000Y-98530000D01*
X166588000Y-98542357D01*
X166589294Y-98567043D01*
X166591877Y-98591627D01*
X166595744Y-98616042D01*
X166600883Y-98640221D01*
X166607281Y-98664098D01*
X166614920Y-98687608D01*
X166623778Y-98710686D01*
X166633833Y-98733268D01*
X166645055Y-98755294D01*
X166657414Y-98776701D01*
X166670878Y-98797433D01*
X166685407Y-98817432D01*
X166700964Y-98836642D01*
X166717504Y-98855013D01*
X166734983Y-98872492D01*
X166753353Y-98889033D01*
X166772564Y-98904589D01*
X166792562Y-98919119D01*
X166813294Y-98932583D01*
X166834701Y-98944942D01*
X166856727Y-98956165D01*
X166879309Y-98966219D01*
X166902387Y-98975078D01*
X166925896Y-98982717D01*
X166949773Y-98989115D01*
X166973953Y-98994255D01*
X166998368Y-98998122D01*
X167022952Y-99000706D01*
X167047637Y-99002000D01*
X167060000Y-99002000D01*
X167060000Y-98530000D01*
G36*
X167060000Y-102130000D02*
G01*
X167065000Y-102130000D01*
X167065000Y-102602000D01*
X167074792Y-102602007D01*
X167099347Y-102600720D01*
X167123801Y-102598150D01*
X167148087Y-102594303D01*
X167172139Y-102589191D01*
X167195890Y-102582827D01*
X167219276Y-102575229D01*
X167242231Y-102566417D01*
X167264695Y-102556416D01*
X167286604Y-102545253D01*
X167307898Y-102532959D01*
X167328520Y-102519567D01*
X167348413Y-102505114D01*
X167367523Y-102489640D01*
X167385796Y-102473187D01*
X167403183Y-102455800D01*
X167419636Y-102437527D01*
X167435111Y-102418418D01*
X167449564Y-102398525D01*
X167462956Y-102377903D01*
X167475251Y-102356608D01*
X167486414Y-102334700D01*
X167496415Y-102312237D01*
X167505227Y-102289281D01*
X167512826Y-102265895D01*
X167519190Y-102242144D01*
X167524302Y-102218093D01*
X167528149Y-102193807D01*
X167530719Y-102169352D01*
X167532007Y-102144797D01*
X167532000Y-102130000D01*
X167532000Y-102117643D01*
X167530706Y-102092957D01*
X167528123Y-102068373D01*
X167524256Y-102043958D01*
X167519117Y-102019779D01*
X167512719Y-101995902D01*
X167505080Y-101972392D01*
X167496222Y-101949314D01*
X167486167Y-101926732D01*
X167474945Y-101904706D01*
X167462586Y-101883299D01*
X167449122Y-101862567D01*
X167434593Y-101842568D01*
X167419036Y-101823358D01*
X167402496Y-101804987D01*
X167385017Y-101787508D01*
X167366647Y-101770967D01*
X167347436Y-101755411D01*
X167327438Y-101740881D01*
X167306706Y-101727417D01*
X167285299Y-101715058D01*
X167263273Y-101703835D01*
X167240691Y-101693781D01*
X167217613Y-101684922D01*
X167194104Y-101677283D01*
X167170227Y-101670885D01*
X167146047Y-101665745D01*
X167121632Y-101661878D01*
X167097048Y-101659294D01*
X167072363Y-101658000D01*
X167060000Y-101658000D01*
X167047643Y-101658000D01*
X167022957Y-101659294D01*
X166998373Y-101661877D01*
X166973958Y-101665744D01*
X166949779Y-101670883D01*
X166925902Y-101677281D01*
X166902392Y-101684920D01*
X166879314Y-101693778D01*
X166856732Y-101703833D01*
X166834706Y-101715055D01*
X166813299Y-101727414D01*
X166792567Y-101740878D01*
X166772568Y-101755407D01*
X166753358Y-101770964D01*
X166734987Y-101787504D01*
X166717508Y-101804983D01*
X166700967Y-101823353D01*
X166685411Y-101842564D01*
X166670881Y-101862562D01*
X166657417Y-101883294D01*
X166645058Y-101904701D01*
X166633835Y-101926727D01*
X166623781Y-101949309D01*
X166614922Y-101972387D01*
X166607283Y-101995896D01*
X166600885Y-102019773D01*
X166595745Y-102043953D01*
X166591878Y-102068368D01*
X166589294Y-102092952D01*
X166588000Y-102117637D01*
X166588000Y-102130000D01*
X166588000Y-102142357D01*
X166589294Y-102167043D01*
X166591877Y-102191627D01*
X166595744Y-102216042D01*
X166600883Y-102240221D01*
X166607281Y-102264098D01*
X166614920Y-102287608D01*
X166623778Y-102310686D01*
X166633833Y-102333268D01*
X166645055Y-102355294D01*
X166657414Y-102376701D01*
X166670878Y-102397433D01*
X166685407Y-102417432D01*
X166700964Y-102436642D01*
X166717504Y-102455013D01*
X166734983Y-102472492D01*
X166753353Y-102489033D01*
X166772564Y-102504589D01*
X166792562Y-102519119D01*
X166813294Y-102532583D01*
X166834701Y-102544942D01*
X166856727Y-102556165D01*
X166879309Y-102566219D01*
X166902387Y-102575078D01*
X166925896Y-102582717D01*
X166949773Y-102589115D01*
X166973953Y-102594255D01*
X166998368Y-102598122D01*
X167022952Y-102600706D01*
X167047637Y-102602000D01*
X167060000Y-102602000D01*
X167060000Y-102130000D01*
G37*
X167060000Y-102130000D02*
X167065000Y-102130000D01*
X167065000Y-102602000D01*
X167074792Y-102602007D01*
X167099347Y-102600720D01*
X167123801Y-102598150D01*
X167148087Y-102594303D01*
X167172139Y-102589191D01*
X167195890Y-102582827D01*
X167219276Y-102575229D01*
X167242231Y-102566417D01*
X167264695Y-102556416D01*
X167286604Y-102545253D01*
X167307898Y-102532959D01*
X167328520Y-102519567D01*
X167348413Y-102505114D01*
X167367523Y-102489640D01*
X167385796Y-102473187D01*
X167403183Y-102455800D01*
X167419636Y-102437527D01*
X167435111Y-102418418D01*
X167449564Y-102398525D01*
X167462956Y-102377903D01*
X167475251Y-102356608D01*
X167486414Y-102334700D01*
X167496415Y-102312237D01*
X167505227Y-102289281D01*
X167512826Y-102265895D01*
X167519190Y-102242144D01*
X167524302Y-102218093D01*
X167528149Y-102193807D01*
X167530719Y-102169352D01*
X167532007Y-102144797D01*
X167532000Y-102130000D01*
X167532000Y-102117643D01*
X167530706Y-102092957D01*
X167528123Y-102068373D01*
X167524256Y-102043958D01*
X167519117Y-102019779D01*
X167512719Y-101995902D01*
X167505080Y-101972392D01*
X167496222Y-101949314D01*
X167486167Y-101926732D01*
X167474945Y-101904706D01*
X167462586Y-101883299D01*
X167449122Y-101862567D01*
X167434593Y-101842568D01*
X167419036Y-101823358D01*
X167402496Y-101804987D01*
X167385017Y-101787508D01*
X167366647Y-101770967D01*
X167347436Y-101755411D01*
X167327438Y-101740881D01*
X167306706Y-101727417D01*
X167285299Y-101715058D01*
X167263273Y-101703835D01*
X167240691Y-101693781D01*
X167217613Y-101684922D01*
X167194104Y-101677283D01*
X167170227Y-101670885D01*
X167146047Y-101665745D01*
X167121632Y-101661878D01*
X167097048Y-101659294D01*
X167072363Y-101658000D01*
X167060000Y-101658000D01*
X167047643Y-101658000D01*
X167022957Y-101659294D01*
X166998373Y-101661877D01*
X166973958Y-101665744D01*
X166949779Y-101670883D01*
X166925902Y-101677281D01*
X166902392Y-101684920D01*
X166879314Y-101693778D01*
X166856732Y-101703833D01*
X166834706Y-101715055D01*
X166813299Y-101727414D01*
X166792567Y-101740878D01*
X166772568Y-101755407D01*
X166753358Y-101770964D01*
X166734987Y-101787504D01*
X166717508Y-101804983D01*
X166700967Y-101823353D01*
X166685411Y-101842564D01*
X166670881Y-101862562D01*
X166657417Y-101883294D01*
X166645058Y-101904701D01*
X166633835Y-101926727D01*
X166623781Y-101949309D01*
X166614922Y-101972387D01*
X166607283Y-101995896D01*
X166600885Y-102019773D01*
X166595745Y-102043953D01*
X166591878Y-102068368D01*
X166589294Y-102092952D01*
X166588000Y-102117637D01*
X166588000Y-102130000D01*
X166588000Y-102142357D01*
X166589294Y-102167043D01*
X166591877Y-102191627D01*
X166595744Y-102216042D01*
X166600883Y-102240221D01*
X166607281Y-102264098D01*
X166614920Y-102287608D01*
X166623778Y-102310686D01*
X166633833Y-102333268D01*
X166645055Y-102355294D01*
X166657414Y-102376701D01*
X166670878Y-102397433D01*
X166685407Y-102417432D01*
X166700964Y-102436642D01*
X166717504Y-102455013D01*
X166734983Y-102472492D01*
X166753353Y-102489033D01*
X166772564Y-102504589D01*
X166792562Y-102519119D01*
X166813294Y-102532583D01*
X166834701Y-102544942D01*
X166856727Y-102556165D01*
X166879309Y-102566219D01*
X166902387Y-102575078D01*
X166925896Y-102582717D01*
X166949773Y-102589115D01*
X166973953Y-102594255D01*
X166998368Y-102598122D01*
X167022952Y-102600706D01*
X167047637Y-102602000D01*
X167060000Y-102602000D01*
X167060000Y-102130000D01*
G36*
X158060000Y-102130000D02*
G01*
X158065000Y-102130000D01*
X158065000Y-102602000D01*
X158074792Y-102602007D01*
X158099347Y-102600720D01*
X158123801Y-102598150D01*
X158148087Y-102594303D01*
X158172139Y-102589191D01*
X158195890Y-102582827D01*
X158219276Y-102575229D01*
X158242231Y-102566417D01*
X158264695Y-102556416D01*
X158286604Y-102545253D01*
X158307898Y-102532959D01*
X158328520Y-102519567D01*
X158348413Y-102505114D01*
X158367523Y-102489640D01*
X158385796Y-102473187D01*
X158403183Y-102455800D01*
X158419636Y-102437527D01*
X158435111Y-102418418D01*
X158449564Y-102398525D01*
X158462956Y-102377903D01*
X158475251Y-102356608D01*
X158486414Y-102334700D01*
X158496415Y-102312237D01*
X158505227Y-102289281D01*
X158512826Y-102265895D01*
X158519190Y-102242144D01*
X158524302Y-102218093D01*
X158528149Y-102193807D01*
X158530719Y-102169352D01*
X158532007Y-102144797D01*
X158532000Y-102130000D01*
X158532000Y-102117643D01*
X158530706Y-102092957D01*
X158528123Y-102068373D01*
X158524256Y-102043958D01*
X158519117Y-102019779D01*
X158512719Y-101995902D01*
X158505080Y-101972392D01*
X158496222Y-101949314D01*
X158486167Y-101926732D01*
X158474945Y-101904706D01*
X158462586Y-101883299D01*
X158449122Y-101862567D01*
X158434593Y-101842568D01*
X158419036Y-101823358D01*
X158402496Y-101804987D01*
X158385017Y-101787508D01*
X158366647Y-101770967D01*
X158347436Y-101755411D01*
X158327438Y-101740881D01*
X158306706Y-101727417D01*
X158285299Y-101715058D01*
X158263273Y-101703835D01*
X158240691Y-101693781D01*
X158217613Y-101684922D01*
X158194104Y-101677283D01*
X158170227Y-101670885D01*
X158146047Y-101665745D01*
X158121632Y-101661878D01*
X158097048Y-101659294D01*
X158072363Y-101658000D01*
X158060000Y-101658000D01*
X158047643Y-101658000D01*
X158022957Y-101659294D01*
X157998373Y-101661877D01*
X157973958Y-101665744D01*
X157949779Y-101670883D01*
X157925902Y-101677281D01*
X157902392Y-101684920D01*
X157879314Y-101693778D01*
X157856732Y-101703833D01*
X157834706Y-101715055D01*
X157813299Y-101727414D01*
X157792567Y-101740878D01*
X157772568Y-101755407D01*
X157753358Y-101770964D01*
X157734987Y-101787504D01*
X157717508Y-101804983D01*
X157700967Y-101823353D01*
X157685411Y-101842564D01*
X157670881Y-101862562D01*
X157657417Y-101883294D01*
X157645058Y-101904701D01*
X157633835Y-101926727D01*
X157623781Y-101949309D01*
X157614922Y-101972387D01*
X157607283Y-101995896D01*
X157600885Y-102019773D01*
X157595745Y-102043953D01*
X157591878Y-102068368D01*
X157589294Y-102092952D01*
X157588000Y-102117637D01*
X157588000Y-102130000D01*
X157588000Y-102142357D01*
X157589294Y-102167043D01*
X157591877Y-102191627D01*
X157595744Y-102216042D01*
X157600883Y-102240221D01*
X157607281Y-102264098D01*
X157614920Y-102287608D01*
X157623778Y-102310686D01*
X157633833Y-102333268D01*
X157645055Y-102355294D01*
X157657414Y-102376701D01*
X157670878Y-102397433D01*
X157685407Y-102417432D01*
X157700964Y-102436642D01*
X157717504Y-102455013D01*
X157734983Y-102472492D01*
X157753353Y-102489033D01*
X157772564Y-102504589D01*
X157792562Y-102519119D01*
X157813294Y-102532583D01*
X157834701Y-102544942D01*
X157856727Y-102556165D01*
X157879309Y-102566219D01*
X157902387Y-102575078D01*
X157925896Y-102582717D01*
X157949773Y-102589115D01*
X157973953Y-102594255D01*
X157998368Y-102598122D01*
X158022952Y-102600706D01*
X158047637Y-102602000D01*
X158060000Y-102602000D01*
X158060000Y-102130000D01*
G37*
X158060000Y-102130000D02*
X158065000Y-102130000D01*
X158065000Y-102602000D01*
X158074792Y-102602007D01*
X158099347Y-102600720D01*
X158123801Y-102598150D01*
X158148087Y-102594303D01*
X158172139Y-102589191D01*
X158195890Y-102582827D01*
X158219276Y-102575229D01*
X158242231Y-102566417D01*
X158264695Y-102556416D01*
X158286604Y-102545253D01*
X158307898Y-102532959D01*
X158328520Y-102519567D01*
X158348413Y-102505114D01*
X158367523Y-102489640D01*
X158385796Y-102473187D01*
X158403183Y-102455800D01*
X158419636Y-102437527D01*
X158435111Y-102418418D01*
X158449564Y-102398525D01*
X158462956Y-102377903D01*
X158475251Y-102356608D01*
X158486414Y-102334700D01*
X158496415Y-102312237D01*
X158505227Y-102289281D01*
X158512826Y-102265895D01*
X158519190Y-102242144D01*
X158524302Y-102218093D01*
X158528149Y-102193807D01*
X158530719Y-102169352D01*
X158532007Y-102144797D01*
X158532000Y-102130000D01*
X158532000Y-102117643D01*
X158530706Y-102092957D01*
X158528123Y-102068373D01*
X158524256Y-102043958D01*
X158519117Y-102019779D01*
X158512719Y-101995902D01*
X158505080Y-101972392D01*
X158496222Y-101949314D01*
X158486167Y-101926732D01*
X158474945Y-101904706D01*
X158462586Y-101883299D01*
X158449122Y-101862567D01*
X158434593Y-101842568D01*
X158419036Y-101823358D01*
X158402496Y-101804987D01*
X158385017Y-101787508D01*
X158366647Y-101770967D01*
X158347436Y-101755411D01*
X158327438Y-101740881D01*
X158306706Y-101727417D01*
X158285299Y-101715058D01*
X158263273Y-101703835D01*
X158240691Y-101693781D01*
X158217613Y-101684922D01*
X158194104Y-101677283D01*
X158170227Y-101670885D01*
X158146047Y-101665745D01*
X158121632Y-101661878D01*
X158097048Y-101659294D01*
X158072363Y-101658000D01*
X158060000Y-101658000D01*
X158047643Y-101658000D01*
X158022957Y-101659294D01*
X157998373Y-101661877D01*
X157973958Y-101665744D01*
X157949779Y-101670883D01*
X157925902Y-101677281D01*
X157902392Y-101684920D01*
X157879314Y-101693778D01*
X157856732Y-101703833D01*
X157834706Y-101715055D01*
X157813299Y-101727414D01*
X157792567Y-101740878D01*
X157772568Y-101755407D01*
X157753358Y-101770964D01*
X157734987Y-101787504D01*
X157717508Y-101804983D01*
X157700967Y-101823353D01*
X157685411Y-101842564D01*
X157670881Y-101862562D01*
X157657417Y-101883294D01*
X157645058Y-101904701D01*
X157633835Y-101926727D01*
X157623781Y-101949309D01*
X157614922Y-101972387D01*
X157607283Y-101995896D01*
X157600885Y-102019773D01*
X157595745Y-102043953D01*
X157591878Y-102068368D01*
X157589294Y-102092952D01*
X157588000Y-102117637D01*
X157588000Y-102130000D01*
X157588000Y-102142357D01*
X157589294Y-102167043D01*
X157591877Y-102191627D01*
X157595744Y-102216042D01*
X157600883Y-102240221D01*
X157607281Y-102264098D01*
X157614920Y-102287608D01*
X157623778Y-102310686D01*
X157633833Y-102333268D01*
X157645055Y-102355294D01*
X157657414Y-102376701D01*
X157670878Y-102397433D01*
X157685407Y-102417432D01*
X157700964Y-102436642D01*
X157717504Y-102455013D01*
X157734983Y-102472492D01*
X157753353Y-102489033D01*
X157772564Y-102504589D01*
X157792562Y-102519119D01*
X157813294Y-102532583D01*
X157834701Y-102544942D01*
X157856727Y-102556165D01*
X157879309Y-102566219D01*
X157902387Y-102575078D01*
X157925896Y-102582717D01*
X157949773Y-102589115D01*
X157973953Y-102594255D01*
X157998368Y-102598122D01*
X158022952Y-102600706D01*
X158047637Y-102602000D01*
X158060000Y-102602000D01*
X158060000Y-102130000D01*
G36*
X158060000Y-98530000D02*
G01*
X158065000Y-98530000D01*
X158065000Y-99002000D01*
X158074792Y-99002007D01*
X158099347Y-99000720D01*
X158123801Y-98998150D01*
X158148087Y-98994303D01*
X158172139Y-98989191D01*
X158195890Y-98982827D01*
X158219276Y-98975229D01*
X158242231Y-98966417D01*
X158264695Y-98956416D01*
X158286604Y-98945253D01*
X158307898Y-98932959D01*
X158328520Y-98919567D01*
X158348413Y-98905114D01*
X158367523Y-98889640D01*
X158385796Y-98873187D01*
X158403183Y-98855800D01*
X158419636Y-98837527D01*
X158435111Y-98818418D01*
X158449564Y-98798525D01*
X158462956Y-98777903D01*
X158475251Y-98756608D01*
X158486414Y-98734700D01*
X158496415Y-98712237D01*
X158505227Y-98689281D01*
X158512826Y-98665895D01*
X158519190Y-98642144D01*
X158524302Y-98618093D01*
X158528149Y-98593807D01*
X158530719Y-98569352D01*
X158532007Y-98544797D01*
X158532000Y-98530000D01*
X158532000Y-98517643D01*
X158530706Y-98492957D01*
X158528123Y-98468373D01*
X158524256Y-98443958D01*
X158519117Y-98419779D01*
X158512719Y-98395902D01*
X158505080Y-98372392D01*
X158496222Y-98349314D01*
X158486167Y-98326732D01*
X158474945Y-98304706D01*
X158462586Y-98283299D01*
X158449122Y-98262567D01*
X158434593Y-98242568D01*
X158419036Y-98223358D01*
X158402496Y-98204987D01*
X158385017Y-98187508D01*
X158366647Y-98170967D01*
X158347436Y-98155411D01*
X158327438Y-98140881D01*
X158306706Y-98127417D01*
X158285299Y-98115058D01*
X158263273Y-98103835D01*
X158240691Y-98093781D01*
X158217613Y-98084922D01*
X158194104Y-98077283D01*
X158170227Y-98070885D01*
X158146047Y-98065745D01*
X158121632Y-98061878D01*
X158097048Y-98059294D01*
X158072363Y-98058000D01*
X158060000Y-98058000D01*
X158047643Y-98058000D01*
X158022957Y-98059294D01*
X157998373Y-98061877D01*
X157973958Y-98065744D01*
X157949779Y-98070883D01*
X157925902Y-98077281D01*
X157902392Y-98084920D01*
X157879314Y-98093778D01*
X157856732Y-98103833D01*
X157834706Y-98115055D01*
X157813299Y-98127414D01*
X157792567Y-98140878D01*
X157772568Y-98155407D01*
X157753358Y-98170964D01*
X157734987Y-98187504D01*
X157717508Y-98204983D01*
X157700967Y-98223353D01*
X157685411Y-98242564D01*
X157670881Y-98262562D01*
X157657417Y-98283294D01*
X157645058Y-98304701D01*
X157633835Y-98326727D01*
X157623781Y-98349309D01*
X157614922Y-98372387D01*
X157607283Y-98395896D01*
X157600885Y-98419773D01*
X157595745Y-98443953D01*
X157591878Y-98468368D01*
X157589294Y-98492952D01*
X157588000Y-98517637D01*
X157588000Y-98530000D01*
X157588000Y-98542357D01*
X157589294Y-98567043D01*
X157591877Y-98591627D01*
X157595744Y-98616042D01*
X157600883Y-98640221D01*
X157607281Y-98664098D01*
X157614920Y-98687608D01*
X157623778Y-98710686D01*
X157633833Y-98733268D01*
X157645055Y-98755294D01*
X157657414Y-98776701D01*
X157670878Y-98797433D01*
X157685407Y-98817432D01*
X157700964Y-98836642D01*
X157717504Y-98855013D01*
X157734983Y-98872492D01*
X157753353Y-98889033D01*
X157772564Y-98904589D01*
X157792562Y-98919119D01*
X157813294Y-98932583D01*
X157834701Y-98944942D01*
X157856727Y-98956165D01*
X157879309Y-98966219D01*
X157902387Y-98975078D01*
X157925896Y-98982717D01*
X157949773Y-98989115D01*
X157973953Y-98994255D01*
X157998368Y-98998122D01*
X158022952Y-99000706D01*
X158047637Y-99002000D01*
X158060000Y-99002000D01*
X158060000Y-98530000D01*
G37*
X158060000Y-98530000D02*
X158065000Y-98530000D01*
X158065000Y-99002000D01*
X158074792Y-99002007D01*
X158099347Y-99000720D01*
X158123801Y-98998150D01*
X158148087Y-98994303D01*
X158172139Y-98989191D01*
X158195890Y-98982827D01*
X158219276Y-98975229D01*
X158242231Y-98966417D01*
X158264695Y-98956416D01*
X158286604Y-98945253D01*
X158307898Y-98932959D01*
X158328520Y-98919567D01*
X158348413Y-98905114D01*
X158367523Y-98889640D01*
X158385796Y-98873187D01*
X158403183Y-98855800D01*
X158419636Y-98837527D01*
X158435111Y-98818418D01*
X158449564Y-98798525D01*
X158462956Y-98777903D01*
X158475251Y-98756608D01*
X158486414Y-98734700D01*
X158496415Y-98712237D01*
X158505227Y-98689281D01*
X158512826Y-98665895D01*
X158519190Y-98642144D01*
X158524302Y-98618093D01*
X158528149Y-98593807D01*
X158530719Y-98569352D01*
X158532007Y-98544797D01*
X158532000Y-98530000D01*
X158532000Y-98517643D01*
X158530706Y-98492957D01*
X158528123Y-98468373D01*
X158524256Y-98443958D01*
X158519117Y-98419779D01*
X158512719Y-98395902D01*
X158505080Y-98372392D01*
X158496222Y-98349314D01*
X158486167Y-98326732D01*
X158474945Y-98304706D01*
X158462586Y-98283299D01*
X158449122Y-98262567D01*
X158434593Y-98242568D01*
X158419036Y-98223358D01*
X158402496Y-98204987D01*
X158385017Y-98187508D01*
X158366647Y-98170967D01*
X158347436Y-98155411D01*
X158327438Y-98140881D01*
X158306706Y-98127417D01*
X158285299Y-98115058D01*
X158263273Y-98103835D01*
X158240691Y-98093781D01*
X158217613Y-98084922D01*
X158194104Y-98077283D01*
X158170227Y-98070885D01*
X158146047Y-98065745D01*
X158121632Y-98061878D01*
X158097048Y-98059294D01*
X158072363Y-98058000D01*
X158060000Y-98058000D01*
X158047643Y-98058000D01*
X158022957Y-98059294D01*
X157998373Y-98061877D01*
X157973958Y-98065744D01*
X157949779Y-98070883D01*
X157925902Y-98077281D01*
X157902392Y-98084920D01*
X157879314Y-98093778D01*
X157856732Y-98103833D01*
X157834706Y-98115055D01*
X157813299Y-98127414D01*
X157792567Y-98140878D01*
X157772568Y-98155407D01*
X157753358Y-98170964D01*
X157734987Y-98187504D01*
X157717508Y-98204983D01*
X157700967Y-98223353D01*
X157685411Y-98242564D01*
X157670881Y-98262562D01*
X157657417Y-98283294D01*
X157645058Y-98304701D01*
X157633835Y-98326727D01*
X157623781Y-98349309D01*
X157614922Y-98372387D01*
X157607283Y-98395896D01*
X157600885Y-98419773D01*
X157595745Y-98443953D01*
X157591878Y-98468368D01*
X157589294Y-98492952D01*
X157588000Y-98517637D01*
X157588000Y-98530000D01*
X157588000Y-98542357D01*
X157589294Y-98567043D01*
X157591877Y-98591627D01*
X157595744Y-98616042D01*
X157600883Y-98640221D01*
X157607281Y-98664098D01*
X157614920Y-98687608D01*
X157623778Y-98710686D01*
X157633833Y-98733268D01*
X157645055Y-98755294D01*
X157657414Y-98776701D01*
X157670878Y-98797433D01*
X157685407Y-98817432D01*
X157700964Y-98836642D01*
X157717504Y-98855013D01*
X157734983Y-98872492D01*
X157753353Y-98889033D01*
X157772564Y-98904589D01*
X157792562Y-98919119D01*
X157813294Y-98932583D01*
X157834701Y-98944942D01*
X157856727Y-98956165D01*
X157879309Y-98966219D01*
X157902387Y-98975078D01*
X157925896Y-98982717D01*
X157949773Y-98989115D01*
X157973953Y-98994255D01*
X157998368Y-98998122D01*
X158022952Y-99000706D01*
X158047637Y-99002000D01*
X158060000Y-99002000D01*
X158060000Y-98530000D01*
G36*
X165265000Y-100802000D02*
G01*
X165264935Y-100801935D01*
X165264797Y-100801811D01*
X165264653Y-100801694D01*
X165264503Y-100801585D01*
X165264348Y-100801484D01*
X165264188Y-100801392D01*
X165264023Y-100801308D01*
X165263853Y-100801232D01*
X165263681Y-100801166D01*
X165263505Y-100801109D01*
X165263326Y-100801061D01*
X165263145Y-100801022D01*
X165262962Y-100800994D01*
X165262778Y-100800974D01*
X165262593Y-100800964D01*
X165262407Y-100800964D01*
X165262223Y-100800974D01*
X165262038Y-100800994D01*
X165261856Y-100801022D01*
X165261674Y-100801061D01*
X165261496Y-100801109D01*
X165261319Y-100801166D01*
X165261147Y-100801232D01*
X165260977Y-100801308D01*
X165260812Y-100801392D01*
X165260652Y-100801484D01*
X165260497Y-100801585D01*
X165260347Y-100801694D01*
X165260203Y-100801811D01*
X165260065Y-100801935D01*
X165260000Y-100802000D01*
X165265000Y-100802000D01*
G37*
X165265000Y-100802000D02*
X165264935Y-100801935D01*
X165264797Y-100801811D01*
X165264653Y-100801694D01*
X165264503Y-100801585D01*
X165264348Y-100801484D01*
X165264188Y-100801392D01*
X165264023Y-100801308D01*
X165263853Y-100801232D01*
X165263681Y-100801166D01*
X165263505Y-100801109D01*
X165263326Y-100801061D01*
X165263145Y-100801022D01*
X165262962Y-100800994D01*
X165262778Y-100800974D01*
X165262593Y-100800964D01*
X165262407Y-100800964D01*
X165262223Y-100800974D01*
X165262038Y-100800994D01*
X165261856Y-100801022D01*
X165261674Y-100801061D01*
X165261496Y-100801109D01*
X165261319Y-100801166D01*
X165261147Y-100801232D01*
X165260977Y-100801308D01*
X165260812Y-100801392D01*
X165260652Y-100801484D01*
X165260497Y-100801585D01*
X165260347Y-100801694D01*
X165260203Y-100801811D01*
X165260065Y-100801935D01*
X165260000Y-100802000D01*
X165265000Y-100802000D01*
G36*
X165260000Y-103930000D02*
G01*
X165265000Y-103930000D01*
X165265000Y-104402000D01*
X165274792Y-104402007D01*
X165299347Y-104400720D01*
X165323801Y-104398150D01*
X165348087Y-104394303D01*
X165372139Y-104389191D01*
X165395890Y-104382827D01*
X165419276Y-104375229D01*
X165442231Y-104366417D01*
X165464695Y-104356416D01*
X165486604Y-104345253D01*
X165507898Y-104332959D01*
X165528520Y-104319567D01*
X165548413Y-104305114D01*
X165567523Y-104289640D01*
X165585796Y-104273187D01*
X165603183Y-104255800D01*
X165619636Y-104237527D01*
X165635111Y-104218418D01*
X165649564Y-104198525D01*
X165662956Y-104177903D01*
X165675251Y-104156608D01*
X165686414Y-104134700D01*
X165696415Y-104112237D01*
X165705227Y-104089281D01*
X165712826Y-104065895D01*
X165719190Y-104042144D01*
X165724302Y-104018093D01*
X165728149Y-103993807D01*
X165730719Y-103969352D01*
X165732007Y-103944797D01*
X165732000Y-103930000D01*
X165732000Y-103917643D01*
X165730706Y-103892957D01*
X165728123Y-103868373D01*
X165724256Y-103843958D01*
X165719117Y-103819779D01*
X165712719Y-103795902D01*
X165705080Y-103772392D01*
X165696222Y-103749314D01*
X165686167Y-103726732D01*
X165674945Y-103704706D01*
X165662586Y-103683299D01*
X165649122Y-103662567D01*
X165634593Y-103642568D01*
X165619036Y-103623358D01*
X165602496Y-103604987D01*
X165585017Y-103587508D01*
X165566647Y-103570967D01*
X165547436Y-103555411D01*
X165527438Y-103540881D01*
X165506706Y-103527417D01*
X165485299Y-103515058D01*
X165463273Y-103503835D01*
X165440691Y-103493781D01*
X165417613Y-103484922D01*
X165394104Y-103477283D01*
X165370227Y-103470885D01*
X165346047Y-103465745D01*
X165321632Y-103461878D01*
X165297048Y-103459294D01*
X165272363Y-103458000D01*
X165260000Y-103458000D01*
X165247643Y-103458000D01*
X165222957Y-103459294D01*
X165198373Y-103461877D01*
X165173958Y-103465744D01*
X165149779Y-103470883D01*
X165125902Y-103477281D01*
X165102392Y-103484920D01*
X165079314Y-103493778D01*
X165056732Y-103503833D01*
X165034706Y-103515055D01*
X165013299Y-103527414D01*
X164992567Y-103540878D01*
X164972568Y-103555407D01*
X164953358Y-103570964D01*
X164934987Y-103587504D01*
X164917508Y-103604983D01*
X164900967Y-103623353D01*
X164885411Y-103642564D01*
X164870881Y-103662562D01*
X164857417Y-103683294D01*
X164845058Y-103704701D01*
X164833835Y-103726727D01*
X164823781Y-103749309D01*
X164814922Y-103772387D01*
X164807283Y-103795896D01*
X164800885Y-103819773D01*
X164795745Y-103843953D01*
X164791878Y-103868368D01*
X164789294Y-103892952D01*
X164788000Y-103917637D01*
X164788000Y-103930000D01*
X164788000Y-103942357D01*
X164789294Y-103967043D01*
X164791877Y-103991627D01*
X164795744Y-104016042D01*
X164800883Y-104040221D01*
X164807281Y-104064098D01*
X164814920Y-104087608D01*
X164823778Y-104110686D01*
X164833833Y-104133268D01*
X164845055Y-104155294D01*
X164857414Y-104176701D01*
X164870878Y-104197433D01*
X164885407Y-104217432D01*
X164900964Y-104236642D01*
X164917504Y-104255013D01*
X164934983Y-104272492D01*
X164953353Y-104289033D01*
X164972564Y-104304589D01*
X164992562Y-104319119D01*
X165013294Y-104332583D01*
X165034701Y-104344942D01*
X165056727Y-104356165D01*
X165079309Y-104366219D01*
X165102387Y-104375078D01*
X165125896Y-104382717D01*
X165149773Y-104389115D01*
X165173953Y-104394255D01*
X165198368Y-104398122D01*
X165222952Y-104400706D01*
X165247637Y-104402000D01*
X165260000Y-104402000D01*
X165260000Y-103930000D01*
G37*
X165260000Y-103930000D02*
X165265000Y-103930000D01*
X165265000Y-104402000D01*
X165274792Y-104402007D01*
X165299347Y-104400720D01*
X165323801Y-104398150D01*
X165348087Y-104394303D01*
X165372139Y-104389191D01*
X165395890Y-104382827D01*
X165419276Y-104375229D01*
X165442231Y-104366417D01*
X165464695Y-104356416D01*
X165486604Y-104345253D01*
X165507898Y-104332959D01*
X165528520Y-104319567D01*
X165548413Y-104305114D01*
X165567523Y-104289640D01*
X165585796Y-104273187D01*
X165603183Y-104255800D01*
X165619636Y-104237527D01*
X165635111Y-104218418D01*
X165649564Y-104198525D01*
X165662956Y-104177903D01*
X165675251Y-104156608D01*
X165686414Y-104134700D01*
X165696415Y-104112237D01*
X165705227Y-104089281D01*
X165712826Y-104065895D01*
X165719190Y-104042144D01*
X165724302Y-104018093D01*
X165728149Y-103993807D01*
X165730719Y-103969352D01*
X165732007Y-103944797D01*
X165732000Y-103930000D01*
X165732000Y-103917643D01*
X165730706Y-103892957D01*
X165728123Y-103868373D01*
X165724256Y-103843958D01*
X165719117Y-103819779D01*
X165712719Y-103795902D01*
X165705080Y-103772392D01*
X165696222Y-103749314D01*
X165686167Y-103726732D01*
X165674945Y-103704706D01*
X165662586Y-103683299D01*
X165649122Y-103662567D01*
X165634593Y-103642568D01*
X165619036Y-103623358D01*
X165602496Y-103604987D01*
X165585017Y-103587508D01*
X165566647Y-103570967D01*
X165547436Y-103555411D01*
X165527438Y-103540881D01*
X165506706Y-103527417D01*
X165485299Y-103515058D01*
X165463273Y-103503835D01*
X165440691Y-103493781D01*
X165417613Y-103484922D01*
X165394104Y-103477283D01*
X165370227Y-103470885D01*
X165346047Y-103465745D01*
X165321632Y-103461878D01*
X165297048Y-103459294D01*
X165272363Y-103458000D01*
X165260000Y-103458000D01*
X165247643Y-103458000D01*
X165222957Y-103459294D01*
X165198373Y-103461877D01*
X165173958Y-103465744D01*
X165149779Y-103470883D01*
X165125902Y-103477281D01*
X165102392Y-103484920D01*
X165079314Y-103493778D01*
X165056732Y-103503833D01*
X165034706Y-103515055D01*
X165013299Y-103527414D01*
X164992567Y-103540878D01*
X164972568Y-103555407D01*
X164953358Y-103570964D01*
X164934987Y-103587504D01*
X164917508Y-103604983D01*
X164900967Y-103623353D01*
X164885411Y-103642564D01*
X164870881Y-103662562D01*
X164857417Y-103683294D01*
X164845058Y-103704701D01*
X164833835Y-103726727D01*
X164823781Y-103749309D01*
X164814922Y-103772387D01*
X164807283Y-103795896D01*
X164800885Y-103819773D01*
X164795745Y-103843953D01*
X164791878Y-103868368D01*
X164789294Y-103892952D01*
X164788000Y-103917637D01*
X164788000Y-103930000D01*
X164788000Y-103942357D01*
X164789294Y-103967043D01*
X164791877Y-103991627D01*
X164795744Y-104016042D01*
X164800883Y-104040221D01*
X164807281Y-104064098D01*
X164814920Y-104087608D01*
X164823778Y-104110686D01*
X164833833Y-104133268D01*
X164845055Y-104155294D01*
X164857414Y-104176701D01*
X164870878Y-104197433D01*
X164885407Y-104217432D01*
X164900964Y-104236642D01*
X164917504Y-104255013D01*
X164934983Y-104272492D01*
X164953353Y-104289033D01*
X164972564Y-104304589D01*
X164992562Y-104319119D01*
X165013294Y-104332583D01*
X165034701Y-104344942D01*
X165056727Y-104356165D01*
X165079309Y-104366219D01*
X165102387Y-104375078D01*
X165125896Y-104382717D01*
X165149773Y-104389115D01*
X165173953Y-104394255D01*
X165198368Y-104398122D01*
X165222952Y-104400706D01*
X165247637Y-104402000D01*
X165260000Y-104402000D01*
X165260000Y-103930000D01*
G36*
X159860000Y-103930000D02*
G01*
X159865000Y-103930000D01*
X159865000Y-104402000D01*
X159874792Y-104402007D01*
X159899347Y-104400720D01*
X159923801Y-104398150D01*
X159948087Y-104394303D01*
X159972139Y-104389191D01*
X159995890Y-104382827D01*
X160019276Y-104375229D01*
X160042231Y-104366417D01*
X160064695Y-104356416D01*
X160086604Y-104345253D01*
X160107898Y-104332959D01*
X160128520Y-104319567D01*
X160148413Y-104305114D01*
X160167523Y-104289640D01*
X160185796Y-104273187D01*
X160203183Y-104255800D01*
X160219636Y-104237527D01*
X160235111Y-104218418D01*
X160249564Y-104198525D01*
X160262956Y-104177903D01*
X160275251Y-104156608D01*
X160286414Y-104134700D01*
X160296415Y-104112237D01*
X160305227Y-104089281D01*
X160312826Y-104065895D01*
X160319190Y-104042144D01*
X160324302Y-104018093D01*
X160328149Y-103993807D01*
X160330719Y-103969352D01*
X160332007Y-103944797D01*
X160332000Y-103930000D01*
X160332000Y-103917643D01*
X160330706Y-103892957D01*
X160328123Y-103868373D01*
X160324256Y-103843958D01*
X160319117Y-103819779D01*
X160312719Y-103795902D01*
X160305080Y-103772392D01*
X160296222Y-103749314D01*
X160286167Y-103726732D01*
X160274945Y-103704706D01*
X160262586Y-103683299D01*
X160249122Y-103662567D01*
X160234593Y-103642568D01*
X160219036Y-103623358D01*
X160202496Y-103604987D01*
X160185017Y-103587508D01*
X160166647Y-103570967D01*
X160147436Y-103555411D01*
X160127438Y-103540881D01*
X160106706Y-103527417D01*
X160085299Y-103515058D01*
X160063273Y-103503835D01*
X160040691Y-103493781D01*
X160017613Y-103484922D01*
X159994104Y-103477283D01*
X159970227Y-103470885D01*
X159946047Y-103465745D01*
X159921632Y-103461878D01*
X159897048Y-103459294D01*
X159872363Y-103458000D01*
X159860000Y-103458000D01*
X159847643Y-103458000D01*
X159822957Y-103459294D01*
X159798373Y-103461877D01*
X159773958Y-103465744D01*
X159749779Y-103470883D01*
X159725902Y-103477281D01*
X159702392Y-103484920D01*
X159679314Y-103493778D01*
X159656732Y-103503833D01*
X159634706Y-103515055D01*
X159613299Y-103527414D01*
X159592567Y-103540878D01*
X159572568Y-103555407D01*
X159553358Y-103570964D01*
X159534987Y-103587504D01*
X159517508Y-103604983D01*
X159500967Y-103623353D01*
X159485411Y-103642564D01*
X159470881Y-103662562D01*
X159457417Y-103683294D01*
X159445058Y-103704701D01*
X159433835Y-103726727D01*
X159423781Y-103749309D01*
X159414922Y-103772387D01*
X159407283Y-103795896D01*
X159400885Y-103819773D01*
X159395745Y-103843953D01*
X159391878Y-103868368D01*
X159389294Y-103892952D01*
X159388000Y-103917637D01*
X159388000Y-103930000D01*
X159388000Y-103942357D01*
X159389294Y-103967043D01*
X159391877Y-103991627D01*
X159395744Y-104016042D01*
X159400883Y-104040221D01*
X159407281Y-104064098D01*
X159414920Y-104087608D01*
X159423778Y-104110686D01*
X159433833Y-104133268D01*
X159445055Y-104155294D01*
X159457414Y-104176701D01*
X159470878Y-104197433D01*
X159485407Y-104217432D01*
X159500964Y-104236642D01*
X159517504Y-104255013D01*
X159534983Y-104272492D01*
X159553353Y-104289033D01*
X159572564Y-104304589D01*
X159592562Y-104319119D01*
X159613294Y-104332583D01*
X159634701Y-104344942D01*
X159656727Y-104356165D01*
X159679309Y-104366219D01*
X159702387Y-104375078D01*
X159725896Y-104382717D01*
X159749773Y-104389115D01*
X159773953Y-104394255D01*
X159798368Y-104398122D01*
X159822952Y-104400706D01*
X159847637Y-104402000D01*
X159860000Y-104402000D01*
X159860000Y-103930000D01*
G37*
X159860000Y-103930000D02*
X159865000Y-103930000D01*
X159865000Y-104402000D01*
X159874792Y-104402007D01*
X159899347Y-104400720D01*
X159923801Y-104398150D01*
X159948087Y-104394303D01*
X159972139Y-104389191D01*
X159995890Y-104382827D01*
X160019276Y-104375229D01*
X160042231Y-104366417D01*
X160064695Y-104356416D01*
X160086604Y-104345253D01*
X160107898Y-104332959D01*
X160128520Y-104319567D01*
X160148413Y-104305114D01*
X160167523Y-104289640D01*
X160185796Y-104273187D01*
X160203183Y-104255800D01*
X160219636Y-104237527D01*
X160235111Y-104218418D01*
X160249564Y-104198525D01*
X160262956Y-104177903D01*
X160275251Y-104156608D01*
X160286414Y-104134700D01*
X160296415Y-104112237D01*
X160305227Y-104089281D01*
X160312826Y-104065895D01*
X160319190Y-104042144D01*
X160324302Y-104018093D01*
X160328149Y-103993807D01*
X160330719Y-103969352D01*
X160332007Y-103944797D01*
X160332000Y-103930000D01*
X160332000Y-103917643D01*
X160330706Y-103892957D01*
X160328123Y-103868373D01*
X160324256Y-103843958D01*
X160319117Y-103819779D01*
X160312719Y-103795902D01*
X160305080Y-103772392D01*
X160296222Y-103749314D01*
X160286167Y-103726732D01*
X160274945Y-103704706D01*
X160262586Y-103683299D01*
X160249122Y-103662567D01*
X160234593Y-103642568D01*
X160219036Y-103623358D01*
X160202496Y-103604987D01*
X160185017Y-103587508D01*
X160166647Y-103570967D01*
X160147436Y-103555411D01*
X160127438Y-103540881D01*
X160106706Y-103527417D01*
X160085299Y-103515058D01*
X160063273Y-103503835D01*
X160040691Y-103493781D01*
X160017613Y-103484922D01*
X159994104Y-103477283D01*
X159970227Y-103470885D01*
X159946047Y-103465745D01*
X159921632Y-103461878D01*
X159897048Y-103459294D01*
X159872363Y-103458000D01*
X159860000Y-103458000D01*
X159847643Y-103458000D01*
X159822957Y-103459294D01*
X159798373Y-103461877D01*
X159773958Y-103465744D01*
X159749779Y-103470883D01*
X159725902Y-103477281D01*
X159702392Y-103484920D01*
X159679314Y-103493778D01*
X159656732Y-103503833D01*
X159634706Y-103515055D01*
X159613299Y-103527414D01*
X159592567Y-103540878D01*
X159572568Y-103555407D01*
X159553358Y-103570964D01*
X159534987Y-103587504D01*
X159517508Y-103604983D01*
X159500967Y-103623353D01*
X159485411Y-103642564D01*
X159470881Y-103662562D01*
X159457417Y-103683294D01*
X159445058Y-103704701D01*
X159433835Y-103726727D01*
X159423781Y-103749309D01*
X159414922Y-103772387D01*
X159407283Y-103795896D01*
X159400885Y-103819773D01*
X159395745Y-103843953D01*
X159391878Y-103868368D01*
X159389294Y-103892952D01*
X159388000Y-103917637D01*
X159388000Y-103930000D01*
X159388000Y-103942357D01*
X159389294Y-103967043D01*
X159391877Y-103991627D01*
X159395744Y-104016042D01*
X159400883Y-104040221D01*
X159407281Y-104064098D01*
X159414920Y-104087608D01*
X159423778Y-104110686D01*
X159433833Y-104133268D01*
X159445055Y-104155294D01*
X159457414Y-104176701D01*
X159470878Y-104197433D01*
X159485407Y-104217432D01*
X159500964Y-104236642D01*
X159517504Y-104255013D01*
X159534983Y-104272492D01*
X159553353Y-104289033D01*
X159572564Y-104304589D01*
X159592562Y-104319119D01*
X159613294Y-104332583D01*
X159634701Y-104344942D01*
X159656727Y-104356165D01*
X159679309Y-104366219D01*
X159702387Y-104375078D01*
X159725896Y-104382717D01*
X159749773Y-104389115D01*
X159773953Y-104394255D01*
X159798368Y-104398122D01*
X159822952Y-104400706D01*
X159847637Y-104402000D01*
X159860000Y-104402000D01*
X159860000Y-103930000D01*
G36*
X165260000Y-96730000D02*
G01*
X165265000Y-96730000D01*
X165265000Y-97202000D01*
X165274792Y-97202007D01*
X165299347Y-97200720D01*
X165323801Y-97198150D01*
X165348087Y-97194303D01*
X165372139Y-97189191D01*
X165395890Y-97182827D01*
X165419276Y-97175229D01*
X165442231Y-97166417D01*
X165464695Y-97156416D01*
X165486604Y-97145253D01*
X165507898Y-97132959D01*
X165528520Y-97119567D01*
X165548413Y-97105114D01*
X165567523Y-97089640D01*
X165585796Y-97073187D01*
X165603183Y-97055800D01*
X165619636Y-97037527D01*
X165635111Y-97018418D01*
X165649564Y-96998525D01*
X165662956Y-96977903D01*
X165675251Y-96956608D01*
X165686414Y-96934700D01*
X165696415Y-96912237D01*
X165705227Y-96889281D01*
X165712826Y-96865895D01*
X165719190Y-96842144D01*
X165724302Y-96818093D01*
X165728149Y-96793807D01*
X165730719Y-96769352D01*
X165732007Y-96744797D01*
X165732000Y-96730000D01*
X165732000Y-96717643D01*
X165730706Y-96692957D01*
X165728123Y-96668373D01*
X165724256Y-96643958D01*
X165719117Y-96619779D01*
X165712719Y-96595902D01*
X165705080Y-96572392D01*
X165696222Y-96549314D01*
X165686167Y-96526732D01*
X165674945Y-96504706D01*
X165662586Y-96483299D01*
X165649122Y-96462567D01*
X165634593Y-96442568D01*
X165619036Y-96423358D01*
X165602496Y-96404987D01*
X165585017Y-96387508D01*
X165566647Y-96370967D01*
X165547436Y-96355411D01*
X165527438Y-96340881D01*
X165506706Y-96327417D01*
X165485299Y-96315058D01*
X165463273Y-96303835D01*
X165440691Y-96293781D01*
X165417613Y-96284922D01*
X165394104Y-96277283D01*
X165370227Y-96270885D01*
X165346047Y-96265745D01*
X165321632Y-96261878D01*
X165297048Y-96259294D01*
X165272363Y-96258000D01*
X165260000Y-96258000D01*
X165247643Y-96258000D01*
X165222957Y-96259294D01*
X165198373Y-96261877D01*
X165173958Y-96265744D01*
X165149779Y-96270883D01*
X165125902Y-96277281D01*
X165102392Y-96284920D01*
X165079314Y-96293778D01*
X165056732Y-96303833D01*
X165034706Y-96315055D01*
X165013299Y-96327414D01*
X164992567Y-96340878D01*
X164972568Y-96355407D01*
X164953358Y-96370964D01*
X164934987Y-96387504D01*
X164917508Y-96404983D01*
X164900967Y-96423353D01*
X164885411Y-96442564D01*
X164870881Y-96462562D01*
X164857417Y-96483294D01*
X164845058Y-96504701D01*
X164833835Y-96526727D01*
X164823781Y-96549309D01*
X164814922Y-96572387D01*
X164807283Y-96595896D01*
X164800885Y-96619773D01*
X164795745Y-96643953D01*
X164791878Y-96668368D01*
X164789294Y-96692952D01*
X164788000Y-96717637D01*
X164788000Y-96730000D01*
X164788000Y-96742357D01*
X164789294Y-96767043D01*
X164791877Y-96791627D01*
X164795744Y-96816042D01*
X164800883Y-96840221D01*
X164807281Y-96864098D01*
X164814920Y-96887608D01*
X164823778Y-96910686D01*
X164833833Y-96933268D01*
X164845055Y-96955294D01*
X164857414Y-96976701D01*
X164870878Y-96997433D01*
X164885407Y-97017432D01*
X164900964Y-97036642D01*
X164917504Y-97055013D01*
X164934983Y-97072492D01*
X164953353Y-97089033D01*
X164972564Y-97104589D01*
X164992562Y-97119119D01*
X165013294Y-97132583D01*
X165034701Y-97144942D01*
X165056727Y-97156165D01*
X165079309Y-97166219D01*
X165102387Y-97175078D01*
X165125896Y-97182717D01*
X165149773Y-97189115D01*
X165173953Y-97194255D01*
X165198368Y-97198122D01*
X165222952Y-97200706D01*
X165247637Y-97202000D01*
X165260000Y-97202000D01*
X165260000Y-96730000D01*
G37*
X165260000Y-96730000D02*
X165265000Y-96730000D01*
X165265000Y-97202000D01*
X165274792Y-97202007D01*
X165299347Y-97200720D01*
X165323801Y-97198150D01*
X165348087Y-97194303D01*
X165372139Y-97189191D01*
X165395890Y-97182827D01*
X165419276Y-97175229D01*
X165442231Y-97166417D01*
X165464695Y-97156416D01*
X165486604Y-97145253D01*
X165507898Y-97132959D01*
X165528520Y-97119567D01*
X165548413Y-97105114D01*
X165567523Y-97089640D01*
X165585796Y-97073187D01*
X165603183Y-97055800D01*
X165619636Y-97037527D01*
X165635111Y-97018418D01*
X165649564Y-96998525D01*
X165662956Y-96977903D01*
X165675251Y-96956608D01*
X165686414Y-96934700D01*
X165696415Y-96912237D01*
X165705227Y-96889281D01*
X165712826Y-96865895D01*
X165719190Y-96842144D01*
X165724302Y-96818093D01*
X165728149Y-96793807D01*
X165730719Y-96769352D01*
X165732007Y-96744797D01*
X165732000Y-96730000D01*
X165732000Y-96717643D01*
X165730706Y-96692957D01*
X165728123Y-96668373D01*
X165724256Y-96643958D01*
X165719117Y-96619779D01*
X165712719Y-96595902D01*
X165705080Y-96572392D01*
X165696222Y-96549314D01*
X165686167Y-96526732D01*
X165674945Y-96504706D01*
X165662586Y-96483299D01*
X165649122Y-96462567D01*
X165634593Y-96442568D01*
X165619036Y-96423358D01*
X165602496Y-96404987D01*
X165585017Y-96387508D01*
X165566647Y-96370967D01*
X165547436Y-96355411D01*
X165527438Y-96340881D01*
X165506706Y-96327417D01*
X165485299Y-96315058D01*
X165463273Y-96303835D01*
X165440691Y-96293781D01*
X165417613Y-96284922D01*
X165394104Y-96277283D01*
X165370227Y-96270885D01*
X165346047Y-96265745D01*
X165321632Y-96261878D01*
X165297048Y-96259294D01*
X165272363Y-96258000D01*
X165260000Y-96258000D01*
X165247643Y-96258000D01*
X165222957Y-96259294D01*
X165198373Y-96261877D01*
X165173958Y-96265744D01*
X165149779Y-96270883D01*
X165125902Y-96277281D01*
X165102392Y-96284920D01*
X165079314Y-96293778D01*
X165056732Y-96303833D01*
X165034706Y-96315055D01*
X165013299Y-96327414D01*
X164992567Y-96340878D01*
X164972568Y-96355407D01*
X164953358Y-96370964D01*
X164934987Y-96387504D01*
X164917508Y-96404983D01*
X164900967Y-96423353D01*
X164885411Y-96442564D01*
X164870881Y-96462562D01*
X164857417Y-96483294D01*
X164845058Y-96504701D01*
X164833835Y-96526727D01*
X164823781Y-96549309D01*
X164814922Y-96572387D01*
X164807283Y-96595896D01*
X164800885Y-96619773D01*
X164795745Y-96643953D01*
X164791878Y-96668368D01*
X164789294Y-96692952D01*
X164788000Y-96717637D01*
X164788000Y-96730000D01*
X164788000Y-96742357D01*
X164789294Y-96767043D01*
X164791877Y-96791627D01*
X164795744Y-96816042D01*
X164800883Y-96840221D01*
X164807281Y-96864098D01*
X164814920Y-96887608D01*
X164823778Y-96910686D01*
X164833833Y-96933268D01*
X164845055Y-96955294D01*
X164857414Y-96976701D01*
X164870878Y-96997433D01*
X164885407Y-97017432D01*
X164900964Y-97036642D01*
X164917504Y-97055013D01*
X164934983Y-97072492D01*
X164953353Y-97089033D01*
X164972564Y-97104589D01*
X164992562Y-97119119D01*
X165013294Y-97132583D01*
X165034701Y-97144942D01*
X165056727Y-97156165D01*
X165079309Y-97166219D01*
X165102387Y-97175078D01*
X165125896Y-97182717D01*
X165149773Y-97189115D01*
X165173953Y-97194255D01*
X165198368Y-97198122D01*
X165222952Y-97200706D01*
X165247637Y-97202000D01*
X165260000Y-97202000D01*
X165260000Y-96730000D01*
G36*
X159860000Y-96730000D02*
G01*
X159865000Y-96730000D01*
X159865000Y-97202000D01*
X159874792Y-97202007D01*
X159899347Y-97200720D01*
X159923801Y-97198150D01*
X159948087Y-97194303D01*
X159972139Y-97189191D01*
X159995890Y-97182827D01*
X160019276Y-97175229D01*
X160042231Y-97166417D01*
X160064695Y-97156416D01*
X160086604Y-97145253D01*
X160107898Y-97132959D01*
X160128520Y-97119567D01*
X160148413Y-97105114D01*
X160167523Y-97089640D01*
X160185796Y-97073187D01*
X160203183Y-97055800D01*
X160219636Y-97037527D01*
X160235111Y-97018418D01*
X160249564Y-96998525D01*
X160262956Y-96977903D01*
X160275251Y-96956608D01*
X160286414Y-96934700D01*
X160296415Y-96912237D01*
X160305227Y-96889281D01*
X160312826Y-96865895D01*
X160319190Y-96842144D01*
X160324302Y-96818093D01*
X160328149Y-96793807D01*
X160330719Y-96769352D01*
X160332007Y-96744797D01*
X160332000Y-96730000D01*
X160332000Y-96717643D01*
X160330706Y-96692957D01*
X160328123Y-96668373D01*
X160324256Y-96643958D01*
X160319117Y-96619779D01*
X160312719Y-96595902D01*
X160305080Y-96572392D01*
X160296222Y-96549314D01*
X160286167Y-96526732D01*
X160274945Y-96504706D01*
X160262586Y-96483299D01*
X160249122Y-96462567D01*
X160234593Y-96442568D01*
X160219036Y-96423358D01*
X160202496Y-96404987D01*
X160185017Y-96387508D01*
X160166647Y-96370967D01*
X160147436Y-96355411D01*
X160127438Y-96340881D01*
X160106706Y-96327417D01*
X160085299Y-96315058D01*
X160063273Y-96303835D01*
X160040691Y-96293781D01*
X160017613Y-96284922D01*
X159994104Y-96277283D01*
X159970227Y-96270885D01*
X159946047Y-96265745D01*
X159921632Y-96261878D01*
X159897048Y-96259294D01*
X159872363Y-96258000D01*
X159860000Y-96258000D01*
X159847643Y-96258000D01*
X159822957Y-96259294D01*
X159798373Y-96261877D01*
X159773958Y-96265744D01*
X159749779Y-96270883D01*
X159725902Y-96277281D01*
X159702392Y-96284920D01*
X159679314Y-96293778D01*
X159656732Y-96303833D01*
X159634706Y-96315055D01*
X159613299Y-96327414D01*
X159592567Y-96340878D01*
X159572568Y-96355407D01*
X159553358Y-96370964D01*
X159534987Y-96387504D01*
X159517508Y-96404983D01*
X159500967Y-96423353D01*
X159485411Y-96442564D01*
X159470881Y-96462562D01*
X159457417Y-96483294D01*
X159445058Y-96504701D01*
X159433835Y-96526727D01*
X159423781Y-96549309D01*
X159414922Y-96572387D01*
X159407283Y-96595896D01*
X159400885Y-96619773D01*
X159395745Y-96643953D01*
X159391878Y-96668368D01*
X159389294Y-96692952D01*
X159388000Y-96717637D01*
X159388000Y-96730000D01*
X159388000Y-96742357D01*
X159389294Y-96767043D01*
X159391877Y-96791627D01*
X159395744Y-96816042D01*
X159400883Y-96840221D01*
X159407281Y-96864098D01*
X159414920Y-96887608D01*
X159423778Y-96910686D01*
X159433833Y-96933268D01*
X159445055Y-96955294D01*
X159457414Y-96976701D01*
X159470878Y-96997433D01*
X159485407Y-97017432D01*
X159500964Y-97036642D01*
X159517504Y-97055013D01*
X159534983Y-97072492D01*
X159553353Y-97089033D01*
X159572564Y-97104589D01*
X159592562Y-97119119D01*
X159613294Y-97132583D01*
X159634701Y-97144942D01*
X159656727Y-97156165D01*
X159679309Y-97166219D01*
X159702387Y-97175078D01*
X159725896Y-97182717D01*
X159749773Y-97189115D01*
X159773953Y-97194255D01*
X159798368Y-97198122D01*
X159822952Y-97200706D01*
X159847637Y-97202000D01*
X159860000Y-97202000D01*
X159860000Y-96730000D01*
G37*
X159860000Y-96730000D02*
X159865000Y-96730000D01*
X159865000Y-97202000D01*
X159874792Y-97202007D01*
X159899347Y-97200720D01*
X159923801Y-97198150D01*
X159948087Y-97194303D01*
X159972139Y-97189191D01*
X159995890Y-97182827D01*
X160019276Y-97175229D01*
X160042231Y-97166417D01*
X160064695Y-97156416D01*
X160086604Y-97145253D01*
X160107898Y-97132959D01*
X160128520Y-97119567D01*
X160148413Y-97105114D01*
X160167523Y-97089640D01*
X160185796Y-97073187D01*
X160203183Y-97055800D01*
X160219636Y-97037527D01*
X160235111Y-97018418D01*
X160249564Y-96998525D01*
X160262956Y-96977903D01*
X160275251Y-96956608D01*
X160286414Y-96934700D01*
X160296415Y-96912237D01*
X160305227Y-96889281D01*
X160312826Y-96865895D01*
X160319190Y-96842144D01*
X160324302Y-96818093D01*
X160328149Y-96793807D01*
X160330719Y-96769352D01*
X160332007Y-96744797D01*
X160332000Y-96730000D01*
X160332000Y-96717643D01*
X160330706Y-96692957D01*
X160328123Y-96668373D01*
X160324256Y-96643958D01*
X160319117Y-96619779D01*
X160312719Y-96595902D01*
X160305080Y-96572392D01*
X160296222Y-96549314D01*
X160286167Y-96526732D01*
X160274945Y-96504706D01*
X160262586Y-96483299D01*
X160249122Y-96462567D01*
X160234593Y-96442568D01*
X160219036Y-96423358D01*
X160202496Y-96404987D01*
X160185017Y-96387508D01*
X160166647Y-96370967D01*
X160147436Y-96355411D01*
X160127438Y-96340881D01*
X160106706Y-96327417D01*
X160085299Y-96315058D01*
X160063273Y-96303835D01*
X160040691Y-96293781D01*
X160017613Y-96284922D01*
X159994104Y-96277283D01*
X159970227Y-96270885D01*
X159946047Y-96265745D01*
X159921632Y-96261878D01*
X159897048Y-96259294D01*
X159872363Y-96258000D01*
X159860000Y-96258000D01*
X159847643Y-96258000D01*
X159822957Y-96259294D01*
X159798373Y-96261877D01*
X159773958Y-96265744D01*
X159749779Y-96270883D01*
X159725902Y-96277281D01*
X159702392Y-96284920D01*
X159679314Y-96293778D01*
X159656732Y-96303833D01*
X159634706Y-96315055D01*
X159613299Y-96327414D01*
X159592567Y-96340878D01*
X159572568Y-96355407D01*
X159553358Y-96370964D01*
X159534987Y-96387504D01*
X159517508Y-96404983D01*
X159500967Y-96423353D01*
X159485411Y-96442564D01*
X159470881Y-96462562D01*
X159457417Y-96483294D01*
X159445058Y-96504701D01*
X159433835Y-96526727D01*
X159423781Y-96549309D01*
X159414922Y-96572387D01*
X159407283Y-96595896D01*
X159400885Y-96619773D01*
X159395745Y-96643953D01*
X159391878Y-96668368D01*
X159389294Y-96692952D01*
X159388000Y-96717637D01*
X159388000Y-96730000D01*
X159388000Y-96742357D01*
X159389294Y-96767043D01*
X159391877Y-96791627D01*
X159395744Y-96816042D01*
X159400883Y-96840221D01*
X159407281Y-96864098D01*
X159414920Y-96887608D01*
X159423778Y-96910686D01*
X159433833Y-96933268D01*
X159445055Y-96955294D01*
X159457414Y-96976701D01*
X159470878Y-96997433D01*
X159485407Y-97017432D01*
X159500964Y-97036642D01*
X159517504Y-97055013D01*
X159534983Y-97072492D01*
X159553353Y-97089033D01*
X159572564Y-97104589D01*
X159592562Y-97119119D01*
X159613294Y-97132583D01*
X159634701Y-97144942D01*
X159656727Y-97156165D01*
X159679309Y-97166219D01*
X159702387Y-97175078D01*
X159725896Y-97182717D01*
X159749773Y-97189115D01*
X159773953Y-97194255D01*
X159798368Y-97198122D01*
X159822952Y-97200706D01*
X159847637Y-97202000D01*
X159860000Y-97202000D01*
X159860000Y-96730000D01*
G36*
X163460000Y-103930000D02*
G01*
X163465000Y-103930000D01*
X163465000Y-104402000D01*
X163474792Y-104402007D01*
X163499347Y-104400720D01*
X163523801Y-104398150D01*
X163548087Y-104394303D01*
X163572139Y-104389191D01*
X163595890Y-104382827D01*
X163619276Y-104375229D01*
X163642231Y-104366417D01*
X163664695Y-104356416D01*
X163686604Y-104345253D01*
X163707898Y-104332959D01*
X163728520Y-104319567D01*
X163748413Y-104305114D01*
X163767523Y-104289640D01*
X163785796Y-104273187D01*
X163803183Y-104255800D01*
X163819636Y-104237527D01*
X163835111Y-104218418D01*
X163849564Y-104198525D01*
X163862956Y-104177903D01*
X163875251Y-104156608D01*
X163886414Y-104134700D01*
X163896415Y-104112237D01*
X163905227Y-104089281D01*
X163912826Y-104065895D01*
X163919190Y-104042144D01*
X163924302Y-104018093D01*
X163928149Y-103993807D01*
X163930719Y-103969352D01*
X163932007Y-103944797D01*
X163932000Y-103930000D01*
X163932000Y-103917643D01*
X163930706Y-103892957D01*
X163928123Y-103868373D01*
X163924256Y-103843958D01*
X163919117Y-103819779D01*
X163912719Y-103795902D01*
X163905080Y-103772392D01*
X163896222Y-103749314D01*
X163886167Y-103726732D01*
X163874945Y-103704706D01*
X163862586Y-103683299D01*
X163849122Y-103662567D01*
X163834593Y-103642568D01*
X163819036Y-103623358D01*
X163802496Y-103604987D01*
X163785017Y-103587508D01*
X163766647Y-103570967D01*
X163747436Y-103555411D01*
X163727438Y-103540881D01*
X163706706Y-103527417D01*
X163685299Y-103515058D01*
X163663273Y-103503835D01*
X163640691Y-103493781D01*
X163617613Y-103484922D01*
X163594104Y-103477283D01*
X163570227Y-103470885D01*
X163546047Y-103465745D01*
X163521632Y-103461878D01*
X163497048Y-103459294D01*
X163472363Y-103458000D01*
X163460000Y-103458000D01*
X163447643Y-103458000D01*
X163422957Y-103459294D01*
X163398373Y-103461877D01*
X163373958Y-103465744D01*
X163349779Y-103470883D01*
X163325902Y-103477281D01*
X163302392Y-103484920D01*
X163279314Y-103493778D01*
X163256732Y-103503833D01*
X163234706Y-103515055D01*
X163213299Y-103527414D01*
X163192567Y-103540878D01*
X163172568Y-103555407D01*
X163153358Y-103570964D01*
X163134987Y-103587504D01*
X163117508Y-103604983D01*
X163100967Y-103623353D01*
X163085411Y-103642564D01*
X163070881Y-103662562D01*
X163057417Y-103683294D01*
X163045058Y-103704701D01*
X163033835Y-103726727D01*
X163023781Y-103749309D01*
X163014922Y-103772387D01*
X163007283Y-103795896D01*
X163000885Y-103819773D01*
X162995745Y-103843953D01*
X162991878Y-103868368D01*
X162989294Y-103892952D01*
X162988000Y-103917637D01*
X162988000Y-103930000D01*
X162988000Y-103942357D01*
X162989294Y-103967043D01*
X162991877Y-103991627D01*
X162995744Y-104016042D01*
X163000883Y-104040221D01*
X163007281Y-104064098D01*
X163014920Y-104087608D01*
X163023778Y-104110686D01*
X163033833Y-104133268D01*
X163045055Y-104155294D01*
X163057414Y-104176701D01*
X163070878Y-104197433D01*
X163085407Y-104217432D01*
X163100964Y-104236642D01*
X163117504Y-104255013D01*
X163134983Y-104272492D01*
X163153353Y-104289033D01*
X163172564Y-104304589D01*
X163192562Y-104319119D01*
X163213294Y-104332583D01*
X163234701Y-104344942D01*
X163256727Y-104356165D01*
X163279309Y-104366219D01*
X163302387Y-104375078D01*
X163325896Y-104382717D01*
X163349773Y-104389115D01*
X163373953Y-104394255D01*
X163398368Y-104398122D01*
X163422952Y-104400706D01*
X163447637Y-104402000D01*
X163460000Y-104402000D01*
X163460000Y-103930000D01*
G37*
X163460000Y-103930000D02*
X163465000Y-103930000D01*
X163465000Y-104402000D01*
X163474792Y-104402007D01*
X163499347Y-104400720D01*
X163523801Y-104398150D01*
X163548087Y-104394303D01*
X163572139Y-104389191D01*
X163595890Y-104382827D01*
X163619276Y-104375229D01*
X163642231Y-104366417D01*
X163664695Y-104356416D01*
X163686604Y-104345253D01*
X163707898Y-104332959D01*
X163728520Y-104319567D01*
X163748413Y-104305114D01*
X163767523Y-104289640D01*
X163785796Y-104273187D01*
X163803183Y-104255800D01*
X163819636Y-104237527D01*
X163835111Y-104218418D01*
X163849564Y-104198525D01*
X163862956Y-104177903D01*
X163875251Y-104156608D01*
X163886414Y-104134700D01*
X163896415Y-104112237D01*
X163905227Y-104089281D01*
X163912826Y-104065895D01*
X163919190Y-104042144D01*
X163924302Y-104018093D01*
X163928149Y-103993807D01*
X163930719Y-103969352D01*
X163932007Y-103944797D01*
X163932000Y-103930000D01*
X163932000Y-103917643D01*
X163930706Y-103892957D01*
X163928123Y-103868373D01*
X163924256Y-103843958D01*
X163919117Y-103819779D01*
X163912719Y-103795902D01*
X163905080Y-103772392D01*
X163896222Y-103749314D01*
X163886167Y-103726732D01*
X163874945Y-103704706D01*
X163862586Y-103683299D01*
X163849122Y-103662567D01*
X163834593Y-103642568D01*
X163819036Y-103623358D01*
X163802496Y-103604987D01*
X163785017Y-103587508D01*
X163766647Y-103570967D01*
X163747436Y-103555411D01*
X163727438Y-103540881D01*
X163706706Y-103527417D01*
X163685299Y-103515058D01*
X163663273Y-103503835D01*
X163640691Y-103493781D01*
X163617613Y-103484922D01*
X163594104Y-103477283D01*
X163570227Y-103470885D01*
X163546047Y-103465745D01*
X163521632Y-103461878D01*
X163497048Y-103459294D01*
X163472363Y-103458000D01*
X163460000Y-103458000D01*
X163447643Y-103458000D01*
X163422957Y-103459294D01*
X163398373Y-103461877D01*
X163373958Y-103465744D01*
X163349779Y-103470883D01*
X163325902Y-103477281D01*
X163302392Y-103484920D01*
X163279314Y-103493778D01*
X163256732Y-103503833D01*
X163234706Y-103515055D01*
X163213299Y-103527414D01*
X163192567Y-103540878D01*
X163172568Y-103555407D01*
X163153358Y-103570964D01*
X163134987Y-103587504D01*
X163117508Y-103604983D01*
X163100967Y-103623353D01*
X163085411Y-103642564D01*
X163070881Y-103662562D01*
X163057417Y-103683294D01*
X163045058Y-103704701D01*
X163033835Y-103726727D01*
X163023781Y-103749309D01*
X163014922Y-103772387D01*
X163007283Y-103795896D01*
X163000885Y-103819773D01*
X162995745Y-103843953D01*
X162991878Y-103868368D01*
X162989294Y-103892952D01*
X162988000Y-103917637D01*
X162988000Y-103930000D01*
X162988000Y-103942357D01*
X162989294Y-103967043D01*
X162991877Y-103991627D01*
X162995744Y-104016042D01*
X163000883Y-104040221D01*
X163007281Y-104064098D01*
X163014920Y-104087608D01*
X163023778Y-104110686D01*
X163033833Y-104133268D01*
X163045055Y-104155294D01*
X163057414Y-104176701D01*
X163070878Y-104197433D01*
X163085407Y-104217432D01*
X163100964Y-104236642D01*
X163117504Y-104255013D01*
X163134983Y-104272492D01*
X163153353Y-104289033D01*
X163172564Y-104304589D01*
X163192562Y-104319119D01*
X163213294Y-104332583D01*
X163234701Y-104344942D01*
X163256727Y-104356165D01*
X163279309Y-104366219D01*
X163302387Y-104375078D01*
X163325896Y-104382717D01*
X163349773Y-104389115D01*
X163373953Y-104394255D01*
X163398368Y-104398122D01*
X163422952Y-104400706D01*
X163447637Y-104402000D01*
X163460000Y-104402000D01*
X163460000Y-103930000D01*
G36*
X161660000Y-103930000D02*
G01*
X161665000Y-103930000D01*
X161665000Y-104402000D01*
X161674792Y-104402007D01*
X161699347Y-104400720D01*
X161723801Y-104398150D01*
X161748087Y-104394303D01*
X161772139Y-104389191D01*
X161795890Y-104382827D01*
X161819276Y-104375229D01*
X161842231Y-104366417D01*
X161864695Y-104356416D01*
X161886604Y-104345253D01*
X161907898Y-104332959D01*
X161928520Y-104319567D01*
X161948413Y-104305114D01*
X161967523Y-104289640D01*
X161985796Y-104273187D01*
X162003183Y-104255800D01*
X162019636Y-104237527D01*
X162035111Y-104218418D01*
X162049564Y-104198525D01*
X162062956Y-104177903D01*
X162075251Y-104156608D01*
X162086414Y-104134700D01*
X162096415Y-104112237D01*
X162105227Y-104089281D01*
X162112826Y-104065895D01*
X162119190Y-104042144D01*
X162124302Y-104018093D01*
X162128149Y-103993807D01*
X162130719Y-103969352D01*
X162132007Y-103944797D01*
X162132000Y-103930000D01*
X162132000Y-103917643D01*
X162130706Y-103892957D01*
X162128123Y-103868373D01*
X162124256Y-103843958D01*
X162119117Y-103819779D01*
X162112719Y-103795902D01*
X162105080Y-103772392D01*
X162096222Y-103749314D01*
X162086167Y-103726732D01*
X162074945Y-103704706D01*
X162062586Y-103683299D01*
X162049122Y-103662567D01*
X162034593Y-103642568D01*
X162019036Y-103623358D01*
X162002496Y-103604987D01*
X161985017Y-103587508D01*
X161966647Y-103570967D01*
X161947436Y-103555411D01*
X161927438Y-103540881D01*
X161906706Y-103527417D01*
X161885299Y-103515058D01*
X161863273Y-103503835D01*
X161840691Y-103493781D01*
X161817613Y-103484922D01*
X161794104Y-103477283D01*
X161770227Y-103470885D01*
X161746047Y-103465745D01*
X161721632Y-103461878D01*
X161697048Y-103459294D01*
X161672363Y-103458000D01*
X161660000Y-103458000D01*
X161647643Y-103458000D01*
X161622957Y-103459294D01*
X161598373Y-103461877D01*
X161573958Y-103465744D01*
X161549779Y-103470883D01*
X161525902Y-103477281D01*
X161502392Y-103484920D01*
X161479314Y-103493778D01*
X161456732Y-103503833D01*
X161434706Y-103515055D01*
X161413299Y-103527414D01*
X161392567Y-103540878D01*
X161372568Y-103555407D01*
X161353358Y-103570964D01*
X161334987Y-103587504D01*
X161317508Y-103604983D01*
X161300967Y-103623353D01*
X161285411Y-103642564D01*
X161270881Y-103662562D01*
X161257417Y-103683294D01*
X161245058Y-103704701D01*
X161233835Y-103726727D01*
X161223781Y-103749309D01*
X161214922Y-103772387D01*
X161207283Y-103795896D01*
X161200885Y-103819773D01*
X161195745Y-103843953D01*
X161191878Y-103868368D01*
X161189294Y-103892952D01*
X161188000Y-103917637D01*
X161188000Y-103930000D01*
X161188000Y-103942357D01*
X161189294Y-103967043D01*
X161191877Y-103991627D01*
X161195744Y-104016042D01*
X161200883Y-104040221D01*
X161207281Y-104064098D01*
X161214920Y-104087608D01*
X161223778Y-104110686D01*
X161233833Y-104133268D01*
X161245055Y-104155294D01*
X161257414Y-104176701D01*
X161270878Y-104197433D01*
X161285407Y-104217432D01*
X161300964Y-104236642D01*
X161317504Y-104255013D01*
X161334983Y-104272492D01*
X161353353Y-104289033D01*
X161372564Y-104304589D01*
X161392562Y-104319119D01*
X161413294Y-104332583D01*
X161434701Y-104344942D01*
X161456727Y-104356165D01*
X161479309Y-104366219D01*
X161502387Y-104375078D01*
X161525896Y-104382717D01*
X161549773Y-104389115D01*
X161573953Y-104394255D01*
X161598368Y-104398122D01*
X161622952Y-104400706D01*
X161647637Y-104402000D01*
X161660000Y-104402000D01*
X161660000Y-103930000D01*
G37*
X161660000Y-103930000D02*
X161665000Y-103930000D01*
X161665000Y-104402000D01*
X161674792Y-104402007D01*
X161699347Y-104400720D01*
X161723801Y-104398150D01*
X161748087Y-104394303D01*
X161772139Y-104389191D01*
X161795890Y-104382827D01*
X161819276Y-104375229D01*
X161842231Y-104366417D01*
X161864695Y-104356416D01*
X161886604Y-104345253D01*
X161907898Y-104332959D01*
X161928520Y-104319567D01*
X161948413Y-104305114D01*
X161967523Y-104289640D01*
X161985796Y-104273187D01*
X162003183Y-104255800D01*
X162019636Y-104237527D01*
X162035111Y-104218418D01*
X162049564Y-104198525D01*
X162062956Y-104177903D01*
X162075251Y-104156608D01*
X162086414Y-104134700D01*
X162096415Y-104112237D01*
X162105227Y-104089281D01*
X162112826Y-104065895D01*
X162119190Y-104042144D01*
X162124302Y-104018093D01*
X162128149Y-103993807D01*
X162130719Y-103969352D01*
X162132007Y-103944797D01*
X162132000Y-103930000D01*
X162132000Y-103917643D01*
X162130706Y-103892957D01*
X162128123Y-103868373D01*
X162124256Y-103843958D01*
X162119117Y-103819779D01*
X162112719Y-103795902D01*
X162105080Y-103772392D01*
X162096222Y-103749314D01*
X162086167Y-103726732D01*
X162074945Y-103704706D01*
X162062586Y-103683299D01*
X162049122Y-103662567D01*
X162034593Y-103642568D01*
X162019036Y-103623358D01*
X162002496Y-103604987D01*
X161985017Y-103587508D01*
X161966647Y-103570967D01*
X161947436Y-103555411D01*
X161927438Y-103540881D01*
X161906706Y-103527417D01*
X161885299Y-103515058D01*
X161863273Y-103503835D01*
X161840691Y-103493781D01*
X161817613Y-103484922D01*
X161794104Y-103477283D01*
X161770227Y-103470885D01*
X161746047Y-103465745D01*
X161721632Y-103461878D01*
X161697048Y-103459294D01*
X161672363Y-103458000D01*
X161660000Y-103458000D01*
X161647643Y-103458000D01*
X161622957Y-103459294D01*
X161598373Y-103461877D01*
X161573958Y-103465744D01*
X161549779Y-103470883D01*
X161525902Y-103477281D01*
X161502392Y-103484920D01*
X161479314Y-103493778D01*
X161456732Y-103503833D01*
X161434706Y-103515055D01*
X161413299Y-103527414D01*
X161392567Y-103540878D01*
X161372568Y-103555407D01*
X161353358Y-103570964D01*
X161334987Y-103587504D01*
X161317508Y-103604983D01*
X161300967Y-103623353D01*
X161285411Y-103642564D01*
X161270881Y-103662562D01*
X161257417Y-103683294D01*
X161245058Y-103704701D01*
X161233835Y-103726727D01*
X161223781Y-103749309D01*
X161214922Y-103772387D01*
X161207283Y-103795896D01*
X161200885Y-103819773D01*
X161195745Y-103843953D01*
X161191878Y-103868368D01*
X161189294Y-103892952D01*
X161188000Y-103917637D01*
X161188000Y-103930000D01*
X161188000Y-103942357D01*
X161189294Y-103967043D01*
X161191877Y-103991627D01*
X161195744Y-104016042D01*
X161200883Y-104040221D01*
X161207281Y-104064098D01*
X161214920Y-104087608D01*
X161223778Y-104110686D01*
X161233833Y-104133268D01*
X161245055Y-104155294D01*
X161257414Y-104176701D01*
X161270878Y-104197433D01*
X161285407Y-104217432D01*
X161300964Y-104236642D01*
X161317504Y-104255013D01*
X161334983Y-104272492D01*
X161353353Y-104289033D01*
X161372564Y-104304589D01*
X161392562Y-104319119D01*
X161413294Y-104332583D01*
X161434701Y-104344942D01*
X161456727Y-104356165D01*
X161479309Y-104366219D01*
X161502387Y-104375078D01*
X161525896Y-104382717D01*
X161549773Y-104389115D01*
X161573953Y-104394255D01*
X161598368Y-104398122D01*
X161622952Y-104400706D01*
X161647637Y-104402000D01*
X161660000Y-104402000D01*
X161660000Y-103930000D01*
G36*
X163460000Y-96730000D02*
G01*
X163465000Y-96730000D01*
X163465000Y-97202000D01*
X163474792Y-97202007D01*
X163499347Y-97200720D01*
X163523801Y-97198150D01*
X163548087Y-97194303D01*
X163572139Y-97189191D01*
X163595890Y-97182827D01*
X163619276Y-97175229D01*
X163642231Y-97166417D01*
X163664695Y-97156416D01*
X163686604Y-97145253D01*
X163707898Y-97132959D01*
X163728520Y-97119567D01*
X163748413Y-97105114D01*
X163767523Y-97089640D01*
X163785796Y-97073187D01*
X163803183Y-97055800D01*
X163819636Y-97037527D01*
X163835111Y-97018418D01*
X163849564Y-96998525D01*
X163862956Y-96977903D01*
X163875251Y-96956608D01*
X163886414Y-96934700D01*
X163896415Y-96912237D01*
X163905227Y-96889281D01*
X163912826Y-96865895D01*
X163919190Y-96842144D01*
X163924302Y-96818093D01*
X163928149Y-96793807D01*
X163930719Y-96769352D01*
X163932007Y-96744797D01*
X163932000Y-96730000D01*
X163932000Y-96717643D01*
X163930706Y-96692957D01*
X163928123Y-96668373D01*
X163924256Y-96643958D01*
X163919117Y-96619779D01*
X163912719Y-96595902D01*
X163905080Y-96572392D01*
X163896222Y-96549314D01*
X163886167Y-96526732D01*
X163874945Y-96504706D01*
X163862586Y-96483299D01*
X163849122Y-96462567D01*
X163834593Y-96442568D01*
X163819036Y-96423358D01*
X163802496Y-96404987D01*
X163785017Y-96387508D01*
X163766647Y-96370967D01*
X163747436Y-96355411D01*
X163727438Y-96340881D01*
X163706706Y-96327417D01*
X163685299Y-96315058D01*
X163663273Y-96303835D01*
X163640691Y-96293781D01*
X163617613Y-96284922D01*
X163594104Y-96277283D01*
X163570227Y-96270885D01*
X163546047Y-96265745D01*
X163521632Y-96261878D01*
X163497048Y-96259294D01*
X163472363Y-96258000D01*
X163460000Y-96258000D01*
X163447643Y-96258000D01*
X163422957Y-96259294D01*
X163398373Y-96261877D01*
X163373958Y-96265744D01*
X163349779Y-96270883D01*
X163325902Y-96277281D01*
X163302392Y-96284920D01*
X163279314Y-96293778D01*
X163256732Y-96303833D01*
X163234706Y-96315055D01*
X163213299Y-96327414D01*
X163192567Y-96340878D01*
X163172568Y-96355407D01*
X163153358Y-96370964D01*
X163134987Y-96387504D01*
X163117508Y-96404983D01*
X163100967Y-96423353D01*
X163085411Y-96442564D01*
X163070881Y-96462562D01*
X163057417Y-96483294D01*
X163045058Y-96504701D01*
X163033835Y-96526727D01*
X163023781Y-96549309D01*
X163014922Y-96572387D01*
X163007283Y-96595896D01*
X163000885Y-96619773D01*
X162995745Y-96643953D01*
X162991878Y-96668368D01*
X162989294Y-96692952D01*
X162988000Y-96717637D01*
X162988000Y-96730000D01*
X162988000Y-96742357D01*
X162989294Y-96767043D01*
X162991877Y-96791627D01*
X162995744Y-96816042D01*
X163000883Y-96840221D01*
X163007281Y-96864098D01*
X163014920Y-96887608D01*
X163023778Y-96910686D01*
X163033833Y-96933268D01*
X163045055Y-96955294D01*
X163057414Y-96976701D01*
X163070878Y-96997433D01*
X163085407Y-97017432D01*
X163100964Y-97036642D01*
X163117504Y-97055013D01*
X163134983Y-97072492D01*
X163153353Y-97089033D01*
X163172564Y-97104589D01*
X163192562Y-97119119D01*
X163213294Y-97132583D01*
X163234701Y-97144942D01*
X163256727Y-97156165D01*
X163279309Y-97166219D01*
X163302387Y-97175078D01*
X163325896Y-97182717D01*
X163349773Y-97189115D01*
X163373953Y-97194255D01*
X163398368Y-97198122D01*
X163422952Y-97200706D01*
X163447637Y-97202000D01*
X163460000Y-97202000D01*
X163460000Y-96730000D01*
G37*
X163460000Y-96730000D02*
X163465000Y-96730000D01*
X163465000Y-97202000D01*
X163474792Y-97202007D01*
X163499347Y-97200720D01*
X163523801Y-97198150D01*
X163548087Y-97194303D01*
X163572139Y-97189191D01*
X163595890Y-97182827D01*
X163619276Y-97175229D01*
X163642231Y-97166417D01*
X163664695Y-97156416D01*
X163686604Y-97145253D01*
X163707898Y-97132959D01*
X163728520Y-97119567D01*
X163748413Y-97105114D01*
X163767523Y-97089640D01*
X163785796Y-97073187D01*
X163803183Y-97055800D01*
X163819636Y-97037527D01*
X163835111Y-97018418D01*
X163849564Y-96998525D01*
X163862956Y-96977903D01*
X163875251Y-96956608D01*
X163886414Y-96934700D01*
X163896415Y-96912237D01*
X163905227Y-96889281D01*
X163912826Y-96865895D01*
X163919190Y-96842144D01*
X163924302Y-96818093D01*
X163928149Y-96793807D01*
X163930719Y-96769352D01*
X163932007Y-96744797D01*
X163932000Y-96730000D01*
X163932000Y-96717643D01*
X163930706Y-96692957D01*
X163928123Y-96668373D01*
X163924256Y-96643958D01*
X163919117Y-96619779D01*
X163912719Y-96595902D01*
X163905080Y-96572392D01*
X163896222Y-96549314D01*
X163886167Y-96526732D01*
X163874945Y-96504706D01*
X163862586Y-96483299D01*
X163849122Y-96462567D01*
X163834593Y-96442568D01*
X163819036Y-96423358D01*
X163802496Y-96404987D01*
X163785017Y-96387508D01*
X163766647Y-96370967D01*
X163747436Y-96355411D01*
X163727438Y-96340881D01*
X163706706Y-96327417D01*
X163685299Y-96315058D01*
X163663273Y-96303835D01*
X163640691Y-96293781D01*
X163617613Y-96284922D01*
X163594104Y-96277283D01*
X163570227Y-96270885D01*
X163546047Y-96265745D01*
X163521632Y-96261878D01*
X163497048Y-96259294D01*
X163472363Y-96258000D01*
X163460000Y-96258000D01*
X163447643Y-96258000D01*
X163422957Y-96259294D01*
X163398373Y-96261877D01*
X163373958Y-96265744D01*
X163349779Y-96270883D01*
X163325902Y-96277281D01*
X163302392Y-96284920D01*
X163279314Y-96293778D01*
X163256732Y-96303833D01*
X163234706Y-96315055D01*
X163213299Y-96327414D01*
X163192567Y-96340878D01*
X163172568Y-96355407D01*
X163153358Y-96370964D01*
X163134987Y-96387504D01*
X163117508Y-96404983D01*
X163100967Y-96423353D01*
X163085411Y-96442564D01*
X163070881Y-96462562D01*
X163057417Y-96483294D01*
X163045058Y-96504701D01*
X163033835Y-96526727D01*
X163023781Y-96549309D01*
X163014922Y-96572387D01*
X163007283Y-96595896D01*
X163000885Y-96619773D01*
X162995745Y-96643953D01*
X162991878Y-96668368D01*
X162989294Y-96692952D01*
X162988000Y-96717637D01*
X162988000Y-96730000D01*
X162988000Y-96742357D01*
X162989294Y-96767043D01*
X162991877Y-96791627D01*
X162995744Y-96816042D01*
X163000883Y-96840221D01*
X163007281Y-96864098D01*
X163014920Y-96887608D01*
X163023778Y-96910686D01*
X163033833Y-96933268D01*
X163045055Y-96955294D01*
X163057414Y-96976701D01*
X163070878Y-96997433D01*
X163085407Y-97017432D01*
X163100964Y-97036642D01*
X163117504Y-97055013D01*
X163134983Y-97072492D01*
X163153353Y-97089033D01*
X163172564Y-97104589D01*
X163192562Y-97119119D01*
X163213294Y-97132583D01*
X163234701Y-97144942D01*
X163256727Y-97156165D01*
X163279309Y-97166219D01*
X163302387Y-97175078D01*
X163325896Y-97182717D01*
X163349773Y-97189115D01*
X163373953Y-97194255D01*
X163398368Y-97198122D01*
X163422952Y-97200706D01*
X163447637Y-97202000D01*
X163460000Y-97202000D01*
X163460000Y-96730000D01*
G36*
X161660000Y-96730000D02*
G01*
X161665000Y-96730000D01*
X161665000Y-97202000D01*
X161674792Y-97202007D01*
X161699347Y-97200720D01*
X161723801Y-97198150D01*
X161748087Y-97194303D01*
X161772139Y-97189191D01*
X161795890Y-97182827D01*
X161819276Y-97175229D01*
X161842231Y-97166417D01*
X161864695Y-97156416D01*
X161886604Y-97145253D01*
X161907898Y-97132959D01*
X161928520Y-97119567D01*
X161948413Y-97105114D01*
X161967523Y-97089640D01*
X161985796Y-97073187D01*
X162003183Y-97055800D01*
X162019636Y-97037527D01*
X162035111Y-97018418D01*
X162049564Y-96998525D01*
X162062956Y-96977903D01*
X162075251Y-96956608D01*
X162086414Y-96934700D01*
X162096415Y-96912237D01*
X162105227Y-96889281D01*
X162112826Y-96865895D01*
X162119190Y-96842144D01*
X162124302Y-96818093D01*
X162128149Y-96793807D01*
X162130719Y-96769352D01*
X162132007Y-96744797D01*
X162132000Y-96730000D01*
X162132000Y-96717643D01*
X162130706Y-96692957D01*
X162128123Y-96668373D01*
X162124256Y-96643958D01*
X162119117Y-96619779D01*
X162112719Y-96595902D01*
X162105080Y-96572392D01*
X162096222Y-96549314D01*
X162086167Y-96526732D01*
X162074945Y-96504706D01*
X162062586Y-96483299D01*
X162049122Y-96462567D01*
X162034593Y-96442568D01*
X162019036Y-96423358D01*
X162002496Y-96404987D01*
X161985017Y-96387508D01*
X161966647Y-96370967D01*
X161947436Y-96355411D01*
X161927438Y-96340881D01*
X161906706Y-96327417D01*
X161885299Y-96315058D01*
X161863273Y-96303835D01*
X161840691Y-96293781D01*
X161817613Y-96284922D01*
X161794104Y-96277283D01*
X161770227Y-96270885D01*
X161746047Y-96265745D01*
X161721632Y-96261878D01*
X161697048Y-96259294D01*
X161672363Y-96258000D01*
X161660000Y-96258000D01*
X161647643Y-96258000D01*
X161622957Y-96259294D01*
X161598373Y-96261877D01*
X161573958Y-96265744D01*
X161549779Y-96270883D01*
X161525902Y-96277281D01*
X161502392Y-96284920D01*
X161479314Y-96293778D01*
X161456732Y-96303833D01*
X161434706Y-96315055D01*
X161413299Y-96327414D01*
X161392567Y-96340878D01*
X161372568Y-96355407D01*
X161353358Y-96370964D01*
X161334987Y-96387504D01*
X161317508Y-96404983D01*
X161300967Y-96423353D01*
X161285411Y-96442564D01*
X161270881Y-96462562D01*
X161257417Y-96483294D01*
X161245058Y-96504701D01*
X161233835Y-96526727D01*
X161223781Y-96549309D01*
X161214922Y-96572387D01*
X161207283Y-96595896D01*
X161200885Y-96619773D01*
X161195745Y-96643953D01*
X161191878Y-96668368D01*
X161189294Y-96692952D01*
X161188000Y-96717637D01*
X161188000Y-96730000D01*
X161188000Y-96742357D01*
X161189294Y-96767043D01*
X161191877Y-96791627D01*
X161195744Y-96816042D01*
X161200883Y-96840221D01*
X161207281Y-96864098D01*
X161214920Y-96887608D01*
X161223778Y-96910686D01*
X161233833Y-96933268D01*
X161245055Y-96955294D01*
X161257414Y-96976701D01*
X161270878Y-96997433D01*
X161285407Y-97017432D01*
X161300964Y-97036642D01*
X161317504Y-97055013D01*
X161334983Y-97072492D01*
X161353353Y-97089033D01*
X161372564Y-97104589D01*
X161392562Y-97119119D01*
X161413294Y-97132583D01*
X161434701Y-97144942D01*
X161456727Y-97156165D01*
X161479309Y-97166219D01*
X161502387Y-97175078D01*
X161525896Y-97182717D01*
X161549773Y-97189115D01*
X161573953Y-97194255D01*
X161598368Y-97198122D01*
X161622952Y-97200706D01*
X161647637Y-97202000D01*
X161660000Y-97202000D01*
X161660000Y-96730000D01*
G37*
X161660000Y-96730000D02*
X161665000Y-96730000D01*
X161665000Y-97202000D01*
X161674792Y-97202007D01*
X161699347Y-97200720D01*
X161723801Y-97198150D01*
X161748087Y-97194303D01*
X161772139Y-97189191D01*
X161795890Y-97182827D01*
X161819276Y-97175229D01*
X161842231Y-97166417D01*
X161864695Y-97156416D01*
X161886604Y-97145253D01*
X161907898Y-97132959D01*
X161928520Y-97119567D01*
X161948413Y-97105114D01*
X161967523Y-97089640D01*
X161985796Y-97073187D01*
X162003183Y-97055800D01*
X162019636Y-97037527D01*
X162035111Y-97018418D01*
X162049564Y-96998525D01*
X162062956Y-96977903D01*
X162075251Y-96956608D01*
X162086414Y-96934700D01*
X162096415Y-96912237D01*
X162105227Y-96889281D01*
X162112826Y-96865895D01*
X162119190Y-96842144D01*
X162124302Y-96818093D01*
X162128149Y-96793807D01*
X162130719Y-96769352D01*
X162132007Y-96744797D01*
X162132000Y-96730000D01*
X162132000Y-96717643D01*
X162130706Y-96692957D01*
X162128123Y-96668373D01*
X162124256Y-96643958D01*
X162119117Y-96619779D01*
X162112719Y-96595902D01*
X162105080Y-96572392D01*
X162096222Y-96549314D01*
X162086167Y-96526732D01*
X162074945Y-96504706D01*
X162062586Y-96483299D01*
X162049122Y-96462567D01*
X162034593Y-96442568D01*
X162019036Y-96423358D01*
X162002496Y-96404987D01*
X161985017Y-96387508D01*
X161966647Y-96370967D01*
X161947436Y-96355411D01*
X161927438Y-96340881D01*
X161906706Y-96327417D01*
X161885299Y-96315058D01*
X161863273Y-96303835D01*
X161840691Y-96293781D01*
X161817613Y-96284922D01*
X161794104Y-96277283D01*
X161770227Y-96270885D01*
X161746047Y-96265745D01*
X161721632Y-96261878D01*
X161697048Y-96259294D01*
X161672363Y-96258000D01*
X161660000Y-96258000D01*
X161647643Y-96258000D01*
X161622957Y-96259294D01*
X161598373Y-96261877D01*
X161573958Y-96265744D01*
X161549779Y-96270883D01*
X161525902Y-96277281D01*
X161502392Y-96284920D01*
X161479314Y-96293778D01*
X161456732Y-96303833D01*
X161434706Y-96315055D01*
X161413299Y-96327414D01*
X161392567Y-96340878D01*
X161372568Y-96355407D01*
X161353358Y-96370964D01*
X161334987Y-96387504D01*
X161317508Y-96404983D01*
X161300967Y-96423353D01*
X161285411Y-96442564D01*
X161270881Y-96462562D01*
X161257417Y-96483294D01*
X161245058Y-96504701D01*
X161233835Y-96526727D01*
X161223781Y-96549309D01*
X161214922Y-96572387D01*
X161207283Y-96595896D01*
X161200885Y-96619773D01*
X161195745Y-96643953D01*
X161191878Y-96668368D01*
X161189294Y-96692952D01*
X161188000Y-96717637D01*
X161188000Y-96730000D01*
X161188000Y-96742357D01*
X161189294Y-96767043D01*
X161191877Y-96791627D01*
X161195744Y-96816042D01*
X161200883Y-96840221D01*
X161207281Y-96864098D01*
X161214920Y-96887608D01*
X161223778Y-96910686D01*
X161233833Y-96933268D01*
X161245055Y-96955294D01*
X161257414Y-96976701D01*
X161270878Y-96997433D01*
X161285407Y-97017432D01*
X161300964Y-97036642D01*
X161317504Y-97055013D01*
X161334983Y-97072492D01*
X161353353Y-97089033D01*
X161372564Y-97104589D01*
X161392562Y-97119119D01*
X161413294Y-97132583D01*
X161434701Y-97144942D01*
X161456727Y-97156165D01*
X161479309Y-97166219D01*
X161502387Y-97175078D01*
X161525896Y-97182717D01*
X161549773Y-97189115D01*
X161573953Y-97194255D01*
X161598368Y-97198122D01*
X161622952Y-97200706D01*
X161647637Y-97202000D01*
X161660000Y-97202000D01*
X161660000Y-96730000D01*
D11*
X177800000Y-102665000D03*
X177800000Y-105615000D03*
D12*
X179300000Y-104140000D03*
X176300000Y-104140000D03*
D13*
G36*
X173651505Y-95092204D02*
G01*
X173675773Y-95095804D01*
X173699572Y-95101765D01*
X173722671Y-95110030D01*
X173744850Y-95120520D01*
X173765893Y-95133132D01*
X173785599Y-95147747D01*
X173803777Y-95164223D01*
X173820253Y-95182401D01*
X173834868Y-95202107D01*
X173847480Y-95223150D01*
X173857970Y-95245329D01*
X173866235Y-95268428D01*
X173872196Y-95292227D01*
X173875796Y-95316495D01*
X173877000Y-95340999D01*
X173877000Y-97191001D01*
X173875796Y-97215505D01*
X173872196Y-97239773D01*
X173866235Y-97263572D01*
X173857970Y-97286671D01*
X173847480Y-97308850D01*
X173834868Y-97329893D01*
X173820253Y-97349599D01*
X173803777Y-97367777D01*
X173785599Y-97384253D01*
X173765893Y-97398868D01*
X173744850Y-97411480D01*
X173722671Y-97421970D01*
X173699572Y-97430235D01*
X173675773Y-97436196D01*
X173651505Y-97439796D01*
X173627001Y-97441000D01*
X172801999Y-97441000D01*
X172777495Y-97439796D01*
X172753227Y-97436196D01*
X172729428Y-97430235D01*
X172706329Y-97421970D01*
X172684150Y-97411480D01*
X172663107Y-97398868D01*
X172643401Y-97384253D01*
X172625223Y-97367777D01*
X172608747Y-97349599D01*
X172594132Y-97329893D01*
X172581520Y-97308850D01*
X172571030Y-97286671D01*
X172562765Y-97263572D01*
X172556804Y-97239773D01*
X172553204Y-97215505D01*
X172552000Y-97191001D01*
X172552000Y-95340999D01*
X172553204Y-95316495D01*
X172556804Y-95292227D01*
X172562765Y-95268428D01*
X172571030Y-95245329D01*
X172581520Y-95223150D01*
X172594132Y-95202107D01*
X172608747Y-95182401D01*
X172625223Y-95164223D01*
X172643401Y-95147747D01*
X172663107Y-95133132D01*
X172684150Y-95120520D01*
X172706329Y-95110030D01*
X172729428Y-95101765D01*
X172753227Y-95095804D01*
X172777495Y-95092204D01*
X172801999Y-95091000D01*
X173627001Y-95091000D01*
X173651505Y-95092204D01*
G37*
G36*
X176726505Y-95092204D02*
G01*
X176750773Y-95095804D01*
X176774572Y-95101765D01*
X176797671Y-95110030D01*
X176819850Y-95120520D01*
X176840893Y-95133132D01*
X176860599Y-95147747D01*
X176878777Y-95164223D01*
X176895253Y-95182401D01*
X176909868Y-95202107D01*
X176922480Y-95223150D01*
X176932970Y-95245329D01*
X176941235Y-95268428D01*
X176947196Y-95292227D01*
X176950796Y-95316495D01*
X176952000Y-95340999D01*
X176952000Y-97191001D01*
X176950796Y-97215505D01*
X176947196Y-97239773D01*
X176941235Y-97263572D01*
X176932970Y-97286671D01*
X176922480Y-97308850D01*
X176909868Y-97329893D01*
X176895253Y-97349599D01*
X176878777Y-97367777D01*
X176860599Y-97384253D01*
X176840893Y-97398868D01*
X176819850Y-97411480D01*
X176797671Y-97421970D01*
X176774572Y-97430235D01*
X176750773Y-97436196D01*
X176726505Y-97439796D01*
X176702001Y-97441000D01*
X175876999Y-97441000D01*
X175852495Y-97439796D01*
X175828227Y-97436196D01*
X175804428Y-97430235D01*
X175781329Y-97421970D01*
X175759150Y-97411480D01*
X175738107Y-97398868D01*
X175718401Y-97384253D01*
X175700223Y-97367777D01*
X175683747Y-97349599D01*
X175669132Y-97329893D01*
X175656520Y-97308850D01*
X175646030Y-97286671D01*
X175637765Y-97263572D01*
X175631804Y-97239773D01*
X175628204Y-97215505D01*
X175627000Y-97191001D01*
X175627000Y-95340999D01*
X175628204Y-95316495D01*
X175631804Y-95292227D01*
X175637765Y-95268428D01*
X175646030Y-95245329D01*
X175656520Y-95223150D01*
X175669132Y-95202107D01*
X175683747Y-95182401D01*
X175700223Y-95164223D01*
X175718401Y-95147747D01*
X175738107Y-95133132D01*
X175759150Y-95120520D01*
X175781329Y-95110030D01*
X175804428Y-95101765D01*
X175828227Y-95095804D01*
X175852495Y-95092204D01*
X175876999Y-95091000D01*
X176702001Y-95091000D01*
X176726505Y-95092204D01*
G37*
G36*
X174763691Y-101380053D02*
G01*
X174784926Y-101383203D01*
X174805750Y-101388419D01*
X174825962Y-101395651D01*
X174845368Y-101404830D01*
X174863781Y-101415866D01*
X174881024Y-101428654D01*
X174896930Y-101443070D01*
X174911346Y-101458976D01*
X174924134Y-101476219D01*
X174935170Y-101494632D01*
X174944349Y-101514038D01*
X174951581Y-101534250D01*
X174956797Y-101555074D01*
X174959947Y-101576309D01*
X174961000Y-101597750D01*
X174961000Y-102110250D01*
X174959947Y-102131691D01*
X174956797Y-102152926D01*
X174951581Y-102173750D01*
X174944349Y-102193962D01*
X174935170Y-102213368D01*
X174924134Y-102231781D01*
X174911346Y-102249024D01*
X174896930Y-102264930D01*
X174881024Y-102279346D01*
X174863781Y-102292134D01*
X174845368Y-102303170D01*
X174825962Y-102312349D01*
X174805750Y-102319581D01*
X174784926Y-102324797D01*
X174763691Y-102327947D01*
X174742250Y-102329000D01*
X174304750Y-102329000D01*
X174283309Y-102327947D01*
X174262074Y-102324797D01*
X174241250Y-102319581D01*
X174221038Y-102312349D01*
X174201632Y-102303170D01*
X174183219Y-102292134D01*
X174165976Y-102279346D01*
X174150070Y-102264930D01*
X174135654Y-102249024D01*
X174122866Y-102231781D01*
X174111830Y-102213368D01*
X174102651Y-102193962D01*
X174095419Y-102173750D01*
X174090203Y-102152926D01*
X174087053Y-102131691D01*
X174086000Y-102110250D01*
X174086000Y-101597750D01*
X174087053Y-101576309D01*
X174090203Y-101555074D01*
X174095419Y-101534250D01*
X174102651Y-101514038D01*
X174111830Y-101494632D01*
X174122866Y-101476219D01*
X174135654Y-101458976D01*
X174150070Y-101443070D01*
X174165976Y-101428654D01*
X174183219Y-101415866D01*
X174201632Y-101404830D01*
X174221038Y-101395651D01*
X174241250Y-101388419D01*
X174262074Y-101383203D01*
X174283309Y-101380053D01*
X174304750Y-101379000D01*
X174742250Y-101379000D01*
X174763691Y-101380053D01*
G37*
G36*
X173188691Y-101380053D02*
G01*
X173209926Y-101383203D01*
X173230750Y-101388419D01*
X173250962Y-101395651D01*
X173270368Y-101404830D01*
X173288781Y-101415866D01*
X173306024Y-101428654D01*
X173321930Y-101443070D01*
X173336346Y-101458976D01*
X173349134Y-101476219D01*
X173360170Y-101494632D01*
X173369349Y-101514038D01*
X173376581Y-101534250D01*
X173381797Y-101555074D01*
X173384947Y-101576309D01*
X173386000Y-101597750D01*
X173386000Y-102110250D01*
X173384947Y-102131691D01*
X173381797Y-102152926D01*
X173376581Y-102173750D01*
X173369349Y-102193962D01*
X173360170Y-102213368D01*
X173349134Y-102231781D01*
X173336346Y-102249024D01*
X173321930Y-102264930D01*
X173306024Y-102279346D01*
X173288781Y-102292134D01*
X173270368Y-102303170D01*
X173250962Y-102312349D01*
X173230750Y-102319581D01*
X173209926Y-102324797D01*
X173188691Y-102327947D01*
X173167250Y-102329000D01*
X172729750Y-102329000D01*
X172708309Y-102327947D01*
X172687074Y-102324797D01*
X172666250Y-102319581D01*
X172646038Y-102312349D01*
X172626632Y-102303170D01*
X172608219Y-102292134D01*
X172590976Y-102279346D01*
X172575070Y-102264930D01*
X172560654Y-102249024D01*
X172547866Y-102231781D01*
X172536830Y-102213368D01*
X172527651Y-102193962D01*
X172520419Y-102173750D01*
X172515203Y-102152926D01*
X172512053Y-102131691D01*
X172511000Y-102110250D01*
X172511000Y-101597750D01*
X172512053Y-101576309D01*
X172515203Y-101555074D01*
X172520419Y-101534250D01*
X172527651Y-101514038D01*
X172536830Y-101494632D01*
X172547866Y-101476219D01*
X172560654Y-101458976D01*
X172575070Y-101443070D01*
X172590976Y-101428654D01*
X172608219Y-101415866D01*
X172626632Y-101404830D01*
X172646038Y-101395651D01*
X172666250Y-101388419D01*
X172687074Y-101383203D01*
X172708309Y-101380053D01*
X172729750Y-101379000D01*
X173167250Y-101379000D01*
X173188691Y-101380053D01*
G37*
G36*
X173188691Y-98332053D02*
G01*
X173209926Y-98335203D01*
X173230750Y-98340419D01*
X173250962Y-98347651D01*
X173270368Y-98356830D01*
X173288781Y-98367866D01*
X173306024Y-98380654D01*
X173321930Y-98395070D01*
X173336346Y-98410976D01*
X173349134Y-98428219D01*
X173360170Y-98446632D01*
X173369349Y-98466038D01*
X173376581Y-98486250D01*
X173381797Y-98507074D01*
X173384947Y-98528309D01*
X173386000Y-98549750D01*
X173386000Y-99062250D01*
X173384947Y-99083691D01*
X173381797Y-99104926D01*
X173376581Y-99125750D01*
X173369349Y-99145962D01*
X173360170Y-99165368D01*
X173349134Y-99183781D01*
X173336346Y-99201024D01*
X173321930Y-99216930D01*
X173306024Y-99231346D01*
X173288781Y-99244134D01*
X173270368Y-99255170D01*
X173250962Y-99264349D01*
X173230750Y-99271581D01*
X173209926Y-99276797D01*
X173188691Y-99279947D01*
X173167250Y-99281000D01*
X172729750Y-99281000D01*
X172708309Y-99279947D01*
X172687074Y-99276797D01*
X172666250Y-99271581D01*
X172646038Y-99264349D01*
X172626632Y-99255170D01*
X172608219Y-99244134D01*
X172590976Y-99231346D01*
X172575070Y-99216930D01*
X172560654Y-99201024D01*
X172547866Y-99183781D01*
X172536830Y-99165368D01*
X172527651Y-99145962D01*
X172520419Y-99125750D01*
X172515203Y-99104926D01*
X172512053Y-99083691D01*
X172511000Y-99062250D01*
X172511000Y-98549750D01*
X172512053Y-98528309D01*
X172515203Y-98507074D01*
X172520419Y-98486250D01*
X172527651Y-98466038D01*
X172536830Y-98446632D01*
X172547866Y-98428219D01*
X172560654Y-98410976D01*
X172575070Y-98395070D01*
X172590976Y-98380654D01*
X172608219Y-98367866D01*
X172626632Y-98356830D01*
X172646038Y-98347651D01*
X172666250Y-98340419D01*
X172687074Y-98335203D01*
X172708309Y-98332053D01*
X172729750Y-98331000D01*
X173167250Y-98331000D01*
X173188691Y-98332053D01*
G37*
G36*
X174763691Y-98332053D02*
G01*
X174784926Y-98335203D01*
X174805750Y-98340419D01*
X174825962Y-98347651D01*
X174845368Y-98356830D01*
X174863781Y-98367866D01*
X174881024Y-98380654D01*
X174896930Y-98395070D01*
X174911346Y-98410976D01*
X174924134Y-98428219D01*
X174935170Y-98446632D01*
X174944349Y-98466038D01*
X174951581Y-98486250D01*
X174956797Y-98507074D01*
X174959947Y-98528309D01*
X174961000Y-98549750D01*
X174961000Y-99062250D01*
X174959947Y-99083691D01*
X174956797Y-99104926D01*
X174951581Y-99125750D01*
X174944349Y-99145962D01*
X174935170Y-99165368D01*
X174924134Y-99183781D01*
X174911346Y-99201024D01*
X174896930Y-99216930D01*
X174881024Y-99231346D01*
X174863781Y-99244134D01*
X174845368Y-99255170D01*
X174825962Y-99264349D01*
X174805750Y-99271581D01*
X174784926Y-99276797D01*
X174763691Y-99279947D01*
X174742250Y-99281000D01*
X174304750Y-99281000D01*
X174283309Y-99279947D01*
X174262074Y-99276797D01*
X174241250Y-99271581D01*
X174221038Y-99264349D01*
X174201632Y-99255170D01*
X174183219Y-99244134D01*
X174165976Y-99231346D01*
X174150070Y-99216930D01*
X174135654Y-99201024D01*
X174122866Y-99183781D01*
X174111830Y-99165368D01*
X174102651Y-99145962D01*
X174095419Y-99125750D01*
X174090203Y-99104926D01*
X174087053Y-99083691D01*
X174086000Y-99062250D01*
X174086000Y-98549750D01*
X174087053Y-98528309D01*
X174090203Y-98507074D01*
X174095419Y-98486250D01*
X174102651Y-98466038D01*
X174111830Y-98446632D01*
X174122866Y-98428219D01*
X174135654Y-98410976D01*
X174150070Y-98395070D01*
X174165976Y-98380654D01*
X174183219Y-98367866D01*
X174201632Y-98356830D01*
X174221038Y-98347651D01*
X174241250Y-98340419D01*
X174262074Y-98335203D01*
X174283309Y-98332053D01*
X174304750Y-98331000D01*
X174742250Y-98331000D01*
X174763691Y-98332053D01*
G37*
G36*
X174763691Y-99856053D02*
G01*
X174784926Y-99859203D01*
X174805750Y-99864419D01*
X174825962Y-99871651D01*
X174845368Y-99880830D01*
X174863781Y-99891866D01*
X174881024Y-99904654D01*
X174896930Y-99919070D01*
X174911346Y-99934976D01*
X174924134Y-99952219D01*
X174935170Y-99970632D01*
X174944349Y-99990038D01*
X174951581Y-100010250D01*
X174956797Y-100031074D01*
X174959947Y-100052309D01*
X174961000Y-100073750D01*
X174961000Y-100586250D01*
X174959947Y-100607691D01*
X174956797Y-100628926D01*
X174951581Y-100649750D01*
X174944349Y-100669962D01*
X174935170Y-100689368D01*
X174924134Y-100707781D01*
X174911346Y-100725024D01*
X174896930Y-100740930D01*
X174881024Y-100755346D01*
X174863781Y-100768134D01*
X174845368Y-100779170D01*
X174825962Y-100788349D01*
X174805750Y-100795581D01*
X174784926Y-100800797D01*
X174763691Y-100803947D01*
X174742250Y-100805000D01*
X174304750Y-100805000D01*
X174283309Y-100803947D01*
X174262074Y-100800797D01*
X174241250Y-100795581D01*
X174221038Y-100788349D01*
X174201632Y-100779170D01*
X174183219Y-100768134D01*
X174165976Y-100755346D01*
X174150070Y-100740930D01*
X174135654Y-100725024D01*
X174122866Y-100707781D01*
X174111830Y-100689368D01*
X174102651Y-100669962D01*
X174095419Y-100649750D01*
X174090203Y-100628926D01*
X174087053Y-100607691D01*
X174086000Y-100586250D01*
X174086000Y-100073750D01*
X174087053Y-100052309D01*
X174090203Y-100031074D01*
X174095419Y-100010250D01*
X174102651Y-99990038D01*
X174111830Y-99970632D01*
X174122866Y-99952219D01*
X174135654Y-99934976D01*
X174150070Y-99919070D01*
X174165976Y-99904654D01*
X174183219Y-99891866D01*
X174201632Y-99880830D01*
X174221038Y-99871651D01*
X174241250Y-99864419D01*
X174262074Y-99859203D01*
X174283309Y-99856053D01*
X174304750Y-99855000D01*
X174742250Y-99855000D01*
X174763691Y-99856053D01*
G37*
G36*
X173188691Y-99856053D02*
G01*
X173209926Y-99859203D01*
X173230750Y-99864419D01*
X173250962Y-99871651D01*
X173270368Y-99880830D01*
X173288781Y-99891866D01*
X173306024Y-99904654D01*
X173321930Y-99919070D01*
X173336346Y-99934976D01*
X173349134Y-99952219D01*
X173360170Y-99970632D01*
X173369349Y-99990038D01*
X173376581Y-100010250D01*
X173381797Y-100031074D01*
X173384947Y-100052309D01*
X173386000Y-100073750D01*
X173386000Y-100586250D01*
X173384947Y-100607691D01*
X173381797Y-100628926D01*
X173376581Y-100649750D01*
X173369349Y-100669962D01*
X173360170Y-100689368D01*
X173349134Y-100707781D01*
X173336346Y-100725024D01*
X173321930Y-100740930D01*
X173306024Y-100755346D01*
X173288781Y-100768134D01*
X173270368Y-100779170D01*
X173250962Y-100788349D01*
X173230750Y-100795581D01*
X173209926Y-100800797D01*
X173188691Y-100803947D01*
X173167250Y-100805000D01*
X172729750Y-100805000D01*
X172708309Y-100803947D01*
X172687074Y-100800797D01*
X172666250Y-100795581D01*
X172646038Y-100788349D01*
X172626632Y-100779170D01*
X172608219Y-100768134D01*
X172590976Y-100755346D01*
X172575070Y-100740930D01*
X172560654Y-100725024D01*
X172547866Y-100707781D01*
X172536830Y-100689368D01*
X172527651Y-100669962D01*
X172520419Y-100649750D01*
X172515203Y-100628926D01*
X172512053Y-100607691D01*
X172511000Y-100586250D01*
X172511000Y-100073750D01*
X172512053Y-100052309D01*
X172515203Y-100031074D01*
X172520419Y-100010250D01*
X172527651Y-99990038D01*
X172536830Y-99970632D01*
X172547866Y-99952219D01*
X172560654Y-99934976D01*
X172575070Y-99919070D01*
X172590976Y-99904654D01*
X172608219Y-99891866D01*
X172626632Y-99880830D01*
X172646038Y-99871651D01*
X172666250Y-99864419D01*
X172687074Y-99859203D01*
X172708309Y-99856053D01*
X172729750Y-99855000D01*
X173167250Y-99855000D01*
X173188691Y-99856053D01*
G37*
D14*
X138176000Y-99060000D03*
D15*
X136456000Y-99060000D03*
X136456000Y-101260000D03*
X138356000Y-101260000D03*
D13*
G36*
X150836691Y-95792053D02*
G01*
X150857926Y-95795203D01*
X150878750Y-95800419D01*
X150898962Y-95807651D01*
X150918368Y-95816830D01*
X150936781Y-95827866D01*
X150954024Y-95840654D01*
X150969930Y-95855070D01*
X150984346Y-95870976D01*
X150997134Y-95888219D01*
X151008170Y-95906632D01*
X151017349Y-95926038D01*
X151024581Y-95946250D01*
X151029797Y-95967074D01*
X151032947Y-95988309D01*
X151034000Y-96009750D01*
X151034000Y-96522250D01*
X151032947Y-96543691D01*
X151029797Y-96564926D01*
X151024581Y-96585750D01*
X151017349Y-96605962D01*
X151008170Y-96625368D01*
X150997134Y-96643781D01*
X150984346Y-96661024D01*
X150969930Y-96676930D01*
X150954024Y-96691346D01*
X150936781Y-96704134D01*
X150918368Y-96715170D01*
X150898962Y-96724349D01*
X150878750Y-96731581D01*
X150857926Y-96736797D01*
X150836691Y-96739947D01*
X150815250Y-96741000D01*
X150377750Y-96741000D01*
X150356309Y-96739947D01*
X150335074Y-96736797D01*
X150314250Y-96731581D01*
X150294038Y-96724349D01*
X150274632Y-96715170D01*
X150256219Y-96704134D01*
X150238976Y-96691346D01*
X150223070Y-96676930D01*
X150208654Y-96661024D01*
X150195866Y-96643781D01*
X150184830Y-96625368D01*
X150175651Y-96605962D01*
X150168419Y-96585750D01*
X150163203Y-96564926D01*
X150160053Y-96543691D01*
X150159000Y-96522250D01*
X150159000Y-96009750D01*
X150160053Y-95988309D01*
X150163203Y-95967074D01*
X150168419Y-95946250D01*
X150175651Y-95926038D01*
X150184830Y-95906632D01*
X150195866Y-95888219D01*
X150208654Y-95870976D01*
X150223070Y-95855070D01*
X150238976Y-95840654D01*
X150256219Y-95827866D01*
X150274632Y-95816830D01*
X150294038Y-95807651D01*
X150314250Y-95800419D01*
X150335074Y-95795203D01*
X150356309Y-95792053D01*
X150377750Y-95791000D01*
X150815250Y-95791000D01*
X150836691Y-95792053D01*
G37*
G36*
X152411691Y-95792053D02*
G01*
X152432926Y-95795203D01*
X152453750Y-95800419D01*
X152473962Y-95807651D01*
X152493368Y-95816830D01*
X152511781Y-95827866D01*
X152529024Y-95840654D01*
X152544930Y-95855070D01*
X152559346Y-95870976D01*
X152572134Y-95888219D01*
X152583170Y-95906632D01*
X152592349Y-95926038D01*
X152599581Y-95946250D01*
X152604797Y-95967074D01*
X152607947Y-95988309D01*
X152609000Y-96009750D01*
X152609000Y-96522250D01*
X152607947Y-96543691D01*
X152604797Y-96564926D01*
X152599581Y-96585750D01*
X152592349Y-96605962D01*
X152583170Y-96625368D01*
X152572134Y-96643781D01*
X152559346Y-96661024D01*
X152544930Y-96676930D01*
X152529024Y-96691346D01*
X152511781Y-96704134D01*
X152493368Y-96715170D01*
X152473962Y-96724349D01*
X152453750Y-96731581D01*
X152432926Y-96736797D01*
X152411691Y-96739947D01*
X152390250Y-96741000D01*
X151952750Y-96741000D01*
X151931309Y-96739947D01*
X151910074Y-96736797D01*
X151889250Y-96731581D01*
X151869038Y-96724349D01*
X151849632Y-96715170D01*
X151831219Y-96704134D01*
X151813976Y-96691346D01*
X151798070Y-96676930D01*
X151783654Y-96661024D01*
X151770866Y-96643781D01*
X151759830Y-96625368D01*
X151750651Y-96605962D01*
X151743419Y-96585750D01*
X151738203Y-96564926D01*
X151735053Y-96543691D01*
X151734000Y-96522250D01*
X151734000Y-96009750D01*
X151735053Y-95988309D01*
X151738203Y-95967074D01*
X151743419Y-95946250D01*
X151750651Y-95926038D01*
X151759830Y-95906632D01*
X151770866Y-95888219D01*
X151783654Y-95870976D01*
X151798070Y-95855070D01*
X151813976Y-95840654D01*
X151831219Y-95827866D01*
X151849632Y-95816830D01*
X151869038Y-95807651D01*
X151889250Y-95800419D01*
X151910074Y-95795203D01*
X151931309Y-95792053D01*
X151952750Y-95791000D01*
X152390250Y-95791000D01*
X152411691Y-95792053D01*
G37*
D16*
X132403000Y-103055000D03*
X132403000Y-97575000D03*
D17*
X133153000Y-97355000D03*
X133153000Y-103305000D03*
D18*
X134453000Y-97455000D03*
X134473000Y-103205000D03*
D19*
X134353000Y-99005000D03*
X134353000Y-99655000D03*
X134353000Y-100305000D03*
X134353000Y-100955000D03*
X134353000Y-101605000D03*
D20*
X131203000Y-99345000D03*
X131203000Y-101265000D03*
D21*
X151812500Y-94485500D03*
X151812500Y-92585500D03*
X149812500Y-93535500D03*
D22*
X145100000Y-94218000D03*
X147000000Y-94218000D03*
X146050000Y-92218000D03*
X140081000Y-92218000D03*
X141031000Y-94218000D03*
X139131000Y-94218000D03*
D13*
G36*
X174001691Y-92617053D02*
G01*
X174022926Y-92620203D01*
X174043750Y-92625419D01*
X174063962Y-92632651D01*
X174083368Y-92641830D01*
X174101781Y-92652866D01*
X174119024Y-92665654D01*
X174134930Y-92680070D01*
X174149346Y-92695976D01*
X174162134Y-92713219D01*
X174173170Y-92731632D01*
X174182349Y-92751038D01*
X174189581Y-92771250D01*
X174194797Y-92792074D01*
X174197947Y-92813309D01*
X174199000Y-92834750D01*
X174199000Y-93347250D01*
X174197947Y-93368691D01*
X174194797Y-93389926D01*
X174189581Y-93410750D01*
X174182349Y-93430962D01*
X174173170Y-93450368D01*
X174162134Y-93468781D01*
X174149346Y-93486024D01*
X174134930Y-93501930D01*
X174119024Y-93516346D01*
X174101781Y-93529134D01*
X174083368Y-93540170D01*
X174063962Y-93549349D01*
X174043750Y-93556581D01*
X174022926Y-93561797D01*
X174001691Y-93564947D01*
X173980250Y-93566000D01*
X173542750Y-93566000D01*
X173521309Y-93564947D01*
X173500074Y-93561797D01*
X173479250Y-93556581D01*
X173459038Y-93549349D01*
X173439632Y-93540170D01*
X173421219Y-93529134D01*
X173403976Y-93516346D01*
X173388070Y-93501930D01*
X173373654Y-93486024D01*
X173360866Y-93468781D01*
X173349830Y-93450368D01*
X173340651Y-93430962D01*
X173333419Y-93410750D01*
X173328203Y-93389926D01*
X173325053Y-93368691D01*
X173324000Y-93347250D01*
X173324000Y-92834750D01*
X173325053Y-92813309D01*
X173328203Y-92792074D01*
X173333419Y-92771250D01*
X173340651Y-92751038D01*
X173349830Y-92731632D01*
X173360866Y-92713219D01*
X173373654Y-92695976D01*
X173388070Y-92680070D01*
X173403976Y-92665654D01*
X173421219Y-92652866D01*
X173439632Y-92641830D01*
X173459038Y-92632651D01*
X173479250Y-92625419D01*
X173500074Y-92620203D01*
X173521309Y-92617053D01*
X173542750Y-92616000D01*
X173980250Y-92616000D01*
X174001691Y-92617053D01*
G37*
G36*
X172426691Y-92617053D02*
G01*
X172447926Y-92620203D01*
X172468750Y-92625419D01*
X172488962Y-92632651D01*
X172508368Y-92641830D01*
X172526781Y-92652866D01*
X172544024Y-92665654D01*
X172559930Y-92680070D01*
X172574346Y-92695976D01*
X172587134Y-92713219D01*
X172598170Y-92731632D01*
X172607349Y-92751038D01*
X172614581Y-92771250D01*
X172619797Y-92792074D01*
X172622947Y-92813309D01*
X172624000Y-92834750D01*
X172624000Y-93347250D01*
X172622947Y-93368691D01*
X172619797Y-93389926D01*
X172614581Y-93410750D01*
X172607349Y-93430962D01*
X172598170Y-93450368D01*
X172587134Y-93468781D01*
X172574346Y-93486024D01*
X172559930Y-93501930D01*
X172544024Y-93516346D01*
X172526781Y-93529134D01*
X172508368Y-93540170D01*
X172488962Y-93549349D01*
X172468750Y-93556581D01*
X172447926Y-93561797D01*
X172426691Y-93564947D01*
X172405250Y-93566000D01*
X171967750Y-93566000D01*
X171946309Y-93564947D01*
X171925074Y-93561797D01*
X171904250Y-93556581D01*
X171884038Y-93549349D01*
X171864632Y-93540170D01*
X171846219Y-93529134D01*
X171828976Y-93516346D01*
X171813070Y-93501930D01*
X171798654Y-93486024D01*
X171785866Y-93468781D01*
X171774830Y-93450368D01*
X171765651Y-93430962D01*
X171758419Y-93410750D01*
X171753203Y-93389926D01*
X171750053Y-93368691D01*
X171749000Y-93347250D01*
X171749000Y-92834750D01*
X171750053Y-92813309D01*
X171753203Y-92792074D01*
X171758419Y-92771250D01*
X171765651Y-92751038D01*
X171774830Y-92731632D01*
X171785866Y-92713219D01*
X171798654Y-92695976D01*
X171813070Y-92680070D01*
X171828976Y-92665654D01*
X171846219Y-92652866D01*
X171864632Y-92641830D01*
X171884038Y-92632651D01*
X171904250Y-92625419D01*
X171925074Y-92620203D01*
X171946309Y-92617053D01*
X171967750Y-92616000D01*
X172405250Y-92616000D01*
X172426691Y-92617053D01*
G37*
G36*
X140168691Y-98332053D02*
G01*
X140189926Y-98335203D01*
X140210750Y-98340419D01*
X140230962Y-98347651D01*
X140250368Y-98356830D01*
X140268781Y-98367866D01*
X140286024Y-98380654D01*
X140301930Y-98395070D01*
X140316346Y-98410976D01*
X140329134Y-98428219D01*
X140340170Y-98446632D01*
X140349349Y-98466038D01*
X140356581Y-98486250D01*
X140361797Y-98507074D01*
X140364947Y-98528309D01*
X140366000Y-98549750D01*
X140366000Y-99062250D01*
X140364947Y-99083691D01*
X140361797Y-99104926D01*
X140356581Y-99125750D01*
X140349349Y-99145962D01*
X140340170Y-99165368D01*
X140329134Y-99183781D01*
X140316346Y-99201024D01*
X140301930Y-99216930D01*
X140286024Y-99231346D01*
X140268781Y-99244134D01*
X140250368Y-99255170D01*
X140230962Y-99264349D01*
X140210750Y-99271581D01*
X140189926Y-99276797D01*
X140168691Y-99279947D01*
X140147250Y-99281000D01*
X139709750Y-99281000D01*
X139688309Y-99279947D01*
X139667074Y-99276797D01*
X139646250Y-99271581D01*
X139626038Y-99264349D01*
X139606632Y-99255170D01*
X139588219Y-99244134D01*
X139570976Y-99231346D01*
X139555070Y-99216930D01*
X139540654Y-99201024D01*
X139527866Y-99183781D01*
X139516830Y-99165368D01*
X139507651Y-99145962D01*
X139500419Y-99125750D01*
X139495203Y-99104926D01*
X139492053Y-99083691D01*
X139491000Y-99062250D01*
X139491000Y-98549750D01*
X139492053Y-98528309D01*
X139495203Y-98507074D01*
X139500419Y-98486250D01*
X139507651Y-98466038D01*
X139516830Y-98446632D01*
X139527866Y-98428219D01*
X139540654Y-98410976D01*
X139555070Y-98395070D01*
X139570976Y-98380654D01*
X139588219Y-98367866D01*
X139606632Y-98356830D01*
X139626038Y-98347651D01*
X139646250Y-98340419D01*
X139667074Y-98335203D01*
X139688309Y-98332053D01*
X139709750Y-98331000D01*
X140147250Y-98331000D01*
X140168691Y-98332053D01*
G37*
G36*
X141743691Y-98332053D02*
G01*
X141764926Y-98335203D01*
X141785750Y-98340419D01*
X141805962Y-98347651D01*
X141825368Y-98356830D01*
X141843781Y-98367866D01*
X141861024Y-98380654D01*
X141876930Y-98395070D01*
X141891346Y-98410976D01*
X141904134Y-98428219D01*
X141915170Y-98446632D01*
X141924349Y-98466038D01*
X141931581Y-98486250D01*
X141936797Y-98507074D01*
X141939947Y-98528309D01*
X141941000Y-98549750D01*
X141941000Y-99062250D01*
X141939947Y-99083691D01*
X141936797Y-99104926D01*
X141931581Y-99125750D01*
X141924349Y-99145962D01*
X141915170Y-99165368D01*
X141904134Y-99183781D01*
X141891346Y-99201024D01*
X141876930Y-99216930D01*
X141861024Y-99231346D01*
X141843781Y-99244134D01*
X141825368Y-99255170D01*
X141805962Y-99264349D01*
X141785750Y-99271581D01*
X141764926Y-99276797D01*
X141743691Y-99279947D01*
X141722250Y-99281000D01*
X141284750Y-99281000D01*
X141263309Y-99279947D01*
X141242074Y-99276797D01*
X141221250Y-99271581D01*
X141201038Y-99264349D01*
X141181632Y-99255170D01*
X141163219Y-99244134D01*
X141145976Y-99231346D01*
X141130070Y-99216930D01*
X141115654Y-99201024D01*
X141102866Y-99183781D01*
X141091830Y-99165368D01*
X141082651Y-99145962D01*
X141075419Y-99125750D01*
X141070203Y-99104926D01*
X141067053Y-99083691D01*
X141066000Y-99062250D01*
X141066000Y-98549750D01*
X141067053Y-98528309D01*
X141070203Y-98507074D01*
X141075419Y-98486250D01*
X141082651Y-98466038D01*
X141091830Y-98446632D01*
X141102866Y-98428219D01*
X141115654Y-98410976D01*
X141130070Y-98395070D01*
X141145976Y-98380654D01*
X141163219Y-98367866D01*
X141181632Y-98356830D01*
X141201038Y-98347651D01*
X141221250Y-98340419D01*
X141242074Y-98335203D01*
X141263309Y-98332053D01*
X141284750Y-98331000D01*
X141722250Y-98331000D01*
X141743691Y-98332053D01*
G37*
G36*
X141743691Y-101126053D02*
G01*
X141764926Y-101129203D01*
X141785750Y-101134419D01*
X141805962Y-101141651D01*
X141825368Y-101150830D01*
X141843781Y-101161866D01*
X141861024Y-101174654D01*
X141876930Y-101189070D01*
X141891346Y-101204976D01*
X141904134Y-101222219D01*
X141915170Y-101240632D01*
X141924349Y-101260038D01*
X141931581Y-101280250D01*
X141936797Y-101301074D01*
X141939947Y-101322309D01*
X141941000Y-101343750D01*
X141941000Y-101856250D01*
X141939947Y-101877691D01*
X141936797Y-101898926D01*
X141931581Y-101919750D01*
X141924349Y-101939962D01*
X141915170Y-101959368D01*
X141904134Y-101977781D01*
X141891346Y-101995024D01*
X141876930Y-102010930D01*
X141861024Y-102025346D01*
X141843781Y-102038134D01*
X141825368Y-102049170D01*
X141805962Y-102058349D01*
X141785750Y-102065581D01*
X141764926Y-102070797D01*
X141743691Y-102073947D01*
X141722250Y-102075000D01*
X141284750Y-102075000D01*
X141263309Y-102073947D01*
X141242074Y-102070797D01*
X141221250Y-102065581D01*
X141201038Y-102058349D01*
X141181632Y-102049170D01*
X141163219Y-102038134D01*
X141145976Y-102025346D01*
X141130070Y-102010930D01*
X141115654Y-101995024D01*
X141102866Y-101977781D01*
X141091830Y-101959368D01*
X141082651Y-101939962D01*
X141075419Y-101919750D01*
X141070203Y-101898926D01*
X141067053Y-101877691D01*
X141066000Y-101856250D01*
X141066000Y-101343750D01*
X141067053Y-101322309D01*
X141070203Y-101301074D01*
X141075419Y-101280250D01*
X141082651Y-101260038D01*
X141091830Y-101240632D01*
X141102866Y-101222219D01*
X141115654Y-101204976D01*
X141130070Y-101189070D01*
X141145976Y-101174654D01*
X141163219Y-101161866D01*
X141181632Y-101150830D01*
X141201038Y-101141651D01*
X141221250Y-101134419D01*
X141242074Y-101129203D01*
X141263309Y-101126053D01*
X141284750Y-101125000D01*
X141722250Y-101125000D01*
X141743691Y-101126053D01*
G37*
G36*
X140168691Y-101126053D02*
G01*
X140189926Y-101129203D01*
X140210750Y-101134419D01*
X140230962Y-101141651D01*
X140250368Y-101150830D01*
X140268781Y-101161866D01*
X140286024Y-101174654D01*
X140301930Y-101189070D01*
X140316346Y-101204976D01*
X140329134Y-101222219D01*
X140340170Y-101240632D01*
X140349349Y-101260038D01*
X140356581Y-101280250D01*
X140361797Y-101301074D01*
X140364947Y-101322309D01*
X140366000Y-101343750D01*
X140366000Y-101856250D01*
X140364947Y-101877691D01*
X140361797Y-101898926D01*
X140356581Y-101919750D01*
X140349349Y-101939962D01*
X140340170Y-101959368D01*
X140329134Y-101977781D01*
X140316346Y-101995024D01*
X140301930Y-102010930D01*
X140286024Y-102025346D01*
X140268781Y-102038134D01*
X140250368Y-102049170D01*
X140230962Y-102058349D01*
X140210750Y-102065581D01*
X140189926Y-102070797D01*
X140168691Y-102073947D01*
X140147250Y-102075000D01*
X139709750Y-102075000D01*
X139688309Y-102073947D01*
X139667074Y-102070797D01*
X139646250Y-102065581D01*
X139626038Y-102058349D01*
X139606632Y-102049170D01*
X139588219Y-102038134D01*
X139570976Y-102025346D01*
X139555070Y-102010930D01*
X139540654Y-101995024D01*
X139527866Y-101977781D01*
X139516830Y-101959368D01*
X139507651Y-101939962D01*
X139500419Y-101919750D01*
X139495203Y-101898926D01*
X139492053Y-101877691D01*
X139491000Y-101856250D01*
X139491000Y-101343750D01*
X139492053Y-101322309D01*
X139495203Y-101301074D01*
X139500419Y-101280250D01*
X139507651Y-101260038D01*
X139516830Y-101240632D01*
X139527866Y-101222219D01*
X139540654Y-101204976D01*
X139555070Y-101189070D01*
X139570976Y-101174654D01*
X139588219Y-101161866D01*
X139606632Y-101150830D01*
X139626038Y-101141651D01*
X139646250Y-101134419D01*
X139667074Y-101129203D01*
X139688309Y-101126053D01*
X139709750Y-101125000D01*
X140147250Y-101125000D01*
X140168691Y-101126053D01*
G37*
G36*
X150773191Y-97316053D02*
G01*
X150794426Y-97319203D01*
X150815250Y-97324419D01*
X150835462Y-97331651D01*
X150854868Y-97340830D01*
X150873281Y-97351866D01*
X150890524Y-97364654D01*
X150906430Y-97379070D01*
X150920846Y-97394976D01*
X150933634Y-97412219D01*
X150944670Y-97430632D01*
X150953849Y-97450038D01*
X150961081Y-97470250D01*
X150966297Y-97491074D01*
X150969447Y-97512309D01*
X150970500Y-97533750D01*
X150970500Y-98046250D01*
X150969447Y-98067691D01*
X150966297Y-98088926D01*
X150961081Y-98109750D01*
X150953849Y-98129962D01*
X150944670Y-98149368D01*
X150933634Y-98167781D01*
X150920846Y-98185024D01*
X150906430Y-98200930D01*
X150890524Y-98215346D01*
X150873281Y-98228134D01*
X150854868Y-98239170D01*
X150835462Y-98248349D01*
X150815250Y-98255581D01*
X150794426Y-98260797D01*
X150773191Y-98263947D01*
X150751750Y-98265000D01*
X150314250Y-98265000D01*
X150292809Y-98263947D01*
X150271574Y-98260797D01*
X150250750Y-98255581D01*
X150230538Y-98248349D01*
X150211132Y-98239170D01*
X150192719Y-98228134D01*
X150175476Y-98215346D01*
X150159570Y-98200930D01*
X150145154Y-98185024D01*
X150132366Y-98167781D01*
X150121330Y-98149368D01*
X150112151Y-98129962D01*
X150104919Y-98109750D01*
X150099703Y-98088926D01*
X150096553Y-98067691D01*
X150095500Y-98046250D01*
X150095500Y-97533750D01*
X150096553Y-97512309D01*
X150099703Y-97491074D01*
X150104919Y-97470250D01*
X150112151Y-97450038D01*
X150121330Y-97430632D01*
X150132366Y-97412219D01*
X150145154Y-97394976D01*
X150159570Y-97379070D01*
X150175476Y-97364654D01*
X150192719Y-97351866D01*
X150211132Y-97340830D01*
X150230538Y-97331651D01*
X150250750Y-97324419D01*
X150271574Y-97319203D01*
X150292809Y-97316053D01*
X150314250Y-97315000D01*
X150751750Y-97315000D01*
X150773191Y-97316053D01*
G37*
G36*
X152348191Y-97316053D02*
G01*
X152369426Y-97319203D01*
X152390250Y-97324419D01*
X152410462Y-97331651D01*
X152429868Y-97340830D01*
X152448281Y-97351866D01*
X152465524Y-97364654D01*
X152481430Y-97379070D01*
X152495846Y-97394976D01*
X152508634Y-97412219D01*
X152519670Y-97430632D01*
X152528849Y-97450038D01*
X152536081Y-97470250D01*
X152541297Y-97491074D01*
X152544447Y-97512309D01*
X152545500Y-97533750D01*
X152545500Y-98046250D01*
X152544447Y-98067691D01*
X152541297Y-98088926D01*
X152536081Y-98109750D01*
X152528849Y-98129962D01*
X152519670Y-98149368D01*
X152508634Y-98167781D01*
X152495846Y-98185024D01*
X152481430Y-98200930D01*
X152465524Y-98215346D01*
X152448281Y-98228134D01*
X152429868Y-98239170D01*
X152410462Y-98248349D01*
X152390250Y-98255581D01*
X152369426Y-98260797D01*
X152348191Y-98263947D01*
X152326750Y-98265000D01*
X151889250Y-98265000D01*
X151867809Y-98263947D01*
X151846574Y-98260797D01*
X151825750Y-98255581D01*
X151805538Y-98248349D01*
X151786132Y-98239170D01*
X151767719Y-98228134D01*
X151750476Y-98215346D01*
X151734570Y-98200930D01*
X151720154Y-98185024D01*
X151707366Y-98167781D01*
X151696330Y-98149368D01*
X151687151Y-98129962D01*
X151679919Y-98109750D01*
X151674703Y-98088926D01*
X151671553Y-98067691D01*
X151670500Y-98046250D01*
X151670500Y-97533750D01*
X151671553Y-97512309D01*
X151674703Y-97491074D01*
X151679919Y-97470250D01*
X151687151Y-97450038D01*
X151696330Y-97430632D01*
X151707366Y-97412219D01*
X151720154Y-97394976D01*
X151734570Y-97379070D01*
X151750476Y-97364654D01*
X151767719Y-97351866D01*
X151786132Y-97340830D01*
X151805538Y-97331651D01*
X151825750Y-97324419D01*
X151846574Y-97319203D01*
X151867809Y-97316053D01*
X151889250Y-97315000D01*
X152326750Y-97315000D01*
X152348191Y-97316053D01*
G37*
G36*
X145375691Y-95284053D02*
G01*
X145396926Y-95287203D01*
X145417750Y-95292419D01*
X145437962Y-95299651D01*
X145457368Y-95308830D01*
X145475781Y-95319866D01*
X145493024Y-95332654D01*
X145508930Y-95347070D01*
X145523346Y-95362976D01*
X145536134Y-95380219D01*
X145547170Y-95398632D01*
X145556349Y-95418038D01*
X145563581Y-95438250D01*
X145568797Y-95459074D01*
X145571947Y-95480309D01*
X145573000Y-95501750D01*
X145573000Y-96014250D01*
X145571947Y-96035691D01*
X145568797Y-96056926D01*
X145563581Y-96077750D01*
X145556349Y-96097962D01*
X145547170Y-96117368D01*
X145536134Y-96135781D01*
X145523346Y-96153024D01*
X145508930Y-96168930D01*
X145493024Y-96183346D01*
X145475781Y-96196134D01*
X145457368Y-96207170D01*
X145437962Y-96216349D01*
X145417750Y-96223581D01*
X145396926Y-96228797D01*
X145375691Y-96231947D01*
X145354250Y-96233000D01*
X144916750Y-96233000D01*
X144895309Y-96231947D01*
X144874074Y-96228797D01*
X144853250Y-96223581D01*
X144833038Y-96216349D01*
X144813632Y-96207170D01*
X144795219Y-96196134D01*
X144777976Y-96183346D01*
X144762070Y-96168930D01*
X144747654Y-96153024D01*
X144734866Y-96135781D01*
X144723830Y-96117368D01*
X144714651Y-96097962D01*
X144707419Y-96077750D01*
X144702203Y-96056926D01*
X144699053Y-96035691D01*
X144698000Y-96014250D01*
X144698000Y-95501750D01*
X144699053Y-95480309D01*
X144702203Y-95459074D01*
X144707419Y-95438250D01*
X144714651Y-95418038D01*
X144723830Y-95398632D01*
X144734866Y-95380219D01*
X144747654Y-95362976D01*
X144762070Y-95347070D01*
X144777976Y-95332654D01*
X144795219Y-95319866D01*
X144813632Y-95308830D01*
X144833038Y-95299651D01*
X144853250Y-95292419D01*
X144874074Y-95287203D01*
X144895309Y-95284053D01*
X144916750Y-95283000D01*
X145354250Y-95283000D01*
X145375691Y-95284053D01*
G37*
G36*
X146950691Y-95284053D02*
G01*
X146971926Y-95287203D01*
X146992750Y-95292419D01*
X147012962Y-95299651D01*
X147032368Y-95308830D01*
X147050781Y-95319866D01*
X147068024Y-95332654D01*
X147083930Y-95347070D01*
X147098346Y-95362976D01*
X147111134Y-95380219D01*
X147122170Y-95398632D01*
X147131349Y-95418038D01*
X147138581Y-95438250D01*
X147143797Y-95459074D01*
X147146947Y-95480309D01*
X147148000Y-95501750D01*
X147148000Y-96014250D01*
X147146947Y-96035691D01*
X147143797Y-96056926D01*
X147138581Y-96077750D01*
X147131349Y-96097962D01*
X147122170Y-96117368D01*
X147111134Y-96135781D01*
X147098346Y-96153024D01*
X147083930Y-96168930D01*
X147068024Y-96183346D01*
X147050781Y-96196134D01*
X147032368Y-96207170D01*
X147012962Y-96216349D01*
X146992750Y-96223581D01*
X146971926Y-96228797D01*
X146950691Y-96231947D01*
X146929250Y-96233000D01*
X146491750Y-96233000D01*
X146470309Y-96231947D01*
X146449074Y-96228797D01*
X146428250Y-96223581D01*
X146408038Y-96216349D01*
X146388632Y-96207170D01*
X146370219Y-96196134D01*
X146352976Y-96183346D01*
X146337070Y-96168930D01*
X146322654Y-96153024D01*
X146309866Y-96135781D01*
X146298830Y-96117368D01*
X146289651Y-96097962D01*
X146282419Y-96077750D01*
X146277203Y-96056926D01*
X146274053Y-96035691D01*
X146273000Y-96014250D01*
X146273000Y-95501750D01*
X146274053Y-95480309D01*
X146277203Y-95459074D01*
X146282419Y-95438250D01*
X146289651Y-95418038D01*
X146298830Y-95398632D01*
X146309866Y-95380219D01*
X146322654Y-95362976D01*
X146337070Y-95347070D01*
X146352976Y-95332654D01*
X146370219Y-95319866D01*
X146388632Y-95308830D01*
X146408038Y-95299651D01*
X146428250Y-95292419D01*
X146449074Y-95287203D01*
X146470309Y-95284053D01*
X146491750Y-95283000D01*
X146929250Y-95283000D01*
X146950691Y-95284053D01*
G37*
G36*
X141108691Y-95284053D02*
G01*
X141129926Y-95287203D01*
X141150750Y-95292419D01*
X141170962Y-95299651D01*
X141190368Y-95308830D01*
X141208781Y-95319866D01*
X141226024Y-95332654D01*
X141241930Y-95347070D01*
X141256346Y-95362976D01*
X141269134Y-95380219D01*
X141280170Y-95398632D01*
X141289349Y-95418038D01*
X141296581Y-95438250D01*
X141301797Y-95459074D01*
X141304947Y-95480309D01*
X141306000Y-95501750D01*
X141306000Y-96014250D01*
X141304947Y-96035691D01*
X141301797Y-96056926D01*
X141296581Y-96077750D01*
X141289349Y-96097962D01*
X141280170Y-96117368D01*
X141269134Y-96135781D01*
X141256346Y-96153024D01*
X141241930Y-96168930D01*
X141226024Y-96183346D01*
X141208781Y-96196134D01*
X141190368Y-96207170D01*
X141170962Y-96216349D01*
X141150750Y-96223581D01*
X141129926Y-96228797D01*
X141108691Y-96231947D01*
X141087250Y-96233000D01*
X140649750Y-96233000D01*
X140628309Y-96231947D01*
X140607074Y-96228797D01*
X140586250Y-96223581D01*
X140566038Y-96216349D01*
X140546632Y-96207170D01*
X140528219Y-96196134D01*
X140510976Y-96183346D01*
X140495070Y-96168930D01*
X140480654Y-96153024D01*
X140467866Y-96135781D01*
X140456830Y-96117368D01*
X140447651Y-96097962D01*
X140440419Y-96077750D01*
X140435203Y-96056926D01*
X140432053Y-96035691D01*
X140431000Y-96014250D01*
X140431000Y-95501750D01*
X140432053Y-95480309D01*
X140435203Y-95459074D01*
X140440419Y-95438250D01*
X140447651Y-95418038D01*
X140456830Y-95398632D01*
X140467866Y-95380219D01*
X140480654Y-95362976D01*
X140495070Y-95347070D01*
X140510976Y-95332654D01*
X140528219Y-95319866D01*
X140546632Y-95308830D01*
X140566038Y-95299651D01*
X140586250Y-95292419D01*
X140607074Y-95287203D01*
X140628309Y-95284053D01*
X140649750Y-95283000D01*
X141087250Y-95283000D01*
X141108691Y-95284053D01*
G37*
G36*
X139533691Y-95284053D02*
G01*
X139554926Y-95287203D01*
X139575750Y-95292419D01*
X139595962Y-95299651D01*
X139615368Y-95308830D01*
X139633781Y-95319866D01*
X139651024Y-95332654D01*
X139666930Y-95347070D01*
X139681346Y-95362976D01*
X139694134Y-95380219D01*
X139705170Y-95398632D01*
X139714349Y-95418038D01*
X139721581Y-95438250D01*
X139726797Y-95459074D01*
X139729947Y-95480309D01*
X139731000Y-95501750D01*
X139731000Y-96014250D01*
X139729947Y-96035691D01*
X139726797Y-96056926D01*
X139721581Y-96077750D01*
X139714349Y-96097962D01*
X139705170Y-96117368D01*
X139694134Y-96135781D01*
X139681346Y-96153024D01*
X139666930Y-96168930D01*
X139651024Y-96183346D01*
X139633781Y-96196134D01*
X139615368Y-96207170D01*
X139595962Y-96216349D01*
X139575750Y-96223581D01*
X139554926Y-96228797D01*
X139533691Y-96231947D01*
X139512250Y-96233000D01*
X139074750Y-96233000D01*
X139053309Y-96231947D01*
X139032074Y-96228797D01*
X139011250Y-96223581D01*
X138991038Y-96216349D01*
X138971632Y-96207170D01*
X138953219Y-96196134D01*
X138935976Y-96183346D01*
X138920070Y-96168930D01*
X138905654Y-96153024D01*
X138892866Y-96135781D01*
X138881830Y-96117368D01*
X138872651Y-96097962D01*
X138865419Y-96077750D01*
X138860203Y-96056926D01*
X138857053Y-96035691D01*
X138856000Y-96014250D01*
X138856000Y-95501750D01*
X138857053Y-95480309D01*
X138860203Y-95459074D01*
X138865419Y-95438250D01*
X138872651Y-95418038D01*
X138881830Y-95398632D01*
X138892866Y-95380219D01*
X138905654Y-95362976D01*
X138920070Y-95347070D01*
X138935976Y-95332654D01*
X138953219Y-95319866D01*
X138971632Y-95308830D01*
X138991038Y-95299651D01*
X139011250Y-95292419D01*
X139032074Y-95287203D01*
X139053309Y-95284053D01*
X139074750Y-95283000D01*
X139512250Y-95283000D01*
X139533691Y-95284053D01*
G37*
G36*
X143787691Y-93569053D02*
G01*
X143808926Y-93572203D01*
X143829750Y-93577419D01*
X143849962Y-93584651D01*
X143869368Y-93593830D01*
X143887781Y-93604866D01*
X143905024Y-93617654D01*
X143920930Y-93632070D01*
X143935346Y-93647976D01*
X143948134Y-93665219D01*
X143959170Y-93683632D01*
X143968349Y-93703038D01*
X143975581Y-93723250D01*
X143980797Y-93744074D01*
X143983947Y-93765309D01*
X143985000Y-93786750D01*
X143985000Y-94224250D01*
X143983947Y-94245691D01*
X143980797Y-94266926D01*
X143975581Y-94287750D01*
X143968349Y-94307962D01*
X143959170Y-94327368D01*
X143948134Y-94345781D01*
X143935346Y-94363024D01*
X143920930Y-94378930D01*
X143905024Y-94393346D01*
X143887781Y-94406134D01*
X143869368Y-94417170D01*
X143849962Y-94426349D01*
X143829750Y-94433581D01*
X143808926Y-94438797D01*
X143787691Y-94441947D01*
X143766250Y-94443000D01*
X143253750Y-94443000D01*
X143232309Y-94441947D01*
X143211074Y-94438797D01*
X143190250Y-94433581D01*
X143170038Y-94426349D01*
X143150632Y-94417170D01*
X143132219Y-94406134D01*
X143114976Y-94393346D01*
X143099070Y-94378930D01*
X143084654Y-94363024D01*
X143071866Y-94345781D01*
X143060830Y-94327368D01*
X143051651Y-94307962D01*
X143044419Y-94287750D01*
X143039203Y-94266926D01*
X143036053Y-94245691D01*
X143035000Y-94224250D01*
X143035000Y-93786750D01*
X143036053Y-93765309D01*
X143039203Y-93744074D01*
X143044419Y-93723250D01*
X143051651Y-93703038D01*
X143060830Y-93683632D01*
X143071866Y-93665219D01*
X143084654Y-93647976D01*
X143099070Y-93632070D01*
X143114976Y-93617654D01*
X143132219Y-93604866D01*
X143150632Y-93593830D01*
X143170038Y-93584651D01*
X143190250Y-93577419D01*
X143211074Y-93572203D01*
X143232309Y-93569053D01*
X143253750Y-93568000D01*
X143766250Y-93568000D01*
X143787691Y-93569053D01*
G37*
G36*
X143787691Y-91994053D02*
G01*
X143808926Y-91997203D01*
X143829750Y-92002419D01*
X143849962Y-92009651D01*
X143869368Y-92018830D01*
X143887781Y-92029866D01*
X143905024Y-92042654D01*
X143920930Y-92057070D01*
X143935346Y-92072976D01*
X143948134Y-92090219D01*
X143959170Y-92108632D01*
X143968349Y-92128038D01*
X143975581Y-92148250D01*
X143980797Y-92169074D01*
X143983947Y-92190309D01*
X143985000Y-92211750D01*
X143985000Y-92649250D01*
X143983947Y-92670691D01*
X143980797Y-92691926D01*
X143975581Y-92712750D01*
X143968349Y-92732962D01*
X143959170Y-92752368D01*
X143948134Y-92770781D01*
X143935346Y-92788024D01*
X143920930Y-92803930D01*
X143905024Y-92818346D01*
X143887781Y-92831134D01*
X143869368Y-92842170D01*
X143849962Y-92851349D01*
X143829750Y-92858581D01*
X143808926Y-92863797D01*
X143787691Y-92866947D01*
X143766250Y-92868000D01*
X143253750Y-92868000D01*
X143232309Y-92866947D01*
X143211074Y-92863797D01*
X143190250Y-92858581D01*
X143170038Y-92851349D01*
X143150632Y-92842170D01*
X143132219Y-92831134D01*
X143114976Y-92818346D01*
X143099070Y-92803930D01*
X143084654Y-92788024D01*
X143071866Y-92770781D01*
X143060830Y-92752368D01*
X143051651Y-92732962D01*
X143044419Y-92712750D01*
X143039203Y-92691926D01*
X143036053Y-92670691D01*
X143035000Y-92649250D01*
X143035000Y-92211750D01*
X143036053Y-92190309D01*
X143039203Y-92169074D01*
X143044419Y-92148250D01*
X143051651Y-92128038D01*
X143060830Y-92108632D01*
X143071866Y-92090219D01*
X143084654Y-92072976D01*
X143099070Y-92057070D01*
X143114976Y-92042654D01*
X143132219Y-92029866D01*
X143150632Y-92018830D01*
X143170038Y-92009651D01*
X143190250Y-92002419D01*
X143211074Y-91997203D01*
X143232309Y-91994053D01*
X143253750Y-91993000D01*
X143766250Y-91993000D01*
X143787691Y-91994053D01*
G37*
G36*
X137691691Y-93569053D02*
G01*
X137712926Y-93572203D01*
X137733750Y-93577419D01*
X137753962Y-93584651D01*
X137773368Y-93593830D01*
X137791781Y-93604866D01*
X137809024Y-93617654D01*
X137824930Y-93632070D01*
X137839346Y-93647976D01*
X137852134Y-93665219D01*
X137863170Y-93683632D01*
X137872349Y-93703038D01*
X137879581Y-93723250D01*
X137884797Y-93744074D01*
X137887947Y-93765309D01*
X137889000Y-93786750D01*
X137889000Y-94224250D01*
X137887947Y-94245691D01*
X137884797Y-94266926D01*
X137879581Y-94287750D01*
X137872349Y-94307962D01*
X137863170Y-94327368D01*
X137852134Y-94345781D01*
X137839346Y-94363024D01*
X137824930Y-94378930D01*
X137809024Y-94393346D01*
X137791781Y-94406134D01*
X137773368Y-94417170D01*
X137753962Y-94426349D01*
X137733750Y-94433581D01*
X137712926Y-94438797D01*
X137691691Y-94441947D01*
X137670250Y-94443000D01*
X137157750Y-94443000D01*
X137136309Y-94441947D01*
X137115074Y-94438797D01*
X137094250Y-94433581D01*
X137074038Y-94426349D01*
X137054632Y-94417170D01*
X137036219Y-94406134D01*
X137018976Y-94393346D01*
X137003070Y-94378930D01*
X136988654Y-94363024D01*
X136975866Y-94345781D01*
X136964830Y-94327368D01*
X136955651Y-94307962D01*
X136948419Y-94287750D01*
X136943203Y-94266926D01*
X136940053Y-94245691D01*
X136939000Y-94224250D01*
X136939000Y-93786750D01*
X136940053Y-93765309D01*
X136943203Y-93744074D01*
X136948419Y-93723250D01*
X136955651Y-93703038D01*
X136964830Y-93683632D01*
X136975866Y-93665219D01*
X136988654Y-93647976D01*
X137003070Y-93632070D01*
X137018976Y-93617654D01*
X137036219Y-93604866D01*
X137054632Y-93593830D01*
X137074038Y-93584651D01*
X137094250Y-93577419D01*
X137115074Y-93572203D01*
X137136309Y-93569053D01*
X137157750Y-93568000D01*
X137670250Y-93568000D01*
X137691691Y-93569053D01*
G37*
G36*
X137691691Y-91994053D02*
G01*
X137712926Y-91997203D01*
X137733750Y-92002419D01*
X137753962Y-92009651D01*
X137773368Y-92018830D01*
X137791781Y-92029866D01*
X137809024Y-92042654D01*
X137824930Y-92057070D01*
X137839346Y-92072976D01*
X137852134Y-92090219D01*
X137863170Y-92108632D01*
X137872349Y-92128038D01*
X137879581Y-92148250D01*
X137884797Y-92169074D01*
X137887947Y-92190309D01*
X137889000Y-92211750D01*
X137889000Y-92649250D01*
X137887947Y-92670691D01*
X137884797Y-92691926D01*
X137879581Y-92712750D01*
X137872349Y-92732962D01*
X137863170Y-92752368D01*
X137852134Y-92770781D01*
X137839346Y-92788024D01*
X137824930Y-92803930D01*
X137809024Y-92818346D01*
X137791781Y-92831134D01*
X137773368Y-92842170D01*
X137753962Y-92851349D01*
X137733750Y-92858581D01*
X137712926Y-92863797D01*
X137691691Y-92866947D01*
X137670250Y-92868000D01*
X137157750Y-92868000D01*
X137136309Y-92866947D01*
X137115074Y-92863797D01*
X137094250Y-92858581D01*
X137074038Y-92851349D01*
X137054632Y-92842170D01*
X137036219Y-92831134D01*
X137018976Y-92818346D01*
X137003070Y-92803930D01*
X136988654Y-92788024D01*
X136975866Y-92770781D01*
X136964830Y-92752368D01*
X136955651Y-92732962D01*
X136948419Y-92712750D01*
X136943203Y-92691926D01*
X136940053Y-92670691D01*
X136939000Y-92649250D01*
X136939000Y-92211750D01*
X136940053Y-92190309D01*
X136943203Y-92169074D01*
X136948419Y-92148250D01*
X136955651Y-92128038D01*
X136964830Y-92108632D01*
X136975866Y-92090219D01*
X136988654Y-92072976D01*
X137003070Y-92057070D01*
X137018976Y-92042654D01*
X137036219Y-92029866D01*
X137054632Y-92018830D01*
X137074038Y-92009651D01*
X137094250Y-92002419D01*
X137115074Y-91997203D01*
X137136309Y-91994053D01*
X137157750Y-91993000D01*
X137670250Y-91993000D01*
X137691691Y-91994053D01*
G37*
D23*
X147570000Y-107456000D03*
X147070000Y-107456000D03*
X147570000Y-102856000D03*
X147070000Y-102856000D03*
D24*
X148620000Y-106906000D03*
X148620000Y-106406000D03*
X148620000Y-105906000D03*
X148620000Y-105406000D03*
X148620000Y-104906000D03*
X148620000Y-104406000D03*
X148620000Y-103906000D03*
X148620000Y-103406000D03*
X146020000Y-106906000D03*
X146020000Y-106406000D03*
X146020000Y-105906000D03*
X146020000Y-105406000D03*
X146020000Y-104906000D03*
X146020000Y-104406000D03*
X146020000Y-103906000D03*
X146020000Y-103406000D03*
D25*
X147320000Y-105156000D03*
X147320000Y-104206000D03*
X147320000Y-106106000D03*
D26*
X169160000Y-93030000D03*
X168060000Y-93030000D03*
X166960000Y-93030000D03*
X165860000Y-93030000D03*
X164760000Y-93030000D03*
X163660000Y-93030000D03*
X162560000Y-93030000D03*
X161460000Y-93030000D03*
X160360000Y-93030000D03*
X159260000Y-93030000D03*
X158160000Y-93030000D03*
X157060000Y-93030000D03*
X155960000Y-93030000D03*
D27*
X154310000Y-95930000D03*
X154310000Y-97030000D03*
X154310000Y-98130000D03*
X154310000Y-99230000D03*
X154310000Y-100330000D03*
X154310000Y-101430000D03*
X154310000Y-102530000D03*
X154310000Y-103630000D03*
X154310000Y-104730000D03*
D26*
X155960000Y-107630000D03*
X157060000Y-107630000D03*
X158160000Y-107630000D03*
X159260000Y-107630000D03*
X161460000Y-107630000D03*
X162560000Y-107630000D03*
X163660000Y-107630000D03*
X164760000Y-107630000D03*
X165860000Y-107630000D03*
X166960000Y-107630000D03*
X168060000Y-107630000D03*
X169160000Y-107630000D03*
D27*
X170810000Y-104730000D03*
X170810000Y-103630000D03*
X170810000Y-102530000D03*
X170810000Y-101430000D03*
X170810000Y-100330000D03*
X170810000Y-99230000D03*
X170810000Y-98130000D03*
X170810000Y-97030000D03*
X170810000Y-95930000D03*
D26*
X160360000Y-107630000D03*
D13*
G36*
X173251691Y-102916053D02*
G01*
X173272926Y-102919203D01*
X173293750Y-102924419D01*
X173313962Y-102931651D01*
X173333368Y-102940830D01*
X173351781Y-102951866D01*
X173369024Y-102964654D01*
X173384930Y-102979070D01*
X173399346Y-102994976D01*
X173412134Y-103012219D01*
X173423170Y-103030632D01*
X173432349Y-103050038D01*
X173439581Y-103070250D01*
X173444797Y-103091074D01*
X173447947Y-103112309D01*
X173449000Y-103133750D01*
X173449000Y-103571250D01*
X173447947Y-103592691D01*
X173444797Y-103613926D01*
X173439581Y-103634750D01*
X173432349Y-103654962D01*
X173423170Y-103674368D01*
X173412134Y-103692781D01*
X173399346Y-103710024D01*
X173384930Y-103725930D01*
X173369024Y-103740346D01*
X173351781Y-103753134D01*
X173333368Y-103764170D01*
X173313962Y-103773349D01*
X173293750Y-103780581D01*
X173272926Y-103785797D01*
X173251691Y-103788947D01*
X173230250Y-103790000D01*
X172717750Y-103790000D01*
X172696309Y-103788947D01*
X172675074Y-103785797D01*
X172654250Y-103780581D01*
X172634038Y-103773349D01*
X172614632Y-103764170D01*
X172596219Y-103753134D01*
X172578976Y-103740346D01*
X172563070Y-103725930D01*
X172548654Y-103710024D01*
X172535866Y-103692781D01*
X172524830Y-103674368D01*
X172515651Y-103654962D01*
X172508419Y-103634750D01*
X172503203Y-103613926D01*
X172500053Y-103592691D01*
X172499000Y-103571250D01*
X172499000Y-103133750D01*
X172500053Y-103112309D01*
X172503203Y-103091074D01*
X172508419Y-103070250D01*
X172515651Y-103050038D01*
X172524830Y-103030632D01*
X172535866Y-103012219D01*
X172548654Y-102994976D01*
X172563070Y-102979070D01*
X172578976Y-102964654D01*
X172596219Y-102951866D01*
X172614632Y-102940830D01*
X172634038Y-102931651D01*
X172654250Y-102924419D01*
X172675074Y-102919203D01*
X172696309Y-102916053D01*
X172717750Y-102915000D01*
X173230250Y-102915000D01*
X173251691Y-102916053D01*
G37*
G36*
X173251691Y-104491053D02*
G01*
X173272926Y-104494203D01*
X173293750Y-104499419D01*
X173313962Y-104506651D01*
X173333368Y-104515830D01*
X173351781Y-104526866D01*
X173369024Y-104539654D01*
X173384930Y-104554070D01*
X173399346Y-104569976D01*
X173412134Y-104587219D01*
X173423170Y-104605632D01*
X173432349Y-104625038D01*
X173439581Y-104645250D01*
X173444797Y-104666074D01*
X173447947Y-104687309D01*
X173449000Y-104708750D01*
X173449000Y-105146250D01*
X173447947Y-105167691D01*
X173444797Y-105188926D01*
X173439581Y-105209750D01*
X173432349Y-105229962D01*
X173423170Y-105249368D01*
X173412134Y-105267781D01*
X173399346Y-105285024D01*
X173384930Y-105300930D01*
X173369024Y-105315346D01*
X173351781Y-105328134D01*
X173333368Y-105339170D01*
X173313962Y-105348349D01*
X173293750Y-105355581D01*
X173272926Y-105360797D01*
X173251691Y-105363947D01*
X173230250Y-105365000D01*
X172717750Y-105365000D01*
X172696309Y-105363947D01*
X172675074Y-105360797D01*
X172654250Y-105355581D01*
X172634038Y-105348349D01*
X172614632Y-105339170D01*
X172596219Y-105328134D01*
X172578976Y-105315346D01*
X172563070Y-105300930D01*
X172548654Y-105285024D01*
X172535866Y-105267781D01*
X172524830Y-105249368D01*
X172515651Y-105229962D01*
X172508419Y-105209750D01*
X172503203Y-105188926D01*
X172500053Y-105167691D01*
X172499000Y-105146250D01*
X172499000Y-104708750D01*
X172500053Y-104687309D01*
X172503203Y-104666074D01*
X172508419Y-104645250D01*
X172515651Y-104625038D01*
X172524830Y-104605632D01*
X172535866Y-104587219D01*
X172548654Y-104569976D01*
X172563070Y-104554070D01*
X172578976Y-104539654D01*
X172596219Y-104526866D01*
X172614632Y-104515830D01*
X172634038Y-104506651D01*
X172654250Y-104499419D01*
X172675074Y-104494203D01*
X172696309Y-104491053D01*
X172717750Y-104490000D01*
X173230250Y-104490000D01*
X173251691Y-104491053D01*
G37*
G36*
X174775691Y-104491053D02*
G01*
X174796926Y-104494203D01*
X174817750Y-104499419D01*
X174837962Y-104506651D01*
X174857368Y-104515830D01*
X174875781Y-104526866D01*
X174893024Y-104539654D01*
X174908930Y-104554070D01*
X174923346Y-104569976D01*
X174936134Y-104587219D01*
X174947170Y-104605632D01*
X174956349Y-104625038D01*
X174963581Y-104645250D01*
X174968797Y-104666074D01*
X174971947Y-104687309D01*
X174973000Y-104708750D01*
X174973000Y-105146250D01*
X174971947Y-105167691D01*
X174968797Y-105188926D01*
X174963581Y-105209750D01*
X174956349Y-105229962D01*
X174947170Y-105249368D01*
X174936134Y-105267781D01*
X174923346Y-105285024D01*
X174908930Y-105300930D01*
X174893024Y-105315346D01*
X174875781Y-105328134D01*
X174857368Y-105339170D01*
X174837962Y-105348349D01*
X174817750Y-105355581D01*
X174796926Y-105360797D01*
X174775691Y-105363947D01*
X174754250Y-105365000D01*
X174241750Y-105365000D01*
X174220309Y-105363947D01*
X174199074Y-105360797D01*
X174178250Y-105355581D01*
X174158038Y-105348349D01*
X174138632Y-105339170D01*
X174120219Y-105328134D01*
X174102976Y-105315346D01*
X174087070Y-105300930D01*
X174072654Y-105285024D01*
X174059866Y-105267781D01*
X174048830Y-105249368D01*
X174039651Y-105229962D01*
X174032419Y-105209750D01*
X174027203Y-105188926D01*
X174024053Y-105167691D01*
X174023000Y-105146250D01*
X174023000Y-104708750D01*
X174024053Y-104687309D01*
X174027203Y-104666074D01*
X174032419Y-104645250D01*
X174039651Y-104625038D01*
X174048830Y-104605632D01*
X174059866Y-104587219D01*
X174072654Y-104569976D01*
X174087070Y-104554070D01*
X174102976Y-104539654D01*
X174120219Y-104526866D01*
X174138632Y-104515830D01*
X174158038Y-104506651D01*
X174178250Y-104499419D01*
X174199074Y-104494203D01*
X174220309Y-104491053D01*
X174241750Y-104490000D01*
X174754250Y-104490000D01*
X174775691Y-104491053D01*
G37*
G36*
X174775691Y-102916053D02*
G01*
X174796926Y-102919203D01*
X174817750Y-102924419D01*
X174837962Y-102931651D01*
X174857368Y-102940830D01*
X174875781Y-102951866D01*
X174893024Y-102964654D01*
X174908930Y-102979070D01*
X174923346Y-102994976D01*
X174936134Y-103012219D01*
X174947170Y-103030632D01*
X174956349Y-103050038D01*
X174963581Y-103070250D01*
X174968797Y-103091074D01*
X174971947Y-103112309D01*
X174973000Y-103133750D01*
X174973000Y-103571250D01*
X174971947Y-103592691D01*
X174968797Y-103613926D01*
X174963581Y-103634750D01*
X174956349Y-103654962D01*
X174947170Y-103674368D01*
X174936134Y-103692781D01*
X174923346Y-103710024D01*
X174908930Y-103725930D01*
X174893024Y-103740346D01*
X174875781Y-103753134D01*
X174857368Y-103764170D01*
X174837962Y-103773349D01*
X174817750Y-103780581D01*
X174796926Y-103785797D01*
X174775691Y-103788947D01*
X174754250Y-103790000D01*
X174241750Y-103790000D01*
X174220309Y-103788947D01*
X174199074Y-103785797D01*
X174178250Y-103780581D01*
X174158038Y-103773349D01*
X174138632Y-103764170D01*
X174120219Y-103753134D01*
X174102976Y-103740346D01*
X174087070Y-103725930D01*
X174072654Y-103710024D01*
X174059866Y-103692781D01*
X174048830Y-103674368D01*
X174039651Y-103654962D01*
X174032419Y-103634750D01*
X174027203Y-103613926D01*
X174024053Y-103592691D01*
X174023000Y-103571250D01*
X174023000Y-103133750D01*
X174024053Y-103112309D01*
X174027203Y-103091074D01*
X174032419Y-103070250D01*
X174039651Y-103050038D01*
X174048830Y-103030632D01*
X174059866Y-103012219D01*
X174072654Y-102994976D01*
X174087070Y-102979070D01*
X174102976Y-102964654D01*
X174120219Y-102951866D01*
X174138632Y-102940830D01*
X174158038Y-102931651D01*
X174178250Y-102924419D01*
X174199074Y-102919203D01*
X174220309Y-102916053D01*
X174241750Y-102915000D01*
X174754250Y-102915000D01*
X174775691Y-102916053D01*
G37*
G36*
X174763691Y-105952053D02*
G01*
X174784926Y-105955203D01*
X174805750Y-105960419D01*
X174825962Y-105967651D01*
X174845368Y-105976830D01*
X174863781Y-105987866D01*
X174881024Y-106000654D01*
X174896930Y-106015070D01*
X174911346Y-106030976D01*
X174924134Y-106048219D01*
X174935170Y-106066632D01*
X174944349Y-106086038D01*
X174951581Y-106106250D01*
X174956797Y-106127074D01*
X174959947Y-106148309D01*
X174961000Y-106169750D01*
X174961000Y-106682250D01*
X174959947Y-106703691D01*
X174956797Y-106724926D01*
X174951581Y-106745750D01*
X174944349Y-106765962D01*
X174935170Y-106785368D01*
X174924134Y-106803781D01*
X174911346Y-106821024D01*
X174896930Y-106836930D01*
X174881024Y-106851346D01*
X174863781Y-106864134D01*
X174845368Y-106875170D01*
X174825962Y-106884349D01*
X174805750Y-106891581D01*
X174784926Y-106896797D01*
X174763691Y-106899947D01*
X174742250Y-106901000D01*
X174304750Y-106901000D01*
X174283309Y-106899947D01*
X174262074Y-106896797D01*
X174241250Y-106891581D01*
X174221038Y-106884349D01*
X174201632Y-106875170D01*
X174183219Y-106864134D01*
X174165976Y-106851346D01*
X174150070Y-106836930D01*
X174135654Y-106821024D01*
X174122866Y-106803781D01*
X174111830Y-106785368D01*
X174102651Y-106765962D01*
X174095419Y-106745750D01*
X174090203Y-106724926D01*
X174087053Y-106703691D01*
X174086000Y-106682250D01*
X174086000Y-106169750D01*
X174087053Y-106148309D01*
X174090203Y-106127074D01*
X174095419Y-106106250D01*
X174102651Y-106086038D01*
X174111830Y-106066632D01*
X174122866Y-106048219D01*
X174135654Y-106030976D01*
X174150070Y-106015070D01*
X174165976Y-106000654D01*
X174183219Y-105987866D01*
X174201632Y-105976830D01*
X174221038Y-105967651D01*
X174241250Y-105960419D01*
X174262074Y-105955203D01*
X174283309Y-105952053D01*
X174304750Y-105951000D01*
X174742250Y-105951000D01*
X174763691Y-105952053D01*
G37*
G36*
X173188691Y-105952053D02*
G01*
X173209926Y-105955203D01*
X173230750Y-105960419D01*
X173250962Y-105967651D01*
X173270368Y-105976830D01*
X173288781Y-105987866D01*
X173306024Y-106000654D01*
X173321930Y-106015070D01*
X173336346Y-106030976D01*
X173349134Y-106048219D01*
X173360170Y-106066632D01*
X173369349Y-106086038D01*
X173376581Y-106106250D01*
X173381797Y-106127074D01*
X173384947Y-106148309D01*
X173386000Y-106169750D01*
X173386000Y-106682250D01*
X173384947Y-106703691D01*
X173381797Y-106724926D01*
X173376581Y-106745750D01*
X173369349Y-106765962D01*
X173360170Y-106785368D01*
X173349134Y-106803781D01*
X173336346Y-106821024D01*
X173321930Y-106836930D01*
X173306024Y-106851346D01*
X173288781Y-106864134D01*
X173270368Y-106875170D01*
X173250962Y-106884349D01*
X173230750Y-106891581D01*
X173209926Y-106896797D01*
X173188691Y-106899947D01*
X173167250Y-106901000D01*
X172729750Y-106901000D01*
X172708309Y-106899947D01*
X172687074Y-106896797D01*
X172666250Y-106891581D01*
X172646038Y-106884349D01*
X172626632Y-106875170D01*
X172608219Y-106864134D01*
X172590976Y-106851346D01*
X172575070Y-106836930D01*
X172560654Y-106821024D01*
X172547866Y-106803781D01*
X172536830Y-106785368D01*
X172527651Y-106765962D01*
X172520419Y-106745750D01*
X172515203Y-106724926D01*
X172512053Y-106703691D01*
X172511000Y-106682250D01*
X172511000Y-106169750D01*
X172512053Y-106148309D01*
X172515203Y-106127074D01*
X172520419Y-106106250D01*
X172527651Y-106086038D01*
X172536830Y-106066632D01*
X172547866Y-106048219D01*
X172560654Y-106030976D01*
X172575070Y-106015070D01*
X172590976Y-106000654D01*
X172608219Y-105987866D01*
X172626632Y-105976830D01*
X172646038Y-105967651D01*
X172666250Y-105960419D01*
X172687074Y-105955203D01*
X172708309Y-105952053D01*
X172729750Y-105951000D01*
X173167250Y-105951000D01*
X173188691Y-105952053D01*
G37*
M02*
