G04 #@! TF.GenerationSoftware,KiCad,Pcbnew,(5.1.5)-3*
G04 #@! TF.CreationDate,2019-12-24T16:56:50-08:00*
G04 #@! TF.ProjectId,NBIoT Wing,4e42496f-5420-4576-996e-672e6b696361,rev?*
G04 #@! TF.SameCoordinates,Original*
G04 #@! TF.FileFunction,Soldermask,Top*
G04 #@! TF.FilePolarity,Negative*
%FSLAX46Y46*%
G04 Gerber Fmt 4.6, Leading zero omitted, Abs format (unit mm)*
G04 Created by KiCad (PCBNEW (5.1.5)-3) date 2019-12-24 16:56:50*
%MOMM*%
%LPD*%
G04 APERTURE LIST*
%ADD10C,0.100000*%
G04 APERTURE END LIST*
D10*
G36*
X136003512Y-109593927D02*
G01*
X136152812Y-109623624D01*
X136316784Y-109691544D01*
X136464354Y-109790147D01*
X136589853Y-109915646D01*
X136688456Y-110063216D01*
X136756376Y-110227188D01*
X136791000Y-110401259D01*
X136791000Y-110578741D01*
X136756376Y-110752812D01*
X136688456Y-110916784D01*
X136589853Y-111064354D01*
X136464354Y-111189853D01*
X136316784Y-111288456D01*
X136152812Y-111356376D01*
X136003512Y-111386073D01*
X135978742Y-111391000D01*
X135801258Y-111391000D01*
X135776488Y-111386073D01*
X135627188Y-111356376D01*
X135463216Y-111288456D01*
X135315646Y-111189853D01*
X135190147Y-111064354D01*
X135091544Y-110916784D01*
X135023624Y-110752812D01*
X134989000Y-110578741D01*
X134989000Y-110401259D01*
X135023624Y-110227188D01*
X135091544Y-110063216D01*
X135190147Y-109915646D01*
X135315646Y-109790147D01*
X135463216Y-109691544D01*
X135627188Y-109623624D01*
X135776488Y-109593927D01*
X135801258Y-109589000D01*
X135978742Y-109589000D01*
X136003512Y-109593927D01*
G37*
G36*
X156323512Y-109593927D02*
G01*
X156472812Y-109623624D01*
X156636784Y-109691544D01*
X156784354Y-109790147D01*
X156909853Y-109915646D01*
X157008456Y-110063216D01*
X157076376Y-110227188D01*
X157111000Y-110401259D01*
X157111000Y-110578741D01*
X157076376Y-110752812D01*
X157008456Y-110916784D01*
X156909853Y-111064354D01*
X156784354Y-111189853D01*
X156636784Y-111288456D01*
X156472812Y-111356376D01*
X156323512Y-111386073D01*
X156298742Y-111391000D01*
X156121258Y-111391000D01*
X156096488Y-111386073D01*
X155947188Y-111356376D01*
X155783216Y-111288456D01*
X155635646Y-111189853D01*
X155510147Y-111064354D01*
X155411544Y-110916784D01*
X155343624Y-110752812D01*
X155309000Y-110578741D01*
X155309000Y-110401259D01*
X155343624Y-110227188D01*
X155411544Y-110063216D01*
X155510147Y-109915646D01*
X155635646Y-109790147D01*
X155783216Y-109691544D01*
X155947188Y-109623624D01*
X156096488Y-109593927D01*
X156121258Y-109589000D01*
X156298742Y-109589000D01*
X156323512Y-109593927D01*
G37*
G36*
X174103512Y-109593927D02*
G01*
X174252812Y-109623624D01*
X174416784Y-109691544D01*
X174564354Y-109790147D01*
X174689853Y-109915646D01*
X174788456Y-110063216D01*
X174856376Y-110227188D01*
X174891000Y-110401259D01*
X174891000Y-110578741D01*
X174856376Y-110752812D01*
X174788456Y-110916784D01*
X174689853Y-111064354D01*
X174564354Y-111189853D01*
X174416784Y-111288456D01*
X174252812Y-111356376D01*
X174103512Y-111386073D01*
X174078742Y-111391000D01*
X173901258Y-111391000D01*
X173876488Y-111386073D01*
X173727188Y-111356376D01*
X173563216Y-111288456D01*
X173415646Y-111189853D01*
X173290147Y-111064354D01*
X173191544Y-110916784D01*
X173123624Y-110752812D01*
X173089000Y-110578741D01*
X173089000Y-110401259D01*
X173123624Y-110227188D01*
X173191544Y-110063216D01*
X173290147Y-109915646D01*
X173415646Y-109790147D01*
X173563216Y-109691544D01*
X173727188Y-109623624D01*
X173876488Y-109593927D01*
X173901258Y-109589000D01*
X174078742Y-109589000D01*
X174103512Y-109593927D01*
G37*
G36*
X169023512Y-109593927D02*
G01*
X169172812Y-109623624D01*
X169336784Y-109691544D01*
X169484354Y-109790147D01*
X169609853Y-109915646D01*
X169708456Y-110063216D01*
X169776376Y-110227188D01*
X169811000Y-110401259D01*
X169811000Y-110578741D01*
X169776376Y-110752812D01*
X169708456Y-110916784D01*
X169609853Y-111064354D01*
X169484354Y-111189853D01*
X169336784Y-111288456D01*
X169172812Y-111356376D01*
X169023512Y-111386073D01*
X168998742Y-111391000D01*
X168821258Y-111391000D01*
X168796488Y-111386073D01*
X168647188Y-111356376D01*
X168483216Y-111288456D01*
X168335646Y-111189853D01*
X168210147Y-111064354D01*
X168111544Y-110916784D01*
X168043624Y-110752812D01*
X168009000Y-110578741D01*
X168009000Y-110401259D01*
X168043624Y-110227188D01*
X168111544Y-110063216D01*
X168210147Y-109915646D01*
X168335646Y-109790147D01*
X168483216Y-109691544D01*
X168647188Y-109623624D01*
X168796488Y-109593927D01*
X168821258Y-109589000D01*
X168998742Y-109589000D01*
X169023512Y-109593927D01*
G37*
G36*
X166483512Y-109593927D02*
G01*
X166632812Y-109623624D01*
X166796784Y-109691544D01*
X166944354Y-109790147D01*
X167069853Y-109915646D01*
X167168456Y-110063216D01*
X167236376Y-110227188D01*
X167271000Y-110401259D01*
X167271000Y-110578741D01*
X167236376Y-110752812D01*
X167168456Y-110916784D01*
X167069853Y-111064354D01*
X166944354Y-111189853D01*
X166796784Y-111288456D01*
X166632812Y-111356376D01*
X166483512Y-111386073D01*
X166458742Y-111391000D01*
X166281258Y-111391000D01*
X166256488Y-111386073D01*
X166107188Y-111356376D01*
X165943216Y-111288456D01*
X165795646Y-111189853D01*
X165670147Y-111064354D01*
X165571544Y-110916784D01*
X165503624Y-110752812D01*
X165469000Y-110578741D01*
X165469000Y-110401259D01*
X165503624Y-110227188D01*
X165571544Y-110063216D01*
X165670147Y-109915646D01*
X165795646Y-109790147D01*
X165943216Y-109691544D01*
X166107188Y-109623624D01*
X166256488Y-109593927D01*
X166281258Y-109589000D01*
X166458742Y-109589000D01*
X166483512Y-109593927D01*
G37*
G36*
X163943512Y-109593927D02*
G01*
X164092812Y-109623624D01*
X164256784Y-109691544D01*
X164404354Y-109790147D01*
X164529853Y-109915646D01*
X164628456Y-110063216D01*
X164696376Y-110227188D01*
X164731000Y-110401259D01*
X164731000Y-110578741D01*
X164696376Y-110752812D01*
X164628456Y-110916784D01*
X164529853Y-111064354D01*
X164404354Y-111189853D01*
X164256784Y-111288456D01*
X164092812Y-111356376D01*
X163943512Y-111386073D01*
X163918742Y-111391000D01*
X163741258Y-111391000D01*
X163716488Y-111386073D01*
X163567188Y-111356376D01*
X163403216Y-111288456D01*
X163255646Y-111189853D01*
X163130147Y-111064354D01*
X163031544Y-110916784D01*
X162963624Y-110752812D01*
X162929000Y-110578741D01*
X162929000Y-110401259D01*
X162963624Y-110227188D01*
X163031544Y-110063216D01*
X163130147Y-109915646D01*
X163255646Y-109790147D01*
X163403216Y-109691544D01*
X163567188Y-109623624D01*
X163716488Y-109593927D01*
X163741258Y-109589000D01*
X163918742Y-109589000D01*
X163943512Y-109593927D01*
G37*
G36*
X161403512Y-109593927D02*
G01*
X161552812Y-109623624D01*
X161716784Y-109691544D01*
X161864354Y-109790147D01*
X161989853Y-109915646D01*
X162088456Y-110063216D01*
X162156376Y-110227188D01*
X162191000Y-110401259D01*
X162191000Y-110578741D01*
X162156376Y-110752812D01*
X162088456Y-110916784D01*
X161989853Y-111064354D01*
X161864354Y-111189853D01*
X161716784Y-111288456D01*
X161552812Y-111356376D01*
X161403512Y-111386073D01*
X161378742Y-111391000D01*
X161201258Y-111391000D01*
X161176488Y-111386073D01*
X161027188Y-111356376D01*
X160863216Y-111288456D01*
X160715646Y-111189853D01*
X160590147Y-111064354D01*
X160491544Y-110916784D01*
X160423624Y-110752812D01*
X160389000Y-110578741D01*
X160389000Y-110401259D01*
X160423624Y-110227188D01*
X160491544Y-110063216D01*
X160590147Y-109915646D01*
X160715646Y-109790147D01*
X160863216Y-109691544D01*
X161027188Y-109623624D01*
X161176488Y-109593927D01*
X161201258Y-109589000D01*
X161378742Y-109589000D01*
X161403512Y-109593927D01*
G37*
G36*
X158863512Y-109593927D02*
G01*
X159012812Y-109623624D01*
X159176784Y-109691544D01*
X159324354Y-109790147D01*
X159449853Y-109915646D01*
X159548456Y-110063216D01*
X159616376Y-110227188D01*
X159651000Y-110401259D01*
X159651000Y-110578741D01*
X159616376Y-110752812D01*
X159548456Y-110916784D01*
X159449853Y-111064354D01*
X159324354Y-111189853D01*
X159176784Y-111288456D01*
X159012812Y-111356376D01*
X158863512Y-111386073D01*
X158838742Y-111391000D01*
X158661258Y-111391000D01*
X158636488Y-111386073D01*
X158487188Y-111356376D01*
X158323216Y-111288456D01*
X158175646Y-111189853D01*
X158050147Y-111064354D01*
X157951544Y-110916784D01*
X157883624Y-110752812D01*
X157849000Y-110578741D01*
X157849000Y-110401259D01*
X157883624Y-110227188D01*
X157951544Y-110063216D01*
X158050147Y-109915646D01*
X158175646Y-109790147D01*
X158323216Y-109691544D01*
X158487188Y-109623624D01*
X158636488Y-109593927D01*
X158661258Y-109589000D01*
X158838742Y-109589000D01*
X158863512Y-109593927D01*
G37*
G36*
X171563512Y-109593927D02*
G01*
X171712812Y-109623624D01*
X171876784Y-109691544D01*
X172024354Y-109790147D01*
X172149853Y-109915646D01*
X172248456Y-110063216D01*
X172316376Y-110227188D01*
X172351000Y-110401259D01*
X172351000Y-110578741D01*
X172316376Y-110752812D01*
X172248456Y-110916784D01*
X172149853Y-111064354D01*
X172024354Y-111189853D01*
X171876784Y-111288456D01*
X171712812Y-111356376D01*
X171563512Y-111386073D01*
X171538742Y-111391000D01*
X171361258Y-111391000D01*
X171336488Y-111386073D01*
X171187188Y-111356376D01*
X171023216Y-111288456D01*
X170875646Y-111189853D01*
X170750147Y-111064354D01*
X170651544Y-110916784D01*
X170583624Y-110752812D01*
X170549000Y-110578741D01*
X170549000Y-110401259D01*
X170583624Y-110227188D01*
X170651544Y-110063216D01*
X170750147Y-109915646D01*
X170875646Y-109790147D01*
X171023216Y-109691544D01*
X171187188Y-109623624D01*
X171336488Y-109593927D01*
X171361258Y-109589000D01*
X171538742Y-109589000D01*
X171563512Y-109593927D01*
G37*
G36*
X151243512Y-109593927D02*
G01*
X151392812Y-109623624D01*
X151556784Y-109691544D01*
X151704354Y-109790147D01*
X151829853Y-109915646D01*
X151928456Y-110063216D01*
X151996376Y-110227188D01*
X152031000Y-110401259D01*
X152031000Y-110578741D01*
X151996376Y-110752812D01*
X151928456Y-110916784D01*
X151829853Y-111064354D01*
X151704354Y-111189853D01*
X151556784Y-111288456D01*
X151392812Y-111356376D01*
X151243512Y-111386073D01*
X151218742Y-111391000D01*
X151041258Y-111391000D01*
X151016488Y-111386073D01*
X150867188Y-111356376D01*
X150703216Y-111288456D01*
X150555646Y-111189853D01*
X150430147Y-111064354D01*
X150331544Y-110916784D01*
X150263624Y-110752812D01*
X150229000Y-110578741D01*
X150229000Y-110401259D01*
X150263624Y-110227188D01*
X150331544Y-110063216D01*
X150430147Y-109915646D01*
X150555646Y-109790147D01*
X150703216Y-109691544D01*
X150867188Y-109623624D01*
X151016488Y-109593927D01*
X151041258Y-109589000D01*
X151218742Y-109589000D01*
X151243512Y-109593927D01*
G37*
G36*
X148703512Y-109593927D02*
G01*
X148852812Y-109623624D01*
X149016784Y-109691544D01*
X149164354Y-109790147D01*
X149289853Y-109915646D01*
X149388456Y-110063216D01*
X149456376Y-110227188D01*
X149491000Y-110401259D01*
X149491000Y-110578741D01*
X149456376Y-110752812D01*
X149388456Y-110916784D01*
X149289853Y-111064354D01*
X149164354Y-111189853D01*
X149016784Y-111288456D01*
X148852812Y-111356376D01*
X148703512Y-111386073D01*
X148678742Y-111391000D01*
X148501258Y-111391000D01*
X148476488Y-111386073D01*
X148327188Y-111356376D01*
X148163216Y-111288456D01*
X148015646Y-111189853D01*
X147890147Y-111064354D01*
X147791544Y-110916784D01*
X147723624Y-110752812D01*
X147689000Y-110578741D01*
X147689000Y-110401259D01*
X147723624Y-110227188D01*
X147791544Y-110063216D01*
X147890147Y-109915646D01*
X148015646Y-109790147D01*
X148163216Y-109691544D01*
X148327188Y-109623624D01*
X148476488Y-109593927D01*
X148501258Y-109589000D01*
X148678742Y-109589000D01*
X148703512Y-109593927D01*
G37*
G36*
X146163512Y-109593927D02*
G01*
X146312812Y-109623624D01*
X146476784Y-109691544D01*
X146624354Y-109790147D01*
X146749853Y-109915646D01*
X146848456Y-110063216D01*
X146916376Y-110227188D01*
X146951000Y-110401259D01*
X146951000Y-110578741D01*
X146916376Y-110752812D01*
X146848456Y-110916784D01*
X146749853Y-111064354D01*
X146624354Y-111189853D01*
X146476784Y-111288456D01*
X146312812Y-111356376D01*
X146163512Y-111386073D01*
X146138742Y-111391000D01*
X145961258Y-111391000D01*
X145936488Y-111386073D01*
X145787188Y-111356376D01*
X145623216Y-111288456D01*
X145475646Y-111189853D01*
X145350147Y-111064354D01*
X145251544Y-110916784D01*
X145183624Y-110752812D01*
X145149000Y-110578741D01*
X145149000Y-110401259D01*
X145183624Y-110227188D01*
X145251544Y-110063216D01*
X145350147Y-109915646D01*
X145475646Y-109790147D01*
X145623216Y-109691544D01*
X145787188Y-109623624D01*
X145936488Y-109593927D01*
X145961258Y-109589000D01*
X146138742Y-109589000D01*
X146163512Y-109593927D01*
G37*
G36*
X143623512Y-109593927D02*
G01*
X143772812Y-109623624D01*
X143936784Y-109691544D01*
X144084354Y-109790147D01*
X144209853Y-109915646D01*
X144308456Y-110063216D01*
X144376376Y-110227188D01*
X144411000Y-110401259D01*
X144411000Y-110578741D01*
X144376376Y-110752812D01*
X144308456Y-110916784D01*
X144209853Y-111064354D01*
X144084354Y-111189853D01*
X143936784Y-111288456D01*
X143772812Y-111356376D01*
X143623512Y-111386073D01*
X143598742Y-111391000D01*
X143421258Y-111391000D01*
X143396488Y-111386073D01*
X143247188Y-111356376D01*
X143083216Y-111288456D01*
X142935646Y-111189853D01*
X142810147Y-111064354D01*
X142711544Y-110916784D01*
X142643624Y-110752812D01*
X142609000Y-110578741D01*
X142609000Y-110401259D01*
X142643624Y-110227188D01*
X142711544Y-110063216D01*
X142810147Y-109915646D01*
X142935646Y-109790147D01*
X143083216Y-109691544D01*
X143247188Y-109623624D01*
X143396488Y-109593927D01*
X143421258Y-109589000D01*
X143598742Y-109589000D01*
X143623512Y-109593927D01*
G37*
G36*
X141083512Y-109593927D02*
G01*
X141232812Y-109623624D01*
X141396784Y-109691544D01*
X141544354Y-109790147D01*
X141669853Y-109915646D01*
X141768456Y-110063216D01*
X141836376Y-110227188D01*
X141871000Y-110401259D01*
X141871000Y-110578741D01*
X141836376Y-110752812D01*
X141768456Y-110916784D01*
X141669853Y-111064354D01*
X141544354Y-111189853D01*
X141396784Y-111288456D01*
X141232812Y-111356376D01*
X141083512Y-111386073D01*
X141058742Y-111391000D01*
X140881258Y-111391000D01*
X140856488Y-111386073D01*
X140707188Y-111356376D01*
X140543216Y-111288456D01*
X140395646Y-111189853D01*
X140270147Y-111064354D01*
X140171544Y-110916784D01*
X140103624Y-110752812D01*
X140069000Y-110578741D01*
X140069000Y-110401259D01*
X140103624Y-110227188D01*
X140171544Y-110063216D01*
X140270147Y-109915646D01*
X140395646Y-109790147D01*
X140543216Y-109691544D01*
X140707188Y-109623624D01*
X140856488Y-109593927D01*
X140881258Y-109589000D01*
X141058742Y-109589000D01*
X141083512Y-109593927D01*
G37*
G36*
X138543512Y-109593927D02*
G01*
X138692812Y-109623624D01*
X138856784Y-109691544D01*
X139004354Y-109790147D01*
X139129853Y-109915646D01*
X139228456Y-110063216D01*
X139296376Y-110227188D01*
X139331000Y-110401259D01*
X139331000Y-110578741D01*
X139296376Y-110752812D01*
X139228456Y-110916784D01*
X139129853Y-111064354D01*
X139004354Y-111189853D01*
X138856784Y-111288456D01*
X138692812Y-111356376D01*
X138543512Y-111386073D01*
X138518742Y-111391000D01*
X138341258Y-111391000D01*
X138316488Y-111386073D01*
X138167188Y-111356376D01*
X138003216Y-111288456D01*
X137855646Y-111189853D01*
X137730147Y-111064354D01*
X137631544Y-110916784D01*
X137563624Y-110752812D01*
X137529000Y-110578741D01*
X137529000Y-110401259D01*
X137563624Y-110227188D01*
X137631544Y-110063216D01*
X137730147Y-109915646D01*
X137855646Y-109790147D01*
X138003216Y-109691544D01*
X138167188Y-109623624D01*
X138316488Y-109593927D01*
X138341258Y-109589000D01*
X138518742Y-109589000D01*
X138543512Y-109593927D01*
G37*
G36*
X153783512Y-109593927D02*
G01*
X153932812Y-109623624D01*
X154096784Y-109691544D01*
X154244354Y-109790147D01*
X154369853Y-109915646D01*
X154468456Y-110063216D01*
X154536376Y-110227188D01*
X154571000Y-110401259D01*
X154571000Y-110578741D01*
X154536376Y-110752812D01*
X154468456Y-110916784D01*
X154369853Y-111064354D01*
X154244354Y-111189853D01*
X154096784Y-111288456D01*
X153932812Y-111356376D01*
X153783512Y-111386073D01*
X153758742Y-111391000D01*
X153581258Y-111391000D01*
X153556488Y-111386073D01*
X153407188Y-111356376D01*
X153243216Y-111288456D01*
X153095646Y-111189853D01*
X152970147Y-111064354D01*
X152871544Y-110916784D01*
X152803624Y-110752812D01*
X152769000Y-110578741D01*
X152769000Y-110401259D01*
X152803624Y-110227188D01*
X152871544Y-110063216D01*
X152970147Y-109915646D01*
X153095646Y-109790147D01*
X153243216Y-109691544D01*
X153407188Y-109623624D01*
X153556488Y-109593927D01*
X153581258Y-109589000D01*
X153758742Y-109589000D01*
X153783512Y-109593927D01*
G37*
G36*
X178044195Y-107403741D02*
G01*
X178333500Y-107461287D01*
X178471373Y-107518396D01*
X178666355Y-107599160D01*
X178666356Y-107599161D01*
X178965920Y-107799323D01*
X179220677Y-108054080D01*
X179220678Y-108054082D01*
X179420840Y-108353645D01*
X179558713Y-108686501D01*
X179629000Y-109039858D01*
X179629000Y-109400142D01*
X179558713Y-109753499D01*
X179420840Y-110086355D01*
X179420839Y-110086356D01*
X179220677Y-110385920D01*
X178965920Y-110640677D01*
X178815120Y-110741438D01*
X178666355Y-110840840D01*
X178483014Y-110916782D01*
X178333500Y-110978713D01*
X178156820Y-111013857D01*
X177980142Y-111049000D01*
X177619858Y-111049000D01*
X177443180Y-111013857D01*
X177266500Y-110978713D01*
X177116986Y-110916782D01*
X176933645Y-110840840D01*
X176784880Y-110741438D01*
X176634080Y-110640677D01*
X176379323Y-110385920D01*
X176179161Y-110086356D01*
X176179160Y-110086355D01*
X176041287Y-109753499D01*
X175971000Y-109400142D01*
X175971000Y-109039858D01*
X176041287Y-108686501D01*
X176179160Y-108353645D01*
X176379322Y-108054082D01*
X176379323Y-108054080D01*
X176634080Y-107799323D01*
X176933644Y-107599161D01*
X176933645Y-107599160D01*
X177128627Y-107518396D01*
X177266500Y-107461287D01*
X177555805Y-107403741D01*
X177619858Y-107391000D01*
X177980142Y-107391000D01*
X178044195Y-107403741D01*
G37*
G36*
X132324195Y-107403741D02*
G01*
X132613500Y-107461287D01*
X132751373Y-107518396D01*
X132946355Y-107599160D01*
X132946356Y-107599161D01*
X133245920Y-107799323D01*
X133500677Y-108054080D01*
X133500678Y-108054082D01*
X133700840Y-108353645D01*
X133838713Y-108686501D01*
X133909000Y-109039858D01*
X133909000Y-109400142D01*
X133838713Y-109753499D01*
X133700840Y-110086355D01*
X133700839Y-110086356D01*
X133500677Y-110385920D01*
X133245920Y-110640677D01*
X133095120Y-110741438D01*
X132946355Y-110840840D01*
X132763014Y-110916782D01*
X132613500Y-110978713D01*
X132436820Y-111013857D01*
X132260142Y-111049000D01*
X131899858Y-111049000D01*
X131723180Y-111013857D01*
X131546500Y-110978713D01*
X131396986Y-110916782D01*
X131213645Y-110840840D01*
X131064880Y-110741438D01*
X130914080Y-110640677D01*
X130659323Y-110385920D01*
X130459161Y-110086356D01*
X130459160Y-110086355D01*
X130321287Y-109753499D01*
X130251000Y-109400142D01*
X130251000Y-109039858D01*
X130321287Y-108686501D01*
X130459160Y-108353645D01*
X130659322Y-108054082D01*
X130659323Y-108054080D01*
X130914080Y-107799323D01*
X131213644Y-107599161D01*
X131213645Y-107599160D01*
X131408627Y-107518396D01*
X131546500Y-107461287D01*
X131835805Y-107403741D01*
X131899858Y-107391000D01*
X132260142Y-107391000D01*
X132324195Y-107403741D01*
G37*
G36*
X164061000Y-108581000D02*
G01*
X163259000Y-108581000D01*
X163259000Y-106679000D01*
X164061000Y-106679000D01*
X164061000Y-108581000D01*
G37*
G36*
X160761000Y-108581000D02*
G01*
X159959000Y-108581000D01*
X159959000Y-106679000D01*
X160761000Y-106679000D01*
X160761000Y-108581000D01*
G37*
G36*
X168461000Y-108581000D02*
G01*
X167659000Y-108581000D01*
X167659000Y-106679000D01*
X168461000Y-106679000D01*
X168461000Y-108581000D01*
G37*
G36*
X167361000Y-108581000D02*
G01*
X166559000Y-108581000D01*
X166559000Y-106679000D01*
X167361000Y-106679000D01*
X167361000Y-108581000D01*
G37*
G36*
X166261000Y-108581000D02*
G01*
X165459000Y-108581000D01*
X165459000Y-106679000D01*
X166261000Y-106679000D01*
X166261000Y-108581000D01*
G37*
G36*
X165161000Y-108581000D02*
G01*
X164359000Y-108581000D01*
X164359000Y-106679000D01*
X165161000Y-106679000D01*
X165161000Y-108581000D01*
G37*
G36*
X162961000Y-108581000D02*
G01*
X162159000Y-108581000D01*
X162159000Y-106679000D01*
X162961000Y-106679000D01*
X162961000Y-108581000D01*
G37*
G36*
X161861000Y-108581000D02*
G01*
X161059000Y-108581000D01*
X161059000Y-106679000D01*
X161861000Y-106679000D01*
X161861000Y-108581000D01*
G37*
G36*
X159661000Y-108581000D02*
G01*
X158859000Y-108581000D01*
X158859000Y-106679000D01*
X159661000Y-106679000D01*
X159661000Y-108581000D01*
G37*
G36*
X158561000Y-108581000D02*
G01*
X157759000Y-108581000D01*
X157759000Y-106679000D01*
X158561000Y-106679000D01*
X158561000Y-108581000D01*
G37*
G36*
X157461000Y-108581000D02*
G01*
X156659000Y-108581000D01*
X156659000Y-106679000D01*
X157461000Y-106679000D01*
X157461000Y-108581000D01*
G37*
G36*
X156361000Y-108581000D02*
G01*
X155559000Y-108581000D01*
X155559000Y-106679000D01*
X156361000Y-106679000D01*
X156361000Y-108581000D01*
G37*
G36*
X169561000Y-108581000D02*
G01*
X168759000Y-108581000D01*
X168759000Y-106679000D01*
X169561000Y-106679000D01*
X169561000Y-108581000D01*
G37*
G36*
X141972512Y-106418927D02*
G01*
X142121812Y-106448624D01*
X142285784Y-106516544D01*
X142433354Y-106615147D01*
X142558853Y-106740646D01*
X142657456Y-106888216D01*
X142725376Y-107052188D01*
X142760000Y-107226259D01*
X142760000Y-107403741D01*
X142725376Y-107577812D01*
X142657456Y-107741784D01*
X142558853Y-107889354D01*
X142433354Y-108014853D01*
X142285784Y-108113456D01*
X142121812Y-108181376D01*
X141972512Y-108211073D01*
X141947742Y-108216000D01*
X141770258Y-108216000D01*
X141745488Y-108211073D01*
X141596188Y-108181376D01*
X141432216Y-108113456D01*
X141284646Y-108014853D01*
X141159147Y-107889354D01*
X141060544Y-107741784D01*
X140992624Y-107577812D01*
X140958000Y-107403741D01*
X140958000Y-107226259D01*
X140992624Y-107052188D01*
X141060544Y-106888216D01*
X141159147Y-106740646D01*
X141284646Y-106615147D01*
X141432216Y-106516544D01*
X141596188Y-106448624D01*
X141745488Y-106418927D01*
X141770258Y-106414000D01*
X141947742Y-106414000D01*
X141972512Y-106418927D01*
G37*
G36*
X139432512Y-106418927D02*
G01*
X139581812Y-106448624D01*
X139745784Y-106516544D01*
X139893354Y-106615147D01*
X140018853Y-106740646D01*
X140117456Y-106888216D01*
X140185376Y-107052188D01*
X140220000Y-107226259D01*
X140220000Y-107403741D01*
X140185376Y-107577812D01*
X140117456Y-107741784D01*
X140018853Y-107889354D01*
X139893354Y-108014853D01*
X139745784Y-108113456D01*
X139581812Y-108181376D01*
X139432512Y-108211073D01*
X139407742Y-108216000D01*
X139230258Y-108216000D01*
X139205488Y-108211073D01*
X139056188Y-108181376D01*
X138892216Y-108113456D01*
X138744646Y-108014853D01*
X138619147Y-107889354D01*
X138520544Y-107741784D01*
X138452624Y-107577812D01*
X138418000Y-107403741D01*
X138418000Y-107226259D01*
X138452624Y-107052188D01*
X138520544Y-106888216D01*
X138619147Y-106740646D01*
X138744646Y-106615147D01*
X138892216Y-106516544D01*
X139056188Y-106448624D01*
X139205488Y-106418927D01*
X139230258Y-106414000D01*
X139407742Y-106414000D01*
X139432512Y-106418927D01*
G37*
G36*
X136892512Y-106418927D02*
G01*
X137041812Y-106448624D01*
X137205784Y-106516544D01*
X137353354Y-106615147D01*
X137478853Y-106740646D01*
X137577456Y-106888216D01*
X137645376Y-107052188D01*
X137680000Y-107226259D01*
X137680000Y-107403741D01*
X137645376Y-107577812D01*
X137577456Y-107741784D01*
X137478853Y-107889354D01*
X137353354Y-108014853D01*
X137205784Y-108113456D01*
X137041812Y-108181376D01*
X136892512Y-108211073D01*
X136867742Y-108216000D01*
X136690258Y-108216000D01*
X136665488Y-108211073D01*
X136516188Y-108181376D01*
X136352216Y-108113456D01*
X136204646Y-108014853D01*
X136079147Y-107889354D01*
X135980544Y-107741784D01*
X135912624Y-107577812D01*
X135878000Y-107403741D01*
X135878000Y-107226259D01*
X135912624Y-107052188D01*
X135980544Y-106888216D01*
X136079147Y-106740646D01*
X136204646Y-106615147D01*
X136352216Y-106516544D01*
X136516188Y-106448624D01*
X136665488Y-106418927D01*
X136690258Y-106414000D01*
X136867742Y-106414000D01*
X136892512Y-106418927D01*
G37*
G36*
X147741000Y-107957000D02*
G01*
X146899000Y-107957000D01*
X146899000Y-106955000D01*
X147741000Y-106955000D01*
X147741000Y-107957000D01*
G37*
G36*
X146521000Y-103530001D02*
G01*
X146523402Y-103554387D01*
X146530515Y-103577836D01*
X146542066Y-103599447D01*
X146557611Y-103618389D01*
X146576553Y-103633934D01*
X146598164Y-103645485D01*
X146621613Y-103652598D01*
X146645999Y-103655000D01*
X147994001Y-103655000D01*
X148018387Y-103652598D01*
X148041836Y-103645485D01*
X148063447Y-103633934D01*
X148082389Y-103618389D01*
X148097934Y-103599447D01*
X148109485Y-103577836D01*
X148116598Y-103554387D01*
X148119000Y-103530001D01*
X148119000Y-103235000D01*
X149121000Y-103235000D01*
X149121000Y-107077000D01*
X148119000Y-107077000D01*
X148119000Y-106781999D01*
X148116598Y-106757613D01*
X148109485Y-106734164D01*
X148097934Y-106712553D01*
X148082389Y-106693611D01*
X148063447Y-106678066D01*
X148041836Y-106666515D01*
X148018387Y-106659402D01*
X147994001Y-106657000D01*
X146645999Y-106657000D01*
X146621613Y-106659402D01*
X146598164Y-106666515D01*
X146576553Y-106678066D01*
X146557611Y-106693611D01*
X146542066Y-106712553D01*
X146530515Y-106734164D01*
X146523402Y-106757613D01*
X146521000Y-106781999D01*
X146521000Y-107077000D01*
X145519000Y-107077000D01*
X145519000Y-103235000D01*
X146521000Y-103235000D01*
X146521000Y-103530001D01*
G37*
G36*
X174865591Y-105904085D02*
G01*
X174899569Y-105914393D01*
X174930890Y-105931134D01*
X174958339Y-105953661D01*
X174980866Y-105981110D01*
X174997607Y-106012431D01*
X175007915Y-106046409D01*
X175012000Y-106087890D01*
X175012000Y-106764110D01*
X175007915Y-106805591D01*
X174997607Y-106839569D01*
X174980866Y-106870890D01*
X174958339Y-106898339D01*
X174930890Y-106920866D01*
X174899569Y-106937607D01*
X174865591Y-106947915D01*
X174824110Y-106952000D01*
X174222890Y-106952000D01*
X174181409Y-106947915D01*
X174147431Y-106937607D01*
X174116110Y-106920866D01*
X174088661Y-106898339D01*
X174066134Y-106870890D01*
X174049393Y-106839569D01*
X174039085Y-106805591D01*
X174035000Y-106764110D01*
X174035000Y-106087890D01*
X174039085Y-106046409D01*
X174049393Y-106012431D01*
X174066134Y-105981110D01*
X174088661Y-105953661D01*
X174116110Y-105931134D01*
X174147431Y-105914393D01*
X174181409Y-105904085D01*
X174222890Y-105900000D01*
X174824110Y-105900000D01*
X174865591Y-105904085D01*
G37*
G36*
X173290591Y-105904085D02*
G01*
X173324569Y-105914393D01*
X173355890Y-105931134D01*
X173383339Y-105953661D01*
X173405866Y-105981110D01*
X173422607Y-106012431D01*
X173432915Y-106046409D01*
X173437000Y-106087890D01*
X173437000Y-106764110D01*
X173432915Y-106805591D01*
X173422607Y-106839569D01*
X173405866Y-106870890D01*
X173383339Y-106898339D01*
X173355890Y-106920866D01*
X173324569Y-106937607D01*
X173290591Y-106947915D01*
X173249110Y-106952000D01*
X172647890Y-106952000D01*
X172606409Y-106947915D01*
X172572431Y-106937607D01*
X172541110Y-106920866D01*
X172513661Y-106898339D01*
X172491134Y-106870890D01*
X172474393Y-106839569D01*
X172464085Y-106805591D01*
X172460000Y-106764110D01*
X172460000Y-106087890D01*
X172464085Y-106046409D01*
X172474393Y-106012431D01*
X172491134Y-105981110D01*
X172513661Y-105953661D01*
X172541110Y-105931134D01*
X172572431Y-105914393D01*
X172606409Y-105904085D01*
X172647890Y-105900000D01*
X173249110Y-105900000D01*
X173290591Y-105904085D01*
G37*
G36*
X178951000Y-106191000D02*
G01*
X176649000Y-106191000D01*
X176649000Y-105039000D01*
X178951000Y-105039000D01*
X178951000Y-106191000D01*
G37*
G36*
X139432512Y-103878927D02*
G01*
X139581812Y-103908624D01*
X139745784Y-103976544D01*
X139893354Y-104075147D01*
X140018853Y-104200646D01*
X140117456Y-104348216D01*
X140185376Y-104512188D01*
X140208191Y-104626890D01*
X140219402Y-104683250D01*
X140220000Y-104686259D01*
X140220000Y-104863741D01*
X140185376Y-105037812D01*
X140117456Y-105201784D01*
X140018853Y-105349354D01*
X139893354Y-105474853D01*
X139745784Y-105573456D01*
X139581812Y-105641376D01*
X139432512Y-105671073D01*
X139407742Y-105676000D01*
X139230258Y-105676000D01*
X139205488Y-105671073D01*
X139056188Y-105641376D01*
X138892216Y-105573456D01*
X138744646Y-105474853D01*
X138619147Y-105349354D01*
X138520544Y-105201784D01*
X138452624Y-105037812D01*
X138418000Y-104863741D01*
X138418000Y-104686259D01*
X138418599Y-104683250D01*
X138429809Y-104626890D01*
X138452624Y-104512188D01*
X138520544Y-104348216D01*
X138619147Y-104200646D01*
X138744646Y-104075147D01*
X138892216Y-103976544D01*
X139056188Y-103908624D01*
X139205488Y-103878927D01*
X139230258Y-103874000D01*
X139407742Y-103874000D01*
X139432512Y-103878927D01*
G37*
G36*
X136892512Y-103878927D02*
G01*
X137041812Y-103908624D01*
X137205784Y-103976544D01*
X137353354Y-104075147D01*
X137478853Y-104200646D01*
X137577456Y-104348216D01*
X137645376Y-104512188D01*
X137668191Y-104626890D01*
X137679402Y-104683250D01*
X137680000Y-104686259D01*
X137680000Y-104863741D01*
X137645376Y-105037812D01*
X137577456Y-105201784D01*
X137478853Y-105349354D01*
X137353354Y-105474853D01*
X137205784Y-105573456D01*
X137041812Y-105641376D01*
X136892512Y-105671073D01*
X136867742Y-105676000D01*
X136690258Y-105676000D01*
X136665488Y-105671073D01*
X136516188Y-105641376D01*
X136352216Y-105573456D01*
X136204646Y-105474853D01*
X136079147Y-105349354D01*
X135980544Y-105201784D01*
X135912624Y-105037812D01*
X135878000Y-104863741D01*
X135878000Y-104686259D01*
X135878599Y-104683250D01*
X135889809Y-104626890D01*
X135912624Y-104512188D01*
X135980544Y-104348216D01*
X136079147Y-104200646D01*
X136204646Y-104075147D01*
X136352216Y-103976544D01*
X136516188Y-103908624D01*
X136665488Y-103878927D01*
X136690258Y-103874000D01*
X136867742Y-103874000D01*
X136892512Y-103878927D01*
G37*
G36*
X141972512Y-103878927D02*
G01*
X142121812Y-103908624D01*
X142285784Y-103976544D01*
X142433354Y-104075147D01*
X142558853Y-104200646D01*
X142657456Y-104348216D01*
X142725376Y-104512188D01*
X142748191Y-104626890D01*
X142759402Y-104683250D01*
X142760000Y-104686259D01*
X142760000Y-104863741D01*
X142725376Y-105037812D01*
X142657456Y-105201784D01*
X142558853Y-105349354D01*
X142433354Y-105474853D01*
X142285784Y-105573456D01*
X142121812Y-105641376D01*
X141972512Y-105671073D01*
X141947742Y-105676000D01*
X141770258Y-105676000D01*
X141745488Y-105671073D01*
X141596188Y-105641376D01*
X141432216Y-105573456D01*
X141284646Y-105474853D01*
X141159147Y-105349354D01*
X141060544Y-105201784D01*
X140992624Y-105037812D01*
X140958000Y-104863741D01*
X140958000Y-104686259D01*
X140958599Y-104683250D01*
X140969809Y-104626890D01*
X140992624Y-104512188D01*
X141060544Y-104348216D01*
X141159147Y-104200646D01*
X141284646Y-104075147D01*
X141432216Y-103976544D01*
X141596188Y-103908624D01*
X141745488Y-103878927D01*
X141770258Y-103874000D01*
X141947742Y-103874000D01*
X141972512Y-103878927D01*
G37*
G36*
X174877591Y-104443085D02*
G01*
X174911569Y-104453393D01*
X174942890Y-104470134D01*
X174970339Y-104492661D01*
X174992866Y-104520110D01*
X175009607Y-104551431D01*
X175019915Y-104585409D01*
X175024000Y-104626890D01*
X175024000Y-105228110D01*
X175019915Y-105269591D01*
X175009607Y-105303569D01*
X174992866Y-105334890D01*
X174970339Y-105362339D01*
X174942890Y-105384866D01*
X174911569Y-105401607D01*
X174877591Y-105411915D01*
X174836110Y-105416000D01*
X174159890Y-105416000D01*
X174118409Y-105411915D01*
X174084431Y-105401607D01*
X174053110Y-105384866D01*
X174025661Y-105362339D01*
X174003134Y-105334890D01*
X173986393Y-105303569D01*
X173976085Y-105269591D01*
X173972000Y-105228110D01*
X173972000Y-104626890D01*
X173976085Y-104585409D01*
X173986393Y-104551431D01*
X174003134Y-104520110D01*
X174025661Y-104492661D01*
X174053110Y-104470134D01*
X174084431Y-104453393D01*
X174118409Y-104443085D01*
X174159890Y-104439000D01*
X174836110Y-104439000D01*
X174877591Y-104443085D01*
G37*
G36*
X173353591Y-104443085D02*
G01*
X173387569Y-104453393D01*
X173418890Y-104470134D01*
X173446339Y-104492661D01*
X173468866Y-104520110D01*
X173485607Y-104551431D01*
X173495915Y-104585409D01*
X173500000Y-104626890D01*
X173500000Y-105228110D01*
X173495915Y-105269591D01*
X173485607Y-105303569D01*
X173468866Y-105334890D01*
X173446339Y-105362339D01*
X173418890Y-105384866D01*
X173387569Y-105401607D01*
X173353591Y-105411915D01*
X173312110Y-105416000D01*
X172635890Y-105416000D01*
X172594409Y-105411915D01*
X172560431Y-105401607D01*
X172529110Y-105384866D01*
X172501661Y-105362339D01*
X172479134Y-105334890D01*
X172462393Y-105303569D01*
X172452085Y-105269591D01*
X172448000Y-105228110D01*
X172448000Y-104626890D01*
X172452085Y-104585409D01*
X172462393Y-104551431D01*
X172479134Y-104520110D01*
X172501661Y-104492661D01*
X172529110Y-104470134D01*
X172560431Y-104453393D01*
X172594409Y-104443085D01*
X172635890Y-104439000D01*
X173312110Y-104439000D01*
X173353591Y-104443085D01*
G37*
G36*
X171761000Y-105131000D02*
G01*
X169859000Y-105131000D01*
X169859000Y-104329000D01*
X171761000Y-104329000D01*
X171761000Y-105131000D01*
G37*
G36*
X155261000Y-105131000D02*
G01*
X153359000Y-105131000D01*
X153359000Y-104329000D01*
X155261000Y-104329000D01*
X155261000Y-105131000D01*
G37*
G36*
X176851000Y-104691000D02*
G01*
X175749000Y-104691000D01*
X175749000Y-103589000D01*
X176851000Y-103589000D01*
X176851000Y-104691000D01*
G37*
G36*
X179851000Y-104691000D02*
G01*
X178749000Y-104691000D01*
X178749000Y-103589000D01*
X179851000Y-103589000D01*
X179851000Y-104691000D01*
G37*
G36*
X164011000Y-104481000D02*
G01*
X162909000Y-104481000D01*
X162909000Y-103379000D01*
X164011000Y-103379000D01*
X164011000Y-104481000D01*
G37*
G36*
X165811000Y-104481000D02*
G01*
X164709000Y-104481000D01*
X164709000Y-103379000D01*
X165811000Y-103379000D01*
X165811000Y-104481000D01*
G37*
G36*
X160411000Y-104481000D02*
G01*
X159309000Y-104481000D01*
X159309000Y-103379000D01*
X160411000Y-103379000D01*
X160411000Y-104481000D01*
G37*
G36*
X162211000Y-104481000D02*
G01*
X161109000Y-104481000D01*
X161109000Y-103379000D01*
X162211000Y-103379000D01*
X162211000Y-104481000D01*
G37*
G36*
X134790818Y-102132696D02*
G01*
X134843300Y-102148617D01*
X134867333Y-102153398D01*
X134879586Y-102154000D01*
X135274000Y-102154000D01*
X135274000Y-102689341D01*
X135274602Y-102701593D01*
X135276907Y-102725000D01*
X135274602Y-102748407D01*
X135274000Y-102760659D01*
X135274000Y-104256000D01*
X133678999Y-104256000D01*
X133654613Y-104258402D01*
X133631164Y-104265515D01*
X133625579Y-104268500D01*
X132752000Y-104268500D01*
X132752000Y-103905999D01*
X132749598Y-103881613D01*
X132742485Y-103858164D01*
X132730934Y-103836553D01*
X132715389Y-103817611D01*
X132696447Y-103802066D01*
X132674836Y-103790515D01*
X132651387Y-103783402D01*
X132627001Y-103781000D01*
X131298653Y-103781000D01*
X131296447Y-103779190D01*
X131274836Y-103767639D01*
X131251387Y-103760526D01*
X131239255Y-103758726D01*
X131155679Y-103750495D01*
X131018828Y-103708981D01*
X131018825Y-103708980D01*
X130892706Y-103641568D01*
X130782157Y-103550843D01*
X130691432Y-103440294D01*
X130624020Y-103314175D01*
X130614544Y-103282937D01*
X130582505Y-103177321D01*
X130568488Y-103035000D01*
X130582505Y-102892679D01*
X130624019Y-102755828D01*
X130624020Y-102755825D01*
X130691432Y-102629706D01*
X130782157Y-102519157D01*
X130892706Y-102428432D01*
X131018825Y-102361020D01*
X131038670Y-102355000D01*
X131155679Y-102319505D01*
X131226787Y-102312502D01*
X131262340Y-102309000D01*
X131683660Y-102309000D01*
X131790322Y-102319505D01*
X131803876Y-102323617D01*
X131827909Y-102328398D01*
X131840162Y-102329000D01*
X133547001Y-102329000D01*
X133571387Y-102326598D01*
X133594836Y-102319485D01*
X133616447Y-102307934D01*
X133635389Y-102292389D01*
X133650934Y-102273447D01*
X133662485Y-102251836D01*
X133669598Y-102228387D01*
X133672000Y-102204001D01*
X133672000Y-102154000D01*
X134066414Y-102154000D01*
X134090800Y-102151598D01*
X134102700Y-102148617D01*
X134155182Y-102132696D01*
X134243481Y-102124000D01*
X134702519Y-102124000D01*
X134790818Y-102132696D01*
G37*
G36*
X171761000Y-104031000D02*
G01*
X169859000Y-104031000D01*
X169859000Y-103229000D01*
X171761000Y-103229000D01*
X171761000Y-104031000D01*
G37*
G36*
X155261000Y-104031000D02*
G01*
X153359000Y-104031000D01*
X153359000Y-103229000D01*
X155261000Y-103229000D01*
X155261000Y-104031000D01*
G37*
G36*
X173353591Y-102868085D02*
G01*
X173387569Y-102878393D01*
X173418890Y-102895134D01*
X173446339Y-102917661D01*
X173468866Y-102945110D01*
X173485607Y-102976431D01*
X173495915Y-103010409D01*
X173500000Y-103051890D01*
X173500000Y-103653110D01*
X173495915Y-103694591D01*
X173485607Y-103728569D01*
X173468866Y-103759890D01*
X173446339Y-103787339D01*
X173418890Y-103809866D01*
X173387569Y-103826607D01*
X173353591Y-103836915D01*
X173312110Y-103841000D01*
X172635890Y-103841000D01*
X172594409Y-103836915D01*
X172560431Y-103826607D01*
X172529110Y-103809866D01*
X172501661Y-103787339D01*
X172479134Y-103759890D01*
X172462393Y-103728569D01*
X172452085Y-103694591D01*
X172448000Y-103653110D01*
X172448000Y-103051890D01*
X172452085Y-103010409D01*
X172462393Y-102976431D01*
X172479134Y-102945110D01*
X172501661Y-102917661D01*
X172529110Y-102895134D01*
X172560431Y-102878393D01*
X172594409Y-102868085D01*
X172635890Y-102864000D01*
X173312110Y-102864000D01*
X173353591Y-102868085D01*
G37*
G36*
X174877591Y-102868085D02*
G01*
X174911569Y-102878393D01*
X174942890Y-102895134D01*
X174970339Y-102917661D01*
X174992866Y-102945110D01*
X175009607Y-102976431D01*
X175019915Y-103010409D01*
X175024000Y-103051890D01*
X175024000Y-103653110D01*
X175019915Y-103694591D01*
X175009607Y-103728569D01*
X174992866Y-103759890D01*
X174970339Y-103787339D01*
X174942890Y-103809866D01*
X174911569Y-103826607D01*
X174877591Y-103836915D01*
X174836110Y-103841000D01*
X174159890Y-103841000D01*
X174118409Y-103836915D01*
X174084431Y-103826607D01*
X174053110Y-103809866D01*
X174025661Y-103787339D01*
X174003134Y-103759890D01*
X173986393Y-103728569D01*
X173976085Y-103694591D01*
X173972000Y-103653110D01*
X173972000Y-103051890D01*
X173976085Y-103010409D01*
X173986393Y-102976431D01*
X174003134Y-102945110D01*
X174025661Y-102917661D01*
X174053110Y-102895134D01*
X174084431Y-102878393D01*
X174118409Y-102868085D01*
X174159890Y-102864000D01*
X174836110Y-102864000D01*
X174877591Y-102868085D01*
G37*
G36*
X147741000Y-103357000D02*
G01*
X146899000Y-103357000D01*
X146899000Y-102355000D01*
X147741000Y-102355000D01*
X147741000Y-103357000D01*
G37*
G36*
X178951000Y-103241000D02*
G01*
X176649000Y-103241000D01*
X176649000Y-102089000D01*
X178951000Y-102089000D01*
X178951000Y-103241000D01*
G37*
G36*
X171761000Y-102931000D02*
G01*
X169859000Y-102931000D01*
X169859000Y-102129000D01*
X171761000Y-102129000D01*
X171761000Y-102931000D01*
G37*
G36*
X155261000Y-102931000D02*
G01*
X153359000Y-102931000D01*
X153359000Y-102129000D01*
X155261000Y-102129000D01*
X155261000Y-102931000D01*
G37*
G36*
X158611000Y-102681000D02*
G01*
X157509000Y-102681000D01*
X157509000Y-101579000D01*
X158611000Y-101579000D01*
X158611000Y-102681000D01*
G37*
G36*
X167611000Y-102681000D02*
G01*
X166509000Y-102681000D01*
X166509000Y-101579000D01*
X167611000Y-101579000D01*
X167611000Y-102681000D01*
G37*
G36*
X173290591Y-101332085D02*
G01*
X173324569Y-101342393D01*
X173355890Y-101359134D01*
X173383339Y-101381661D01*
X173405866Y-101409110D01*
X173422607Y-101440431D01*
X173432915Y-101474409D01*
X173437000Y-101515890D01*
X173437000Y-102192110D01*
X173432915Y-102233591D01*
X173422607Y-102267569D01*
X173405866Y-102298890D01*
X173383339Y-102326339D01*
X173355890Y-102348866D01*
X173324569Y-102365607D01*
X173290591Y-102375915D01*
X173249110Y-102380000D01*
X172647890Y-102380000D01*
X172606409Y-102375915D01*
X172572431Y-102365607D01*
X172541110Y-102348866D01*
X172513661Y-102326339D01*
X172491134Y-102298890D01*
X172474393Y-102267569D01*
X172464085Y-102233591D01*
X172460000Y-102192110D01*
X172460000Y-101515890D01*
X172464085Y-101474409D01*
X172474393Y-101440431D01*
X172491134Y-101409110D01*
X172513661Y-101381661D01*
X172541110Y-101359134D01*
X172572431Y-101342393D01*
X172606409Y-101332085D01*
X172647890Y-101328000D01*
X173249110Y-101328000D01*
X173290591Y-101332085D01*
G37*
G36*
X174865591Y-101332085D02*
G01*
X174899569Y-101342393D01*
X174930890Y-101359134D01*
X174958339Y-101381661D01*
X174980866Y-101409110D01*
X174997607Y-101440431D01*
X175007915Y-101474409D01*
X175012000Y-101515890D01*
X175012000Y-102192110D01*
X175007915Y-102233591D01*
X174997607Y-102267569D01*
X174980866Y-102298890D01*
X174958339Y-102326339D01*
X174930890Y-102348866D01*
X174899569Y-102365607D01*
X174865591Y-102375915D01*
X174824110Y-102380000D01*
X174222890Y-102380000D01*
X174181409Y-102375915D01*
X174147431Y-102365607D01*
X174116110Y-102348866D01*
X174088661Y-102326339D01*
X174066134Y-102298890D01*
X174049393Y-102267569D01*
X174039085Y-102233591D01*
X174035000Y-102192110D01*
X174035000Y-101515890D01*
X174039085Y-101474409D01*
X174049393Y-101440431D01*
X174066134Y-101409110D01*
X174088661Y-101381661D01*
X174116110Y-101359134D01*
X174147431Y-101342393D01*
X174181409Y-101332085D01*
X174222890Y-101328000D01*
X174824110Y-101328000D01*
X174865591Y-101332085D01*
G37*
G36*
X141845591Y-101078085D02*
G01*
X141879569Y-101088393D01*
X141910890Y-101105134D01*
X141938339Y-101127661D01*
X141960866Y-101155110D01*
X141977607Y-101186431D01*
X141987915Y-101220409D01*
X141992000Y-101261890D01*
X141992000Y-101938110D01*
X141987915Y-101979591D01*
X141977607Y-102013569D01*
X141960866Y-102044890D01*
X141938339Y-102072339D01*
X141910890Y-102094866D01*
X141879569Y-102111607D01*
X141845591Y-102121915D01*
X141804110Y-102126000D01*
X141202890Y-102126000D01*
X141161409Y-102121915D01*
X141127431Y-102111607D01*
X141096110Y-102094866D01*
X141068661Y-102072339D01*
X141046134Y-102044890D01*
X141029393Y-102013569D01*
X141019085Y-101979591D01*
X141015000Y-101938110D01*
X141015000Y-101261890D01*
X141019085Y-101220409D01*
X141029393Y-101186431D01*
X141046134Y-101155110D01*
X141068661Y-101127661D01*
X141096110Y-101105134D01*
X141127431Y-101088393D01*
X141161409Y-101078085D01*
X141202890Y-101074000D01*
X141804110Y-101074000D01*
X141845591Y-101078085D01*
G37*
G36*
X140270591Y-101078085D02*
G01*
X140304569Y-101088393D01*
X140335890Y-101105134D01*
X140363339Y-101127661D01*
X140385866Y-101155110D01*
X140402607Y-101186431D01*
X140412915Y-101220409D01*
X140417000Y-101261890D01*
X140417000Y-101938110D01*
X140412915Y-101979591D01*
X140402607Y-102013569D01*
X140385866Y-102044890D01*
X140363339Y-102072339D01*
X140335890Y-102094866D01*
X140304569Y-102111607D01*
X140270591Y-102121915D01*
X140229110Y-102126000D01*
X139627890Y-102126000D01*
X139586409Y-102121915D01*
X139552431Y-102111607D01*
X139521110Y-102094866D01*
X139493661Y-102072339D01*
X139471134Y-102044890D01*
X139454393Y-102013569D01*
X139444085Y-101979591D01*
X139440000Y-101938110D01*
X139440000Y-101261890D01*
X139444085Y-101220409D01*
X139454393Y-101186431D01*
X139471134Y-101155110D01*
X139493661Y-101127661D01*
X139521110Y-101105134D01*
X139552431Y-101088393D01*
X139586409Y-101078085D01*
X139627890Y-101074000D01*
X140229110Y-101074000D01*
X140270591Y-101078085D01*
G37*
G36*
X132504000Y-102031000D02*
G01*
X129902000Y-102031000D01*
X129902000Y-100499000D01*
X132504000Y-100499000D01*
X132504000Y-102031000D01*
G37*
G36*
X138907000Y-102011000D02*
G01*
X137805000Y-102011000D01*
X137805000Y-100509000D01*
X138907000Y-100509000D01*
X138907000Y-102011000D01*
G37*
G36*
X137007000Y-102011000D02*
G01*
X135905000Y-102011000D01*
X135905000Y-100509000D01*
X137007000Y-100509000D01*
X137007000Y-102011000D01*
G37*
G36*
X133631164Y-96394485D02*
G01*
X133654613Y-96401598D01*
X133678999Y-96404000D01*
X135254000Y-96404000D01*
X135254000Y-97711379D01*
X135256402Y-97735765D01*
X135259383Y-97747665D01*
X135265304Y-97767182D01*
X135276907Y-97885000D01*
X135265304Y-98002818D01*
X135259383Y-98022335D01*
X135254602Y-98046368D01*
X135254000Y-98058621D01*
X135254000Y-98556759D01*
X135250066Y-98561553D01*
X135238515Y-98583164D01*
X135231402Y-98606613D01*
X135229000Y-98630999D01*
X135229000Y-101856000D01*
X133477000Y-101856000D01*
X133477000Y-98754000D01*
X133527001Y-98754000D01*
X133551387Y-98751598D01*
X133574836Y-98744485D01*
X133596447Y-98732934D01*
X133615389Y-98717389D01*
X133630934Y-98698447D01*
X133642485Y-98676836D01*
X133649598Y-98653387D01*
X133652000Y-98629001D01*
X133652000Y-98443499D01*
X133649598Y-98419113D01*
X133642485Y-98395664D01*
X133630934Y-98374053D01*
X133615389Y-98355111D01*
X133596447Y-98339566D01*
X133574836Y-98328015D01*
X133551387Y-98320902D01*
X133527001Y-98318500D01*
X132689775Y-98318500D01*
X132674836Y-98310515D01*
X132651387Y-98303402D01*
X132627001Y-98301000D01*
X131252950Y-98301000D01*
X131251387Y-98300526D01*
X131239255Y-98298726D01*
X131155679Y-98290495D01*
X131018828Y-98248981D01*
X131018825Y-98248980D01*
X130892706Y-98181568D01*
X130782157Y-98090843D01*
X130691432Y-97980294D01*
X130624020Y-97854175D01*
X130597631Y-97767184D01*
X130582505Y-97717321D01*
X130568488Y-97575000D01*
X130582505Y-97432679D01*
X130624019Y-97295828D01*
X130624020Y-97295825D01*
X130691432Y-97169706D01*
X130782157Y-97059157D01*
X130892706Y-96968432D01*
X131018825Y-96901020D01*
X131018828Y-96901019D01*
X131155679Y-96859505D01*
X131239254Y-96851274D01*
X131250686Y-96849000D01*
X132627001Y-96849000D01*
X132651387Y-96846598D01*
X132674836Y-96839485D01*
X132696447Y-96827934D01*
X132715389Y-96812389D01*
X132730934Y-96793447D01*
X132742485Y-96771836D01*
X132749598Y-96748387D01*
X132752000Y-96724001D01*
X132752000Y-96391500D01*
X133625579Y-96391500D01*
X133631164Y-96394485D01*
G37*
G36*
X171761000Y-101831000D02*
G01*
X169859000Y-101831000D01*
X169859000Y-101029000D01*
X171761000Y-101029000D01*
X171761000Y-101831000D01*
G37*
G36*
X155261000Y-101831000D02*
G01*
X153359000Y-101831000D01*
X153359000Y-101029000D01*
X155261000Y-101029000D01*
X155261000Y-101831000D01*
G37*
G36*
X167611000Y-100881000D02*
G01*
X166509000Y-100881000D01*
X166509000Y-99779000D01*
X167611000Y-99779000D01*
X167611000Y-100881000D01*
G37*
G36*
X158611000Y-100881000D02*
G01*
X157509000Y-100881000D01*
X157509000Y-99779000D01*
X158611000Y-99779000D01*
X158611000Y-100881000D01*
G37*
G36*
X174865591Y-99808085D02*
G01*
X174899569Y-99818393D01*
X174930890Y-99835134D01*
X174958339Y-99857661D01*
X174980866Y-99885110D01*
X174997607Y-99916431D01*
X175007915Y-99950409D01*
X175012000Y-99991890D01*
X175012000Y-100668110D01*
X175007915Y-100709591D01*
X174997607Y-100743569D01*
X174980866Y-100774890D01*
X174958339Y-100802339D01*
X174930890Y-100824866D01*
X174899569Y-100841607D01*
X174865591Y-100851915D01*
X174824110Y-100856000D01*
X174222890Y-100856000D01*
X174181409Y-100851915D01*
X174147431Y-100841607D01*
X174116110Y-100824866D01*
X174088661Y-100802339D01*
X174066134Y-100774890D01*
X174049393Y-100743569D01*
X174039085Y-100709591D01*
X174035000Y-100668110D01*
X174035000Y-99991890D01*
X174039085Y-99950409D01*
X174049393Y-99916431D01*
X174066134Y-99885110D01*
X174088661Y-99857661D01*
X174116110Y-99835134D01*
X174147431Y-99818393D01*
X174181409Y-99808085D01*
X174222890Y-99804000D01*
X174824110Y-99804000D01*
X174865591Y-99808085D01*
G37*
G36*
X173290591Y-99808085D02*
G01*
X173324569Y-99818393D01*
X173355890Y-99835134D01*
X173383339Y-99857661D01*
X173405866Y-99885110D01*
X173422607Y-99916431D01*
X173432915Y-99950409D01*
X173437000Y-99991890D01*
X173437000Y-100668110D01*
X173432915Y-100709591D01*
X173422607Y-100743569D01*
X173405866Y-100774890D01*
X173383339Y-100802339D01*
X173355890Y-100824866D01*
X173324569Y-100841607D01*
X173290591Y-100851915D01*
X173249110Y-100856000D01*
X172647890Y-100856000D01*
X172606409Y-100851915D01*
X172572431Y-100841607D01*
X172541110Y-100824866D01*
X172513661Y-100802339D01*
X172491134Y-100774890D01*
X172474393Y-100743569D01*
X172464085Y-100709591D01*
X172460000Y-100668110D01*
X172460000Y-99991890D01*
X172464085Y-99950409D01*
X172474393Y-99916431D01*
X172491134Y-99885110D01*
X172513661Y-99857661D01*
X172541110Y-99835134D01*
X172572431Y-99818393D01*
X172606409Y-99808085D01*
X172647890Y-99804000D01*
X173249110Y-99804000D01*
X173290591Y-99808085D01*
G37*
G36*
X171761000Y-100731000D02*
G01*
X169859000Y-100731000D01*
X169859000Y-99929000D01*
X171761000Y-99929000D01*
X171761000Y-100731000D01*
G37*
G36*
X155261000Y-100731000D02*
G01*
X153359000Y-100731000D01*
X153359000Y-99929000D01*
X155261000Y-99929000D01*
X155261000Y-100731000D01*
G37*
G36*
X132504000Y-100111000D02*
G01*
X129902000Y-100111000D01*
X129902000Y-98579000D01*
X132504000Y-98579000D01*
X132504000Y-100111000D01*
G37*
G36*
X137007000Y-99811000D02*
G01*
X135905000Y-99811000D01*
X135905000Y-98309000D01*
X137007000Y-98309000D01*
X137007000Y-99811000D01*
G37*
G36*
X138827000Y-99811000D02*
G01*
X137525000Y-99811000D01*
X137525000Y-98309000D01*
X138827000Y-98309000D01*
X138827000Y-99811000D01*
G37*
G36*
X171761000Y-99631000D02*
G01*
X169859000Y-99631000D01*
X169859000Y-98829000D01*
X171761000Y-98829000D01*
X171761000Y-99631000D01*
G37*
G36*
X155261000Y-99631000D02*
G01*
X153359000Y-99631000D01*
X153359000Y-98829000D01*
X155261000Y-98829000D01*
X155261000Y-99631000D01*
G37*
G36*
X174865591Y-98284085D02*
G01*
X174899569Y-98294393D01*
X174930890Y-98311134D01*
X174958339Y-98333661D01*
X174980866Y-98361110D01*
X174997607Y-98392431D01*
X175007915Y-98426409D01*
X175012000Y-98467890D01*
X175012000Y-99144110D01*
X175007915Y-99185591D01*
X174997607Y-99219569D01*
X174980866Y-99250890D01*
X174958339Y-99278339D01*
X174930890Y-99300866D01*
X174899569Y-99317607D01*
X174865591Y-99327915D01*
X174824110Y-99332000D01*
X174222890Y-99332000D01*
X174181409Y-99327915D01*
X174147431Y-99317607D01*
X174116110Y-99300866D01*
X174088661Y-99278339D01*
X174066134Y-99250890D01*
X174049393Y-99219569D01*
X174039085Y-99185591D01*
X174035000Y-99144110D01*
X174035000Y-98467890D01*
X174039085Y-98426409D01*
X174049393Y-98392431D01*
X174066134Y-98361110D01*
X174088661Y-98333661D01*
X174116110Y-98311134D01*
X174147431Y-98294393D01*
X174181409Y-98284085D01*
X174222890Y-98280000D01*
X174824110Y-98280000D01*
X174865591Y-98284085D01*
G37*
G36*
X173290591Y-98284085D02*
G01*
X173324569Y-98294393D01*
X173355890Y-98311134D01*
X173383339Y-98333661D01*
X173405866Y-98361110D01*
X173422607Y-98392431D01*
X173432915Y-98426409D01*
X173437000Y-98467890D01*
X173437000Y-99144110D01*
X173432915Y-99185591D01*
X173422607Y-99219569D01*
X173405866Y-99250890D01*
X173383339Y-99278339D01*
X173355890Y-99300866D01*
X173324569Y-99317607D01*
X173290591Y-99327915D01*
X173249110Y-99332000D01*
X172647890Y-99332000D01*
X172606409Y-99327915D01*
X172572431Y-99317607D01*
X172541110Y-99300866D01*
X172513661Y-99278339D01*
X172491134Y-99250890D01*
X172474393Y-99219569D01*
X172464085Y-99185591D01*
X172460000Y-99144110D01*
X172460000Y-98467890D01*
X172464085Y-98426409D01*
X172474393Y-98392431D01*
X172491134Y-98361110D01*
X172513661Y-98333661D01*
X172541110Y-98311134D01*
X172572431Y-98294393D01*
X172606409Y-98284085D01*
X172647890Y-98280000D01*
X173249110Y-98280000D01*
X173290591Y-98284085D01*
G37*
G36*
X140270591Y-98284085D02*
G01*
X140304569Y-98294393D01*
X140335890Y-98311134D01*
X140363339Y-98333661D01*
X140385866Y-98361110D01*
X140402607Y-98392431D01*
X140412915Y-98426409D01*
X140417000Y-98467890D01*
X140417000Y-99144110D01*
X140412915Y-99185591D01*
X140402607Y-99219569D01*
X140385866Y-99250890D01*
X140363339Y-99278339D01*
X140335890Y-99300866D01*
X140304569Y-99317607D01*
X140270591Y-99327915D01*
X140229110Y-99332000D01*
X139627890Y-99332000D01*
X139586409Y-99327915D01*
X139552431Y-99317607D01*
X139521110Y-99300866D01*
X139493661Y-99278339D01*
X139471134Y-99250890D01*
X139454393Y-99219569D01*
X139444085Y-99185591D01*
X139440000Y-99144110D01*
X139440000Y-98467890D01*
X139444085Y-98426409D01*
X139454393Y-98392431D01*
X139471134Y-98361110D01*
X139493661Y-98333661D01*
X139521110Y-98311134D01*
X139552431Y-98294393D01*
X139586409Y-98284085D01*
X139627890Y-98280000D01*
X140229110Y-98280000D01*
X140270591Y-98284085D01*
G37*
G36*
X141845591Y-98284085D02*
G01*
X141879569Y-98294393D01*
X141910890Y-98311134D01*
X141938339Y-98333661D01*
X141960866Y-98361110D01*
X141977607Y-98392431D01*
X141987915Y-98426409D01*
X141992000Y-98467890D01*
X141992000Y-99144110D01*
X141987915Y-99185591D01*
X141977607Y-99219569D01*
X141960866Y-99250890D01*
X141938339Y-99278339D01*
X141910890Y-99300866D01*
X141879569Y-99317607D01*
X141845591Y-99327915D01*
X141804110Y-99332000D01*
X141202890Y-99332000D01*
X141161409Y-99327915D01*
X141127431Y-99317607D01*
X141096110Y-99300866D01*
X141068661Y-99278339D01*
X141046134Y-99250890D01*
X141029393Y-99219569D01*
X141019085Y-99185591D01*
X141015000Y-99144110D01*
X141015000Y-98467890D01*
X141019085Y-98426409D01*
X141029393Y-98392431D01*
X141046134Y-98361110D01*
X141068661Y-98333661D01*
X141096110Y-98311134D01*
X141127431Y-98294393D01*
X141161409Y-98284085D01*
X141202890Y-98280000D01*
X141804110Y-98280000D01*
X141845591Y-98284085D01*
G37*
G36*
X158611000Y-99081000D02*
G01*
X157509000Y-99081000D01*
X157509000Y-97979000D01*
X158611000Y-97979000D01*
X158611000Y-99081000D01*
G37*
G36*
X167611000Y-99081000D02*
G01*
X166509000Y-99081000D01*
X166509000Y-97979000D01*
X167611000Y-97979000D01*
X167611000Y-99081000D01*
G37*
G36*
X155261000Y-98531000D02*
G01*
X153359000Y-98531000D01*
X153359000Y-97729000D01*
X155261000Y-97729000D01*
X155261000Y-98531000D01*
G37*
G36*
X171761000Y-98531000D02*
G01*
X169859000Y-98531000D01*
X169859000Y-97729000D01*
X171761000Y-97729000D01*
X171761000Y-98531000D01*
G37*
G36*
X150875091Y-97268085D02*
G01*
X150909069Y-97278393D01*
X150940390Y-97295134D01*
X150967839Y-97317661D01*
X150990366Y-97345110D01*
X151007107Y-97376431D01*
X151017415Y-97410409D01*
X151021500Y-97451890D01*
X151021500Y-98128110D01*
X151017415Y-98169591D01*
X151007107Y-98203569D01*
X150990366Y-98234890D01*
X150967839Y-98262339D01*
X150940390Y-98284866D01*
X150909069Y-98301607D01*
X150875091Y-98311915D01*
X150833610Y-98316000D01*
X150232390Y-98316000D01*
X150190909Y-98311915D01*
X150156931Y-98301607D01*
X150125610Y-98284866D01*
X150098161Y-98262339D01*
X150075634Y-98234890D01*
X150058893Y-98203569D01*
X150048585Y-98169591D01*
X150044500Y-98128110D01*
X150044500Y-97451890D01*
X150048585Y-97410409D01*
X150058893Y-97376431D01*
X150075634Y-97345110D01*
X150098161Y-97317661D01*
X150125610Y-97295134D01*
X150156931Y-97278393D01*
X150190909Y-97268085D01*
X150232390Y-97264000D01*
X150833610Y-97264000D01*
X150875091Y-97268085D01*
G37*
G36*
X152450091Y-97268085D02*
G01*
X152484069Y-97278393D01*
X152515390Y-97295134D01*
X152542839Y-97317661D01*
X152565366Y-97345110D01*
X152582107Y-97376431D01*
X152592415Y-97410409D01*
X152596500Y-97451890D01*
X152596500Y-98128110D01*
X152592415Y-98169591D01*
X152582107Y-98203569D01*
X152565366Y-98234890D01*
X152542839Y-98262339D01*
X152515390Y-98284866D01*
X152484069Y-98301607D01*
X152450091Y-98311915D01*
X152408610Y-98316000D01*
X151807390Y-98316000D01*
X151765909Y-98311915D01*
X151731931Y-98301607D01*
X151700610Y-98284866D01*
X151673161Y-98262339D01*
X151650634Y-98234890D01*
X151633893Y-98203569D01*
X151623585Y-98169591D01*
X151619500Y-98128110D01*
X151619500Y-97451890D01*
X151623585Y-97410409D01*
X151633893Y-97376431D01*
X151650634Y-97345110D01*
X151673161Y-97317661D01*
X151700610Y-97295134D01*
X151731931Y-97278393D01*
X151765909Y-97268085D01*
X151807390Y-97264000D01*
X152408610Y-97264000D01*
X152450091Y-97268085D01*
G37*
G36*
X173773811Y-95044271D02*
G01*
X173809603Y-95055129D01*
X173842595Y-95072763D01*
X173871508Y-95096492D01*
X173895237Y-95125405D01*
X173912871Y-95158397D01*
X173923729Y-95194189D01*
X173928000Y-95237555D01*
X173928000Y-97294445D01*
X173923729Y-97337811D01*
X173912871Y-97373603D01*
X173895237Y-97406595D01*
X173871508Y-97435508D01*
X173842595Y-97459237D01*
X173809603Y-97476871D01*
X173773811Y-97487729D01*
X173730445Y-97492000D01*
X172698555Y-97492000D01*
X172655189Y-97487729D01*
X172619397Y-97476871D01*
X172586405Y-97459237D01*
X172557492Y-97435508D01*
X172533763Y-97406595D01*
X172516129Y-97373603D01*
X172505271Y-97337811D01*
X172501000Y-97294445D01*
X172501000Y-95237555D01*
X172505271Y-95194189D01*
X172516129Y-95158397D01*
X172533763Y-95125405D01*
X172557492Y-95096492D01*
X172586405Y-95072763D01*
X172619397Y-95055129D01*
X172655189Y-95044271D01*
X172698555Y-95040000D01*
X173730445Y-95040000D01*
X173773811Y-95044271D01*
G37*
G36*
X176848811Y-95044271D02*
G01*
X176884603Y-95055129D01*
X176917595Y-95072763D01*
X176946508Y-95096492D01*
X176970237Y-95125405D01*
X176987871Y-95158397D01*
X176998729Y-95194189D01*
X177003000Y-95237555D01*
X177003000Y-97294445D01*
X176998729Y-97337811D01*
X176987871Y-97373603D01*
X176970237Y-97406595D01*
X176946508Y-97435508D01*
X176917595Y-97459237D01*
X176884603Y-97476871D01*
X176848811Y-97487729D01*
X176805445Y-97492000D01*
X175773555Y-97492000D01*
X175730189Y-97487729D01*
X175694397Y-97476871D01*
X175661405Y-97459237D01*
X175632492Y-97435508D01*
X175608763Y-97406595D01*
X175591129Y-97373603D01*
X175580271Y-97337811D01*
X175576000Y-97294445D01*
X175576000Y-95237555D01*
X175580271Y-95194189D01*
X175591129Y-95158397D01*
X175608763Y-95125405D01*
X175632492Y-95096492D01*
X175661405Y-95072763D01*
X175694397Y-95055129D01*
X175730189Y-95044271D01*
X175773555Y-95040000D01*
X176805445Y-95040000D01*
X176848811Y-95044271D01*
G37*
G36*
X171761000Y-97431000D02*
G01*
X169859000Y-97431000D01*
X169859000Y-96629000D01*
X171761000Y-96629000D01*
X171761000Y-97431000D01*
G37*
G36*
X155261000Y-97431000D02*
G01*
X153359000Y-97431000D01*
X153359000Y-96629000D01*
X155261000Y-96629000D01*
X155261000Y-97431000D01*
G37*
G36*
X160411000Y-97281000D02*
G01*
X159309000Y-97281000D01*
X159309000Y-96179000D01*
X160411000Y-96179000D01*
X160411000Y-97281000D01*
G37*
G36*
X162211000Y-97281000D02*
G01*
X161109000Y-97281000D01*
X161109000Y-96179000D01*
X162211000Y-96179000D01*
X162211000Y-97281000D01*
G37*
G36*
X164011000Y-97281000D02*
G01*
X162909000Y-97281000D01*
X162909000Y-96179000D01*
X164011000Y-96179000D01*
X164011000Y-97281000D01*
G37*
G36*
X165811000Y-97281000D02*
G01*
X164709000Y-97281000D01*
X164709000Y-96179000D01*
X165811000Y-96179000D01*
X165811000Y-97281000D01*
G37*
G36*
X150938591Y-95744085D02*
G01*
X150972569Y-95754393D01*
X151003890Y-95771134D01*
X151031339Y-95793661D01*
X151053866Y-95821110D01*
X151070607Y-95852431D01*
X151080915Y-95886409D01*
X151085000Y-95927890D01*
X151085000Y-96604110D01*
X151080915Y-96645591D01*
X151070607Y-96679569D01*
X151053866Y-96710890D01*
X151031339Y-96738339D01*
X151003890Y-96760866D01*
X150972569Y-96777607D01*
X150938591Y-96787915D01*
X150897110Y-96792000D01*
X150295890Y-96792000D01*
X150254409Y-96787915D01*
X150220431Y-96777607D01*
X150189110Y-96760866D01*
X150161661Y-96738339D01*
X150139134Y-96710890D01*
X150122393Y-96679569D01*
X150112085Y-96645591D01*
X150108000Y-96604110D01*
X150108000Y-95927890D01*
X150112085Y-95886409D01*
X150122393Y-95852431D01*
X150139134Y-95821110D01*
X150161661Y-95793661D01*
X150189110Y-95771134D01*
X150220431Y-95754393D01*
X150254409Y-95744085D01*
X150295890Y-95740000D01*
X150897110Y-95740000D01*
X150938591Y-95744085D01*
G37*
G36*
X152513591Y-95744085D02*
G01*
X152547569Y-95754393D01*
X152578890Y-95771134D01*
X152606339Y-95793661D01*
X152628866Y-95821110D01*
X152645607Y-95852431D01*
X152655915Y-95886409D01*
X152660000Y-95927890D01*
X152660000Y-96604110D01*
X152655915Y-96645591D01*
X152645607Y-96679569D01*
X152628866Y-96710890D01*
X152606339Y-96738339D01*
X152578890Y-96760866D01*
X152547569Y-96777607D01*
X152513591Y-96787915D01*
X152472110Y-96792000D01*
X151870890Y-96792000D01*
X151829409Y-96787915D01*
X151795431Y-96777607D01*
X151764110Y-96760866D01*
X151736661Y-96738339D01*
X151714134Y-96710890D01*
X151697393Y-96679569D01*
X151687085Y-96645591D01*
X151683000Y-96604110D01*
X151683000Y-95927890D01*
X151687085Y-95886409D01*
X151697393Y-95852431D01*
X151714134Y-95821110D01*
X151736661Y-95793661D01*
X151764110Y-95771134D01*
X151795431Y-95754393D01*
X151829409Y-95744085D01*
X151870890Y-95740000D01*
X152472110Y-95740000D01*
X152513591Y-95744085D01*
G37*
G36*
X155261000Y-96331000D02*
G01*
X153359000Y-96331000D01*
X153359000Y-95529000D01*
X155261000Y-95529000D01*
X155261000Y-96331000D01*
G37*
G36*
X171761000Y-96331000D02*
G01*
X169859000Y-96331000D01*
X169859000Y-95529000D01*
X171761000Y-95529000D01*
X171761000Y-96331000D01*
G37*
G36*
X145477591Y-95236085D02*
G01*
X145511569Y-95246393D01*
X145542890Y-95263134D01*
X145570339Y-95285661D01*
X145592866Y-95313110D01*
X145609607Y-95344431D01*
X145619915Y-95378409D01*
X145624000Y-95419890D01*
X145624000Y-96096110D01*
X145619915Y-96137591D01*
X145609607Y-96171569D01*
X145592866Y-96202890D01*
X145570339Y-96230339D01*
X145542890Y-96252866D01*
X145511569Y-96269607D01*
X145477591Y-96279915D01*
X145436110Y-96284000D01*
X144834890Y-96284000D01*
X144793409Y-96279915D01*
X144759431Y-96269607D01*
X144728110Y-96252866D01*
X144700661Y-96230339D01*
X144678134Y-96202890D01*
X144661393Y-96171569D01*
X144651085Y-96137591D01*
X144647000Y-96096110D01*
X144647000Y-95419890D01*
X144651085Y-95378409D01*
X144661393Y-95344431D01*
X144678134Y-95313110D01*
X144700661Y-95285661D01*
X144728110Y-95263134D01*
X144759431Y-95246393D01*
X144793409Y-95236085D01*
X144834890Y-95232000D01*
X145436110Y-95232000D01*
X145477591Y-95236085D01*
G37*
G36*
X147052591Y-95236085D02*
G01*
X147086569Y-95246393D01*
X147117890Y-95263134D01*
X147145339Y-95285661D01*
X147167866Y-95313110D01*
X147184607Y-95344431D01*
X147194915Y-95378409D01*
X147199000Y-95419890D01*
X147199000Y-96096110D01*
X147194915Y-96137591D01*
X147184607Y-96171569D01*
X147167866Y-96202890D01*
X147145339Y-96230339D01*
X147117890Y-96252866D01*
X147086569Y-96269607D01*
X147052591Y-96279915D01*
X147011110Y-96284000D01*
X146409890Y-96284000D01*
X146368409Y-96279915D01*
X146334431Y-96269607D01*
X146303110Y-96252866D01*
X146275661Y-96230339D01*
X146253134Y-96202890D01*
X146236393Y-96171569D01*
X146226085Y-96137591D01*
X146222000Y-96096110D01*
X146222000Y-95419890D01*
X146226085Y-95378409D01*
X146236393Y-95344431D01*
X146253134Y-95313110D01*
X146275661Y-95285661D01*
X146303110Y-95263134D01*
X146334431Y-95246393D01*
X146368409Y-95236085D01*
X146409890Y-95232000D01*
X147011110Y-95232000D01*
X147052591Y-95236085D01*
G37*
G36*
X141210591Y-95236085D02*
G01*
X141244569Y-95246393D01*
X141275890Y-95263134D01*
X141303339Y-95285661D01*
X141325866Y-95313110D01*
X141342607Y-95344431D01*
X141352915Y-95378409D01*
X141357000Y-95419890D01*
X141357000Y-96096110D01*
X141352915Y-96137591D01*
X141342607Y-96171569D01*
X141325866Y-96202890D01*
X141303339Y-96230339D01*
X141275890Y-96252866D01*
X141244569Y-96269607D01*
X141210591Y-96279915D01*
X141169110Y-96284000D01*
X140567890Y-96284000D01*
X140526409Y-96279915D01*
X140492431Y-96269607D01*
X140461110Y-96252866D01*
X140433661Y-96230339D01*
X140411134Y-96202890D01*
X140394393Y-96171569D01*
X140384085Y-96137591D01*
X140380000Y-96096110D01*
X140380000Y-95419890D01*
X140384085Y-95378409D01*
X140394393Y-95344431D01*
X140411134Y-95313110D01*
X140433661Y-95285661D01*
X140461110Y-95263134D01*
X140492431Y-95246393D01*
X140526409Y-95236085D01*
X140567890Y-95232000D01*
X141169110Y-95232000D01*
X141210591Y-95236085D01*
G37*
G36*
X139635591Y-95236085D02*
G01*
X139669569Y-95246393D01*
X139700890Y-95263134D01*
X139728339Y-95285661D01*
X139750866Y-95313110D01*
X139767607Y-95344431D01*
X139777915Y-95378409D01*
X139782000Y-95419890D01*
X139782000Y-96096110D01*
X139777915Y-96137591D01*
X139767607Y-96171569D01*
X139750866Y-96202890D01*
X139728339Y-96230339D01*
X139700890Y-96252866D01*
X139669569Y-96269607D01*
X139635591Y-96279915D01*
X139594110Y-96284000D01*
X138992890Y-96284000D01*
X138951409Y-96279915D01*
X138917431Y-96269607D01*
X138886110Y-96252866D01*
X138858661Y-96230339D01*
X138836134Y-96202890D01*
X138819393Y-96171569D01*
X138809085Y-96137591D01*
X138805000Y-96096110D01*
X138805000Y-95419890D01*
X138809085Y-95378409D01*
X138819393Y-95344431D01*
X138836134Y-95313110D01*
X138858661Y-95285661D01*
X138886110Y-95263134D01*
X138917431Y-95246393D01*
X138951409Y-95236085D01*
X138992890Y-95232000D01*
X139594110Y-95232000D01*
X139635591Y-95236085D01*
G37*
G36*
X152313500Y-94936500D02*
G01*
X151311500Y-94936500D01*
X151311500Y-94034500D01*
X152313500Y-94034500D01*
X152313500Y-94936500D01*
G37*
G36*
X139582000Y-94719000D02*
G01*
X138680000Y-94719000D01*
X138680000Y-93717000D01*
X139582000Y-93717000D01*
X139582000Y-94719000D01*
G37*
G36*
X145551000Y-94719000D02*
G01*
X144649000Y-94719000D01*
X144649000Y-93717000D01*
X145551000Y-93717000D01*
X145551000Y-94719000D01*
G37*
G36*
X147451000Y-94719000D02*
G01*
X146549000Y-94719000D01*
X146549000Y-93717000D01*
X147451000Y-93717000D01*
X147451000Y-94719000D01*
G37*
G36*
X141482000Y-94719000D02*
G01*
X140580000Y-94719000D01*
X140580000Y-93717000D01*
X141482000Y-93717000D01*
X141482000Y-94719000D01*
G37*
G36*
X143889591Y-93521085D02*
G01*
X143923569Y-93531393D01*
X143954890Y-93548134D01*
X143982339Y-93570661D01*
X144004866Y-93598110D01*
X144021607Y-93629431D01*
X144031915Y-93663409D01*
X144036000Y-93704890D01*
X144036000Y-94306110D01*
X144031915Y-94347591D01*
X144021607Y-94381569D01*
X144004866Y-94412890D01*
X143982339Y-94440339D01*
X143954890Y-94462866D01*
X143923569Y-94479607D01*
X143889591Y-94489915D01*
X143848110Y-94494000D01*
X143171890Y-94494000D01*
X143130409Y-94489915D01*
X143096431Y-94479607D01*
X143065110Y-94462866D01*
X143037661Y-94440339D01*
X143015134Y-94412890D01*
X142998393Y-94381569D01*
X142988085Y-94347591D01*
X142984000Y-94306110D01*
X142984000Y-93704890D01*
X142988085Y-93663409D01*
X142998393Y-93629431D01*
X143015134Y-93598110D01*
X143037661Y-93570661D01*
X143065110Y-93548134D01*
X143096431Y-93531393D01*
X143130409Y-93521085D01*
X143171890Y-93517000D01*
X143848110Y-93517000D01*
X143889591Y-93521085D01*
G37*
G36*
X137793591Y-93521085D02*
G01*
X137827569Y-93531393D01*
X137858890Y-93548134D01*
X137886339Y-93570661D01*
X137908866Y-93598110D01*
X137925607Y-93629431D01*
X137935915Y-93663409D01*
X137940000Y-93704890D01*
X137940000Y-94306110D01*
X137935915Y-94347591D01*
X137925607Y-94381569D01*
X137908866Y-94412890D01*
X137886339Y-94440339D01*
X137858890Y-94462866D01*
X137827569Y-94479607D01*
X137793591Y-94489915D01*
X137752110Y-94494000D01*
X137075890Y-94494000D01*
X137034409Y-94489915D01*
X137000431Y-94479607D01*
X136969110Y-94462866D01*
X136941661Y-94440339D01*
X136919134Y-94412890D01*
X136902393Y-94381569D01*
X136892085Y-94347591D01*
X136888000Y-94306110D01*
X136888000Y-93704890D01*
X136892085Y-93663409D01*
X136902393Y-93629431D01*
X136919134Y-93598110D01*
X136941661Y-93570661D01*
X136969110Y-93548134D01*
X137000431Y-93531393D01*
X137034409Y-93521085D01*
X137075890Y-93517000D01*
X137752110Y-93517000D01*
X137793591Y-93521085D01*
G37*
G36*
X150313500Y-93986500D02*
G01*
X149311500Y-93986500D01*
X149311500Y-93084500D01*
X150313500Y-93084500D01*
X150313500Y-93986500D01*
G37*
G36*
X166261000Y-93981000D02*
G01*
X165459000Y-93981000D01*
X165459000Y-92079000D01*
X166261000Y-92079000D01*
X166261000Y-93981000D01*
G37*
G36*
X158561000Y-93981000D02*
G01*
X157759000Y-93981000D01*
X157759000Y-92079000D01*
X158561000Y-92079000D01*
X158561000Y-93981000D01*
G37*
G36*
X159661000Y-93981000D02*
G01*
X158859000Y-93981000D01*
X158859000Y-92079000D01*
X159661000Y-92079000D01*
X159661000Y-93981000D01*
G37*
G36*
X160761000Y-93981000D02*
G01*
X159959000Y-93981000D01*
X159959000Y-92079000D01*
X160761000Y-92079000D01*
X160761000Y-93981000D01*
G37*
G36*
X161861000Y-93981000D02*
G01*
X161059000Y-93981000D01*
X161059000Y-92079000D01*
X161861000Y-92079000D01*
X161861000Y-93981000D01*
G37*
G36*
X162961000Y-93981000D02*
G01*
X162159000Y-93981000D01*
X162159000Y-92079000D01*
X162961000Y-92079000D01*
X162961000Y-93981000D01*
G37*
G36*
X164061000Y-93981000D02*
G01*
X163259000Y-93981000D01*
X163259000Y-92079000D01*
X164061000Y-92079000D01*
X164061000Y-93981000D01*
G37*
G36*
X165161000Y-93981000D02*
G01*
X164359000Y-93981000D01*
X164359000Y-92079000D01*
X165161000Y-92079000D01*
X165161000Y-93981000D01*
G37*
G36*
X167361000Y-93981000D02*
G01*
X166559000Y-93981000D01*
X166559000Y-92079000D01*
X167361000Y-92079000D01*
X167361000Y-93981000D01*
G37*
G36*
X168461000Y-93981000D02*
G01*
X167659000Y-93981000D01*
X167659000Y-92079000D01*
X168461000Y-92079000D01*
X168461000Y-93981000D01*
G37*
G36*
X157461000Y-93981000D02*
G01*
X156659000Y-93981000D01*
X156659000Y-92079000D01*
X157461000Y-92079000D01*
X157461000Y-93981000D01*
G37*
G36*
X169561000Y-93981000D02*
G01*
X168759000Y-93981000D01*
X168759000Y-92079000D01*
X169561000Y-92079000D01*
X169561000Y-93981000D01*
G37*
G36*
X156361000Y-93981000D02*
G01*
X155559000Y-93981000D01*
X155559000Y-92079000D01*
X156361000Y-92079000D01*
X156361000Y-93981000D01*
G37*
G36*
X172528591Y-92569085D02*
G01*
X172562569Y-92579393D01*
X172593890Y-92596134D01*
X172621339Y-92618661D01*
X172643866Y-92646110D01*
X172660607Y-92677431D01*
X172670915Y-92711409D01*
X172675000Y-92752890D01*
X172675000Y-93429110D01*
X172670915Y-93470591D01*
X172660607Y-93504569D01*
X172643866Y-93535890D01*
X172621339Y-93563339D01*
X172593890Y-93585866D01*
X172562569Y-93602607D01*
X172528591Y-93612915D01*
X172487110Y-93617000D01*
X171885890Y-93617000D01*
X171844409Y-93612915D01*
X171810431Y-93602607D01*
X171779110Y-93585866D01*
X171751661Y-93563339D01*
X171729134Y-93535890D01*
X171712393Y-93504569D01*
X171702085Y-93470591D01*
X171698000Y-93429110D01*
X171698000Y-92752890D01*
X171702085Y-92711409D01*
X171712393Y-92677431D01*
X171729134Y-92646110D01*
X171751661Y-92618661D01*
X171779110Y-92596134D01*
X171810431Y-92579393D01*
X171844409Y-92569085D01*
X171885890Y-92565000D01*
X172487110Y-92565000D01*
X172528591Y-92569085D01*
G37*
G36*
X174103591Y-92569085D02*
G01*
X174137569Y-92579393D01*
X174168890Y-92596134D01*
X174196339Y-92618661D01*
X174218866Y-92646110D01*
X174235607Y-92677431D01*
X174245915Y-92711409D01*
X174250000Y-92752890D01*
X174250000Y-93429110D01*
X174245915Y-93470591D01*
X174235607Y-93504569D01*
X174218866Y-93535890D01*
X174196339Y-93563339D01*
X174168890Y-93585866D01*
X174137569Y-93602607D01*
X174103591Y-93612915D01*
X174062110Y-93617000D01*
X173460890Y-93617000D01*
X173419409Y-93612915D01*
X173385431Y-93602607D01*
X173354110Y-93585866D01*
X173326661Y-93563339D01*
X173304134Y-93535890D01*
X173287393Y-93504569D01*
X173277085Y-93470591D01*
X173273000Y-93429110D01*
X173273000Y-92752890D01*
X173277085Y-92711409D01*
X173287393Y-92677431D01*
X173304134Y-92646110D01*
X173326661Y-92618661D01*
X173354110Y-92596134D01*
X173385431Y-92579393D01*
X173419409Y-92569085D01*
X173460890Y-92565000D01*
X174062110Y-92565000D01*
X174103591Y-92569085D01*
G37*
G36*
X132436821Y-89646144D02*
G01*
X132613500Y-89681287D01*
X132751373Y-89738396D01*
X132946355Y-89819160D01*
X132946356Y-89819161D01*
X133245920Y-90019323D01*
X133500677Y-90274080D01*
X133500678Y-90274082D01*
X133700840Y-90573645D01*
X133710424Y-90596784D01*
X133838713Y-90906500D01*
X133909000Y-91259859D01*
X133909000Y-91620141D01*
X133838713Y-91973500D01*
X133822128Y-92013539D01*
X133700840Y-92306355D01*
X133700839Y-92306356D01*
X133500677Y-92605920D01*
X133245920Y-92860677D01*
X133186458Y-92900408D01*
X132946355Y-93060840D01*
X132751373Y-93141604D01*
X132613500Y-93198713D01*
X132436820Y-93233857D01*
X132260142Y-93269000D01*
X131899858Y-93269000D01*
X131723180Y-93233857D01*
X131546500Y-93198713D01*
X131408627Y-93141604D01*
X131213645Y-93060840D01*
X130973542Y-92900408D01*
X130914080Y-92860677D01*
X130659323Y-92605920D01*
X130459161Y-92306356D01*
X130459160Y-92306355D01*
X130337872Y-92013539D01*
X130321287Y-91973500D01*
X130251000Y-91620141D01*
X130251000Y-91259859D01*
X130321287Y-90906500D01*
X130449576Y-90596784D01*
X130459160Y-90573645D01*
X130659322Y-90274082D01*
X130659323Y-90274080D01*
X130914080Y-90019323D01*
X131213644Y-89819161D01*
X131213645Y-89819160D01*
X131408627Y-89738396D01*
X131546500Y-89681287D01*
X131723179Y-89646144D01*
X131899858Y-89611000D01*
X132260142Y-89611000D01*
X132436821Y-89646144D01*
G37*
G36*
X178156821Y-89646144D02*
G01*
X178333500Y-89681287D01*
X178471373Y-89738396D01*
X178666355Y-89819160D01*
X178666356Y-89819161D01*
X178965920Y-90019323D01*
X179220677Y-90274080D01*
X179220678Y-90274082D01*
X179420840Y-90573645D01*
X179430424Y-90596784D01*
X179558713Y-90906500D01*
X179629000Y-91259859D01*
X179629000Y-91620141D01*
X179558713Y-91973500D01*
X179542128Y-92013539D01*
X179420840Y-92306355D01*
X179420839Y-92306356D01*
X179220677Y-92605920D01*
X178965920Y-92860677D01*
X178906458Y-92900408D01*
X178666355Y-93060840D01*
X178471373Y-93141604D01*
X178333500Y-93198713D01*
X178156820Y-93233857D01*
X177980142Y-93269000D01*
X177619858Y-93269000D01*
X177443180Y-93233857D01*
X177266500Y-93198713D01*
X177128627Y-93141604D01*
X176933645Y-93060840D01*
X176693542Y-92900408D01*
X176634080Y-92860677D01*
X176379323Y-92605920D01*
X176179161Y-92306356D01*
X176179160Y-92306355D01*
X176057872Y-92013539D01*
X176041287Y-91973500D01*
X175971000Y-91620141D01*
X175971000Y-91259859D01*
X176041287Y-90906500D01*
X176169576Y-90596784D01*
X176179160Y-90573645D01*
X176379322Y-90274082D01*
X176379323Y-90274080D01*
X176634080Y-90019323D01*
X176933644Y-89819161D01*
X176933645Y-89819160D01*
X177128627Y-89738396D01*
X177266500Y-89681287D01*
X177443179Y-89646144D01*
X177619858Y-89611000D01*
X177980142Y-89611000D01*
X178156821Y-89646144D01*
G37*
G36*
X152313500Y-93036500D02*
G01*
X151311500Y-93036500D01*
X151311500Y-92134500D01*
X152313500Y-92134500D01*
X152313500Y-93036500D01*
G37*
G36*
X137793591Y-91946085D02*
G01*
X137827569Y-91956393D01*
X137858890Y-91973134D01*
X137886339Y-91995661D01*
X137908866Y-92023110D01*
X137925607Y-92054431D01*
X137935915Y-92088409D01*
X137940000Y-92129890D01*
X137940000Y-92731110D01*
X137935915Y-92772591D01*
X137925607Y-92806569D01*
X137908866Y-92837890D01*
X137886339Y-92865339D01*
X137858890Y-92887866D01*
X137827569Y-92904607D01*
X137793591Y-92914915D01*
X137752110Y-92919000D01*
X137075890Y-92919000D01*
X137034409Y-92914915D01*
X137000431Y-92904607D01*
X136969110Y-92887866D01*
X136941661Y-92865339D01*
X136919134Y-92837890D01*
X136902393Y-92806569D01*
X136892085Y-92772591D01*
X136888000Y-92731110D01*
X136888000Y-92129890D01*
X136892085Y-92088409D01*
X136902393Y-92054431D01*
X136919134Y-92023110D01*
X136941661Y-91995661D01*
X136969110Y-91973134D01*
X137000431Y-91956393D01*
X137034409Y-91946085D01*
X137075890Y-91942000D01*
X137752110Y-91942000D01*
X137793591Y-91946085D01*
G37*
G36*
X143889591Y-91946085D02*
G01*
X143923569Y-91956393D01*
X143954890Y-91973134D01*
X143982339Y-91995661D01*
X144004866Y-92023110D01*
X144021607Y-92054431D01*
X144031915Y-92088409D01*
X144036000Y-92129890D01*
X144036000Y-92731110D01*
X144031915Y-92772591D01*
X144021607Y-92806569D01*
X144004866Y-92837890D01*
X143982339Y-92865339D01*
X143954890Y-92887866D01*
X143923569Y-92904607D01*
X143889591Y-92914915D01*
X143848110Y-92919000D01*
X143171890Y-92919000D01*
X143130409Y-92914915D01*
X143096431Y-92904607D01*
X143065110Y-92887866D01*
X143037661Y-92865339D01*
X143015134Y-92837890D01*
X142998393Y-92806569D01*
X142988085Y-92772591D01*
X142984000Y-92731110D01*
X142984000Y-92129890D01*
X142988085Y-92088409D01*
X142998393Y-92054431D01*
X143015134Y-92023110D01*
X143037661Y-91995661D01*
X143065110Y-91973134D01*
X143096431Y-91956393D01*
X143130409Y-91946085D01*
X143171890Y-91942000D01*
X143848110Y-91942000D01*
X143889591Y-91946085D01*
G37*
G36*
X146501000Y-92719000D02*
G01*
X145599000Y-92719000D01*
X145599000Y-91717000D01*
X146501000Y-91717000D01*
X146501000Y-92719000D01*
G37*
G36*
X140532000Y-92719000D02*
G01*
X139630000Y-92719000D01*
X139630000Y-91717000D01*
X140532000Y-91717000D01*
X140532000Y-92719000D01*
G37*
G36*
X146163512Y-89273927D02*
G01*
X146312812Y-89303624D01*
X146476784Y-89371544D01*
X146624354Y-89470147D01*
X146749853Y-89595646D01*
X146848456Y-89743216D01*
X146916376Y-89907188D01*
X146951000Y-90081259D01*
X146951000Y-90258741D01*
X146916376Y-90432812D01*
X146848456Y-90596784D01*
X146749853Y-90744354D01*
X146624354Y-90869853D01*
X146476784Y-90968456D01*
X146312812Y-91036376D01*
X146163512Y-91066073D01*
X146138742Y-91071000D01*
X145961258Y-91071000D01*
X145936488Y-91066073D01*
X145787188Y-91036376D01*
X145623216Y-90968456D01*
X145475646Y-90869853D01*
X145350147Y-90744354D01*
X145251544Y-90596784D01*
X145183624Y-90432812D01*
X145149000Y-90258741D01*
X145149000Y-90081259D01*
X145183624Y-89907188D01*
X145251544Y-89743216D01*
X145350147Y-89595646D01*
X145475646Y-89470147D01*
X145623216Y-89371544D01*
X145787188Y-89303624D01*
X145936488Y-89273927D01*
X145961258Y-89269000D01*
X146138742Y-89269000D01*
X146163512Y-89273927D01*
G37*
G36*
X148703512Y-89273927D02*
G01*
X148852812Y-89303624D01*
X149016784Y-89371544D01*
X149164354Y-89470147D01*
X149289853Y-89595646D01*
X149388456Y-89743216D01*
X149456376Y-89907188D01*
X149491000Y-90081259D01*
X149491000Y-90258741D01*
X149456376Y-90432812D01*
X149388456Y-90596784D01*
X149289853Y-90744354D01*
X149164354Y-90869853D01*
X149016784Y-90968456D01*
X148852812Y-91036376D01*
X148703512Y-91066073D01*
X148678742Y-91071000D01*
X148501258Y-91071000D01*
X148476488Y-91066073D01*
X148327188Y-91036376D01*
X148163216Y-90968456D01*
X148015646Y-90869853D01*
X147890147Y-90744354D01*
X147791544Y-90596784D01*
X147723624Y-90432812D01*
X147689000Y-90258741D01*
X147689000Y-90081259D01*
X147723624Y-89907188D01*
X147791544Y-89743216D01*
X147890147Y-89595646D01*
X148015646Y-89470147D01*
X148163216Y-89371544D01*
X148327188Y-89303624D01*
X148476488Y-89273927D01*
X148501258Y-89269000D01*
X148678742Y-89269000D01*
X148703512Y-89273927D01*
G37*
G36*
X151243512Y-89273927D02*
G01*
X151392812Y-89303624D01*
X151556784Y-89371544D01*
X151704354Y-89470147D01*
X151829853Y-89595646D01*
X151928456Y-89743216D01*
X151996376Y-89907188D01*
X152031000Y-90081259D01*
X152031000Y-90258741D01*
X151996376Y-90432812D01*
X151928456Y-90596784D01*
X151829853Y-90744354D01*
X151704354Y-90869853D01*
X151556784Y-90968456D01*
X151392812Y-91036376D01*
X151243512Y-91066073D01*
X151218742Y-91071000D01*
X151041258Y-91071000D01*
X151016488Y-91066073D01*
X150867188Y-91036376D01*
X150703216Y-90968456D01*
X150555646Y-90869853D01*
X150430147Y-90744354D01*
X150331544Y-90596784D01*
X150263624Y-90432812D01*
X150229000Y-90258741D01*
X150229000Y-90081259D01*
X150263624Y-89907188D01*
X150331544Y-89743216D01*
X150430147Y-89595646D01*
X150555646Y-89470147D01*
X150703216Y-89371544D01*
X150867188Y-89303624D01*
X151016488Y-89273927D01*
X151041258Y-89269000D01*
X151218742Y-89269000D01*
X151243512Y-89273927D01*
G37*
G36*
X153783512Y-89273927D02*
G01*
X153932812Y-89303624D01*
X154096784Y-89371544D01*
X154244354Y-89470147D01*
X154369853Y-89595646D01*
X154468456Y-89743216D01*
X154536376Y-89907188D01*
X154571000Y-90081259D01*
X154571000Y-90258741D01*
X154536376Y-90432812D01*
X154468456Y-90596784D01*
X154369853Y-90744354D01*
X154244354Y-90869853D01*
X154096784Y-90968456D01*
X153932812Y-91036376D01*
X153783512Y-91066073D01*
X153758742Y-91071000D01*
X153581258Y-91071000D01*
X153556488Y-91066073D01*
X153407188Y-91036376D01*
X153243216Y-90968456D01*
X153095646Y-90869853D01*
X152970147Y-90744354D01*
X152871544Y-90596784D01*
X152803624Y-90432812D01*
X152769000Y-90258741D01*
X152769000Y-90081259D01*
X152803624Y-89907188D01*
X152871544Y-89743216D01*
X152970147Y-89595646D01*
X153095646Y-89470147D01*
X153243216Y-89371544D01*
X153407188Y-89303624D01*
X153556488Y-89273927D01*
X153581258Y-89269000D01*
X153758742Y-89269000D01*
X153783512Y-89273927D01*
G37*
G36*
X156323512Y-89273927D02*
G01*
X156472812Y-89303624D01*
X156636784Y-89371544D01*
X156784354Y-89470147D01*
X156909853Y-89595646D01*
X157008456Y-89743216D01*
X157076376Y-89907188D01*
X157111000Y-90081259D01*
X157111000Y-90258741D01*
X157076376Y-90432812D01*
X157008456Y-90596784D01*
X156909853Y-90744354D01*
X156784354Y-90869853D01*
X156636784Y-90968456D01*
X156472812Y-91036376D01*
X156323512Y-91066073D01*
X156298742Y-91071000D01*
X156121258Y-91071000D01*
X156096488Y-91066073D01*
X155947188Y-91036376D01*
X155783216Y-90968456D01*
X155635646Y-90869853D01*
X155510147Y-90744354D01*
X155411544Y-90596784D01*
X155343624Y-90432812D01*
X155309000Y-90258741D01*
X155309000Y-90081259D01*
X155343624Y-89907188D01*
X155411544Y-89743216D01*
X155510147Y-89595646D01*
X155635646Y-89470147D01*
X155783216Y-89371544D01*
X155947188Y-89303624D01*
X156096488Y-89273927D01*
X156121258Y-89269000D01*
X156298742Y-89269000D01*
X156323512Y-89273927D01*
G37*
G36*
X158863512Y-89273927D02*
G01*
X159012812Y-89303624D01*
X159176784Y-89371544D01*
X159324354Y-89470147D01*
X159449853Y-89595646D01*
X159548456Y-89743216D01*
X159616376Y-89907188D01*
X159651000Y-90081259D01*
X159651000Y-90258741D01*
X159616376Y-90432812D01*
X159548456Y-90596784D01*
X159449853Y-90744354D01*
X159324354Y-90869853D01*
X159176784Y-90968456D01*
X159012812Y-91036376D01*
X158863512Y-91066073D01*
X158838742Y-91071000D01*
X158661258Y-91071000D01*
X158636488Y-91066073D01*
X158487188Y-91036376D01*
X158323216Y-90968456D01*
X158175646Y-90869853D01*
X158050147Y-90744354D01*
X157951544Y-90596784D01*
X157883624Y-90432812D01*
X157849000Y-90258741D01*
X157849000Y-90081259D01*
X157883624Y-89907188D01*
X157951544Y-89743216D01*
X158050147Y-89595646D01*
X158175646Y-89470147D01*
X158323216Y-89371544D01*
X158487188Y-89303624D01*
X158636488Y-89273927D01*
X158661258Y-89269000D01*
X158838742Y-89269000D01*
X158863512Y-89273927D01*
G37*
G36*
X161403512Y-89273927D02*
G01*
X161552812Y-89303624D01*
X161716784Y-89371544D01*
X161864354Y-89470147D01*
X161989853Y-89595646D01*
X162088456Y-89743216D01*
X162156376Y-89907188D01*
X162191000Y-90081259D01*
X162191000Y-90258741D01*
X162156376Y-90432812D01*
X162088456Y-90596784D01*
X161989853Y-90744354D01*
X161864354Y-90869853D01*
X161716784Y-90968456D01*
X161552812Y-91036376D01*
X161403512Y-91066073D01*
X161378742Y-91071000D01*
X161201258Y-91071000D01*
X161176488Y-91066073D01*
X161027188Y-91036376D01*
X160863216Y-90968456D01*
X160715646Y-90869853D01*
X160590147Y-90744354D01*
X160491544Y-90596784D01*
X160423624Y-90432812D01*
X160389000Y-90258741D01*
X160389000Y-90081259D01*
X160423624Y-89907188D01*
X160491544Y-89743216D01*
X160590147Y-89595646D01*
X160715646Y-89470147D01*
X160863216Y-89371544D01*
X161027188Y-89303624D01*
X161176488Y-89273927D01*
X161201258Y-89269000D01*
X161378742Y-89269000D01*
X161403512Y-89273927D01*
G37*
G36*
X166483512Y-89273927D02*
G01*
X166632812Y-89303624D01*
X166796784Y-89371544D01*
X166944354Y-89470147D01*
X167069853Y-89595646D01*
X167168456Y-89743216D01*
X167236376Y-89907188D01*
X167271000Y-90081259D01*
X167271000Y-90258741D01*
X167236376Y-90432812D01*
X167168456Y-90596784D01*
X167069853Y-90744354D01*
X166944354Y-90869853D01*
X166796784Y-90968456D01*
X166632812Y-91036376D01*
X166483512Y-91066073D01*
X166458742Y-91071000D01*
X166281258Y-91071000D01*
X166256488Y-91066073D01*
X166107188Y-91036376D01*
X165943216Y-90968456D01*
X165795646Y-90869853D01*
X165670147Y-90744354D01*
X165571544Y-90596784D01*
X165503624Y-90432812D01*
X165469000Y-90258741D01*
X165469000Y-90081259D01*
X165503624Y-89907188D01*
X165571544Y-89743216D01*
X165670147Y-89595646D01*
X165795646Y-89470147D01*
X165943216Y-89371544D01*
X166107188Y-89303624D01*
X166256488Y-89273927D01*
X166281258Y-89269000D01*
X166458742Y-89269000D01*
X166483512Y-89273927D01*
G37*
G36*
X169023512Y-89273927D02*
G01*
X169172812Y-89303624D01*
X169336784Y-89371544D01*
X169484354Y-89470147D01*
X169609853Y-89595646D01*
X169708456Y-89743216D01*
X169776376Y-89907188D01*
X169811000Y-90081259D01*
X169811000Y-90258741D01*
X169776376Y-90432812D01*
X169708456Y-90596784D01*
X169609853Y-90744354D01*
X169484354Y-90869853D01*
X169336784Y-90968456D01*
X169172812Y-91036376D01*
X169023512Y-91066073D01*
X168998742Y-91071000D01*
X168821258Y-91071000D01*
X168796488Y-91066073D01*
X168647188Y-91036376D01*
X168483216Y-90968456D01*
X168335646Y-90869853D01*
X168210147Y-90744354D01*
X168111544Y-90596784D01*
X168043624Y-90432812D01*
X168009000Y-90258741D01*
X168009000Y-90081259D01*
X168043624Y-89907188D01*
X168111544Y-89743216D01*
X168210147Y-89595646D01*
X168335646Y-89470147D01*
X168483216Y-89371544D01*
X168647188Y-89303624D01*
X168796488Y-89273927D01*
X168821258Y-89269000D01*
X168998742Y-89269000D01*
X169023512Y-89273927D01*
G37*
G36*
X171563512Y-89273927D02*
G01*
X171712812Y-89303624D01*
X171876784Y-89371544D01*
X172024354Y-89470147D01*
X172149853Y-89595646D01*
X172248456Y-89743216D01*
X172316376Y-89907188D01*
X172351000Y-90081259D01*
X172351000Y-90258741D01*
X172316376Y-90432812D01*
X172248456Y-90596784D01*
X172149853Y-90744354D01*
X172024354Y-90869853D01*
X171876784Y-90968456D01*
X171712812Y-91036376D01*
X171563512Y-91066073D01*
X171538742Y-91071000D01*
X171361258Y-91071000D01*
X171336488Y-91066073D01*
X171187188Y-91036376D01*
X171023216Y-90968456D01*
X170875646Y-90869853D01*
X170750147Y-90744354D01*
X170651544Y-90596784D01*
X170583624Y-90432812D01*
X170549000Y-90258741D01*
X170549000Y-90081259D01*
X170583624Y-89907188D01*
X170651544Y-89743216D01*
X170750147Y-89595646D01*
X170875646Y-89470147D01*
X171023216Y-89371544D01*
X171187188Y-89303624D01*
X171336488Y-89273927D01*
X171361258Y-89269000D01*
X171538742Y-89269000D01*
X171563512Y-89273927D01*
G37*
G36*
X174103512Y-89273927D02*
G01*
X174252812Y-89303624D01*
X174416784Y-89371544D01*
X174564354Y-89470147D01*
X174689853Y-89595646D01*
X174788456Y-89743216D01*
X174856376Y-89907188D01*
X174891000Y-90081259D01*
X174891000Y-90258741D01*
X174856376Y-90432812D01*
X174788456Y-90596784D01*
X174689853Y-90744354D01*
X174564354Y-90869853D01*
X174416784Y-90968456D01*
X174252812Y-91036376D01*
X174103512Y-91066073D01*
X174078742Y-91071000D01*
X173901258Y-91071000D01*
X173876488Y-91066073D01*
X173727188Y-91036376D01*
X173563216Y-90968456D01*
X173415646Y-90869853D01*
X173290147Y-90744354D01*
X173191544Y-90596784D01*
X173123624Y-90432812D01*
X173089000Y-90258741D01*
X173089000Y-90081259D01*
X173123624Y-89907188D01*
X173191544Y-89743216D01*
X173290147Y-89595646D01*
X173415646Y-89470147D01*
X173563216Y-89371544D01*
X173727188Y-89303624D01*
X173876488Y-89273927D01*
X173901258Y-89269000D01*
X174078742Y-89269000D01*
X174103512Y-89273927D01*
G37*
G36*
X163943512Y-89273927D02*
G01*
X164092812Y-89303624D01*
X164256784Y-89371544D01*
X164404354Y-89470147D01*
X164529853Y-89595646D01*
X164628456Y-89743216D01*
X164696376Y-89907188D01*
X164731000Y-90081259D01*
X164731000Y-90258741D01*
X164696376Y-90432812D01*
X164628456Y-90596784D01*
X164529853Y-90744354D01*
X164404354Y-90869853D01*
X164256784Y-90968456D01*
X164092812Y-91036376D01*
X163943512Y-91066073D01*
X163918742Y-91071000D01*
X163741258Y-91071000D01*
X163716488Y-91066073D01*
X163567188Y-91036376D01*
X163403216Y-90968456D01*
X163255646Y-90869853D01*
X163130147Y-90744354D01*
X163031544Y-90596784D01*
X162963624Y-90432812D01*
X162929000Y-90258741D01*
X162929000Y-90081259D01*
X162963624Y-89907188D01*
X163031544Y-89743216D01*
X163130147Y-89595646D01*
X163255646Y-89470147D01*
X163403216Y-89371544D01*
X163567188Y-89303624D01*
X163716488Y-89273927D01*
X163741258Y-89269000D01*
X163918742Y-89269000D01*
X163943512Y-89273927D01*
G37*
M02*
