G04 #@! TF.GenerationSoftware,KiCad,Pcbnew,(5.1.5)-3*
G04 #@! TF.CreationDate,2019-12-24T16:56:49-08:00*
G04 #@! TF.ProjectId,NBIoT Wing,4e42496f-5420-4576-996e-672e6b696361,rev?*
G04 #@! TF.SameCoordinates,Original*
G04 #@! TF.FileFunction,Legend,Top*
G04 #@! TF.FilePolarity,Positive*
%FSLAX46Y46*%
G04 Gerber Fmt 4.6, Leading zero omitted, Abs format (unit mm)*
G04 Created by KiCad (PCBNEW (5.1.5)-3) date 2019-12-24 16:56:49*
%MOMM*%
%LPD*%
G04 APERTURE LIST*
%ADD10C,0.150000*%
%ADD11C,0.250000*%
%ADD12C,0.200000*%
%ADD13C,0.120000*%
%ADD14C,0.127000*%
G04 APERTURE END LIST*
D10*
X144138666Y-101199904D02*
X143872000Y-100818952D01*
X143681523Y-101199904D02*
X143681523Y-100399904D01*
X143986285Y-100399904D01*
X144062476Y-100438000D01*
X144100571Y-100476095D01*
X144138666Y-100552285D01*
X144138666Y-100666571D01*
X144100571Y-100742761D01*
X144062476Y-100780857D01*
X143986285Y-100818952D01*
X143681523Y-100818952D01*
X144633904Y-100399904D02*
X144710095Y-100399904D01*
X144786285Y-100438000D01*
X144824380Y-100476095D01*
X144862476Y-100552285D01*
X144900571Y-100704666D01*
X144900571Y-100895142D01*
X144862476Y-101047523D01*
X144824380Y-101123714D01*
X144786285Y-101161809D01*
X144710095Y-101199904D01*
X144633904Y-101199904D01*
X144557714Y-101161809D01*
X144519619Y-101123714D01*
X144481523Y-101047523D01*
X144443428Y-100895142D01*
X144443428Y-100704666D01*
X144481523Y-100552285D01*
X144519619Y-100476095D01*
X144557714Y-100438000D01*
X144633904Y-100399904D01*
D11*
X143621619Y-99766380D02*
X143621619Y-98766380D01*
X144193047Y-99766380D01*
X144193047Y-98766380D01*
X145002571Y-99242571D02*
X145145428Y-99290190D01*
X145193047Y-99337809D01*
X145240666Y-99433047D01*
X145240666Y-99575904D01*
X145193047Y-99671142D01*
X145145428Y-99718761D01*
X145050190Y-99766380D01*
X144669238Y-99766380D01*
X144669238Y-98766380D01*
X145002571Y-98766380D01*
X145097809Y-98814000D01*
X145145428Y-98861619D01*
X145193047Y-98956857D01*
X145193047Y-99052095D01*
X145145428Y-99147333D01*
X145097809Y-99194952D01*
X145002571Y-99242571D01*
X144669238Y-99242571D01*
X145669238Y-99766380D02*
X145669238Y-98766380D01*
X146288285Y-99766380D02*
X146193047Y-99718761D01*
X146145428Y-99671142D01*
X146097809Y-99575904D01*
X146097809Y-99290190D01*
X146145428Y-99194952D01*
X146193047Y-99147333D01*
X146288285Y-99099714D01*
X146431142Y-99099714D01*
X146526380Y-99147333D01*
X146574000Y-99194952D01*
X146621619Y-99290190D01*
X146621619Y-99575904D01*
X146574000Y-99671142D01*
X146526380Y-99718761D01*
X146431142Y-99766380D01*
X146288285Y-99766380D01*
X146907333Y-98766380D02*
X147478761Y-98766380D01*
X147193047Y-99766380D02*
X147193047Y-98766380D01*
X148478761Y-98766380D02*
X148716857Y-99766380D01*
X148907333Y-99052095D01*
X149097809Y-99766380D01*
X149335904Y-98766380D01*
X149716857Y-99766380D02*
X149716857Y-99099714D01*
X149716857Y-98766380D02*
X149669238Y-98814000D01*
X149716857Y-98861619D01*
X149764476Y-98814000D01*
X149716857Y-98766380D01*
X149716857Y-98861619D01*
X150193047Y-99099714D02*
X150193047Y-99766380D01*
X150193047Y-99194952D02*
X150240666Y-99147333D01*
X150335904Y-99099714D01*
X150478761Y-99099714D01*
X150574000Y-99147333D01*
X150621619Y-99242571D01*
X150621619Y-99766380D01*
X151526380Y-99099714D02*
X151526380Y-99909238D01*
X151478761Y-100004476D01*
X151431142Y-100052095D01*
X151335904Y-100099714D01*
X151193047Y-100099714D01*
X151097809Y-100052095D01*
X151526380Y-99718761D02*
X151431142Y-99766380D01*
X151240666Y-99766380D01*
X151145428Y-99718761D01*
X151097809Y-99671142D01*
X151050190Y-99575904D01*
X151050190Y-99290190D01*
X151097809Y-99194952D01*
X151145428Y-99147333D01*
X151240666Y-99099714D01*
X151431142Y-99099714D01*
X151526380Y-99147333D01*
D10*
X141376476Y-102431904D02*
X141833619Y-102431904D01*
X141605047Y-103231904D02*
X141605047Y-102431904D01*
X142024095Y-102431904D02*
X142557428Y-103231904D01*
X142557428Y-102431904D02*
X142024095Y-103231904D01*
X138582476Y-102470000D02*
X138506285Y-102431904D01*
X138392000Y-102431904D01*
X138277714Y-102470000D01*
X138201523Y-102546190D01*
X138163428Y-102622380D01*
X138125333Y-102774761D01*
X138125333Y-102889047D01*
X138163428Y-103041428D01*
X138201523Y-103117619D01*
X138277714Y-103193809D01*
X138392000Y-103231904D01*
X138468190Y-103231904D01*
X138582476Y-103193809D01*
X138620571Y-103155714D01*
X138620571Y-102889047D01*
X138468190Y-102889047D01*
X138963428Y-103231904D02*
X138963428Y-102431904D01*
X139420571Y-103231904D01*
X139420571Y-102431904D01*
X139801523Y-103231904D02*
X139801523Y-102431904D01*
X139992000Y-102431904D01*
X140106285Y-102470000D01*
X140182476Y-102546190D01*
X140220571Y-102622380D01*
X140258666Y-102774761D01*
X140258666Y-102889047D01*
X140220571Y-103041428D01*
X140182476Y-103117619D01*
X140106285Y-103193809D01*
X139992000Y-103231904D01*
X139801523Y-103231904D01*
X136518666Y-103231904D02*
X136252000Y-102850952D01*
X136061523Y-103231904D02*
X136061523Y-102431904D01*
X136366285Y-102431904D01*
X136442476Y-102470000D01*
X136480571Y-102508095D01*
X136518666Y-102584285D01*
X136518666Y-102698571D01*
X136480571Y-102774761D01*
X136442476Y-102812857D01*
X136366285Y-102850952D01*
X136061523Y-102850952D01*
X136785333Y-102431904D02*
X137318666Y-103231904D01*
X137318666Y-102431904D02*
X136785333Y-103231904D01*
D12*
X132743714Y-107084000D02*
X133172285Y-107084000D01*
X132658000Y-107341142D02*
X132958000Y-106441142D01*
X133258000Y-107341142D01*
X133558000Y-106441142D02*
X133558000Y-107169714D01*
X133600857Y-107255428D01*
X133643714Y-107298285D01*
X133729428Y-107341142D01*
X133900857Y-107341142D01*
X133986571Y-107298285D01*
X134029428Y-107255428D01*
X134072285Y-107169714D01*
X134072285Y-106441142D01*
X134415142Y-106441142D02*
X135015142Y-107341142D01*
X135015142Y-106441142D02*
X134415142Y-107341142D01*
X132722285Y-105563142D02*
X132722285Y-104663142D01*
X132936571Y-104663142D01*
X133065142Y-104706000D01*
X133150857Y-104791714D01*
X133193714Y-104877428D01*
X133236571Y-105048857D01*
X133236571Y-105177428D01*
X133193714Y-105348857D01*
X133150857Y-105434571D01*
X133065142Y-105520285D01*
X132936571Y-105563142D01*
X132722285Y-105563142D01*
X133922285Y-105091714D02*
X134050857Y-105134571D01*
X134093714Y-105177428D01*
X134136571Y-105263142D01*
X134136571Y-105391714D01*
X134093714Y-105477428D01*
X134050857Y-105520285D01*
X133965142Y-105563142D01*
X133622285Y-105563142D01*
X133622285Y-104663142D01*
X133922285Y-104663142D01*
X134008000Y-104706000D01*
X134050857Y-104748857D01*
X134093714Y-104834571D01*
X134093714Y-104920285D01*
X134050857Y-105006000D01*
X134008000Y-105048857D01*
X133922285Y-105091714D01*
X133622285Y-105091714D01*
X134993714Y-104706000D02*
X134908000Y-104663142D01*
X134779428Y-104663142D01*
X134650857Y-104706000D01*
X134565142Y-104791714D01*
X134522285Y-104877428D01*
X134479428Y-105048857D01*
X134479428Y-105177428D01*
X134522285Y-105348857D01*
X134565142Y-105434571D01*
X134650857Y-105520285D01*
X134779428Y-105563142D01*
X134865142Y-105563142D01*
X134993714Y-105520285D01*
X135036571Y-105477428D01*
X135036571Y-105177428D01*
X134865142Y-105177428D01*
D13*
X143189000Y-108645000D02*
X143189000Y-103445000D01*
X138049000Y-108645000D02*
X143189000Y-108645000D01*
X135449000Y-103445000D02*
X143189000Y-103445000D01*
X135449000Y-106045000D02*
X135449000Y-103445000D01*
X136779000Y-108645000D02*
X135449000Y-108645000D01*
X135449000Y-108645000D02*
X135449000Y-107315000D01*
X176300000Y-104840000D02*
X175800000Y-104840000D01*
X176300000Y-103440000D02*
X175800000Y-103440000D01*
X176300000Y-103440000D02*
X176300000Y-102840000D01*
X176300000Y-102840000D02*
X176500000Y-102640000D01*
X176500000Y-105640000D02*
X176300000Y-105640000D01*
X176300000Y-105640000D02*
X176300000Y-104840000D01*
X179300000Y-104840000D02*
X179300000Y-105640000D01*
X179300000Y-105640000D02*
X179100000Y-105640000D01*
X179100000Y-102640000D02*
X179300000Y-102640000D01*
X179300000Y-102640000D02*
X179300000Y-103440000D01*
X176502000Y-94756000D02*
X172292000Y-94756000D01*
X172292000Y-94756000D02*
X172292000Y-97776000D01*
X172292000Y-97776000D02*
X176502000Y-97776000D01*
X173573221Y-102364000D02*
X173898779Y-102364000D01*
X173573221Y-101344000D02*
X173898779Y-101344000D01*
X173573221Y-98296000D02*
X173898779Y-98296000D01*
X173573221Y-99316000D02*
X173898779Y-99316000D01*
X173573221Y-100840000D02*
X173898779Y-100840000D01*
X173573221Y-99820000D02*
X173898779Y-99820000D01*
X135856000Y-98960000D02*
X135856000Y-101360000D01*
X138956000Y-101360000D02*
X138956000Y-98410000D01*
X152184000Y-95531000D02*
X149899000Y-95531000D01*
X149899000Y-95531000D02*
X149899000Y-97001000D01*
X149899000Y-97001000D02*
X152184000Y-97001000D01*
X132653000Y-96155000D02*
X134203000Y-96155000D01*
X132653000Y-96155000D02*
X132653000Y-96455000D01*
X129853000Y-96455000D02*
X132653000Y-96455000D01*
X132653000Y-104455000D02*
X134203000Y-104455000D01*
X132653000Y-104155000D02*
X132653000Y-104455000D01*
X129853000Y-104155000D02*
X132653000Y-104155000D01*
X135903000Y-99405000D02*
X135453000Y-99005000D01*
X135903000Y-98605000D02*
X135903000Y-99405000D01*
X135453000Y-99005000D02*
X135903000Y-98605000D01*
X150052500Y-91955500D02*
X150052500Y-92885500D01*
X150052500Y-95115500D02*
X150052500Y-94185500D01*
X150052500Y-95115500D02*
X152212500Y-95115500D01*
X150052500Y-91955500D02*
X151512500Y-91955500D01*
X147630000Y-92458000D02*
X146700000Y-92458000D01*
X144470000Y-92458000D02*
X145400000Y-92458000D01*
X144470000Y-92458000D02*
X144470000Y-94618000D01*
X147630000Y-92458000D02*
X147630000Y-93918000D01*
X141661000Y-92458000D02*
X141661000Y-93918000D01*
X138501000Y-92458000D02*
X138501000Y-94618000D01*
X138501000Y-92458000D02*
X139431000Y-92458000D01*
X141661000Y-92458000D02*
X140731000Y-92458000D01*
X173136779Y-93601000D02*
X172811221Y-93601000D01*
X173136779Y-92581000D02*
X172811221Y-92581000D01*
X140553221Y-98296000D02*
X140878779Y-98296000D01*
X140553221Y-99316000D02*
X140878779Y-99316000D01*
X140553221Y-102110000D02*
X140878779Y-102110000D01*
X140553221Y-101090000D02*
X140878779Y-101090000D01*
X151157721Y-97280000D02*
X151483279Y-97280000D01*
X151157721Y-98300000D02*
X151483279Y-98300000D01*
X146085779Y-95248000D02*
X145760221Y-95248000D01*
X146085779Y-96268000D02*
X145760221Y-96268000D01*
X140243779Y-96268000D02*
X139918221Y-96268000D01*
X140243779Y-95248000D02*
X139918221Y-95248000D01*
X143000000Y-93055221D02*
X143000000Y-93380779D01*
X144020000Y-93055221D02*
X144020000Y-93380779D01*
X136904000Y-93055221D02*
X136904000Y-93380779D01*
X137924000Y-93055221D02*
X137924000Y-93380779D01*
X146720000Y-107506000D02*
X145970000Y-107506000D01*
X145970000Y-107506000D02*
X145970000Y-107256000D01*
X148670000Y-107506000D02*
X148670000Y-107256000D01*
X146720000Y-102806000D02*
X145970000Y-102806000D01*
X145970000Y-102806000D02*
X145970000Y-103056000D01*
X147920000Y-102806000D02*
X148670000Y-102806000D01*
X148670000Y-102806000D02*
X148670000Y-103056000D01*
D14*
X171485000Y-95230000D02*
X171485000Y-92355000D01*
X171485000Y-92355000D02*
X169860000Y-92355000D01*
X171485000Y-105430000D02*
X171485000Y-108305000D01*
X171485000Y-108305000D02*
X169860000Y-108305000D01*
X155260000Y-92355000D02*
X153635000Y-92355000D01*
X153635000Y-92355000D02*
X153635000Y-95230000D01*
X153635000Y-105430000D02*
X153635000Y-108305000D01*
X153635000Y-108305000D02*
X155260000Y-108305000D01*
D12*
X169460000Y-90430000D02*
G75*
G03X169460000Y-90430000I-100000J0D01*
G01*
D13*
X173484000Y-104302779D02*
X173484000Y-103977221D01*
X172464000Y-104302779D02*
X172464000Y-103977221D01*
X173988000Y-104302779D02*
X173988000Y-103977221D01*
X175008000Y-104302779D02*
X175008000Y-103977221D01*
X173898779Y-106936000D02*
X173573221Y-106936000D01*
X173898779Y-105916000D02*
X173573221Y-105916000D01*
D10*
X161698095Y-99882380D02*
X161698095Y-100691904D01*
X161745714Y-100787142D01*
X161793333Y-100834761D01*
X161888571Y-100882380D01*
X162079047Y-100882380D01*
X162174285Y-100834761D01*
X162221904Y-100787142D01*
X162269523Y-100691904D01*
X162269523Y-99882380D01*
X162698095Y-99977619D02*
X162745714Y-99930000D01*
X162840952Y-99882380D01*
X163079047Y-99882380D01*
X163174285Y-99930000D01*
X163221904Y-99977619D01*
X163269523Y-100072857D01*
X163269523Y-100168095D01*
X163221904Y-100310952D01*
X162650476Y-100882380D01*
X163269523Y-100882380D01*
M02*
