G04 #@! TF.GenerationSoftware,KiCad,Pcbnew,(5.1.5)-3*
G04 #@! TF.CreationDate,2019-12-24T16:56:49-08:00*
G04 #@! TF.ProjectId,NBIoT Wing,4e42496f-5420-4576-996e-672e6b696361,rev?*
G04 #@! TF.SameCoordinates,Original*
G04 #@! TF.FileFunction,Copper,L2,Inr*
G04 #@! TF.FilePolarity,Positive*
%FSLAX46Y46*%
G04 Gerber Fmt 4.6, Leading zero omitted, Abs format (unit mm)*
G04 Created by KiCad (PCBNEW (5.1.5)-3) date 2019-12-24 16:56:49*
%MOMM*%
%LPD*%
G04 APERTURE LIST*
%ADD10C,1.700000*%
%ADD11O,1.700000X1.700000*%
%ADD12C,3.556000*%
%ADD13O,1.500000X1.100000*%
%ADD14O,1.700000X1.350000*%
%ADD15C,0.800000*%
%ADD16C,0.900000*%
%ADD17C,0.254000*%
G04 APERTURE END LIST*
D10*
X146050000Y-90170000D03*
D11*
X148590000Y-90170000D03*
X151130000Y-90170000D03*
X153670000Y-90170000D03*
X156210000Y-90170000D03*
X158750000Y-90170000D03*
X161290000Y-90170000D03*
X163830000Y-90170000D03*
X166370000Y-90170000D03*
X168910000Y-90170000D03*
X171450000Y-90170000D03*
X173990000Y-90170000D03*
D10*
X135890000Y-110490000D03*
D11*
X138430000Y-110490000D03*
X140970000Y-110490000D03*
X143510000Y-110490000D03*
X146050000Y-110490000D03*
X148590000Y-110490000D03*
X151130000Y-110490000D03*
X153670000Y-110490000D03*
X156210000Y-110490000D03*
X158750000Y-110490000D03*
X161290000Y-110490000D03*
X163830000Y-110490000D03*
X166370000Y-110490000D03*
X168910000Y-110490000D03*
X171450000Y-110490000D03*
X173990000Y-110490000D03*
D10*
X136779000Y-107315000D03*
D11*
X136779000Y-104775000D03*
X139319000Y-107315000D03*
X139319000Y-104775000D03*
X141859000Y-107315000D03*
X141859000Y-104775000D03*
D12*
X177800000Y-109220000D03*
X132080000Y-109220000D03*
X177800000Y-91440000D03*
X132080000Y-91440000D03*
D13*
X134473000Y-97885000D03*
X134473000Y-102725000D03*
D14*
X131473000Y-97575000D03*
X131473000Y-103035000D03*
D15*
X177355500Y-101028500D03*
X178879500Y-101028500D03*
X178117500Y-99504500D03*
X176593500Y-99250500D03*
X178371500Y-96456500D03*
X175831500Y-101028500D03*
X172910500Y-108204000D03*
X177800000Y-104140000D03*
X174244000Y-107950000D03*
X171196000Y-106680000D03*
X174752000Y-96520000D03*
X139787669Y-99955662D03*
X160274000Y-99314000D03*
X152781000Y-92646500D03*
X148526500Y-102362000D03*
X169291000Y-99250500D03*
X169989500Y-92900500D03*
X174752000Y-93027500D03*
X168211500Y-105791000D03*
X177292000Y-94234000D03*
X171704000Y-108458000D03*
X170434000Y-108458000D03*
X177419000Y-106680000D03*
X157226000Y-105156000D03*
X165100000Y-91079989D03*
X167386000Y-94996000D03*
X156926330Y-96737010D03*
X159766000Y-105030002D03*
D16*
X172212000Y-97790000D03*
X156357989Y-98535909D03*
X143677015Y-95036015D03*
X146494500Y-107823000D03*
X137604500Y-94996000D03*
X149352000Y-98044000D03*
D15*
X145006096Y-106581021D03*
X144526000Y-101854000D03*
X142430500Y-90106500D03*
X142105284Y-94406505D03*
X143002000Y-91186000D03*
X143129000Y-106299000D03*
X144145000Y-107188000D03*
X143673990Y-104140000D03*
X140589000Y-102743000D03*
X148336000Y-107696000D03*
X147574000Y-101600000D03*
X151384000Y-101092000D03*
X155932350Y-102854938D03*
X152971500Y-93789500D03*
X141097000Y-97028000D03*
X141351000Y-99758500D03*
X156676801Y-101320219D03*
X156260003Y-100388968D03*
X142748000Y-101346000D03*
X154434960Y-93915847D03*
X154559000Y-92710000D03*
X161925000Y-94980011D03*
X167386000Y-91529998D03*
X166052500Y-94996000D03*
X151459964Y-104830955D03*
X161376915Y-107656044D03*
X150936678Y-103978784D03*
X162709995Y-107557001D03*
X168910000Y-102616000D03*
X151132250Y-102877077D03*
X168159223Y-101599428D03*
X150829294Y-101924060D03*
X163953105Y-101294194D03*
X155257500Y-96012000D03*
X159131000Y-93980000D03*
X159512000Y-101727000D03*
X166433500Y-103378000D03*
D17*
G36*
X141513295Y-89616244D02*
G01*
X141435274Y-89804602D01*
X141395500Y-90004561D01*
X141395500Y-90208439D01*
X141435274Y-90408398D01*
X141513295Y-90596756D01*
X141626563Y-90766274D01*
X141770726Y-90910437D01*
X141940244Y-91023705D01*
X141976055Y-91038538D01*
X141967000Y-91084061D01*
X141967000Y-91287939D01*
X142006774Y-91487898D01*
X142084795Y-91676256D01*
X142198063Y-91845774D01*
X142342226Y-91989937D01*
X142511744Y-92103205D01*
X142700102Y-92181226D01*
X142900061Y-92221000D01*
X143103939Y-92221000D01*
X143303898Y-92181226D01*
X143492256Y-92103205D01*
X143661774Y-91989937D01*
X143805937Y-91845774D01*
X143919205Y-91676256D01*
X143997226Y-91487898D01*
X144037000Y-91287939D01*
X144037000Y-91084061D01*
X143997226Y-90884102D01*
X143919205Y-90695744D01*
X143805937Y-90526226D01*
X143661774Y-90382063D01*
X143492256Y-90268795D01*
X143456445Y-90253962D01*
X143465500Y-90208439D01*
X143465500Y-90004561D01*
X143425726Y-89804602D01*
X143347705Y-89616244D01*
X143310124Y-89560000D01*
X144695318Y-89560000D01*
X144622068Y-89736842D01*
X144565000Y-90023740D01*
X144565000Y-90316260D01*
X144622068Y-90603158D01*
X144734010Y-90873411D01*
X144896525Y-91116632D01*
X145103368Y-91323475D01*
X145346589Y-91485990D01*
X145616842Y-91597932D01*
X145903740Y-91655000D01*
X146196260Y-91655000D01*
X146483158Y-91597932D01*
X146753411Y-91485990D01*
X146996632Y-91323475D01*
X147203475Y-91116632D01*
X147320000Y-90942240D01*
X147436525Y-91116632D01*
X147643368Y-91323475D01*
X147886589Y-91485990D01*
X148156842Y-91597932D01*
X148443740Y-91655000D01*
X148736260Y-91655000D01*
X149023158Y-91597932D01*
X149293411Y-91485990D01*
X149536632Y-91323475D01*
X149743475Y-91116632D01*
X149860000Y-90942240D01*
X149976525Y-91116632D01*
X150183368Y-91323475D01*
X150426589Y-91485990D01*
X150696842Y-91597932D01*
X150983740Y-91655000D01*
X151276260Y-91655000D01*
X151563158Y-91597932D01*
X151833411Y-91485990D01*
X152076632Y-91323475D01*
X152283475Y-91116632D01*
X152400000Y-90942240D01*
X152516525Y-91116632D01*
X152723368Y-91323475D01*
X152966589Y-91485990D01*
X153236842Y-91597932D01*
X153523740Y-91655000D01*
X153816260Y-91655000D01*
X154103158Y-91597932D01*
X154373411Y-91485990D01*
X154616632Y-91323475D01*
X154823475Y-91116632D01*
X154940000Y-90942240D01*
X155056525Y-91116632D01*
X155263368Y-91323475D01*
X155506589Y-91485990D01*
X155776842Y-91597932D01*
X156063740Y-91655000D01*
X156356260Y-91655000D01*
X156643158Y-91597932D01*
X156913411Y-91485990D01*
X157156632Y-91323475D01*
X157363475Y-91116632D01*
X157480000Y-90942240D01*
X157596525Y-91116632D01*
X157803368Y-91323475D01*
X158046589Y-91485990D01*
X158316842Y-91597932D01*
X158603740Y-91655000D01*
X158896260Y-91655000D01*
X159183158Y-91597932D01*
X159453411Y-91485990D01*
X159696632Y-91323475D01*
X159903475Y-91116632D01*
X160020000Y-90942240D01*
X160136525Y-91116632D01*
X160343368Y-91323475D01*
X160586589Y-91485990D01*
X160856842Y-91597932D01*
X161143740Y-91655000D01*
X161436260Y-91655000D01*
X161723158Y-91597932D01*
X161993411Y-91485990D01*
X162236632Y-91323475D01*
X162443475Y-91116632D01*
X162560000Y-90942240D01*
X162676525Y-91116632D01*
X162883368Y-91323475D01*
X163126589Y-91485990D01*
X163396842Y-91597932D01*
X163683740Y-91655000D01*
X163976260Y-91655000D01*
X164263158Y-91597932D01*
X164533411Y-91485990D01*
X164776632Y-91323475D01*
X164983475Y-91116632D01*
X165100000Y-90942240D01*
X165216525Y-91116632D01*
X165423368Y-91323475D01*
X165666589Y-91485990D01*
X165936842Y-91597932D01*
X166223740Y-91655000D01*
X166355587Y-91655000D01*
X166390774Y-91831896D01*
X166468795Y-92020254D01*
X166582063Y-92189772D01*
X166726226Y-92333935D01*
X166895744Y-92447203D01*
X167084102Y-92525224D01*
X167284061Y-92564998D01*
X167487939Y-92564998D01*
X167687898Y-92525224D01*
X167876256Y-92447203D01*
X168045774Y-92333935D01*
X168189937Y-92189772D01*
X168303205Y-92020254D01*
X168381226Y-91831896D01*
X168421000Y-91631937D01*
X168421000Y-91574802D01*
X168476842Y-91597932D01*
X168763740Y-91655000D01*
X169056260Y-91655000D01*
X169343158Y-91597932D01*
X169613411Y-91485990D01*
X169856632Y-91323475D01*
X170063475Y-91116632D01*
X170180000Y-90942240D01*
X170296525Y-91116632D01*
X170503368Y-91323475D01*
X170746589Y-91485990D01*
X171016842Y-91597932D01*
X171303740Y-91655000D01*
X171596260Y-91655000D01*
X171883158Y-91597932D01*
X172153411Y-91485990D01*
X172396632Y-91323475D01*
X172603475Y-91116632D01*
X172720000Y-90942240D01*
X172836525Y-91116632D01*
X173043368Y-91323475D01*
X173286589Y-91485990D01*
X173556842Y-91597932D01*
X173843740Y-91655000D01*
X174136260Y-91655000D01*
X174423158Y-91597932D01*
X174693411Y-91485990D01*
X174936632Y-91323475D01*
X175143475Y-91116632D01*
X175305990Y-90873411D01*
X175417932Y-90603158D01*
X175475000Y-90316260D01*
X175475000Y-90023740D01*
X175417932Y-89736842D01*
X175344682Y-89560000D01*
X176270334Y-89560000D01*
X176261802Y-89565701D01*
X175925701Y-89901802D01*
X175661628Y-90297016D01*
X175479731Y-90736154D01*
X175387000Y-91202340D01*
X175387000Y-91677660D01*
X175479731Y-92143846D01*
X175661628Y-92582984D01*
X175925701Y-92978198D01*
X176261802Y-93314299D01*
X176657016Y-93578372D01*
X177096154Y-93760269D01*
X177562340Y-93853000D01*
X178037660Y-93853000D01*
X178503846Y-93760269D01*
X178942984Y-93578372D01*
X179338198Y-93314299D01*
X179674299Y-92978198D01*
X179680000Y-92969666D01*
X179680001Y-107690336D01*
X179674299Y-107681802D01*
X179338198Y-107345701D01*
X178942984Y-107081628D01*
X178503846Y-106899731D01*
X178037660Y-106807000D01*
X177562340Y-106807000D01*
X177096154Y-106899731D01*
X176657016Y-107081628D01*
X176261802Y-107345701D01*
X175925701Y-107681802D01*
X175661628Y-108077016D01*
X175479731Y-108516154D01*
X175387000Y-108982340D01*
X175387000Y-109457660D01*
X175479731Y-109923846D01*
X175661628Y-110362984D01*
X175925701Y-110758198D01*
X176261802Y-111094299D01*
X176270334Y-111100000D01*
X175341696Y-111100000D01*
X175431481Y-110846891D01*
X175310814Y-110617000D01*
X174117000Y-110617000D01*
X174117000Y-110637000D01*
X173863000Y-110637000D01*
X173863000Y-110617000D01*
X173843000Y-110617000D01*
X173843000Y-110363000D01*
X173863000Y-110363000D01*
X173863000Y-109169845D01*
X174117000Y-109169845D01*
X174117000Y-110363000D01*
X175310814Y-110363000D01*
X175431481Y-110133109D01*
X175334157Y-109858748D01*
X175185178Y-109608645D01*
X174990269Y-109392412D01*
X174756920Y-109218359D01*
X174494099Y-109093175D01*
X174346890Y-109048524D01*
X174117000Y-109169845D01*
X173863000Y-109169845D01*
X173633110Y-109048524D01*
X173485901Y-109093175D01*
X173223080Y-109218359D01*
X172989731Y-109392412D01*
X172794822Y-109608645D01*
X172725195Y-109725534D01*
X172603475Y-109543368D01*
X172396632Y-109336525D01*
X172153411Y-109174010D01*
X171883158Y-109062068D01*
X171596260Y-109005000D01*
X171303740Y-109005000D01*
X171016842Y-109062068D01*
X170746589Y-109174010D01*
X170503368Y-109336525D01*
X170296525Y-109543368D01*
X170180000Y-109717760D01*
X170063475Y-109543368D01*
X169856632Y-109336525D01*
X169613411Y-109174010D01*
X169343158Y-109062068D01*
X169056260Y-109005000D01*
X168763740Y-109005000D01*
X168476842Y-109062068D01*
X168206589Y-109174010D01*
X167963368Y-109336525D01*
X167756525Y-109543368D01*
X167640000Y-109717760D01*
X167523475Y-109543368D01*
X167316632Y-109336525D01*
X167073411Y-109174010D01*
X166803158Y-109062068D01*
X166516260Y-109005000D01*
X166223740Y-109005000D01*
X165936842Y-109062068D01*
X165666589Y-109174010D01*
X165423368Y-109336525D01*
X165216525Y-109543368D01*
X165100000Y-109717760D01*
X164983475Y-109543368D01*
X164776632Y-109336525D01*
X164533411Y-109174010D01*
X164263158Y-109062068D01*
X163976260Y-109005000D01*
X163683740Y-109005000D01*
X163396842Y-109062068D01*
X163126589Y-109174010D01*
X162883368Y-109336525D01*
X162676525Y-109543368D01*
X162560000Y-109717760D01*
X162443475Y-109543368D01*
X162236632Y-109336525D01*
X161993411Y-109174010D01*
X161723158Y-109062068D01*
X161436260Y-109005000D01*
X161143740Y-109005000D01*
X160856842Y-109062068D01*
X160586589Y-109174010D01*
X160343368Y-109336525D01*
X160136525Y-109543368D01*
X160020000Y-109717760D01*
X159903475Y-109543368D01*
X159696632Y-109336525D01*
X159453411Y-109174010D01*
X159183158Y-109062068D01*
X158896260Y-109005000D01*
X158603740Y-109005000D01*
X158316842Y-109062068D01*
X158046589Y-109174010D01*
X157803368Y-109336525D01*
X157596525Y-109543368D01*
X157480000Y-109717760D01*
X157363475Y-109543368D01*
X157156632Y-109336525D01*
X156913411Y-109174010D01*
X156643158Y-109062068D01*
X156356260Y-109005000D01*
X156063740Y-109005000D01*
X155776842Y-109062068D01*
X155506589Y-109174010D01*
X155263368Y-109336525D01*
X155056525Y-109543368D01*
X154940000Y-109717760D01*
X154823475Y-109543368D01*
X154616632Y-109336525D01*
X154373411Y-109174010D01*
X154103158Y-109062068D01*
X153816260Y-109005000D01*
X153523740Y-109005000D01*
X153236842Y-109062068D01*
X152966589Y-109174010D01*
X152723368Y-109336525D01*
X152516525Y-109543368D01*
X152400000Y-109717760D01*
X152283475Y-109543368D01*
X152076632Y-109336525D01*
X151833411Y-109174010D01*
X151563158Y-109062068D01*
X151276260Y-109005000D01*
X150983740Y-109005000D01*
X150696842Y-109062068D01*
X150426589Y-109174010D01*
X150183368Y-109336525D01*
X149976525Y-109543368D01*
X149860000Y-109717760D01*
X149743475Y-109543368D01*
X149536632Y-109336525D01*
X149293411Y-109174010D01*
X149023158Y-109062068D01*
X148736260Y-109005000D01*
X148443740Y-109005000D01*
X148156842Y-109062068D01*
X147886589Y-109174010D01*
X147643368Y-109336525D01*
X147436525Y-109543368D01*
X147320000Y-109717760D01*
X147203475Y-109543368D01*
X146996632Y-109336525D01*
X146753411Y-109174010D01*
X146483158Y-109062068D01*
X146196260Y-109005000D01*
X145903740Y-109005000D01*
X145616842Y-109062068D01*
X145346589Y-109174010D01*
X145103368Y-109336525D01*
X144896525Y-109543368D01*
X144774805Y-109725534D01*
X144705178Y-109608645D01*
X144510269Y-109392412D01*
X144276920Y-109218359D01*
X144014099Y-109093175D01*
X143866890Y-109048524D01*
X143637000Y-109169845D01*
X143637000Y-110363000D01*
X143657000Y-110363000D01*
X143657000Y-110617000D01*
X143637000Y-110617000D01*
X143637000Y-110637000D01*
X143383000Y-110637000D01*
X143383000Y-110617000D01*
X143363000Y-110617000D01*
X143363000Y-110363000D01*
X143383000Y-110363000D01*
X143383000Y-109169845D01*
X143153110Y-109048524D01*
X143005901Y-109093175D01*
X142743080Y-109218359D01*
X142509731Y-109392412D01*
X142314822Y-109608645D01*
X142245195Y-109725534D01*
X142123475Y-109543368D01*
X141916632Y-109336525D01*
X141673411Y-109174010D01*
X141403158Y-109062068D01*
X141116260Y-109005000D01*
X140823740Y-109005000D01*
X140536842Y-109062068D01*
X140266589Y-109174010D01*
X140023368Y-109336525D01*
X139816525Y-109543368D01*
X139700000Y-109717760D01*
X139583475Y-109543368D01*
X139376632Y-109336525D01*
X139133411Y-109174010D01*
X138863158Y-109062068D01*
X138576260Y-109005000D01*
X138283740Y-109005000D01*
X137996842Y-109062068D01*
X137726589Y-109174010D01*
X137483368Y-109336525D01*
X137276525Y-109543368D01*
X137160000Y-109717760D01*
X137043475Y-109543368D01*
X136836632Y-109336525D01*
X136593411Y-109174010D01*
X136323158Y-109062068D01*
X136036260Y-109005000D01*
X135743740Y-109005000D01*
X135456842Y-109062068D01*
X135186589Y-109174010D01*
X134943368Y-109336525D01*
X134736525Y-109543368D01*
X134574010Y-109786589D01*
X134462068Y-110056842D01*
X134405000Y-110343740D01*
X134405000Y-110636260D01*
X134462068Y-110923158D01*
X134535318Y-111100000D01*
X133609666Y-111100000D01*
X133618198Y-111094299D01*
X133954299Y-110758198D01*
X134218372Y-110362984D01*
X134400269Y-109923846D01*
X134493000Y-109457660D01*
X134493000Y-108982340D01*
X134400269Y-108516154D01*
X134218372Y-108077016D01*
X133954299Y-107681802D01*
X133618198Y-107345701D01*
X133222984Y-107081628D01*
X132783846Y-106899731D01*
X132317660Y-106807000D01*
X131842340Y-106807000D01*
X131376154Y-106899731D01*
X130937016Y-107081628D01*
X130541802Y-107345701D01*
X130205701Y-107681802D01*
X130200000Y-107690334D01*
X130200000Y-104628740D01*
X135294000Y-104628740D01*
X135294000Y-104921260D01*
X135351068Y-105208158D01*
X135463010Y-105478411D01*
X135625525Y-105721632D01*
X135832368Y-105928475D01*
X136006760Y-106045000D01*
X135832368Y-106161525D01*
X135625525Y-106368368D01*
X135463010Y-106611589D01*
X135351068Y-106881842D01*
X135294000Y-107168740D01*
X135294000Y-107461260D01*
X135351068Y-107748158D01*
X135463010Y-108018411D01*
X135625525Y-108261632D01*
X135832368Y-108468475D01*
X136075589Y-108630990D01*
X136345842Y-108742932D01*
X136632740Y-108800000D01*
X136925260Y-108800000D01*
X137212158Y-108742932D01*
X137482411Y-108630990D01*
X137725632Y-108468475D01*
X137932475Y-108261632D01*
X138054195Y-108079466D01*
X138123822Y-108196355D01*
X138318731Y-108412588D01*
X138552080Y-108586641D01*
X138814901Y-108711825D01*
X138962110Y-108756476D01*
X139192000Y-108635155D01*
X139192000Y-107442000D01*
X139172000Y-107442000D01*
X139172000Y-107188000D01*
X139192000Y-107188000D01*
X139192000Y-104902000D01*
X139172000Y-104902000D01*
X139172000Y-104648000D01*
X139192000Y-104648000D01*
X139192000Y-103454845D01*
X139446000Y-103454845D01*
X139446000Y-104648000D01*
X139466000Y-104648000D01*
X139466000Y-104902000D01*
X139446000Y-104902000D01*
X139446000Y-107188000D01*
X139466000Y-107188000D01*
X139466000Y-107442000D01*
X139446000Y-107442000D01*
X139446000Y-108635155D01*
X139675890Y-108756476D01*
X139823099Y-108711825D01*
X140085920Y-108586641D01*
X140319269Y-108412588D01*
X140514178Y-108196355D01*
X140583805Y-108079466D01*
X140705525Y-108261632D01*
X140912368Y-108468475D01*
X141155589Y-108630990D01*
X141425842Y-108742932D01*
X141712740Y-108800000D01*
X142005260Y-108800000D01*
X142292158Y-108742932D01*
X142562411Y-108630990D01*
X142805632Y-108468475D01*
X143012475Y-108261632D01*
X143174990Y-108018411D01*
X143282175Y-107759642D01*
X143341063Y-107847774D01*
X143485226Y-107991937D01*
X143654744Y-108105205D01*
X143843102Y-108183226D01*
X144043061Y-108223000D01*
X144246939Y-108223000D01*
X144446898Y-108183226D01*
X144635256Y-108105205D01*
X144804774Y-107991937D01*
X144948937Y-107847774D01*
X145062205Y-107678256D01*
X145087984Y-107616021D01*
X145108035Y-107616021D01*
X145307994Y-107576247D01*
X145448939Y-107517865D01*
X145409500Y-107716137D01*
X145409500Y-107929863D01*
X145451196Y-108139483D01*
X145532985Y-108336940D01*
X145651725Y-108514647D01*
X145802853Y-108665775D01*
X145980560Y-108784515D01*
X146178017Y-108866304D01*
X146387637Y-108908000D01*
X146601363Y-108908000D01*
X146810983Y-108866304D01*
X147008440Y-108784515D01*
X147186147Y-108665775D01*
X147337275Y-108514647D01*
X147456015Y-108336940D01*
X147480301Y-108278307D01*
X147532063Y-108355774D01*
X147676226Y-108499937D01*
X147845744Y-108613205D01*
X148034102Y-108691226D01*
X148234061Y-108731000D01*
X148437939Y-108731000D01*
X148637898Y-108691226D01*
X148826256Y-108613205D01*
X148995774Y-108499937D01*
X149139937Y-108355774D01*
X149253205Y-108186256D01*
X149331226Y-107997898D01*
X149371000Y-107797939D01*
X149371000Y-107594061D01*
X149363053Y-107554105D01*
X160341915Y-107554105D01*
X160341915Y-107757983D01*
X160381689Y-107957942D01*
X160459710Y-108146300D01*
X160572978Y-108315818D01*
X160717141Y-108459981D01*
X160886659Y-108573249D01*
X161075017Y-108651270D01*
X161274976Y-108691044D01*
X161478854Y-108691044D01*
X161678813Y-108651270D01*
X161867171Y-108573249D01*
X162036689Y-108459981D01*
X162101481Y-108395189D01*
X162219739Y-108474206D01*
X162408097Y-108552227D01*
X162608056Y-108592001D01*
X162811934Y-108592001D01*
X163011893Y-108552227D01*
X163200251Y-108474206D01*
X163369769Y-108360938D01*
X163513932Y-108216775D01*
X163627200Y-108047257D01*
X163705221Y-107858899D01*
X163744995Y-107658940D01*
X163744995Y-107455062D01*
X163705221Y-107255103D01*
X163627200Y-107066745D01*
X163513932Y-106897227D01*
X163369769Y-106753064D01*
X163200251Y-106639796D01*
X163011893Y-106561775D01*
X162811934Y-106522001D01*
X162608056Y-106522001D01*
X162408097Y-106561775D01*
X162219739Y-106639796D01*
X162050221Y-106753064D01*
X161985429Y-106817856D01*
X161867171Y-106738839D01*
X161678813Y-106660818D01*
X161478854Y-106621044D01*
X161274976Y-106621044D01*
X161075017Y-106660818D01*
X160886659Y-106738839D01*
X160717141Y-106852107D01*
X160572978Y-106996270D01*
X160459710Y-107165788D01*
X160381689Y-107354146D01*
X160341915Y-107554105D01*
X149363053Y-107554105D01*
X149331226Y-107394102D01*
X149253205Y-107205744D01*
X149139937Y-107036226D01*
X148995774Y-106892063D01*
X148826256Y-106778795D01*
X148637898Y-106700774D01*
X148437939Y-106661000D01*
X148234061Y-106661000D01*
X148034102Y-106700774D01*
X147845744Y-106778795D01*
X147676226Y-106892063D01*
X147532063Y-107036226D01*
X147418795Y-107205744D01*
X147406620Y-107235136D01*
X147337275Y-107131353D01*
X147186147Y-106980225D01*
X147008440Y-106861485D01*
X146810983Y-106779696D01*
X146601363Y-106738000D01*
X146387637Y-106738000D01*
X146178017Y-106779696D01*
X146007832Y-106850188D01*
X146041096Y-106682960D01*
X146041096Y-106479082D01*
X146001322Y-106279123D01*
X145923301Y-106090765D01*
X145810033Y-105921247D01*
X145665870Y-105777084D01*
X145496352Y-105663816D01*
X145307994Y-105585795D01*
X145108035Y-105546021D01*
X144904157Y-105546021D01*
X144704198Y-105585795D01*
X144515840Y-105663816D01*
X144346322Y-105777084D01*
X144202159Y-105921247D01*
X144130477Y-106028527D01*
X144124226Y-105997102D01*
X144046205Y-105808744D01*
X143932937Y-105639226D01*
X143788774Y-105495063D01*
X143619256Y-105381795D01*
X143430898Y-105303774D01*
X143261300Y-105270039D01*
X143286932Y-105208158D01*
X143306817Y-105108188D01*
X143372092Y-105135226D01*
X143572051Y-105175000D01*
X143775929Y-105175000D01*
X143975888Y-105135226D01*
X144164246Y-105057205D01*
X144333764Y-104943937D01*
X144477927Y-104799774D01*
X144591195Y-104630256D01*
X144669216Y-104441898D01*
X144708990Y-104241939D01*
X144708990Y-104038061D01*
X144669216Y-103838102D01*
X144591195Y-103649744D01*
X144477927Y-103480226D01*
X144333764Y-103336063D01*
X144164246Y-103222795D01*
X143975888Y-103144774D01*
X143775929Y-103105000D01*
X143572051Y-103105000D01*
X143372092Y-103144774D01*
X143183734Y-103222795D01*
X143014216Y-103336063D01*
X142870053Y-103480226D01*
X142784897Y-103607671D01*
X142562411Y-103459010D01*
X142292158Y-103347068D01*
X142005260Y-103290000D01*
X141712740Y-103290000D01*
X141430820Y-103346078D01*
X141506205Y-103233256D01*
X141584226Y-103044898D01*
X141624000Y-102844939D01*
X141624000Y-102641061D01*
X141584226Y-102441102D01*
X141506205Y-102252744D01*
X141392937Y-102083226D01*
X141248774Y-101939063D01*
X141079256Y-101825795D01*
X140890898Y-101747774D01*
X140690939Y-101708000D01*
X140487061Y-101708000D01*
X140287102Y-101747774D01*
X140098744Y-101825795D01*
X139929226Y-101939063D01*
X139785063Y-102083226D01*
X139671795Y-102252744D01*
X139593774Y-102441102D01*
X139554000Y-102641061D01*
X139554000Y-102844939D01*
X139593774Y-103044898D01*
X139671795Y-103233256D01*
X139754780Y-103357453D01*
X139675890Y-103333524D01*
X139446000Y-103454845D01*
X139192000Y-103454845D01*
X138962110Y-103333524D01*
X138814901Y-103378175D01*
X138552080Y-103503359D01*
X138318731Y-103677412D01*
X138123822Y-103893645D01*
X138054195Y-104010534D01*
X137932475Y-103828368D01*
X137725632Y-103621525D01*
X137482411Y-103459010D01*
X137212158Y-103347068D01*
X136925260Y-103290000D01*
X136632740Y-103290000D01*
X136345842Y-103347068D01*
X136075589Y-103459010D01*
X135832368Y-103621525D01*
X135625525Y-103828368D01*
X135463010Y-104071589D01*
X135351068Y-104341842D01*
X135294000Y-104628740D01*
X130200000Y-104628740D01*
X130200000Y-103743798D01*
X130264522Y-103845196D01*
X130442441Y-104031250D01*
X130653239Y-104179019D01*
X130888815Y-104282824D01*
X131140116Y-104338675D01*
X131346000Y-104188573D01*
X131346000Y-103162000D01*
X131600000Y-103162000D01*
X131600000Y-104188573D01*
X131805884Y-104338675D01*
X132057185Y-104282824D01*
X132292761Y-104179019D01*
X132503559Y-104031250D01*
X132681478Y-103845196D01*
X132819681Y-103628007D01*
X132912857Y-103388029D01*
X132915910Y-103364400D01*
X132792224Y-103162000D01*
X131600000Y-103162000D01*
X131346000Y-103162000D01*
X131326000Y-103162000D01*
X131326000Y-103034744D01*
X133129197Y-103034744D01*
X133133989Y-103073526D01*
X133223869Y-103289039D01*
X133354066Y-103482877D01*
X133519578Y-103647590D01*
X133714043Y-103776848D01*
X133929989Y-103865684D01*
X134159116Y-103910684D01*
X134346000Y-103755152D01*
X134346000Y-102852000D01*
X134600000Y-102852000D01*
X134600000Y-103755152D01*
X134786884Y-103910684D01*
X135016011Y-103865684D01*
X135231957Y-103776848D01*
X135426422Y-103647590D01*
X135591934Y-103482877D01*
X135722131Y-103289039D01*
X135812011Y-103073526D01*
X135816803Y-103034744D01*
X135691361Y-102852000D01*
X134600000Y-102852000D01*
X134346000Y-102852000D01*
X133254639Y-102852000D01*
X133129197Y-103034744D01*
X131326000Y-103034744D01*
X131326000Y-102908000D01*
X131346000Y-102908000D01*
X131346000Y-101881427D01*
X131600000Y-101881427D01*
X131600000Y-102908000D01*
X132792224Y-102908000D01*
X132915910Y-102705600D01*
X132912857Y-102681971D01*
X132819681Y-102441993D01*
X132802668Y-102415256D01*
X133129197Y-102415256D01*
X133254639Y-102598000D01*
X134346000Y-102598000D01*
X134346000Y-101694848D01*
X134600000Y-101694848D01*
X134600000Y-102598000D01*
X135691361Y-102598000D01*
X135816803Y-102415256D01*
X135812011Y-102376474D01*
X135722131Y-102160961D01*
X135591934Y-101967123D01*
X135426422Y-101802410D01*
X135231957Y-101673152D01*
X135016011Y-101584316D01*
X134786884Y-101539316D01*
X134600000Y-101694848D01*
X134346000Y-101694848D01*
X134159116Y-101539316D01*
X133929989Y-101584316D01*
X133714043Y-101673152D01*
X133519578Y-101802410D01*
X133354066Y-101967123D01*
X133223869Y-102160961D01*
X133133989Y-102376474D01*
X133129197Y-102415256D01*
X132802668Y-102415256D01*
X132681478Y-102224804D01*
X132503559Y-102038750D01*
X132292761Y-101890981D01*
X132057185Y-101787176D01*
X131805884Y-101731325D01*
X131600000Y-101881427D01*
X131346000Y-101881427D01*
X131140116Y-101731325D01*
X130888815Y-101787176D01*
X130653239Y-101890981D01*
X130442441Y-102038750D01*
X130264522Y-102224804D01*
X130200000Y-102326202D01*
X130200000Y-101244061D01*
X141713000Y-101244061D01*
X141713000Y-101447939D01*
X141752774Y-101647898D01*
X141830795Y-101836256D01*
X141944063Y-102005774D01*
X142088226Y-102149937D01*
X142257744Y-102263205D01*
X142446102Y-102341226D01*
X142646061Y-102381000D01*
X142849939Y-102381000D01*
X143049898Y-102341226D01*
X143238256Y-102263205D01*
X143407774Y-102149937D01*
X143509378Y-102048333D01*
X143530774Y-102155898D01*
X143608795Y-102344256D01*
X143722063Y-102513774D01*
X143866226Y-102657937D01*
X144035744Y-102771205D01*
X144224102Y-102849226D01*
X144424061Y-102889000D01*
X144627939Y-102889000D01*
X144827898Y-102849226D01*
X145016256Y-102771205D01*
X145185774Y-102657937D01*
X145329937Y-102513774D01*
X145443205Y-102344256D01*
X145521226Y-102155898D01*
X145561000Y-101955939D01*
X145561000Y-101752061D01*
X145521226Y-101552102D01*
X145498842Y-101498061D01*
X146539000Y-101498061D01*
X146539000Y-101701939D01*
X146578774Y-101901898D01*
X146656795Y-102090256D01*
X146770063Y-102259774D01*
X146914226Y-102403937D01*
X147083744Y-102517205D01*
X147272102Y-102595226D01*
X147472061Y-102635000D01*
X147675939Y-102635000D01*
X147875898Y-102595226D01*
X148064256Y-102517205D01*
X148233774Y-102403937D01*
X148377937Y-102259774D01*
X148491205Y-102090256D01*
X148569226Y-101901898D01*
X148585094Y-101822121D01*
X149794294Y-101822121D01*
X149794294Y-102025999D01*
X149834068Y-102225958D01*
X149912089Y-102414316D01*
X150025357Y-102583834D01*
X150117061Y-102675538D01*
X150097250Y-102775138D01*
X150097250Y-102979016D01*
X150137024Y-103178975D01*
X150176785Y-103274966D01*
X150132741Y-103319010D01*
X150019473Y-103488528D01*
X149941452Y-103676886D01*
X149901678Y-103876845D01*
X149901678Y-104080723D01*
X149941452Y-104280682D01*
X150019473Y-104469040D01*
X150132741Y-104638558D01*
X150276904Y-104782721D01*
X150424964Y-104881651D01*
X150424964Y-104932894D01*
X150464738Y-105132853D01*
X150542759Y-105321211D01*
X150656027Y-105490729D01*
X150800190Y-105634892D01*
X150969708Y-105748160D01*
X151158066Y-105826181D01*
X151358025Y-105865955D01*
X151561903Y-105865955D01*
X151761862Y-105826181D01*
X151950220Y-105748160D01*
X152119738Y-105634892D01*
X152263901Y-105490729D01*
X152377169Y-105321211D01*
X152455190Y-105132853D01*
X152494964Y-104932894D01*
X152494964Y-104729016D01*
X152455190Y-104529057D01*
X152377169Y-104340699D01*
X152263901Y-104171181D01*
X152119738Y-104027018D01*
X151971678Y-103928088D01*
X151971678Y-103876845D01*
X151931904Y-103676886D01*
X151892143Y-103580895D01*
X151936187Y-103536851D01*
X152049455Y-103367333D01*
X152127476Y-103178975D01*
X152167250Y-102979016D01*
X152167250Y-102775138D01*
X152162847Y-102752999D01*
X154897350Y-102752999D01*
X154897350Y-102956877D01*
X154937124Y-103156836D01*
X155015145Y-103345194D01*
X155128413Y-103514712D01*
X155272576Y-103658875D01*
X155442094Y-103772143D01*
X155630452Y-103850164D01*
X155830411Y-103889938D01*
X156034289Y-103889938D01*
X156234248Y-103850164D01*
X156422606Y-103772143D01*
X156592124Y-103658875D01*
X156736287Y-103514712D01*
X156849555Y-103345194D01*
X156878191Y-103276061D01*
X165398500Y-103276061D01*
X165398500Y-103479939D01*
X165438274Y-103679898D01*
X165516295Y-103868256D01*
X165629563Y-104037774D01*
X165773726Y-104181937D01*
X165943244Y-104295205D01*
X166131602Y-104373226D01*
X166331561Y-104413000D01*
X166535439Y-104413000D01*
X166735398Y-104373226D01*
X166923756Y-104295205D01*
X167093274Y-104181937D01*
X167237437Y-104037774D01*
X167350705Y-103868256D01*
X167428726Y-103679898D01*
X167468500Y-103479939D01*
X167468500Y-103276061D01*
X167428726Y-103076102D01*
X167350705Y-102887744D01*
X167237437Y-102718226D01*
X167093274Y-102574063D01*
X166923756Y-102460795D01*
X166735398Y-102382774D01*
X166535439Y-102343000D01*
X166331561Y-102343000D01*
X166131602Y-102382774D01*
X165943244Y-102460795D01*
X165773726Y-102574063D01*
X165629563Y-102718226D01*
X165516295Y-102887744D01*
X165438274Y-103076102D01*
X165398500Y-103276061D01*
X156878191Y-103276061D01*
X156927576Y-103156836D01*
X156967350Y-102956877D01*
X156967350Y-102752999D01*
X156927576Y-102553040D01*
X156849555Y-102364682D01*
X156835666Y-102343896D01*
X156978699Y-102315445D01*
X157167057Y-102237424D01*
X157336575Y-102124156D01*
X157480738Y-101979993D01*
X157594006Y-101810475D01*
X157670807Y-101625061D01*
X158477000Y-101625061D01*
X158477000Y-101828939D01*
X158516774Y-102028898D01*
X158594795Y-102217256D01*
X158708063Y-102386774D01*
X158852226Y-102530937D01*
X159021744Y-102644205D01*
X159210102Y-102722226D01*
X159410061Y-102762000D01*
X159613939Y-102762000D01*
X159813898Y-102722226D01*
X160002256Y-102644205D01*
X160171774Y-102530937D01*
X160315937Y-102386774D01*
X160429205Y-102217256D01*
X160507226Y-102028898D01*
X160547000Y-101828939D01*
X160547000Y-101625061D01*
X160507226Y-101425102D01*
X160429205Y-101236744D01*
X160399479Y-101192255D01*
X162918105Y-101192255D01*
X162918105Y-101396133D01*
X162957879Y-101596092D01*
X163035900Y-101784450D01*
X163149168Y-101953968D01*
X163293331Y-102098131D01*
X163462849Y-102211399D01*
X163651207Y-102289420D01*
X163851166Y-102329194D01*
X164055044Y-102329194D01*
X164255003Y-102289420D01*
X164443361Y-102211399D01*
X164612879Y-102098131D01*
X164757042Y-101953968D01*
X164870310Y-101784450D01*
X164948331Y-101596092D01*
X164967944Y-101497489D01*
X167124223Y-101497489D01*
X167124223Y-101701367D01*
X167163997Y-101901326D01*
X167242018Y-102089684D01*
X167355286Y-102259202D01*
X167499449Y-102403365D01*
X167668967Y-102516633D01*
X167857325Y-102594654D01*
X167875000Y-102598170D01*
X167875000Y-102717939D01*
X167914774Y-102917898D01*
X167992795Y-103106256D01*
X168106063Y-103275774D01*
X168250226Y-103419937D01*
X168419744Y-103533205D01*
X168608102Y-103611226D01*
X168808061Y-103651000D01*
X169011939Y-103651000D01*
X169211898Y-103611226D01*
X169400256Y-103533205D01*
X169569774Y-103419937D01*
X169713937Y-103275774D01*
X169827205Y-103106256D01*
X169905226Y-102917898D01*
X169945000Y-102717939D01*
X169945000Y-102514061D01*
X169905226Y-102314102D01*
X169827205Y-102125744D01*
X169713937Y-101956226D01*
X169569774Y-101812063D01*
X169400256Y-101698795D01*
X169211898Y-101620774D01*
X169194223Y-101617258D01*
X169194223Y-101497489D01*
X169154449Y-101297530D01*
X169076428Y-101109172D01*
X168963160Y-100939654D01*
X168818997Y-100795491D01*
X168649479Y-100682223D01*
X168461121Y-100604202D01*
X168261162Y-100564428D01*
X168057284Y-100564428D01*
X167857325Y-100604202D01*
X167668967Y-100682223D01*
X167499449Y-100795491D01*
X167355286Y-100939654D01*
X167242018Y-101109172D01*
X167163997Y-101297530D01*
X167124223Y-101497489D01*
X164967944Y-101497489D01*
X164988105Y-101396133D01*
X164988105Y-101192255D01*
X164948331Y-100992296D01*
X164870310Y-100803938D01*
X164757042Y-100634420D01*
X164612879Y-100490257D01*
X164443361Y-100376989D01*
X164255003Y-100298968D01*
X164055044Y-100259194D01*
X163851166Y-100259194D01*
X163651207Y-100298968D01*
X163462849Y-100376989D01*
X163293331Y-100490257D01*
X163149168Y-100634420D01*
X163035900Y-100803938D01*
X162957879Y-100992296D01*
X162918105Y-101192255D01*
X160399479Y-101192255D01*
X160315937Y-101067226D01*
X160171774Y-100923063D01*
X160002256Y-100809795D01*
X159813898Y-100731774D01*
X159613939Y-100692000D01*
X159410061Y-100692000D01*
X159210102Y-100731774D01*
X159021744Y-100809795D01*
X158852226Y-100923063D01*
X158708063Y-101067226D01*
X158594795Y-101236744D01*
X158516774Y-101425102D01*
X158477000Y-101625061D01*
X157670807Y-101625061D01*
X157672027Y-101622117D01*
X157711801Y-101422158D01*
X157711801Y-101218280D01*
X157672027Y-101018321D01*
X157594006Y-100829963D01*
X157480738Y-100660445D01*
X157336575Y-100516282D01*
X157295003Y-100488505D01*
X157295003Y-100287029D01*
X157255229Y-100087070D01*
X157177208Y-99898712D01*
X157063940Y-99729194D01*
X156919777Y-99585031D01*
X156820528Y-99518715D01*
X156871929Y-99497424D01*
X157049636Y-99378684D01*
X157200764Y-99227556D01*
X157319504Y-99049849D01*
X157401293Y-98852392D01*
X157442989Y-98642772D01*
X157442989Y-98429046D01*
X157401293Y-98219426D01*
X157319504Y-98021969D01*
X157200764Y-97844262D01*
X157049636Y-97693134D01*
X157034675Y-97683137D01*
X171127000Y-97683137D01*
X171127000Y-97896863D01*
X171168696Y-98106483D01*
X171250485Y-98303940D01*
X171369225Y-98481647D01*
X171520353Y-98632775D01*
X171698060Y-98751515D01*
X171895517Y-98833304D01*
X172105137Y-98875000D01*
X172318863Y-98875000D01*
X172528483Y-98833304D01*
X172725940Y-98751515D01*
X172903647Y-98632775D01*
X173054775Y-98481647D01*
X173173515Y-98303940D01*
X173255304Y-98106483D01*
X173297000Y-97896863D01*
X173297000Y-97683137D01*
X173255304Y-97473517D01*
X173173515Y-97276060D01*
X173054775Y-97098353D01*
X172903647Y-96947225D01*
X172725940Y-96828485D01*
X172528483Y-96746696D01*
X172318863Y-96705000D01*
X172105137Y-96705000D01*
X171895517Y-96746696D01*
X171698060Y-96828485D01*
X171520353Y-96947225D01*
X171369225Y-97098353D01*
X171250485Y-97276060D01*
X171168696Y-97473517D01*
X171127000Y-97683137D01*
X157034675Y-97683137D01*
X156871929Y-97574394D01*
X156674472Y-97492605D01*
X156464852Y-97450909D01*
X156251126Y-97450909D01*
X156041506Y-97492605D01*
X155844049Y-97574394D01*
X155666342Y-97693134D01*
X155515214Y-97844262D01*
X155396474Y-98021969D01*
X155314685Y-98219426D01*
X155272989Y-98429046D01*
X155272989Y-98642772D01*
X155314685Y-98852392D01*
X155396474Y-99049849D01*
X155515214Y-99227556D01*
X155666342Y-99378684D01*
X155791907Y-99462584D01*
X155769747Y-99471763D01*
X155600229Y-99585031D01*
X155456066Y-99729194D01*
X155342798Y-99898712D01*
X155264777Y-100087070D01*
X155225003Y-100287029D01*
X155225003Y-100490907D01*
X155264777Y-100690866D01*
X155342798Y-100879224D01*
X155456066Y-101048742D01*
X155600229Y-101192905D01*
X155641801Y-101220682D01*
X155641801Y-101422158D01*
X155681575Y-101622117D01*
X155759596Y-101810475D01*
X155773485Y-101831261D01*
X155630452Y-101859712D01*
X155442094Y-101937733D01*
X155272576Y-102051001D01*
X155128413Y-102195164D01*
X155015145Y-102364682D01*
X154937124Y-102553040D01*
X154897350Y-102752999D01*
X152162847Y-102752999D01*
X152127476Y-102575179D01*
X152049455Y-102386821D01*
X151936187Y-102217303D01*
X151844483Y-102125599D01*
X151864294Y-102025999D01*
X151864294Y-102013331D01*
X151874256Y-102009205D01*
X152043774Y-101895937D01*
X152187937Y-101751774D01*
X152301205Y-101582256D01*
X152379226Y-101393898D01*
X152419000Y-101193939D01*
X152419000Y-100990061D01*
X152379226Y-100790102D01*
X152301205Y-100601744D01*
X152187937Y-100432226D01*
X152043774Y-100288063D01*
X151874256Y-100174795D01*
X151685898Y-100096774D01*
X151485939Y-100057000D01*
X151282061Y-100057000D01*
X151082102Y-100096774D01*
X150893744Y-100174795D01*
X150724226Y-100288063D01*
X150580063Y-100432226D01*
X150466795Y-100601744D01*
X150388774Y-100790102D01*
X150349000Y-100990061D01*
X150349000Y-101002729D01*
X150339038Y-101006855D01*
X150169520Y-101120123D01*
X150025357Y-101264286D01*
X149912089Y-101433804D01*
X149834068Y-101622162D01*
X149794294Y-101822121D01*
X148585094Y-101822121D01*
X148609000Y-101701939D01*
X148609000Y-101498061D01*
X148569226Y-101298102D01*
X148491205Y-101109744D01*
X148377937Y-100940226D01*
X148233774Y-100796063D01*
X148064256Y-100682795D01*
X147875898Y-100604774D01*
X147675939Y-100565000D01*
X147472061Y-100565000D01*
X147272102Y-100604774D01*
X147083744Y-100682795D01*
X146914226Y-100796063D01*
X146770063Y-100940226D01*
X146656795Y-101109744D01*
X146578774Y-101298102D01*
X146539000Y-101498061D01*
X145498842Y-101498061D01*
X145443205Y-101363744D01*
X145329937Y-101194226D01*
X145185774Y-101050063D01*
X145016256Y-100936795D01*
X144827898Y-100858774D01*
X144627939Y-100819000D01*
X144424061Y-100819000D01*
X144224102Y-100858774D01*
X144035744Y-100936795D01*
X143866226Y-101050063D01*
X143764622Y-101151667D01*
X143743226Y-101044102D01*
X143665205Y-100855744D01*
X143551937Y-100686226D01*
X143407774Y-100542063D01*
X143238256Y-100428795D01*
X143049898Y-100350774D01*
X142849939Y-100311000D01*
X142646061Y-100311000D01*
X142446102Y-100350774D01*
X142257744Y-100428795D01*
X142088226Y-100542063D01*
X141944063Y-100686226D01*
X141830795Y-100855744D01*
X141752774Y-101044102D01*
X141713000Y-101244061D01*
X130200000Y-101244061D01*
X130200000Y-99656561D01*
X140316000Y-99656561D01*
X140316000Y-99860439D01*
X140355774Y-100060398D01*
X140433795Y-100248756D01*
X140547063Y-100418274D01*
X140691226Y-100562437D01*
X140860744Y-100675705D01*
X141049102Y-100753726D01*
X141249061Y-100793500D01*
X141452939Y-100793500D01*
X141652898Y-100753726D01*
X141841256Y-100675705D01*
X142010774Y-100562437D01*
X142154937Y-100418274D01*
X142268205Y-100248756D01*
X142346226Y-100060398D01*
X142386000Y-99860439D01*
X142386000Y-99656561D01*
X142346226Y-99456602D01*
X142268205Y-99268244D01*
X142154937Y-99098726D01*
X142010774Y-98954563D01*
X141841256Y-98841295D01*
X141652898Y-98763274D01*
X141452939Y-98723500D01*
X141249061Y-98723500D01*
X141049102Y-98763274D01*
X140860744Y-98841295D01*
X140691226Y-98954563D01*
X140547063Y-99098726D01*
X140433795Y-99268244D01*
X140355774Y-99456602D01*
X140316000Y-99656561D01*
X130200000Y-99656561D01*
X130200000Y-98283798D01*
X130264522Y-98385196D01*
X130442441Y-98571250D01*
X130653239Y-98719019D01*
X130888815Y-98822824D01*
X131140116Y-98878675D01*
X131346000Y-98728573D01*
X131346000Y-97702000D01*
X131600000Y-97702000D01*
X131600000Y-98728573D01*
X131805884Y-98878675D01*
X132057185Y-98822824D01*
X132292761Y-98719019D01*
X132503559Y-98571250D01*
X132681478Y-98385196D01*
X132802667Y-98194744D01*
X133129197Y-98194744D01*
X133133989Y-98233526D01*
X133223869Y-98449039D01*
X133354066Y-98642877D01*
X133519578Y-98807590D01*
X133714043Y-98936848D01*
X133929989Y-99025684D01*
X134159116Y-99070684D01*
X134346000Y-98915152D01*
X134346000Y-98012000D01*
X134600000Y-98012000D01*
X134600000Y-98915152D01*
X134786884Y-99070684D01*
X135016011Y-99025684D01*
X135231957Y-98936848D01*
X135426422Y-98807590D01*
X135591934Y-98642877D01*
X135722131Y-98449039D01*
X135812011Y-98233526D01*
X135816803Y-98194744D01*
X135691361Y-98012000D01*
X134600000Y-98012000D01*
X134346000Y-98012000D01*
X133254639Y-98012000D01*
X133129197Y-98194744D01*
X132802667Y-98194744D01*
X132819681Y-98168007D01*
X132912857Y-97928029D01*
X132915910Y-97904400D01*
X132792224Y-97702000D01*
X131600000Y-97702000D01*
X131346000Y-97702000D01*
X131326000Y-97702000D01*
X131326000Y-97575256D01*
X133129197Y-97575256D01*
X133254639Y-97758000D01*
X134346000Y-97758000D01*
X134346000Y-96854848D01*
X134600000Y-96854848D01*
X134600000Y-97758000D01*
X135691361Y-97758000D01*
X135816803Y-97575256D01*
X135812011Y-97536474D01*
X135722131Y-97320961D01*
X135591934Y-97127123D01*
X135426422Y-96962410D01*
X135371736Y-96926061D01*
X140062000Y-96926061D01*
X140062000Y-97129939D01*
X140101774Y-97329898D01*
X140179795Y-97518256D01*
X140293063Y-97687774D01*
X140437226Y-97831937D01*
X140606744Y-97945205D01*
X140795102Y-98023226D01*
X140995061Y-98063000D01*
X141198939Y-98063000D01*
X141398898Y-98023226D01*
X141587256Y-97945205D01*
X141599330Y-97937137D01*
X148267000Y-97937137D01*
X148267000Y-98150863D01*
X148308696Y-98360483D01*
X148390485Y-98557940D01*
X148509225Y-98735647D01*
X148660353Y-98886775D01*
X148838060Y-99005515D01*
X149035517Y-99087304D01*
X149245137Y-99129000D01*
X149458863Y-99129000D01*
X149668483Y-99087304D01*
X149865940Y-99005515D01*
X150043647Y-98886775D01*
X150194775Y-98735647D01*
X150313515Y-98557940D01*
X150395304Y-98360483D01*
X150437000Y-98150863D01*
X150437000Y-97937137D01*
X150395304Y-97727517D01*
X150313515Y-97530060D01*
X150194775Y-97352353D01*
X150043647Y-97201225D01*
X149865940Y-97082485D01*
X149668483Y-97000696D01*
X149458863Y-96959000D01*
X149245137Y-96959000D01*
X149035517Y-97000696D01*
X148838060Y-97082485D01*
X148660353Y-97201225D01*
X148509225Y-97352353D01*
X148390485Y-97530060D01*
X148308696Y-97727517D01*
X148267000Y-97937137D01*
X141599330Y-97937137D01*
X141756774Y-97831937D01*
X141900937Y-97687774D01*
X142014205Y-97518256D01*
X142092226Y-97329898D01*
X142132000Y-97129939D01*
X142132000Y-96926061D01*
X142092226Y-96726102D01*
X142014205Y-96537744D01*
X141900937Y-96368226D01*
X141756774Y-96224063D01*
X141587256Y-96110795D01*
X141398898Y-96032774D01*
X141198939Y-95993000D01*
X140995061Y-95993000D01*
X140795102Y-96032774D01*
X140606744Y-96110795D01*
X140437226Y-96224063D01*
X140293063Y-96368226D01*
X140179795Y-96537744D01*
X140101774Y-96726102D01*
X140062000Y-96926061D01*
X135371736Y-96926061D01*
X135231957Y-96833152D01*
X135016011Y-96744316D01*
X134786884Y-96699316D01*
X134600000Y-96854848D01*
X134346000Y-96854848D01*
X134159116Y-96699316D01*
X133929989Y-96744316D01*
X133714043Y-96833152D01*
X133519578Y-96962410D01*
X133354066Y-97127123D01*
X133223869Y-97320961D01*
X133133989Y-97536474D01*
X133129197Y-97575256D01*
X131326000Y-97575256D01*
X131326000Y-97448000D01*
X131346000Y-97448000D01*
X131346000Y-96421427D01*
X131600000Y-96421427D01*
X131600000Y-97448000D01*
X132792224Y-97448000D01*
X132915910Y-97245600D01*
X132912857Y-97221971D01*
X132819681Y-96981993D01*
X132681478Y-96764804D01*
X132503559Y-96578750D01*
X132292761Y-96430981D01*
X132057185Y-96327176D01*
X131805884Y-96271325D01*
X131600000Y-96421427D01*
X131346000Y-96421427D01*
X131140116Y-96271325D01*
X130888815Y-96327176D01*
X130653239Y-96430981D01*
X130442441Y-96578750D01*
X130264522Y-96764804D01*
X130200000Y-96866202D01*
X130200000Y-94889137D01*
X136519500Y-94889137D01*
X136519500Y-95102863D01*
X136561196Y-95312483D01*
X136642985Y-95509940D01*
X136761725Y-95687647D01*
X136912853Y-95838775D01*
X137090560Y-95957515D01*
X137288017Y-96039304D01*
X137497637Y-96081000D01*
X137711363Y-96081000D01*
X137920983Y-96039304D01*
X138118440Y-95957515D01*
X138296147Y-95838775D01*
X138447275Y-95687647D01*
X138566015Y-95509940D01*
X138647804Y-95312483D01*
X138689500Y-95102863D01*
X138689500Y-94889137D01*
X138647804Y-94679517D01*
X138566015Y-94482060D01*
X138447418Y-94304566D01*
X141070284Y-94304566D01*
X141070284Y-94508444D01*
X141110058Y-94708403D01*
X141188079Y-94896761D01*
X141301347Y-95066279D01*
X141445510Y-95210442D01*
X141615028Y-95323710D01*
X141803386Y-95401731D01*
X142003345Y-95441505D01*
X142207223Y-95441505D01*
X142407182Y-95401731D01*
X142595540Y-95323710D01*
X142624178Y-95304574D01*
X142633711Y-95352498D01*
X142715500Y-95549955D01*
X142834240Y-95727662D01*
X142985368Y-95878790D01*
X143163075Y-95997530D01*
X143360532Y-96079319D01*
X143570152Y-96121015D01*
X143783878Y-96121015D01*
X143993498Y-96079319D01*
X144190955Y-95997530D01*
X144321861Y-95910061D01*
X154222500Y-95910061D01*
X154222500Y-96113939D01*
X154262274Y-96313898D01*
X154340295Y-96502256D01*
X154453563Y-96671774D01*
X154597726Y-96815937D01*
X154767244Y-96929205D01*
X154955602Y-97007226D01*
X155155561Y-97047000D01*
X155359439Y-97047000D01*
X155559398Y-97007226D01*
X155747756Y-96929205D01*
X155917274Y-96815937D01*
X156061437Y-96671774D01*
X156174705Y-96502256D01*
X156252726Y-96313898D01*
X156292500Y-96113939D01*
X156292500Y-95910061D01*
X156252726Y-95710102D01*
X156174705Y-95521744D01*
X156061437Y-95352226D01*
X155917274Y-95208063D01*
X155747756Y-95094795D01*
X155559398Y-95016774D01*
X155359439Y-94977000D01*
X155155561Y-94977000D01*
X154955602Y-95016774D01*
X154767244Y-95094795D01*
X154597726Y-95208063D01*
X154453563Y-95352226D01*
X154340295Y-95521744D01*
X154262274Y-95710102D01*
X154222500Y-95910061D01*
X144321861Y-95910061D01*
X144368662Y-95878790D01*
X144519790Y-95727662D01*
X144638530Y-95549955D01*
X144720319Y-95352498D01*
X144762015Y-95142878D01*
X144762015Y-94929152D01*
X144720319Y-94719532D01*
X144638530Y-94522075D01*
X144519790Y-94344368D01*
X144368662Y-94193240D01*
X144190955Y-94074500D01*
X143993498Y-93992711D01*
X143783878Y-93951015D01*
X143570152Y-93951015D01*
X143360532Y-93992711D01*
X143163075Y-94074500D01*
X143102564Y-94114932D01*
X143100510Y-94104607D01*
X143022489Y-93916249D01*
X142909221Y-93746731D01*
X142850051Y-93687561D01*
X151936500Y-93687561D01*
X151936500Y-93891439D01*
X151976274Y-94091398D01*
X152054295Y-94279756D01*
X152167563Y-94449274D01*
X152311726Y-94593437D01*
X152481244Y-94706705D01*
X152669602Y-94784726D01*
X152869561Y-94824500D01*
X153073439Y-94824500D01*
X153273398Y-94784726D01*
X153461756Y-94706705D01*
X153631274Y-94593437D01*
X153640057Y-94584655D01*
X153775186Y-94719784D01*
X153944704Y-94833052D01*
X154133062Y-94911073D01*
X154333021Y-94950847D01*
X154536899Y-94950847D01*
X154736858Y-94911073D01*
X154925216Y-94833052D01*
X155094734Y-94719784D01*
X155238897Y-94575621D01*
X155352165Y-94406103D01*
X155430186Y-94217745D01*
X155469960Y-94017786D01*
X155469960Y-93878061D01*
X158096000Y-93878061D01*
X158096000Y-94081939D01*
X158135774Y-94281898D01*
X158213795Y-94470256D01*
X158327063Y-94639774D01*
X158471226Y-94783937D01*
X158640744Y-94897205D01*
X158829102Y-94975226D01*
X159029061Y-95015000D01*
X159232939Y-95015000D01*
X159432898Y-94975226D01*
X159621256Y-94897205D01*
X159649890Y-94878072D01*
X160890000Y-94878072D01*
X160890000Y-95081950D01*
X160929774Y-95281909D01*
X161007795Y-95470267D01*
X161121063Y-95639785D01*
X161265226Y-95783948D01*
X161434744Y-95897216D01*
X161623102Y-95975237D01*
X161823061Y-96015011D01*
X162026939Y-96015011D01*
X162226898Y-95975237D01*
X162415256Y-95897216D01*
X162584774Y-95783948D01*
X162728937Y-95639785D01*
X162842205Y-95470267D01*
X162920226Y-95281909D01*
X162960000Y-95081950D01*
X162960000Y-94894061D01*
X165017500Y-94894061D01*
X165017500Y-95097939D01*
X165057274Y-95297898D01*
X165135295Y-95486256D01*
X165248563Y-95655774D01*
X165392726Y-95799937D01*
X165562244Y-95913205D01*
X165750602Y-95991226D01*
X165950561Y-96031000D01*
X166154439Y-96031000D01*
X166354398Y-95991226D01*
X166542756Y-95913205D01*
X166712274Y-95799937D01*
X166856437Y-95655774D01*
X166969705Y-95486256D01*
X167047726Y-95297898D01*
X167087500Y-95097939D01*
X167087500Y-94894061D01*
X167047726Y-94694102D01*
X166969705Y-94505744D01*
X166856437Y-94336226D01*
X166712274Y-94192063D01*
X166542756Y-94078795D01*
X166354398Y-94000774D01*
X166154439Y-93961000D01*
X165950561Y-93961000D01*
X165750602Y-94000774D01*
X165562244Y-94078795D01*
X165392726Y-94192063D01*
X165248563Y-94336226D01*
X165135295Y-94505744D01*
X165057274Y-94694102D01*
X165017500Y-94894061D01*
X162960000Y-94894061D01*
X162960000Y-94878072D01*
X162920226Y-94678113D01*
X162842205Y-94489755D01*
X162728937Y-94320237D01*
X162584774Y-94176074D01*
X162415256Y-94062806D01*
X162226898Y-93984785D01*
X162026939Y-93945011D01*
X161823061Y-93945011D01*
X161623102Y-93984785D01*
X161434744Y-94062806D01*
X161265226Y-94176074D01*
X161121063Y-94320237D01*
X161007795Y-94489755D01*
X160929774Y-94678113D01*
X160890000Y-94878072D01*
X159649890Y-94878072D01*
X159790774Y-94783937D01*
X159934937Y-94639774D01*
X160048205Y-94470256D01*
X160126226Y-94281898D01*
X160166000Y-94081939D01*
X160166000Y-93878061D01*
X160126226Y-93678102D01*
X160048205Y-93489744D01*
X159934937Y-93320226D01*
X159790774Y-93176063D01*
X159621256Y-93062795D01*
X159432898Y-92984774D01*
X159232939Y-92945000D01*
X159029061Y-92945000D01*
X158829102Y-92984774D01*
X158640744Y-93062795D01*
X158471226Y-93176063D01*
X158327063Y-93320226D01*
X158213795Y-93489744D01*
X158135774Y-93678102D01*
X158096000Y-93878061D01*
X155469960Y-93878061D01*
X155469960Y-93813908D01*
X155430186Y-93613949D01*
X155352165Y-93425591D01*
X155334123Y-93398588D01*
X155362937Y-93369774D01*
X155476205Y-93200256D01*
X155554226Y-93011898D01*
X155594000Y-92811939D01*
X155594000Y-92608061D01*
X155554226Y-92408102D01*
X155476205Y-92219744D01*
X155362937Y-92050226D01*
X155218774Y-91906063D01*
X155049256Y-91792795D01*
X154860898Y-91714774D01*
X154660939Y-91675000D01*
X154457061Y-91675000D01*
X154257102Y-91714774D01*
X154068744Y-91792795D01*
X153899226Y-91906063D01*
X153755063Y-92050226D01*
X153641795Y-92219744D01*
X153563774Y-92408102D01*
X153524000Y-92608061D01*
X153524000Y-92811939D01*
X153547386Y-92929511D01*
X153461756Y-92872295D01*
X153273398Y-92794274D01*
X153073439Y-92754500D01*
X152869561Y-92754500D01*
X152669602Y-92794274D01*
X152481244Y-92872295D01*
X152311726Y-92985563D01*
X152167563Y-93129726D01*
X152054295Y-93299244D01*
X151976274Y-93487602D01*
X151936500Y-93687561D01*
X142850051Y-93687561D01*
X142765058Y-93602568D01*
X142595540Y-93489300D01*
X142407182Y-93411279D01*
X142207223Y-93371505D01*
X142003345Y-93371505D01*
X141803386Y-93411279D01*
X141615028Y-93489300D01*
X141445510Y-93602568D01*
X141301347Y-93746731D01*
X141188079Y-93916249D01*
X141110058Y-94104607D01*
X141070284Y-94304566D01*
X138447418Y-94304566D01*
X138447275Y-94304353D01*
X138296147Y-94153225D01*
X138118440Y-94034485D01*
X137920983Y-93952696D01*
X137711363Y-93911000D01*
X137497637Y-93911000D01*
X137288017Y-93952696D01*
X137090560Y-94034485D01*
X136912853Y-94153225D01*
X136761725Y-94304353D01*
X136642985Y-94482060D01*
X136561196Y-94679517D01*
X136519500Y-94889137D01*
X130200000Y-94889137D01*
X130200000Y-92969666D01*
X130205701Y-92978198D01*
X130541802Y-93314299D01*
X130937016Y-93578372D01*
X131376154Y-93760269D01*
X131842340Y-93853000D01*
X132317660Y-93853000D01*
X132783846Y-93760269D01*
X133222984Y-93578372D01*
X133618198Y-93314299D01*
X133954299Y-92978198D01*
X134218372Y-92582984D01*
X134400269Y-92143846D01*
X134493000Y-91677660D01*
X134493000Y-91202340D01*
X134400269Y-90736154D01*
X134218372Y-90297016D01*
X133954299Y-89901802D01*
X133618198Y-89565701D01*
X133609666Y-89560000D01*
X141550876Y-89560000D01*
X141513295Y-89616244D01*
G37*
X141513295Y-89616244D02*
X141435274Y-89804602D01*
X141395500Y-90004561D01*
X141395500Y-90208439D01*
X141435274Y-90408398D01*
X141513295Y-90596756D01*
X141626563Y-90766274D01*
X141770726Y-90910437D01*
X141940244Y-91023705D01*
X141976055Y-91038538D01*
X141967000Y-91084061D01*
X141967000Y-91287939D01*
X142006774Y-91487898D01*
X142084795Y-91676256D01*
X142198063Y-91845774D01*
X142342226Y-91989937D01*
X142511744Y-92103205D01*
X142700102Y-92181226D01*
X142900061Y-92221000D01*
X143103939Y-92221000D01*
X143303898Y-92181226D01*
X143492256Y-92103205D01*
X143661774Y-91989937D01*
X143805937Y-91845774D01*
X143919205Y-91676256D01*
X143997226Y-91487898D01*
X144037000Y-91287939D01*
X144037000Y-91084061D01*
X143997226Y-90884102D01*
X143919205Y-90695744D01*
X143805937Y-90526226D01*
X143661774Y-90382063D01*
X143492256Y-90268795D01*
X143456445Y-90253962D01*
X143465500Y-90208439D01*
X143465500Y-90004561D01*
X143425726Y-89804602D01*
X143347705Y-89616244D01*
X143310124Y-89560000D01*
X144695318Y-89560000D01*
X144622068Y-89736842D01*
X144565000Y-90023740D01*
X144565000Y-90316260D01*
X144622068Y-90603158D01*
X144734010Y-90873411D01*
X144896525Y-91116632D01*
X145103368Y-91323475D01*
X145346589Y-91485990D01*
X145616842Y-91597932D01*
X145903740Y-91655000D01*
X146196260Y-91655000D01*
X146483158Y-91597932D01*
X146753411Y-91485990D01*
X146996632Y-91323475D01*
X147203475Y-91116632D01*
X147320000Y-90942240D01*
X147436525Y-91116632D01*
X147643368Y-91323475D01*
X147886589Y-91485990D01*
X148156842Y-91597932D01*
X148443740Y-91655000D01*
X148736260Y-91655000D01*
X149023158Y-91597932D01*
X149293411Y-91485990D01*
X149536632Y-91323475D01*
X149743475Y-91116632D01*
X149860000Y-90942240D01*
X149976525Y-91116632D01*
X150183368Y-91323475D01*
X150426589Y-91485990D01*
X150696842Y-91597932D01*
X150983740Y-91655000D01*
X151276260Y-91655000D01*
X151563158Y-91597932D01*
X151833411Y-91485990D01*
X152076632Y-91323475D01*
X152283475Y-91116632D01*
X152400000Y-90942240D01*
X152516525Y-91116632D01*
X152723368Y-91323475D01*
X152966589Y-91485990D01*
X153236842Y-91597932D01*
X153523740Y-91655000D01*
X153816260Y-91655000D01*
X154103158Y-91597932D01*
X154373411Y-91485990D01*
X154616632Y-91323475D01*
X154823475Y-91116632D01*
X154940000Y-90942240D01*
X155056525Y-91116632D01*
X155263368Y-91323475D01*
X155506589Y-91485990D01*
X155776842Y-91597932D01*
X156063740Y-91655000D01*
X156356260Y-91655000D01*
X156643158Y-91597932D01*
X156913411Y-91485990D01*
X157156632Y-91323475D01*
X157363475Y-91116632D01*
X157480000Y-90942240D01*
X157596525Y-91116632D01*
X157803368Y-91323475D01*
X158046589Y-91485990D01*
X158316842Y-91597932D01*
X158603740Y-91655000D01*
X158896260Y-91655000D01*
X159183158Y-91597932D01*
X159453411Y-91485990D01*
X159696632Y-91323475D01*
X159903475Y-91116632D01*
X160020000Y-90942240D01*
X160136525Y-91116632D01*
X160343368Y-91323475D01*
X160586589Y-91485990D01*
X160856842Y-91597932D01*
X161143740Y-91655000D01*
X161436260Y-91655000D01*
X161723158Y-91597932D01*
X161993411Y-91485990D01*
X162236632Y-91323475D01*
X162443475Y-91116632D01*
X162560000Y-90942240D01*
X162676525Y-91116632D01*
X162883368Y-91323475D01*
X163126589Y-91485990D01*
X163396842Y-91597932D01*
X163683740Y-91655000D01*
X163976260Y-91655000D01*
X164263158Y-91597932D01*
X164533411Y-91485990D01*
X164776632Y-91323475D01*
X164983475Y-91116632D01*
X165100000Y-90942240D01*
X165216525Y-91116632D01*
X165423368Y-91323475D01*
X165666589Y-91485990D01*
X165936842Y-91597932D01*
X166223740Y-91655000D01*
X166355587Y-91655000D01*
X166390774Y-91831896D01*
X166468795Y-92020254D01*
X166582063Y-92189772D01*
X166726226Y-92333935D01*
X166895744Y-92447203D01*
X167084102Y-92525224D01*
X167284061Y-92564998D01*
X167487939Y-92564998D01*
X167687898Y-92525224D01*
X167876256Y-92447203D01*
X168045774Y-92333935D01*
X168189937Y-92189772D01*
X168303205Y-92020254D01*
X168381226Y-91831896D01*
X168421000Y-91631937D01*
X168421000Y-91574802D01*
X168476842Y-91597932D01*
X168763740Y-91655000D01*
X169056260Y-91655000D01*
X169343158Y-91597932D01*
X169613411Y-91485990D01*
X169856632Y-91323475D01*
X170063475Y-91116632D01*
X170180000Y-90942240D01*
X170296525Y-91116632D01*
X170503368Y-91323475D01*
X170746589Y-91485990D01*
X171016842Y-91597932D01*
X171303740Y-91655000D01*
X171596260Y-91655000D01*
X171883158Y-91597932D01*
X172153411Y-91485990D01*
X172396632Y-91323475D01*
X172603475Y-91116632D01*
X172720000Y-90942240D01*
X172836525Y-91116632D01*
X173043368Y-91323475D01*
X173286589Y-91485990D01*
X173556842Y-91597932D01*
X173843740Y-91655000D01*
X174136260Y-91655000D01*
X174423158Y-91597932D01*
X174693411Y-91485990D01*
X174936632Y-91323475D01*
X175143475Y-91116632D01*
X175305990Y-90873411D01*
X175417932Y-90603158D01*
X175475000Y-90316260D01*
X175475000Y-90023740D01*
X175417932Y-89736842D01*
X175344682Y-89560000D01*
X176270334Y-89560000D01*
X176261802Y-89565701D01*
X175925701Y-89901802D01*
X175661628Y-90297016D01*
X175479731Y-90736154D01*
X175387000Y-91202340D01*
X175387000Y-91677660D01*
X175479731Y-92143846D01*
X175661628Y-92582984D01*
X175925701Y-92978198D01*
X176261802Y-93314299D01*
X176657016Y-93578372D01*
X177096154Y-93760269D01*
X177562340Y-93853000D01*
X178037660Y-93853000D01*
X178503846Y-93760269D01*
X178942984Y-93578372D01*
X179338198Y-93314299D01*
X179674299Y-92978198D01*
X179680000Y-92969666D01*
X179680001Y-107690336D01*
X179674299Y-107681802D01*
X179338198Y-107345701D01*
X178942984Y-107081628D01*
X178503846Y-106899731D01*
X178037660Y-106807000D01*
X177562340Y-106807000D01*
X177096154Y-106899731D01*
X176657016Y-107081628D01*
X176261802Y-107345701D01*
X175925701Y-107681802D01*
X175661628Y-108077016D01*
X175479731Y-108516154D01*
X175387000Y-108982340D01*
X175387000Y-109457660D01*
X175479731Y-109923846D01*
X175661628Y-110362984D01*
X175925701Y-110758198D01*
X176261802Y-111094299D01*
X176270334Y-111100000D01*
X175341696Y-111100000D01*
X175431481Y-110846891D01*
X175310814Y-110617000D01*
X174117000Y-110617000D01*
X174117000Y-110637000D01*
X173863000Y-110637000D01*
X173863000Y-110617000D01*
X173843000Y-110617000D01*
X173843000Y-110363000D01*
X173863000Y-110363000D01*
X173863000Y-109169845D01*
X174117000Y-109169845D01*
X174117000Y-110363000D01*
X175310814Y-110363000D01*
X175431481Y-110133109D01*
X175334157Y-109858748D01*
X175185178Y-109608645D01*
X174990269Y-109392412D01*
X174756920Y-109218359D01*
X174494099Y-109093175D01*
X174346890Y-109048524D01*
X174117000Y-109169845D01*
X173863000Y-109169845D01*
X173633110Y-109048524D01*
X173485901Y-109093175D01*
X173223080Y-109218359D01*
X172989731Y-109392412D01*
X172794822Y-109608645D01*
X172725195Y-109725534D01*
X172603475Y-109543368D01*
X172396632Y-109336525D01*
X172153411Y-109174010D01*
X171883158Y-109062068D01*
X171596260Y-109005000D01*
X171303740Y-109005000D01*
X171016842Y-109062068D01*
X170746589Y-109174010D01*
X170503368Y-109336525D01*
X170296525Y-109543368D01*
X170180000Y-109717760D01*
X170063475Y-109543368D01*
X169856632Y-109336525D01*
X169613411Y-109174010D01*
X169343158Y-109062068D01*
X169056260Y-109005000D01*
X168763740Y-109005000D01*
X168476842Y-109062068D01*
X168206589Y-109174010D01*
X167963368Y-109336525D01*
X167756525Y-109543368D01*
X167640000Y-109717760D01*
X167523475Y-109543368D01*
X167316632Y-109336525D01*
X167073411Y-109174010D01*
X166803158Y-109062068D01*
X166516260Y-109005000D01*
X166223740Y-109005000D01*
X165936842Y-109062068D01*
X165666589Y-109174010D01*
X165423368Y-109336525D01*
X165216525Y-109543368D01*
X165100000Y-109717760D01*
X164983475Y-109543368D01*
X164776632Y-109336525D01*
X164533411Y-109174010D01*
X164263158Y-109062068D01*
X163976260Y-109005000D01*
X163683740Y-109005000D01*
X163396842Y-109062068D01*
X163126589Y-109174010D01*
X162883368Y-109336525D01*
X162676525Y-109543368D01*
X162560000Y-109717760D01*
X162443475Y-109543368D01*
X162236632Y-109336525D01*
X161993411Y-109174010D01*
X161723158Y-109062068D01*
X161436260Y-109005000D01*
X161143740Y-109005000D01*
X160856842Y-109062068D01*
X160586589Y-109174010D01*
X160343368Y-109336525D01*
X160136525Y-109543368D01*
X160020000Y-109717760D01*
X159903475Y-109543368D01*
X159696632Y-109336525D01*
X159453411Y-109174010D01*
X159183158Y-109062068D01*
X158896260Y-109005000D01*
X158603740Y-109005000D01*
X158316842Y-109062068D01*
X158046589Y-109174010D01*
X157803368Y-109336525D01*
X157596525Y-109543368D01*
X157480000Y-109717760D01*
X157363475Y-109543368D01*
X157156632Y-109336525D01*
X156913411Y-109174010D01*
X156643158Y-109062068D01*
X156356260Y-109005000D01*
X156063740Y-109005000D01*
X155776842Y-109062068D01*
X155506589Y-109174010D01*
X155263368Y-109336525D01*
X155056525Y-109543368D01*
X154940000Y-109717760D01*
X154823475Y-109543368D01*
X154616632Y-109336525D01*
X154373411Y-109174010D01*
X154103158Y-109062068D01*
X153816260Y-109005000D01*
X153523740Y-109005000D01*
X153236842Y-109062068D01*
X152966589Y-109174010D01*
X152723368Y-109336525D01*
X152516525Y-109543368D01*
X152400000Y-109717760D01*
X152283475Y-109543368D01*
X152076632Y-109336525D01*
X151833411Y-109174010D01*
X151563158Y-109062068D01*
X151276260Y-109005000D01*
X150983740Y-109005000D01*
X150696842Y-109062068D01*
X150426589Y-109174010D01*
X150183368Y-109336525D01*
X149976525Y-109543368D01*
X149860000Y-109717760D01*
X149743475Y-109543368D01*
X149536632Y-109336525D01*
X149293411Y-109174010D01*
X149023158Y-109062068D01*
X148736260Y-109005000D01*
X148443740Y-109005000D01*
X148156842Y-109062068D01*
X147886589Y-109174010D01*
X147643368Y-109336525D01*
X147436525Y-109543368D01*
X147320000Y-109717760D01*
X147203475Y-109543368D01*
X146996632Y-109336525D01*
X146753411Y-109174010D01*
X146483158Y-109062068D01*
X146196260Y-109005000D01*
X145903740Y-109005000D01*
X145616842Y-109062068D01*
X145346589Y-109174010D01*
X145103368Y-109336525D01*
X144896525Y-109543368D01*
X144774805Y-109725534D01*
X144705178Y-109608645D01*
X144510269Y-109392412D01*
X144276920Y-109218359D01*
X144014099Y-109093175D01*
X143866890Y-109048524D01*
X143637000Y-109169845D01*
X143637000Y-110363000D01*
X143657000Y-110363000D01*
X143657000Y-110617000D01*
X143637000Y-110617000D01*
X143637000Y-110637000D01*
X143383000Y-110637000D01*
X143383000Y-110617000D01*
X143363000Y-110617000D01*
X143363000Y-110363000D01*
X143383000Y-110363000D01*
X143383000Y-109169845D01*
X143153110Y-109048524D01*
X143005901Y-109093175D01*
X142743080Y-109218359D01*
X142509731Y-109392412D01*
X142314822Y-109608645D01*
X142245195Y-109725534D01*
X142123475Y-109543368D01*
X141916632Y-109336525D01*
X141673411Y-109174010D01*
X141403158Y-109062068D01*
X141116260Y-109005000D01*
X140823740Y-109005000D01*
X140536842Y-109062068D01*
X140266589Y-109174010D01*
X140023368Y-109336525D01*
X139816525Y-109543368D01*
X139700000Y-109717760D01*
X139583475Y-109543368D01*
X139376632Y-109336525D01*
X139133411Y-109174010D01*
X138863158Y-109062068D01*
X138576260Y-109005000D01*
X138283740Y-109005000D01*
X137996842Y-109062068D01*
X137726589Y-109174010D01*
X137483368Y-109336525D01*
X137276525Y-109543368D01*
X137160000Y-109717760D01*
X137043475Y-109543368D01*
X136836632Y-109336525D01*
X136593411Y-109174010D01*
X136323158Y-109062068D01*
X136036260Y-109005000D01*
X135743740Y-109005000D01*
X135456842Y-109062068D01*
X135186589Y-109174010D01*
X134943368Y-109336525D01*
X134736525Y-109543368D01*
X134574010Y-109786589D01*
X134462068Y-110056842D01*
X134405000Y-110343740D01*
X134405000Y-110636260D01*
X134462068Y-110923158D01*
X134535318Y-111100000D01*
X133609666Y-111100000D01*
X133618198Y-111094299D01*
X133954299Y-110758198D01*
X134218372Y-110362984D01*
X134400269Y-109923846D01*
X134493000Y-109457660D01*
X134493000Y-108982340D01*
X134400269Y-108516154D01*
X134218372Y-108077016D01*
X133954299Y-107681802D01*
X133618198Y-107345701D01*
X133222984Y-107081628D01*
X132783846Y-106899731D01*
X132317660Y-106807000D01*
X131842340Y-106807000D01*
X131376154Y-106899731D01*
X130937016Y-107081628D01*
X130541802Y-107345701D01*
X130205701Y-107681802D01*
X130200000Y-107690334D01*
X130200000Y-104628740D01*
X135294000Y-104628740D01*
X135294000Y-104921260D01*
X135351068Y-105208158D01*
X135463010Y-105478411D01*
X135625525Y-105721632D01*
X135832368Y-105928475D01*
X136006760Y-106045000D01*
X135832368Y-106161525D01*
X135625525Y-106368368D01*
X135463010Y-106611589D01*
X135351068Y-106881842D01*
X135294000Y-107168740D01*
X135294000Y-107461260D01*
X135351068Y-107748158D01*
X135463010Y-108018411D01*
X135625525Y-108261632D01*
X135832368Y-108468475D01*
X136075589Y-108630990D01*
X136345842Y-108742932D01*
X136632740Y-108800000D01*
X136925260Y-108800000D01*
X137212158Y-108742932D01*
X137482411Y-108630990D01*
X137725632Y-108468475D01*
X137932475Y-108261632D01*
X138054195Y-108079466D01*
X138123822Y-108196355D01*
X138318731Y-108412588D01*
X138552080Y-108586641D01*
X138814901Y-108711825D01*
X138962110Y-108756476D01*
X139192000Y-108635155D01*
X139192000Y-107442000D01*
X139172000Y-107442000D01*
X139172000Y-107188000D01*
X139192000Y-107188000D01*
X139192000Y-104902000D01*
X139172000Y-104902000D01*
X139172000Y-104648000D01*
X139192000Y-104648000D01*
X139192000Y-103454845D01*
X139446000Y-103454845D01*
X139446000Y-104648000D01*
X139466000Y-104648000D01*
X139466000Y-104902000D01*
X139446000Y-104902000D01*
X139446000Y-107188000D01*
X139466000Y-107188000D01*
X139466000Y-107442000D01*
X139446000Y-107442000D01*
X139446000Y-108635155D01*
X139675890Y-108756476D01*
X139823099Y-108711825D01*
X140085920Y-108586641D01*
X140319269Y-108412588D01*
X140514178Y-108196355D01*
X140583805Y-108079466D01*
X140705525Y-108261632D01*
X140912368Y-108468475D01*
X141155589Y-108630990D01*
X141425842Y-108742932D01*
X141712740Y-108800000D01*
X142005260Y-108800000D01*
X142292158Y-108742932D01*
X142562411Y-108630990D01*
X142805632Y-108468475D01*
X143012475Y-108261632D01*
X143174990Y-108018411D01*
X143282175Y-107759642D01*
X143341063Y-107847774D01*
X143485226Y-107991937D01*
X143654744Y-108105205D01*
X143843102Y-108183226D01*
X144043061Y-108223000D01*
X144246939Y-108223000D01*
X144446898Y-108183226D01*
X144635256Y-108105205D01*
X144804774Y-107991937D01*
X144948937Y-107847774D01*
X145062205Y-107678256D01*
X145087984Y-107616021D01*
X145108035Y-107616021D01*
X145307994Y-107576247D01*
X145448939Y-107517865D01*
X145409500Y-107716137D01*
X145409500Y-107929863D01*
X145451196Y-108139483D01*
X145532985Y-108336940D01*
X145651725Y-108514647D01*
X145802853Y-108665775D01*
X145980560Y-108784515D01*
X146178017Y-108866304D01*
X146387637Y-108908000D01*
X146601363Y-108908000D01*
X146810983Y-108866304D01*
X147008440Y-108784515D01*
X147186147Y-108665775D01*
X147337275Y-108514647D01*
X147456015Y-108336940D01*
X147480301Y-108278307D01*
X147532063Y-108355774D01*
X147676226Y-108499937D01*
X147845744Y-108613205D01*
X148034102Y-108691226D01*
X148234061Y-108731000D01*
X148437939Y-108731000D01*
X148637898Y-108691226D01*
X148826256Y-108613205D01*
X148995774Y-108499937D01*
X149139937Y-108355774D01*
X149253205Y-108186256D01*
X149331226Y-107997898D01*
X149371000Y-107797939D01*
X149371000Y-107594061D01*
X149363053Y-107554105D01*
X160341915Y-107554105D01*
X160341915Y-107757983D01*
X160381689Y-107957942D01*
X160459710Y-108146300D01*
X160572978Y-108315818D01*
X160717141Y-108459981D01*
X160886659Y-108573249D01*
X161075017Y-108651270D01*
X161274976Y-108691044D01*
X161478854Y-108691044D01*
X161678813Y-108651270D01*
X161867171Y-108573249D01*
X162036689Y-108459981D01*
X162101481Y-108395189D01*
X162219739Y-108474206D01*
X162408097Y-108552227D01*
X162608056Y-108592001D01*
X162811934Y-108592001D01*
X163011893Y-108552227D01*
X163200251Y-108474206D01*
X163369769Y-108360938D01*
X163513932Y-108216775D01*
X163627200Y-108047257D01*
X163705221Y-107858899D01*
X163744995Y-107658940D01*
X163744995Y-107455062D01*
X163705221Y-107255103D01*
X163627200Y-107066745D01*
X163513932Y-106897227D01*
X163369769Y-106753064D01*
X163200251Y-106639796D01*
X163011893Y-106561775D01*
X162811934Y-106522001D01*
X162608056Y-106522001D01*
X162408097Y-106561775D01*
X162219739Y-106639796D01*
X162050221Y-106753064D01*
X161985429Y-106817856D01*
X161867171Y-106738839D01*
X161678813Y-106660818D01*
X161478854Y-106621044D01*
X161274976Y-106621044D01*
X161075017Y-106660818D01*
X160886659Y-106738839D01*
X160717141Y-106852107D01*
X160572978Y-106996270D01*
X160459710Y-107165788D01*
X160381689Y-107354146D01*
X160341915Y-107554105D01*
X149363053Y-107554105D01*
X149331226Y-107394102D01*
X149253205Y-107205744D01*
X149139937Y-107036226D01*
X148995774Y-106892063D01*
X148826256Y-106778795D01*
X148637898Y-106700774D01*
X148437939Y-106661000D01*
X148234061Y-106661000D01*
X148034102Y-106700774D01*
X147845744Y-106778795D01*
X147676226Y-106892063D01*
X147532063Y-107036226D01*
X147418795Y-107205744D01*
X147406620Y-107235136D01*
X147337275Y-107131353D01*
X147186147Y-106980225D01*
X147008440Y-106861485D01*
X146810983Y-106779696D01*
X146601363Y-106738000D01*
X146387637Y-106738000D01*
X146178017Y-106779696D01*
X146007832Y-106850188D01*
X146041096Y-106682960D01*
X146041096Y-106479082D01*
X146001322Y-106279123D01*
X145923301Y-106090765D01*
X145810033Y-105921247D01*
X145665870Y-105777084D01*
X145496352Y-105663816D01*
X145307994Y-105585795D01*
X145108035Y-105546021D01*
X144904157Y-105546021D01*
X144704198Y-105585795D01*
X144515840Y-105663816D01*
X144346322Y-105777084D01*
X144202159Y-105921247D01*
X144130477Y-106028527D01*
X144124226Y-105997102D01*
X144046205Y-105808744D01*
X143932937Y-105639226D01*
X143788774Y-105495063D01*
X143619256Y-105381795D01*
X143430898Y-105303774D01*
X143261300Y-105270039D01*
X143286932Y-105208158D01*
X143306817Y-105108188D01*
X143372092Y-105135226D01*
X143572051Y-105175000D01*
X143775929Y-105175000D01*
X143975888Y-105135226D01*
X144164246Y-105057205D01*
X144333764Y-104943937D01*
X144477927Y-104799774D01*
X144591195Y-104630256D01*
X144669216Y-104441898D01*
X144708990Y-104241939D01*
X144708990Y-104038061D01*
X144669216Y-103838102D01*
X144591195Y-103649744D01*
X144477927Y-103480226D01*
X144333764Y-103336063D01*
X144164246Y-103222795D01*
X143975888Y-103144774D01*
X143775929Y-103105000D01*
X143572051Y-103105000D01*
X143372092Y-103144774D01*
X143183734Y-103222795D01*
X143014216Y-103336063D01*
X142870053Y-103480226D01*
X142784897Y-103607671D01*
X142562411Y-103459010D01*
X142292158Y-103347068D01*
X142005260Y-103290000D01*
X141712740Y-103290000D01*
X141430820Y-103346078D01*
X141506205Y-103233256D01*
X141584226Y-103044898D01*
X141624000Y-102844939D01*
X141624000Y-102641061D01*
X141584226Y-102441102D01*
X141506205Y-102252744D01*
X141392937Y-102083226D01*
X141248774Y-101939063D01*
X141079256Y-101825795D01*
X140890898Y-101747774D01*
X140690939Y-101708000D01*
X140487061Y-101708000D01*
X140287102Y-101747774D01*
X140098744Y-101825795D01*
X139929226Y-101939063D01*
X139785063Y-102083226D01*
X139671795Y-102252744D01*
X139593774Y-102441102D01*
X139554000Y-102641061D01*
X139554000Y-102844939D01*
X139593774Y-103044898D01*
X139671795Y-103233256D01*
X139754780Y-103357453D01*
X139675890Y-103333524D01*
X139446000Y-103454845D01*
X139192000Y-103454845D01*
X138962110Y-103333524D01*
X138814901Y-103378175D01*
X138552080Y-103503359D01*
X138318731Y-103677412D01*
X138123822Y-103893645D01*
X138054195Y-104010534D01*
X137932475Y-103828368D01*
X137725632Y-103621525D01*
X137482411Y-103459010D01*
X137212158Y-103347068D01*
X136925260Y-103290000D01*
X136632740Y-103290000D01*
X136345842Y-103347068D01*
X136075589Y-103459010D01*
X135832368Y-103621525D01*
X135625525Y-103828368D01*
X135463010Y-104071589D01*
X135351068Y-104341842D01*
X135294000Y-104628740D01*
X130200000Y-104628740D01*
X130200000Y-103743798D01*
X130264522Y-103845196D01*
X130442441Y-104031250D01*
X130653239Y-104179019D01*
X130888815Y-104282824D01*
X131140116Y-104338675D01*
X131346000Y-104188573D01*
X131346000Y-103162000D01*
X131600000Y-103162000D01*
X131600000Y-104188573D01*
X131805884Y-104338675D01*
X132057185Y-104282824D01*
X132292761Y-104179019D01*
X132503559Y-104031250D01*
X132681478Y-103845196D01*
X132819681Y-103628007D01*
X132912857Y-103388029D01*
X132915910Y-103364400D01*
X132792224Y-103162000D01*
X131600000Y-103162000D01*
X131346000Y-103162000D01*
X131326000Y-103162000D01*
X131326000Y-103034744D01*
X133129197Y-103034744D01*
X133133989Y-103073526D01*
X133223869Y-103289039D01*
X133354066Y-103482877D01*
X133519578Y-103647590D01*
X133714043Y-103776848D01*
X133929989Y-103865684D01*
X134159116Y-103910684D01*
X134346000Y-103755152D01*
X134346000Y-102852000D01*
X134600000Y-102852000D01*
X134600000Y-103755152D01*
X134786884Y-103910684D01*
X135016011Y-103865684D01*
X135231957Y-103776848D01*
X135426422Y-103647590D01*
X135591934Y-103482877D01*
X135722131Y-103289039D01*
X135812011Y-103073526D01*
X135816803Y-103034744D01*
X135691361Y-102852000D01*
X134600000Y-102852000D01*
X134346000Y-102852000D01*
X133254639Y-102852000D01*
X133129197Y-103034744D01*
X131326000Y-103034744D01*
X131326000Y-102908000D01*
X131346000Y-102908000D01*
X131346000Y-101881427D01*
X131600000Y-101881427D01*
X131600000Y-102908000D01*
X132792224Y-102908000D01*
X132915910Y-102705600D01*
X132912857Y-102681971D01*
X132819681Y-102441993D01*
X132802668Y-102415256D01*
X133129197Y-102415256D01*
X133254639Y-102598000D01*
X134346000Y-102598000D01*
X134346000Y-101694848D01*
X134600000Y-101694848D01*
X134600000Y-102598000D01*
X135691361Y-102598000D01*
X135816803Y-102415256D01*
X135812011Y-102376474D01*
X135722131Y-102160961D01*
X135591934Y-101967123D01*
X135426422Y-101802410D01*
X135231957Y-101673152D01*
X135016011Y-101584316D01*
X134786884Y-101539316D01*
X134600000Y-101694848D01*
X134346000Y-101694848D01*
X134159116Y-101539316D01*
X133929989Y-101584316D01*
X133714043Y-101673152D01*
X133519578Y-101802410D01*
X133354066Y-101967123D01*
X133223869Y-102160961D01*
X133133989Y-102376474D01*
X133129197Y-102415256D01*
X132802668Y-102415256D01*
X132681478Y-102224804D01*
X132503559Y-102038750D01*
X132292761Y-101890981D01*
X132057185Y-101787176D01*
X131805884Y-101731325D01*
X131600000Y-101881427D01*
X131346000Y-101881427D01*
X131140116Y-101731325D01*
X130888815Y-101787176D01*
X130653239Y-101890981D01*
X130442441Y-102038750D01*
X130264522Y-102224804D01*
X130200000Y-102326202D01*
X130200000Y-101244061D01*
X141713000Y-101244061D01*
X141713000Y-101447939D01*
X141752774Y-101647898D01*
X141830795Y-101836256D01*
X141944063Y-102005774D01*
X142088226Y-102149937D01*
X142257744Y-102263205D01*
X142446102Y-102341226D01*
X142646061Y-102381000D01*
X142849939Y-102381000D01*
X143049898Y-102341226D01*
X143238256Y-102263205D01*
X143407774Y-102149937D01*
X143509378Y-102048333D01*
X143530774Y-102155898D01*
X143608795Y-102344256D01*
X143722063Y-102513774D01*
X143866226Y-102657937D01*
X144035744Y-102771205D01*
X144224102Y-102849226D01*
X144424061Y-102889000D01*
X144627939Y-102889000D01*
X144827898Y-102849226D01*
X145016256Y-102771205D01*
X145185774Y-102657937D01*
X145329937Y-102513774D01*
X145443205Y-102344256D01*
X145521226Y-102155898D01*
X145561000Y-101955939D01*
X145561000Y-101752061D01*
X145521226Y-101552102D01*
X145498842Y-101498061D01*
X146539000Y-101498061D01*
X146539000Y-101701939D01*
X146578774Y-101901898D01*
X146656795Y-102090256D01*
X146770063Y-102259774D01*
X146914226Y-102403937D01*
X147083744Y-102517205D01*
X147272102Y-102595226D01*
X147472061Y-102635000D01*
X147675939Y-102635000D01*
X147875898Y-102595226D01*
X148064256Y-102517205D01*
X148233774Y-102403937D01*
X148377937Y-102259774D01*
X148491205Y-102090256D01*
X148569226Y-101901898D01*
X148585094Y-101822121D01*
X149794294Y-101822121D01*
X149794294Y-102025999D01*
X149834068Y-102225958D01*
X149912089Y-102414316D01*
X150025357Y-102583834D01*
X150117061Y-102675538D01*
X150097250Y-102775138D01*
X150097250Y-102979016D01*
X150137024Y-103178975D01*
X150176785Y-103274966D01*
X150132741Y-103319010D01*
X150019473Y-103488528D01*
X149941452Y-103676886D01*
X149901678Y-103876845D01*
X149901678Y-104080723D01*
X149941452Y-104280682D01*
X150019473Y-104469040D01*
X150132741Y-104638558D01*
X150276904Y-104782721D01*
X150424964Y-104881651D01*
X150424964Y-104932894D01*
X150464738Y-105132853D01*
X150542759Y-105321211D01*
X150656027Y-105490729D01*
X150800190Y-105634892D01*
X150969708Y-105748160D01*
X151158066Y-105826181D01*
X151358025Y-105865955D01*
X151561903Y-105865955D01*
X151761862Y-105826181D01*
X151950220Y-105748160D01*
X152119738Y-105634892D01*
X152263901Y-105490729D01*
X152377169Y-105321211D01*
X152455190Y-105132853D01*
X152494964Y-104932894D01*
X152494964Y-104729016D01*
X152455190Y-104529057D01*
X152377169Y-104340699D01*
X152263901Y-104171181D01*
X152119738Y-104027018D01*
X151971678Y-103928088D01*
X151971678Y-103876845D01*
X151931904Y-103676886D01*
X151892143Y-103580895D01*
X151936187Y-103536851D01*
X152049455Y-103367333D01*
X152127476Y-103178975D01*
X152167250Y-102979016D01*
X152167250Y-102775138D01*
X152162847Y-102752999D01*
X154897350Y-102752999D01*
X154897350Y-102956877D01*
X154937124Y-103156836D01*
X155015145Y-103345194D01*
X155128413Y-103514712D01*
X155272576Y-103658875D01*
X155442094Y-103772143D01*
X155630452Y-103850164D01*
X155830411Y-103889938D01*
X156034289Y-103889938D01*
X156234248Y-103850164D01*
X156422606Y-103772143D01*
X156592124Y-103658875D01*
X156736287Y-103514712D01*
X156849555Y-103345194D01*
X156878191Y-103276061D01*
X165398500Y-103276061D01*
X165398500Y-103479939D01*
X165438274Y-103679898D01*
X165516295Y-103868256D01*
X165629563Y-104037774D01*
X165773726Y-104181937D01*
X165943244Y-104295205D01*
X166131602Y-104373226D01*
X166331561Y-104413000D01*
X166535439Y-104413000D01*
X166735398Y-104373226D01*
X166923756Y-104295205D01*
X167093274Y-104181937D01*
X167237437Y-104037774D01*
X167350705Y-103868256D01*
X167428726Y-103679898D01*
X167468500Y-103479939D01*
X167468500Y-103276061D01*
X167428726Y-103076102D01*
X167350705Y-102887744D01*
X167237437Y-102718226D01*
X167093274Y-102574063D01*
X166923756Y-102460795D01*
X166735398Y-102382774D01*
X166535439Y-102343000D01*
X166331561Y-102343000D01*
X166131602Y-102382774D01*
X165943244Y-102460795D01*
X165773726Y-102574063D01*
X165629563Y-102718226D01*
X165516295Y-102887744D01*
X165438274Y-103076102D01*
X165398500Y-103276061D01*
X156878191Y-103276061D01*
X156927576Y-103156836D01*
X156967350Y-102956877D01*
X156967350Y-102752999D01*
X156927576Y-102553040D01*
X156849555Y-102364682D01*
X156835666Y-102343896D01*
X156978699Y-102315445D01*
X157167057Y-102237424D01*
X157336575Y-102124156D01*
X157480738Y-101979993D01*
X157594006Y-101810475D01*
X157670807Y-101625061D01*
X158477000Y-101625061D01*
X158477000Y-101828939D01*
X158516774Y-102028898D01*
X158594795Y-102217256D01*
X158708063Y-102386774D01*
X158852226Y-102530937D01*
X159021744Y-102644205D01*
X159210102Y-102722226D01*
X159410061Y-102762000D01*
X159613939Y-102762000D01*
X159813898Y-102722226D01*
X160002256Y-102644205D01*
X160171774Y-102530937D01*
X160315937Y-102386774D01*
X160429205Y-102217256D01*
X160507226Y-102028898D01*
X160547000Y-101828939D01*
X160547000Y-101625061D01*
X160507226Y-101425102D01*
X160429205Y-101236744D01*
X160399479Y-101192255D01*
X162918105Y-101192255D01*
X162918105Y-101396133D01*
X162957879Y-101596092D01*
X163035900Y-101784450D01*
X163149168Y-101953968D01*
X163293331Y-102098131D01*
X163462849Y-102211399D01*
X163651207Y-102289420D01*
X163851166Y-102329194D01*
X164055044Y-102329194D01*
X164255003Y-102289420D01*
X164443361Y-102211399D01*
X164612879Y-102098131D01*
X164757042Y-101953968D01*
X164870310Y-101784450D01*
X164948331Y-101596092D01*
X164967944Y-101497489D01*
X167124223Y-101497489D01*
X167124223Y-101701367D01*
X167163997Y-101901326D01*
X167242018Y-102089684D01*
X167355286Y-102259202D01*
X167499449Y-102403365D01*
X167668967Y-102516633D01*
X167857325Y-102594654D01*
X167875000Y-102598170D01*
X167875000Y-102717939D01*
X167914774Y-102917898D01*
X167992795Y-103106256D01*
X168106063Y-103275774D01*
X168250226Y-103419937D01*
X168419744Y-103533205D01*
X168608102Y-103611226D01*
X168808061Y-103651000D01*
X169011939Y-103651000D01*
X169211898Y-103611226D01*
X169400256Y-103533205D01*
X169569774Y-103419937D01*
X169713937Y-103275774D01*
X169827205Y-103106256D01*
X169905226Y-102917898D01*
X169945000Y-102717939D01*
X169945000Y-102514061D01*
X169905226Y-102314102D01*
X169827205Y-102125744D01*
X169713937Y-101956226D01*
X169569774Y-101812063D01*
X169400256Y-101698795D01*
X169211898Y-101620774D01*
X169194223Y-101617258D01*
X169194223Y-101497489D01*
X169154449Y-101297530D01*
X169076428Y-101109172D01*
X168963160Y-100939654D01*
X168818997Y-100795491D01*
X168649479Y-100682223D01*
X168461121Y-100604202D01*
X168261162Y-100564428D01*
X168057284Y-100564428D01*
X167857325Y-100604202D01*
X167668967Y-100682223D01*
X167499449Y-100795491D01*
X167355286Y-100939654D01*
X167242018Y-101109172D01*
X167163997Y-101297530D01*
X167124223Y-101497489D01*
X164967944Y-101497489D01*
X164988105Y-101396133D01*
X164988105Y-101192255D01*
X164948331Y-100992296D01*
X164870310Y-100803938D01*
X164757042Y-100634420D01*
X164612879Y-100490257D01*
X164443361Y-100376989D01*
X164255003Y-100298968D01*
X164055044Y-100259194D01*
X163851166Y-100259194D01*
X163651207Y-100298968D01*
X163462849Y-100376989D01*
X163293331Y-100490257D01*
X163149168Y-100634420D01*
X163035900Y-100803938D01*
X162957879Y-100992296D01*
X162918105Y-101192255D01*
X160399479Y-101192255D01*
X160315937Y-101067226D01*
X160171774Y-100923063D01*
X160002256Y-100809795D01*
X159813898Y-100731774D01*
X159613939Y-100692000D01*
X159410061Y-100692000D01*
X159210102Y-100731774D01*
X159021744Y-100809795D01*
X158852226Y-100923063D01*
X158708063Y-101067226D01*
X158594795Y-101236744D01*
X158516774Y-101425102D01*
X158477000Y-101625061D01*
X157670807Y-101625061D01*
X157672027Y-101622117D01*
X157711801Y-101422158D01*
X157711801Y-101218280D01*
X157672027Y-101018321D01*
X157594006Y-100829963D01*
X157480738Y-100660445D01*
X157336575Y-100516282D01*
X157295003Y-100488505D01*
X157295003Y-100287029D01*
X157255229Y-100087070D01*
X157177208Y-99898712D01*
X157063940Y-99729194D01*
X156919777Y-99585031D01*
X156820528Y-99518715D01*
X156871929Y-99497424D01*
X157049636Y-99378684D01*
X157200764Y-99227556D01*
X157319504Y-99049849D01*
X157401293Y-98852392D01*
X157442989Y-98642772D01*
X157442989Y-98429046D01*
X157401293Y-98219426D01*
X157319504Y-98021969D01*
X157200764Y-97844262D01*
X157049636Y-97693134D01*
X157034675Y-97683137D01*
X171127000Y-97683137D01*
X171127000Y-97896863D01*
X171168696Y-98106483D01*
X171250485Y-98303940D01*
X171369225Y-98481647D01*
X171520353Y-98632775D01*
X171698060Y-98751515D01*
X171895517Y-98833304D01*
X172105137Y-98875000D01*
X172318863Y-98875000D01*
X172528483Y-98833304D01*
X172725940Y-98751515D01*
X172903647Y-98632775D01*
X173054775Y-98481647D01*
X173173515Y-98303940D01*
X173255304Y-98106483D01*
X173297000Y-97896863D01*
X173297000Y-97683137D01*
X173255304Y-97473517D01*
X173173515Y-97276060D01*
X173054775Y-97098353D01*
X172903647Y-96947225D01*
X172725940Y-96828485D01*
X172528483Y-96746696D01*
X172318863Y-96705000D01*
X172105137Y-96705000D01*
X171895517Y-96746696D01*
X171698060Y-96828485D01*
X171520353Y-96947225D01*
X171369225Y-97098353D01*
X171250485Y-97276060D01*
X171168696Y-97473517D01*
X171127000Y-97683137D01*
X157034675Y-97683137D01*
X156871929Y-97574394D01*
X156674472Y-97492605D01*
X156464852Y-97450909D01*
X156251126Y-97450909D01*
X156041506Y-97492605D01*
X155844049Y-97574394D01*
X155666342Y-97693134D01*
X155515214Y-97844262D01*
X155396474Y-98021969D01*
X155314685Y-98219426D01*
X155272989Y-98429046D01*
X155272989Y-98642772D01*
X155314685Y-98852392D01*
X155396474Y-99049849D01*
X155515214Y-99227556D01*
X155666342Y-99378684D01*
X155791907Y-99462584D01*
X155769747Y-99471763D01*
X155600229Y-99585031D01*
X155456066Y-99729194D01*
X155342798Y-99898712D01*
X155264777Y-100087070D01*
X155225003Y-100287029D01*
X155225003Y-100490907D01*
X155264777Y-100690866D01*
X155342798Y-100879224D01*
X155456066Y-101048742D01*
X155600229Y-101192905D01*
X155641801Y-101220682D01*
X155641801Y-101422158D01*
X155681575Y-101622117D01*
X155759596Y-101810475D01*
X155773485Y-101831261D01*
X155630452Y-101859712D01*
X155442094Y-101937733D01*
X155272576Y-102051001D01*
X155128413Y-102195164D01*
X155015145Y-102364682D01*
X154937124Y-102553040D01*
X154897350Y-102752999D01*
X152162847Y-102752999D01*
X152127476Y-102575179D01*
X152049455Y-102386821D01*
X151936187Y-102217303D01*
X151844483Y-102125599D01*
X151864294Y-102025999D01*
X151864294Y-102013331D01*
X151874256Y-102009205D01*
X152043774Y-101895937D01*
X152187937Y-101751774D01*
X152301205Y-101582256D01*
X152379226Y-101393898D01*
X152419000Y-101193939D01*
X152419000Y-100990061D01*
X152379226Y-100790102D01*
X152301205Y-100601744D01*
X152187937Y-100432226D01*
X152043774Y-100288063D01*
X151874256Y-100174795D01*
X151685898Y-100096774D01*
X151485939Y-100057000D01*
X151282061Y-100057000D01*
X151082102Y-100096774D01*
X150893744Y-100174795D01*
X150724226Y-100288063D01*
X150580063Y-100432226D01*
X150466795Y-100601744D01*
X150388774Y-100790102D01*
X150349000Y-100990061D01*
X150349000Y-101002729D01*
X150339038Y-101006855D01*
X150169520Y-101120123D01*
X150025357Y-101264286D01*
X149912089Y-101433804D01*
X149834068Y-101622162D01*
X149794294Y-101822121D01*
X148585094Y-101822121D01*
X148609000Y-101701939D01*
X148609000Y-101498061D01*
X148569226Y-101298102D01*
X148491205Y-101109744D01*
X148377937Y-100940226D01*
X148233774Y-100796063D01*
X148064256Y-100682795D01*
X147875898Y-100604774D01*
X147675939Y-100565000D01*
X147472061Y-100565000D01*
X147272102Y-100604774D01*
X147083744Y-100682795D01*
X146914226Y-100796063D01*
X146770063Y-100940226D01*
X146656795Y-101109744D01*
X146578774Y-101298102D01*
X146539000Y-101498061D01*
X145498842Y-101498061D01*
X145443205Y-101363744D01*
X145329937Y-101194226D01*
X145185774Y-101050063D01*
X145016256Y-100936795D01*
X144827898Y-100858774D01*
X144627939Y-100819000D01*
X144424061Y-100819000D01*
X144224102Y-100858774D01*
X144035744Y-100936795D01*
X143866226Y-101050063D01*
X143764622Y-101151667D01*
X143743226Y-101044102D01*
X143665205Y-100855744D01*
X143551937Y-100686226D01*
X143407774Y-100542063D01*
X143238256Y-100428795D01*
X143049898Y-100350774D01*
X142849939Y-100311000D01*
X142646061Y-100311000D01*
X142446102Y-100350774D01*
X142257744Y-100428795D01*
X142088226Y-100542063D01*
X141944063Y-100686226D01*
X141830795Y-100855744D01*
X141752774Y-101044102D01*
X141713000Y-101244061D01*
X130200000Y-101244061D01*
X130200000Y-99656561D01*
X140316000Y-99656561D01*
X140316000Y-99860439D01*
X140355774Y-100060398D01*
X140433795Y-100248756D01*
X140547063Y-100418274D01*
X140691226Y-100562437D01*
X140860744Y-100675705D01*
X141049102Y-100753726D01*
X141249061Y-100793500D01*
X141452939Y-100793500D01*
X141652898Y-100753726D01*
X141841256Y-100675705D01*
X142010774Y-100562437D01*
X142154937Y-100418274D01*
X142268205Y-100248756D01*
X142346226Y-100060398D01*
X142386000Y-99860439D01*
X142386000Y-99656561D01*
X142346226Y-99456602D01*
X142268205Y-99268244D01*
X142154937Y-99098726D01*
X142010774Y-98954563D01*
X141841256Y-98841295D01*
X141652898Y-98763274D01*
X141452939Y-98723500D01*
X141249061Y-98723500D01*
X141049102Y-98763274D01*
X140860744Y-98841295D01*
X140691226Y-98954563D01*
X140547063Y-99098726D01*
X140433795Y-99268244D01*
X140355774Y-99456602D01*
X140316000Y-99656561D01*
X130200000Y-99656561D01*
X130200000Y-98283798D01*
X130264522Y-98385196D01*
X130442441Y-98571250D01*
X130653239Y-98719019D01*
X130888815Y-98822824D01*
X131140116Y-98878675D01*
X131346000Y-98728573D01*
X131346000Y-97702000D01*
X131600000Y-97702000D01*
X131600000Y-98728573D01*
X131805884Y-98878675D01*
X132057185Y-98822824D01*
X132292761Y-98719019D01*
X132503559Y-98571250D01*
X132681478Y-98385196D01*
X132802667Y-98194744D01*
X133129197Y-98194744D01*
X133133989Y-98233526D01*
X133223869Y-98449039D01*
X133354066Y-98642877D01*
X133519578Y-98807590D01*
X133714043Y-98936848D01*
X133929989Y-99025684D01*
X134159116Y-99070684D01*
X134346000Y-98915152D01*
X134346000Y-98012000D01*
X134600000Y-98012000D01*
X134600000Y-98915152D01*
X134786884Y-99070684D01*
X135016011Y-99025684D01*
X135231957Y-98936848D01*
X135426422Y-98807590D01*
X135591934Y-98642877D01*
X135722131Y-98449039D01*
X135812011Y-98233526D01*
X135816803Y-98194744D01*
X135691361Y-98012000D01*
X134600000Y-98012000D01*
X134346000Y-98012000D01*
X133254639Y-98012000D01*
X133129197Y-98194744D01*
X132802667Y-98194744D01*
X132819681Y-98168007D01*
X132912857Y-97928029D01*
X132915910Y-97904400D01*
X132792224Y-97702000D01*
X131600000Y-97702000D01*
X131346000Y-97702000D01*
X131326000Y-97702000D01*
X131326000Y-97575256D01*
X133129197Y-97575256D01*
X133254639Y-97758000D01*
X134346000Y-97758000D01*
X134346000Y-96854848D01*
X134600000Y-96854848D01*
X134600000Y-97758000D01*
X135691361Y-97758000D01*
X135816803Y-97575256D01*
X135812011Y-97536474D01*
X135722131Y-97320961D01*
X135591934Y-97127123D01*
X135426422Y-96962410D01*
X135371736Y-96926061D01*
X140062000Y-96926061D01*
X140062000Y-97129939D01*
X140101774Y-97329898D01*
X140179795Y-97518256D01*
X140293063Y-97687774D01*
X140437226Y-97831937D01*
X140606744Y-97945205D01*
X140795102Y-98023226D01*
X140995061Y-98063000D01*
X141198939Y-98063000D01*
X141398898Y-98023226D01*
X141587256Y-97945205D01*
X141599330Y-97937137D01*
X148267000Y-97937137D01*
X148267000Y-98150863D01*
X148308696Y-98360483D01*
X148390485Y-98557940D01*
X148509225Y-98735647D01*
X148660353Y-98886775D01*
X148838060Y-99005515D01*
X149035517Y-99087304D01*
X149245137Y-99129000D01*
X149458863Y-99129000D01*
X149668483Y-99087304D01*
X149865940Y-99005515D01*
X150043647Y-98886775D01*
X150194775Y-98735647D01*
X150313515Y-98557940D01*
X150395304Y-98360483D01*
X150437000Y-98150863D01*
X150437000Y-97937137D01*
X150395304Y-97727517D01*
X150313515Y-97530060D01*
X150194775Y-97352353D01*
X150043647Y-97201225D01*
X149865940Y-97082485D01*
X149668483Y-97000696D01*
X149458863Y-96959000D01*
X149245137Y-96959000D01*
X149035517Y-97000696D01*
X148838060Y-97082485D01*
X148660353Y-97201225D01*
X148509225Y-97352353D01*
X148390485Y-97530060D01*
X148308696Y-97727517D01*
X148267000Y-97937137D01*
X141599330Y-97937137D01*
X141756774Y-97831937D01*
X141900937Y-97687774D01*
X142014205Y-97518256D01*
X142092226Y-97329898D01*
X142132000Y-97129939D01*
X142132000Y-96926061D01*
X142092226Y-96726102D01*
X142014205Y-96537744D01*
X141900937Y-96368226D01*
X141756774Y-96224063D01*
X141587256Y-96110795D01*
X141398898Y-96032774D01*
X141198939Y-95993000D01*
X140995061Y-95993000D01*
X140795102Y-96032774D01*
X140606744Y-96110795D01*
X140437226Y-96224063D01*
X140293063Y-96368226D01*
X140179795Y-96537744D01*
X140101774Y-96726102D01*
X140062000Y-96926061D01*
X135371736Y-96926061D01*
X135231957Y-96833152D01*
X135016011Y-96744316D01*
X134786884Y-96699316D01*
X134600000Y-96854848D01*
X134346000Y-96854848D01*
X134159116Y-96699316D01*
X133929989Y-96744316D01*
X133714043Y-96833152D01*
X133519578Y-96962410D01*
X133354066Y-97127123D01*
X133223869Y-97320961D01*
X133133989Y-97536474D01*
X133129197Y-97575256D01*
X131326000Y-97575256D01*
X131326000Y-97448000D01*
X131346000Y-97448000D01*
X131346000Y-96421427D01*
X131600000Y-96421427D01*
X131600000Y-97448000D01*
X132792224Y-97448000D01*
X132915910Y-97245600D01*
X132912857Y-97221971D01*
X132819681Y-96981993D01*
X132681478Y-96764804D01*
X132503559Y-96578750D01*
X132292761Y-96430981D01*
X132057185Y-96327176D01*
X131805884Y-96271325D01*
X131600000Y-96421427D01*
X131346000Y-96421427D01*
X131140116Y-96271325D01*
X130888815Y-96327176D01*
X130653239Y-96430981D01*
X130442441Y-96578750D01*
X130264522Y-96764804D01*
X130200000Y-96866202D01*
X130200000Y-94889137D01*
X136519500Y-94889137D01*
X136519500Y-95102863D01*
X136561196Y-95312483D01*
X136642985Y-95509940D01*
X136761725Y-95687647D01*
X136912853Y-95838775D01*
X137090560Y-95957515D01*
X137288017Y-96039304D01*
X137497637Y-96081000D01*
X137711363Y-96081000D01*
X137920983Y-96039304D01*
X138118440Y-95957515D01*
X138296147Y-95838775D01*
X138447275Y-95687647D01*
X138566015Y-95509940D01*
X138647804Y-95312483D01*
X138689500Y-95102863D01*
X138689500Y-94889137D01*
X138647804Y-94679517D01*
X138566015Y-94482060D01*
X138447418Y-94304566D01*
X141070284Y-94304566D01*
X141070284Y-94508444D01*
X141110058Y-94708403D01*
X141188079Y-94896761D01*
X141301347Y-95066279D01*
X141445510Y-95210442D01*
X141615028Y-95323710D01*
X141803386Y-95401731D01*
X142003345Y-95441505D01*
X142207223Y-95441505D01*
X142407182Y-95401731D01*
X142595540Y-95323710D01*
X142624178Y-95304574D01*
X142633711Y-95352498D01*
X142715500Y-95549955D01*
X142834240Y-95727662D01*
X142985368Y-95878790D01*
X143163075Y-95997530D01*
X143360532Y-96079319D01*
X143570152Y-96121015D01*
X143783878Y-96121015D01*
X143993498Y-96079319D01*
X144190955Y-95997530D01*
X144321861Y-95910061D01*
X154222500Y-95910061D01*
X154222500Y-96113939D01*
X154262274Y-96313898D01*
X154340295Y-96502256D01*
X154453563Y-96671774D01*
X154597726Y-96815937D01*
X154767244Y-96929205D01*
X154955602Y-97007226D01*
X155155561Y-97047000D01*
X155359439Y-97047000D01*
X155559398Y-97007226D01*
X155747756Y-96929205D01*
X155917274Y-96815937D01*
X156061437Y-96671774D01*
X156174705Y-96502256D01*
X156252726Y-96313898D01*
X156292500Y-96113939D01*
X156292500Y-95910061D01*
X156252726Y-95710102D01*
X156174705Y-95521744D01*
X156061437Y-95352226D01*
X155917274Y-95208063D01*
X155747756Y-95094795D01*
X155559398Y-95016774D01*
X155359439Y-94977000D01*
X155155561Y-94977000D01*
X154955602Y-95016774D01*
X154767244Y-95094795D01*
X154597726Y-95208063D01*
X154453563Y-95352226D01*
X154340295Y-95521744D01*
X154262274Y-95710102D01*
X154222500Y-95910061D01*
X144321861Y-95910061D01*
X144368662Y-95878790D01*
X144519790Y-95727662D01*
X144638530Y-95549955D01*
X144720319Y-95352498D01*
X144762015Y-95142878D01*
X144762015Y-94929152D01*
X144720319Y-94719532D01*
X144638530Y-94522075D01*
X144519790Y-94344368D01*
X144368662Y-94193240D01*
X144190955Y-94074500D01*
X143993498Y-93992711D01*
X143783878Y-93951015D01*
X143570152Y-93951015D01*
X143360532Y-93992711D01*
X143163075Y-94074500D01*
X143102564Y-94114932D01*
X143100510Y-94104607D01*
X143022489Y-93916249D01*
X142909221Y-93746731D01*
X142850051Y-93687561D01*
X151936500Y-93687561D01*
X151936500Y-93891439D01*
X151976274Y-94091398D01*
X152054295Y-94279756D01*
X152167563Y-94449274D01*
X152311726Y-94593437D01*
X152481244Y-94706705D01*
X152669602Y-94784726D01*
X152869561Y-94824500D01*
X153073439Y-94824500D01*
X153273398Y-94784726D01*
X153461756Y-94706705D01*
X153631274Y-94593437D01*
X153640057Y-94584655D01*
X153775186Y-94719784D01*
X153944704Y-94833052D01*
X154133062Y-94911073D01*
X154333021Y-94950847D01*
X154536899Y-94950847D01*
X154736858Y-94911073D01*
X154925216Y-94833052D01*
X155094734Y-94719784D01*
X155238897Y-94575621D01*
X155352165Y-94406103D01*
X155430186Y-94217745D01*
X155469960Y-94017786D01*
X155469960Y-93878061D01*
X158096000Y-93878061D01*
X158096000Y-94081939D01*
X158135774Y-94281898D01*
X158213795Y-94470256D01*
X158327063Y-94639774D01*
X158471226Y-94783937D01*
X158640744Y-94897205D01*
X158829102Y-94975226D01*
X159029061Y-95015000D01*
X159232939Y-95015000D01*
X159432898Y-94975226D01*
X159621256Y-94897205D01*
X159649890Y-94878072D01*
X160890000Y-94878072D01*
X160890000Y-95081950D01*
X160929774Y-95281909D01*
X161007795Y-95470267D01*
X161121063Y-95639785D01*
X161265226Y-95783948D01*
X161434744Y-95897216D01*
X161623102Y-95975237D01*
X161823061Y-96015011D01*
X162026939Y-96015011D01*
X162226898Y-95975237D01*
X162415256Y-95897216D01*
X162584774Y-95783948D01*
X162728937Y-95639785D01*
X162842205Y-95470267D01*
X162920226Y-95281909D01*
X162960000Y-95081950D01*
X162960000Y-94894061D01*
X165017500Y-94894061D01*
X165017500Y-95097939D01*
X165057274Y-95297898D01*
X165135295Y-95486256D01*
X165248563Y-95655774D01*
X165392726Y-95799937D01*
X165562244Y-95913205D01*
X165750602Y-95991226D01*
X165950561Y-96031000D01*
X166154439Y-96031000D01*
X166354398Y-95991226D01*
X166542756Y-95913205D01*
X166712274Y-95799937D01*
X166856437Y-95655774D01*
X166969705Y-95486256D01*
X167047726Y-95297898D01*
X167087500Y-95097939D01*
X167087500Y-94894061D01*
X167047726Y-94694102D01*
X166969705Y-94505744D01*
X166856437Y-94336226D01*
X166712274Y-94192063D01*
X166542756Y-94078795D01*
X166354398Y-94000774D01*
X166154439Y-93961000D01*
X165950561Y-93961000D01*
X165750602Y-94000774D01*
X165562244Y-94078795D01*
X165392726Y-94192063D01*
X165248563Y-94336226D01*
X165135295Y-94505744D01*
X165057274Y-94694102D01*
X165017500Y-94894061D01*
X162960000Y-94894061D01*
X162960000Y-94878072D01*
X162920226Y-94678113D01*
X162842205Y-94489755D01*
X162728937Y-94320237D01*
X162584774Y-94176074D01*
X162415256Y-94062806D01*
X162226898Y-93984785D01*
X162026939Y-93945011D01*
X161823061Y-93945011D01*
X161623102Y-93984785D01*
X161434744Y-94062806D01*
X161265226Y-94176074D01*
X161121063Y-94320237D01*
X161007795Y-94489755D01*
X160929774Y-94678113D01*
X160890000Y-94878072D01*
X159649890Y-94878072D01*
X159790774Y-94783937D01*
X159934937Y-94639774D01*
X160048205Y-94470256D01*
X160126226Y-94281898D01*
X160166000Y-94081939D01*
X160166000Y-93878061D01*
X160126226Y-93678102D01*
X160048205Y-93489744D01*
X159934937Y-93320226D01*
X159790774Y-93176063D01*
X159621256Y-93062795D01*
X159432898Y-92984774D01*
X159232939Y-92945000D01*
X159029061Y-92945000D01*
X158829102Y-92984774D01*
X158640744Y-93062795D01*
X158471226Y-93176063D01*
X158327063Y-93320226D01*
X158213795Y-93489744D01*
X158135774Y-93678102D01*
X158096000Y-93878061D01*
X155469960Y-93878061D01*
X155469960Y-93813908D01*
X155430186Y-93613949D01*
X155352165Y-93425591D01*
X155334123Y-93398588D01*
X155362937Y-93369774D01*
X155476205Y-93200256D01*
X155554226Y-93011898D01*
X155594000Y-92811939D01*
X155594000Y-92608061D01*
X155554226Y-92408102D01*
X155476205Y-92219744D01*
X155362937Y-92050226D01*
X155218774Y-91906063D01*
X155049256Y-91792795D01*
X154860898Y-91714774D01*
X154660939Y-91675000D01*
X154457061Y-91675000D01*
X154257102Y-91714774D01*
X154068744Y-91792795D01*
X153899226Y-91906063D01*
X153755063Y-92050226D01*
X153641795Y-92219744D01*
X153563774Y-92408102D01*
X153524000Y-92608061D01*
X153524000Y-92811939D01*
X153547386Y-92929511D01*
X153461756Y-92872295D01*
X153273398Y-92794274D01*
X153073439Y-92754500D01*
X152869561Y-92754500D01*
X152669602Y-92794274D01*
X152481244Y-92872295D01*
X152311726Y-92985563D01*
X152167563Y-93129726D01*
X152054295Y-93299244D01*
X151976274Y-93487602D01*
X151936500Y-93687561D01*
X142850051Y-93687561D01*
X142765058Y-93602568D01*
X142595540Y-93489300D01*
X142407182Y-93411279D01*
X142207223Y-93371505D01*
X142003345Y-93371505D01*
X141803386Y-93411279D01*
X141615028Y-93489300D01*
X141445510Y-93602568D01*
X141301347Y-93746731D01*
X141188079Y-93916249D01*
X141110058Y-94104607D01*
X141070284Y-94304566D01*
X138447418Y-94304566D01*
X138447275Y-94304353D01*
X138296147Y-94153225D01*
X138118440Y-94034485D01*
X137920983Y-93952696D01*
X137711363Y-93911000D01*
X137497637Y-93911000D01*
X137288017Y-93952696D01*
X137090560Y-94034485D01*
X136912853Y-94153225D01*
X136761725Y-94304353D01*
X136642985Y-94482060D01*
X136561196Y-94679517D01*
X136519500Y-94889137D01*
X130200000Y-94889137D01*
X130200000Y-92969666D01*
X130205701Y-92978198D01*
X130541802Y-93314299D01*
X130937016Y-93578372D01*
X131376154Y-93760269D01*
X131842340Y-93853000D01*
X132317660Y-93853000D01*
X132783846Y-93760269D01*
X133222984Y-93578372D01*
X133618198Y-93314299D01*
X133954299Y-92978198D01*
X134218372Y-92582984D01*
X134400269Y-92143846D01*
X134493000Y-91677660D01*
X134493000Y-91202340D01*
X134400269Y-90736154D01*
X134218372Y-90297016D01*
X133954299Y-89901802D01*
X133618198Y-89565701D01*
X133609666Y-89560000D01*
X141550876Y-89560000D01*
X141513295Y-89616244D01*
M02*
