G04 #@! TF.GenerationSoftware,KiCad,Pcbnew,(5.1.5)-3*
G04 #@! TF.CreationDate,2019-12-24T16:56:50-08:00*
G04 #@! TF.ProjectId,NBIoT Wing,4e42496f-5420-4576-996e-672e6b696361,rev?*
G04 #@! TF.SameCoordinates,Original*
G04 #@! TF.FileFunction,Soldermask,Bot*
G04 #@! TF.FilePolarity,Negative*
%FSLAX46Y46*%
G04 Gerber Fmt 4.6, Leading zero omitted, Abs format (unit mm)*
G04 Created by KiCad (PCBNEW (5.1.5)-3) date 2019-12-24 16:56:50*
%MOMM*%
%LPD*%
G04 APERTURE LIST*
%ADD10C,0.100000*%
G04 APERTURE END LIST*
D10*
G36*
X174103512Y-109593927D02*
G01*
X174252812Y-109623624D01*
X174416784Y-109691544D01*
X174564354Y-109790147D01*
X174689853Y-109915646D01*
X174788456Y-110063216D01*
X174856376Y-110227188D01*
X174891000Y-110401259D01*
X174891000Y-110578741D01*
X174856376Y-110752812D01*
X174788456Y-110916784D01*
X174689853Y-111064354D01*
X174564354Y-111189853D01*
X174416784Y-111288456D01*
X174252812Y-111356376D01*
X174103512Y-111386073D01*
X174078742Y-111391000D01*
X173901258Y-111391000D01*
X173876488Y-111386073D01*
X173727188Y-111356376D01*
X173563216Y-111288456D01*
X173415646Y-111189853D01*
X173290147Y-111064354D01*
X173191544Y-110916784D01*
X173123624Y-110752812D01*
X173089000Y-110578741D01*
X173089000Y-110401259D01*
X173123624Y-110227188D01*
X173191544Y-110063216D01*
X173290147Y-109915646D01*
X173415646Y-109790147D01*
X173563216Y-109691544D01*
X173727188Y-109623624D01*
X173876488Y-109593927D01*
X173901258Y-109589000D01*
X174078742Y-109589000D01*
X174103512Y-109593927D01*
G37*
G36*
X141083512Y-109593927D02*
G01*
X141232812Y-109623624D01*
X141396784Y-109691544D01*
X141544354Y-109790147D01*
X141669853Y-109915646D01*
X141768456Y-110063216D01*
X141836376Y-110227188D01*
X141871000Y-110401259D01*
X141871000Y-110578741D01*
X141836376Y-110752812D01*
X141768456Y-110916784D01*
X141669853Y-111064354D01*
X141544354Y-111189853D01*
X141396784Y-111288456D01*
X141232812Y-111356376D01*
X141083512Y-111386073D01*
X141058742Y-111391000D01*
X140881258Y-111391000D01*
X140856488Y-111386073D01*
X140707188Y-111356376D01*
X140543216Y-111288456D01*
X140395646Y-111189853D01*
X140270147Y-111064354D01*
X140171544Y-110916784D01*
X140103624Y-110752812D01*
X140069000Y-110578741D01*
X140069000Y-110401259D01*
X140103624Y-110227188D01*
X140171544Y-110063216D01*
X140270147Y-109915646D01*
X140395646Y-109790147D01*
X140543216Y-109691544D01*
X140707188Y-109623624D01*
X140856488Y-109593927D01*
X140881258Y-109589000D01*
X141058742Y-109589000D01*
X141083512Y-109593927D01*
G37*
G36*
X161403512Y-109593927D02*
G01*
X161552812Y-109623624D01*
X161716784Y-109691544D01*
X161864354Y-109790147D01*
X161989853Y-109915646D01*
X162088456Y-110063216D01*
X162156376Y-110227188D01*
X162191000Y-110401259D01*
X162191000Y-110578741D01*
X162156376Y-110752812D01*
X162088456Y-110916784D01*
X161989853Y-111064354D01*
X161864354Y-111189853D01*
X161716784Y-111288456D01*
X161552812Y-111356376D01*
X161403512Y-111386073D01*
X161378742Y-111391000D01*
X161201258Y-111391000D01*
X161176488Y-111386073D01*
X161027188Y-111356376D01*
X160863216Y-111288456D01*
X160715646Y-111189853D01*
X160590147Y-111064354D01*
X160491544Y-110916784D01*
X160423624Y-110752812D01*
X160389000Y-110578741D01*
X160389000Y-110401259D01*
X160423624Y-110227188D01*
X160491544Y-110063216D01*
X160590147Y-109915646D01*
X160715646Y-109790147D01*
X160863216Y-109691544D01*
X161027188Y-109623624D01*
X161176488Y-109593927D01*
X161201258Y-109589000D01*
X161378742Y-109589000D01*
X161403512Y-109593927D01*
G37*
G36*
X158863512Y-109593927D02*
G01*
X159012812Y-109623624D01*
X159176784Y-109691544D01*
X159324354Y-109790147D01*
X159449853Y-109915646D01*
X159548456Y-110063216D01*
X159616376Y-110227188D01*
X159651000Y-110401259D01*
X159651000Y-110578741D01*
X159616376Y-110752812D01*
X159548456Y-110916784D01*
X159449853Y-111064354D01*
X159324354Y-111189853D01*
X159176784Y-111288456D01*
X159012812Y-111356376D01*
X158863512Y-111386073D01*
X158838742Y-111391000D01*
X158661258Y-111391000D01*
X158636488Y-111386073D01*
X158487188Y-111356376D01*
X158323216Y-111288456D01*
X158175646Y-111189853D01*
X158050147Y-111064354D01*
X157951544Y-110916784D01*
X157883624Y-110752812D01*
X157849000Y-110578741D01*
X157849000Y-110401259D01*
X157883624Y-110227188D01*
X157951544Y-110063216D01*
X158050147Y-109915646D01*
X158175646Y-109790147D01*
X158323216Y-109691544D01*
X158487188Y-109623624D01*
X158636488Y-109593927D01*
X158661258Y-109589000D01*
X158838742Y-109589000D01*
X158863512Y-109593927D01*
G37*
G36*
X156323512Y-109593927D02*
G01*
X156472812Y-109623624D01*
X156636784Y-109691544D01*
X156784354Y-109790147D01*
X156909853Y-109915646D01*
X157008456Y-110063216D01*
X157076376Y-110227188D01*
X157111000Y-110401259D01*
X157111000Y-110578741D01*
X157076376Y-110752812D01*
X157008456Y-110916784D01*
X156909853Y-111064354D01*
X156784354Y-111189853D01*
X156636784Y-111288456D01*
X156472812Y-111356376D01*
X156323512Y-111386073D01*
X156298742Y-111391000D01*
X156121258Y-111391000D01*
X156096488Y-111386073D01*
X155947188Y-111356376D01*
X155783216Y-111288456D01*
X155635646Y-111189853D01*
X155510147Y-111064354D01*
X155411544Y-110916784D01*
X155343624Y-110752812D01*
X155309000Y-110578741D01*
X155309000Y-110401259D01*
X155343624Y-110227188D01*
X155411544Y-110063216D01*
X155510147Y-109915646D01*
X155635646Y-109790147D01*
X155783216Y-109691544D01*
X155947188Y-109623624D01*
X156096488Y-109593927D01*
X156121258Y-109589000D01*
X156298742Y-109589000D01*
X156323512Y-109593927D01*
G37*
G36*
X153783512Y-109593927D02*
G01*
X153932812Y-109623624D01*
X154096784Y-109691544D01*
X154244354Y-109790147D01*
X154369853Y-109915646D01*
X154468456Y-110063216D01*
X154536376Y-110227188D01*
X154571000Y-110401259D01*
X154571000Y-110578741D01*
X154536376Y-110752812D01*
X154468456Y-110916784D01*
X154369853Y-111064354D01*
X154244354Y-111189853D01*
X154096784Y-111288456D01*
X153932812Y-111356376D01*
X153783512Y-111386073D01*
X153758742Y-111391000D01*
X153581258Y-111391000D01*
X153556488Y-111386073D01*
X153407188Y-111356376D01*
X153243216Y-111288456D01*
X153095646Y-111189853D01*
X152970147Y-111064354D01*
X152871544Y-110916784D01*
X152803624Y-110752812D01*
X152769000Y-110578741D01*
X152769000Y-110401259D01*
X152803624Y-110227188D01*
X152871544Y-110063216D01*
X152970147Y-109915646D01*
X153095646Y-109790147D01*
X153243216Y-109691544D01*
X153407188Y-109623624D01*
X153556488Y-109593927D01*
X153581258Y-109589000D01*
X153758742Y-109589000D01*
X153783512Y-109593927D01*
G37*
G36*
X151243512Y-109593927D02*
G01*
X151392812Y-109623624D01*
X151556784Y-109691544D01*
X151704354Y-109790147D01*
X151829853Y-109915646D01*
X151928456Y-110063216D01*
X151996376Y-110227188D01*
X152031000Y-110401259D01*
X152031000Y-110578741D01*
X151996376Y-110752812D01*
X151928456Y-110916784D01*
X151829853Y-111064354D01*
X151704354Y-111189853D01*
X151556784Y-111288456D01*
X151392812Y-111356376D01*
X151243512Y-111386073D01*
X151218742Y-111391000D01*
X151041258Y-111391000D01*
X151016488Y-111386073D01*
X150867188Y-111356376D01*
X150703216Y-111288456D01*
X150555646Y-111189853D01*
X150430147Y-111064354D01*
X150331544Y-110916784D01*
X150263624Y-110752812D01*
X150229000Y-110578741D01*
X150229000Y-110401259D01*
X150263624Y-110227188D01*
X150331544Y-110063216D01*
X150430147Y-109915646D01*
X150555646Y-109790147D01*
X150703216Y-109691544D01*
X150867188Y-109623624D01*
X151016488Y-109593927D01*
X151041258Y-109589000D01*
X151218742Y-109589000D01*
X151243512Y-109593927D01*
G37*
G36*
X148703512Y-109593927D02*
G01*
X148852812Y-109623624D01*
X149016784Y-109691544D01*
X149164354Y-109790147D01*
X149289853Y-109915646D01*
X149388456Y-110063216D01*
X149456376Y-110227188D01*
X149491000Y-110401259D01*
X149491000Y-110578741D01*
X149456376Y-110752812D01*
X149388456Y-110916784D01*
X149289853Y-111064354D01*
X149164354Y-111189853D01*
X149016784Y-111288456D01*
X148852812Y-111356376D01*
X148703512Y-111386073D01*
X148678742Y-111391000D01*
X148501258Y-111391000D01*
X148476488Y-111386073D01*
X148327188Y-111356376D01*
X148163216Y-111288456D01*
X148015646Y-111189853D01*
X147890147Y-111064354D01*
X147791544Y-110916784D01*
X147723624Y-110752812D01*
X147689000Y-110578741D01*
X147689000Y-110401259D01*
X147723624Y-110227188D01*
X147791544Y-110063216D01*
X147890147Y-109915646D01*
X148015646Y-109790147D01*
X148163216Y-109691544D01*
X148327188Y-109623624D01*
X148476488Y-109593927D01*
X148501258Y-109589000D01*
X148678742Y-109589000D01*
X148703512Y-109593927D01*
G37*
G36*
X146163512Y-109593927D02*
G01*
X146312812Y-109623624D01*
X146476784Y-109691544D01*
X146624354Y-109790147D01*
X146749853Y-109915646D01*
X146848456Y-110063216D01*
X146916376Y-110227188D01*
X146951000Y-110401259D01*
X146951000Y-110578741D01*
X146916376Y-110752812D01*
X146848456Y-110916784D01*
X146749853Y-111064354D01*
X146624354Y-111189853D01*
X146476784Y-111288456D01*
X146312812Y-111356376D01*
X146163512Y-111386073D01*
X146138742Y-111391000D01*
X145961258Y-111391000D01*
X145936488Y-111386073D01*
X145787188Y-111356376D01*
X145623216Y-111288456D01*
X145475646Y-111189853D01*
X145350147Y-111064354D01*
X145251544Y-110916784D01*
X145183624Y-110752812D01*
X145149000Y-110578741D01*
X145149000Y-110401259D01*
X145183624Y-110227188D01*
X145251544Y-110063216D01*
X145350147Y-109915646D01*
X145475646Y-109790147D01*
X145623216Y-109691544D01*
X145787188Y-109623624D01*
X145936488Y-109593927D01*
X145961258Y-109589000D01*
X146138742Y-109589000D01*
X146163512Y-109593927D01*
G37*
G36*
X138543512Y-109593927D02*
G01*
X138692812Y-109623624D01*
X138856784Y-109691544D01*
X139004354Y-109790147D01*
X139129853Y-109915646D01*
X139228456Y-110063216D01*
X139296376Y-110227188D01*
X139331000Y-110401259D01*
X139331000Y-110578741D01*
X139296376Y-110752812D01*
X139228456Y-110916784D01*
X139129853Y-111064354D01*
X139004354Y-111189853D01*
X138856784Y-111288456D01*
X138692812Y-111356376D01*
X138543512Y-111386073D01*
X138518742Y-111391000D01*
X138341258Y-111391000D01*
X138316488Y-111386073D01*
X138167188Y-111356376D01*
X138003216Y-111288456D01*
X137855646Y-111189853D01*
X137730147Y-111064354D01*
X137631544Y-110916784D01*
X137563624Y-110752812D01*
X137529000Y-110578741D01*
X137529000Y-110401259D01*
X137563624Y-110227188D01*
X137631544Y-110063216D01*
X137730147Y-109915646D01*
X137855646Y-109790147D01*
X138003216Y-109691544D01*
X138167188Y-109623624D01*
X138316488Y-109593927D01*
X138341258Y-109589000D01*
X138518742Y-109589000D01*
X138543512Y-109593927D01*
G37*
G36*
X136003512Y-109593927D02*
G01*
X136152812Y-109623624D01*
X136316784Y-109691544D01*
X136464354Y-109790147D01*
X136589853Y-109915646D01*
X136688456Y-110063216D01*
X136756376Y-110227188D01*
X136791000Y-110401259D01*
X136791000Y-110578741D01*
X136756376Y-110752812D01*
X136688456Y-110916784D01*
X136589853Y-111064354D01*
X136464354Y-111189853D01*
X136316784Y-111288456D01*
X136152812Y-111356376D01*
X136003512Y-111386073D01*
X135978742Y-111391000D01*
X135801258Y-111391000D01*
X135776488Y-111386073D01*
X135627188Y-111356376D01*
X135463216Y-111288456D01*
X135315646Y-111189853D01*
X135190147Y-111064354D01*
X135091544Y-110916784D01*
X135023624Y-110752812D01*
X134989000Y-110578741D01*
X134989000Y-110401259D01*
X135023624Y-110227188D01*
X135091544Y-110063216D01*
X135190147Y-109915646D01*
X135315646Y-109790147D01*
X135463216Y-109691544D01*
X135627188Y-109623624D01*
X135776488Y-109593927D01*
X135801258Y-109589000D01*
X135978742Y-109589000D01*
X136003512Y-109593927D01*
G37*
G36*
X163943512Y-109593927D02*
G01*
X164092812Y-109623624D01*
X164256784Y-109691544D01*
X164404354Y-109790147D01*
X164529853Y-109915646D01*
X164628456Y-110063216D01*
X164696376Y-110227188D01*
X164731000Y-110401259D01*
X164731000Y-110578741D01*
X164696376Y-110752812D01*
X164628456Y-110916784D01*
X164529853Y-111064354D01*
X164404354Y-111189853D01*
X164256784Y-111288456D01*
X164092812Y-111356376D01*
X163943512Y-111386073D01*
X163918742Y-111391000D01*
X163741258Y-111391000D01*
X163716488Y-111386073D01*
X163567188Y-111356376D01*
X163403216Y-111288456D01*
X163255646Y-111189853D01*
X163130147Y-111064354D01*
X163031544Y-110916784D01*
X162963624Y-110752812D01*
X162929000Y-110578741D01*
X162929000Y-110401259D01*
X162963624Y-110227188D01*
X163031544Y-110063216D01*
X163130147Y-109915646D01*
X163255646Y-109790147D01*
X163403216Y-109691544D01*
X163567188Y-109623624D01*
X163716488Y-109593927D01*
X163741258Y-109589000D01*
X163918742Y-109589000D01*
X163943512Y-109593927D01*
G37*
G36*
X166483512Y-109593927D02*
G01*
X166632812Y-109623624D01*
X166796784Y-109691544D01*
X166944354Y-109790147D01*
X167069853Y-109915646D01*
X167168456Y-110063216D01*
X167236376Y-110227188D01*
X167271000Y-110401259D01*
X167271000Y-110578741D01*
X167236376Y-110752812D01*
X167168456Y-110916784D01*
X167069853Y-111064354D01*
X166944354Y-111189853D01*
X166796784Y-111288456D01*
X166632812Y-111356376D01*
X166483512Y-111386073D01*
X166458742Y-111391000D01*
X166281258Y-111391000D01*
X166256488Y-111386073D01*
X166107188Y-111356376D01*
X165943216Y-111288456D01*
X165795646Y-111189853D01*
X165670147Y-111064354D01*
X165571544Y-110916784D01*
X165503624Y-110752812D01*
X165469000Y-110578741D01*
X165469000Y-110401259D01*
X165503624Y-110227188D01*
X165571544Y-110063216D01*
X165670147Y-109915646D01*
X165795646Y-109790147D01*
X165943216Y-109691544D01*
X166107188Y-109623624D01*
X166256488Y-109593927D01*
X166281258Y-109589000D01*
X166458742Y-109589000D01*
X166483512Y-109593927D01*
G37*
G36*
X169023512Y-109593927D02*
G01*
X169172812Y-109623624D01*
X169336784Y-109691544D01*
X169484354Y-109790147D01*
X169609853Y-109915646D01*
X169708456Y-110063216D01*
X169776376Y-110227188D01*
X169811000Y-110401259D01*
X169811000Y-110578741D01*
X169776376Y-110752812D01*
X169708456Y-110916784D01*
X169609853Y-111064354D01*
X169484354Y-111189853D01*
X169336784Y-111288456D01*
X169172812Y-111356376D01*
X169023512Y-111386073D01*
X168998742Y-111391000D01*
X168821258Y-111391000D01*
X168796488Y-111386073D01*
X168647188Y-111356376D01*
X168483216Y-111288456D01*
X168335646Y-111189853D01*
X168210147Y-111064354D01*
X168111544Y-110916784D01*
X168043624Y-110752812D01*
X168009000Y-110578741D01*
X168009000Y-110401259D01*
X168043624Y-110227188D01*
X168111544Y-110063216D01*
X168210147Y-109915646D01*
X168335646Y-109790147D01*
X168483216Y-109691544D01*
X168647188Y-109623624D01*
X168796488Y-109593927D01*
X168821258Y-109589000D01*
X168998742Y-109589000D01*
X169023512Y-109593927D01*
G37*
G36*
X171563512Y-109593927D02*
G01*
X171712812Y-109623624D01*
X171876784Y-109691544D01*
X172024354Y-109790147D01*
X172149853Y-109915646D01*
X172248456Y-110063216D01*
X172316376Y-110227188D01*
X172351000Y-110401259D01*
X172351000Y-110578741D01*
X172316376Y-110752812D01*
X172248456Y-110916784D01*
X172149853Y-111064354D01*
X172024354Y-111189853D01*
X171876784Y-111288456D01*
X171712812Y-111356376D01*
X171563512Y-111386073D01*
X171538742Y-111391000D01*
X171361258Y-111391000D01*
X171336488Y-111386073D01*
X171187188Y-111356376D01*
X171023216Y-111288456D01*
X170875646Y-111189853D01*
X170750147Y-111064354D01*
X170651544Y-110916784D01*
X170583624Y-110752812D01*
X170549000Y-110578741D01*
X170549000Y-110401259D01*
X170583624Y-110227188D01*
X170651544Y-110063216D01*
X170750147Y-109915646D01*
X170875646Y-109790147D01*
X171023216Y-109691544D01*
X171187188Y-109623624D01*
X171336488Y-109593927D01*
X171361258Y-109589000D01*
X171538742Y-109589000D01*
X171563512Y-109593927D01*
G37*
G36*
X143623512Y-109593927D02*
G01*
X143772812Y-109623624D01*
X143936784Y-109691544D01*
X144084354Y-109790147D01*
X144209853Y-109915646D01*
X144308456Y-110063216D01*
X144376376Y-110227188D01*
X144411000Y-110401259D01*
X144411000Y-110578741D01*
X144376376Y-110752812D01*
X144308456Y-110916784D01*
X144209853Y-111064354D01*
X144084354Y-111189853D01*
X143936784Y-111288456D01*
X143772812Y-111356376D01*
X143623512Y-111386073D01*
X143598742Y-111391000D01*
X143421258Y-111391000D01*
X143396488Y-111386073D01*
X143247188Y-111356376D01*
X143083216Y-111288456D01*
X142935646Y-111189853D01*
X142810147Y-111064354D01*
X142711544Y-110916784D01*
X142643624Y-110752812D01*
X142609000Y-110578741D01*
X142609000Y-110401259D01*
X142643624Y-110227188D01*
X142711544Y-110063216D01*
X142810147Y-109915646D01*
X142935646Y-109790147D01*
X143083216Y-109691544D01*
X143247188Y-109623624D01*
X143396488Y-109593927D01*
X143421258Y-109589000D01*
X143598742Y-109589000D01*
X143623512Y-109593927D01*
G37*
G36*
X132436821Y-107426144D02*
G01*
X132613500Y-107461287D01*
X132751373Y-107518396D01*
X132946355Y-107599160D01*
X132946356Y-107599161D01*
X133245920Y-107799323D01*
X133500677Y-108054080D01*
X133500678Y-108054082D01*
X133700840Y-108353645D01*
X133838713Y-108686501D01*
X133909000Y-109039858D01*
X133909000Y-109400142D01*
X133838713Y-109753499D01*
X133700840Y-110086355D01*
X133700839Y-110086356D01*
X133500677Y-110385920D01*
X133245920Y-110640677D01*
X133095120Y-110741438D01*
X132946355Y-110840840D01*
X132763014Y-110916782D01*
X132613500Y-110978713D01*
X132436820Y-111013857D01*
X132260142Y-111049000D01*
X131899858Y-111049000D01*
X131723180Y-111013857D01*
X131546500Y-110978713D01*
X131396986Y-110916782D01*
X131213645Y-110840840D01*
X131064880Y-110741438D01*
X130914080Y-110640677D01*
X130659323Y-110385920D01*
X130459161Y-110086356D01*
X130459160Y-110086355D01*
X130321287Y-109753499D01*
X130251000Y-109400142D01*
X130251000Y-109039858D01*
X130321287Y-108686501D01*
X130459160Y-108353645D01*
X130659322Y-108054082D01*
X130659323Y-108054080D01*
X130914080Y-107799323D01*
X131213644Y-107599161D01*
X131213645Y-107599160D01*
X131408627Y-107518396D01*
X131546500Y-107461287D01*
X131723179Y-107426144D01*
X131899858Y-107391000D01*
X132260142Y-107391000D01*
X132436821Y-107426144D01*
G37*
G36*
X179717000Y-107171000D02*
G01*
X178143263Y-107171000D01*
X178118877Y-107173402D01*
X178095428Y-107180515D01*
X178073817Y-107192066D01*
X178054875Y-107207611D01*
X178039330Y-107226553D01*
X178027779Y-107248164D01*
X178020666Y-107271613D01*
X178018264Y-107295999D01*
X178020666Y-107320385D01*
X178027779Y-107343834D01*
X178039330Y-107365445D01*
X178054875Y-107384387D01*
X178073817Y-107399932D01*
X178095428Y-107411483D01*
X178118877Y-107418596D01*
X178199474Y-107434628D01*
X178333500Y-107461287D01*
X178471373Y-107518396D01*
X178666355Y-107599160D01*
X178666356Y-107599161D01*
X178965920Y-107799323D01*
X179220677Y-108054080D01*
X179220678Y-108054082D01*
X179420840Y-108353645D01*
X179558713Y-108686501D01*
X179629000Y-109039858D01*
X179629000Y-109400142D01*
X179558713Y-109753499D01*
X179420840Y-110086355D01*
X179420839Y-110086356D01*
X179220677Y-110385920D01*
X178965920Y-110640677D01*
X178815120Y-110741438D01*
X178666355Y-110840840D01*
X178483014Y-110916782D01*
X178333500Y-110978713D01*
X178156820Y-111013857D01*
X177980142Y-111049000D01*
X177619858Y-111049000D01*
X177443180Y-111013857D01*
X177266500Y-110978713D01*
X177116986Y-110916782D01*
X176933645Y-110840840D01*
X176784880Y-110741438D01*
X176634080Y-110640677D01*
X176379323Y-110385920D01*
X176179161Y-110086356D01*
X176179160Y-110086355D01*
X176041287Y-109753499D01*
X175971000Y-109400142D01*
X175971000Y-109039858D01*
X176041287Y-108686501D01*
X176179160Y-108353645D01*
X176379322Y-108054082D01*
X176379323Y-108054080D01*
X176634080Y-107799323D01*
X176933644Y-107599161D01*
X176933645Y-107599160D01*
X177128627Y-107518396D01*
X177266500Y-107461287D01*
X177443179Y-107426144D01*
X177619858Y-107391000D01*
X177790001Y-107391000D01*
X177814387Y-107388598D01*
X177837836Y-107381485D01*
X177859447Y-107369934D01*
X177878389Y-107354389D01*
X177893934Y-107335447D01*
X177905485Y-107313836D01*
X177912598Y-107290387D01*
X177915000Y-107266001D01*
X177915000Y-105669000D01*
X179717000Y-105669000D01*
X179717000Y-107171000D01*
G37*
G36*
X139432512Y-106418927D02*
G01*
X139581812Y-106448624D01*
X139745784Y-106516544D01*
X139893354Y-106615147D01*
X140018853Y-106740646D01*
X140117456Y-106888216D01*
X140185376Y-107052188D01*
X140220000Y-107226259D01*
X140220000Y-107403741D01*
X140185376Y-107577812D01*
X140117456Y-107741784D01*
X140018853Y-107889354D01*
X139893354Y-108014853D01*
X139745784Y-108113456D01*
X139581812Y-108181376D01*
X139432512Y-108211073D01*
X139407742Y-108216000D01*
X139230258Y-108216000D01*
X139205488Y-108211073D01*
X139056188Y-108181376D01*
X138892216Y-108113456D01*
X138744646Y-108014853D01*
X138619147Y-107889354D01*
X138520544Y-107741784D01*
X138452624Y-107577812D01*
X138418000Y-107403741D01*
X138418000Y-107226259D01*
X138452624Y-107052188D01*
X138520544Y-106888216D01*
X138619147Y-106740646D01*
X138744646Y-106615147D01*
X138892216Y-106516544D01*
X139056188Y-106448624D01*
X139205488Y-106418927D01*
X139230258Y-106414000D01*
X139407742Y-106414000D01*
X139432512Y-106418927D01*
G37*
G36*
X136892512Y-106418927D02*
G01*
X137041812Y-106448624D01*
X137205784Y-106516544D01*
X137353354Y-106615147D01*
X137478853Y-106740646D01*
X137577456Y-106888216D01*
X137645376Y-107052188D01*
X137680000Y-107226259D01*
X137680000Y-107403741D01*
X137645376Y-107577812D01*
X137577456Y-107741784D01*
X137478853Y-107889354D01*
X137353354Y-108014853D01*
X137205784Y-108113456D01*
X137041812Y-108181376D01*
X136892512Y-108211073D01*
X136867742Y-108216000D01*
X136690258Y-108216000D01*
X136665488Y-108211073D01*
X136516188Y-108181376D01*
X136352216Y-108113456D01*
X136204646Y-108014853D01*
X136079147Y-107889354D01*
X135980544Y-107741784D01*
X135912624Y-107577812D01*
X135878000Y-107403741D01*
X135878000Y-107226259D01*
X135912624Y-107052188D01*
X135980544Y-106888216D01*
X136079147Y-106740646D01*
X136204646Y-106615147D01*
X136352216Y-106516544D01*
X136516188Y-106448624D01*
X136665488Y-106418927D01*
X136690258Y-106414000D01*
X136867742Y-106414000D01*
X136892512Y-106418927D01*
G37*
G36*
X141972512Y-106418927D02*
G01*
X142121812Y-106448624D01*
X142285784Y-106516544D01*
X142433354Y-106615147D01*
X142558853Y-106740646D01*
X142657456Y-106888216D01*
X142725376Y-107052188D01*
X142760000Y-107226259D01*
X142760000Y-107403741D01*
X142725376Y-107577812D01*
X142657456Y-107741784D01*
X142558853Y-107889354D01*
X142433354Y-108014853D01*
X142285784Y-108113456D01*
X142121812Y-108181376D01*
X141972512Y-108211073D01*
X141947742Y-108216000D01*
X141770258Y-108216000D01*
X141745488Y-108211073D01*
X141596188Y-108181376D01*
X141432216Y-108113456D01*
X141284646Y-108014853D01*
X141159147Y-107889354D01*
X141060544Y-107741784D01*
X140992624Y-107577812D01*
X140958000Y-107403741D01*
X140958000Y-107226259D01*
X140992624Y-107052188D01*
X141060544Y-106888216D01*
X141159147Y-106740646D01*
X141284646Y-106615147D01*
X141432216Y-106516544D01*
X141596188Y-106448624D01*
X141745488Y-106418927D01*
X141770258Y-106414000D01*
X141947742Y-106414000D01*
X141972512Y-106418927D01*
G37*
G36*
X167957000Y-106876000D02*
G01*
X166555000Y-106876000D01*
X166555000Y-106324000D01*
X167957000Y-106324000D01*
X167957000Y-106876000D01*
G37*
G36*
X169957000Y-106876000D02*
G01*
X168555000Y-106876000D01*
X168555000Y-106324000D01*
X169957000Y-106324000D01*
X169957000Y-106876000D01*
G37*
G36*
X163776000Y-105895000D02*
G01*
X162274000Y-105895000D01*
X162274000Y-104793000D01*
X163776000Y-104793000D01*
X163776000Y-105895000D01*
G37*
G36*
X161576000Y-105815000D02*
G01*
X160074000Y-105815000D01*
X160074000Y-104513000D01*
X161576000Y-104513000D01*
X161576000Y-105815000D01*
G37*
G36*
X139432512Y-103878927D02*
G01*
X139581812Y-103908624D01*
X139745784Y-103976544D01*
X139893354Y-104075147D01*
X140018853Y-104200646D01*
X140117456Y-104348216D01*
X140185376Y-104512188D01*
X140220000Y-104686259D01*
X140220000Y-104863741D01*
X140185376Y-105037812D01*
X140117456Y-105201784D01*
X140018853Y-105349354D01*
X139893354Y-105474853D01*
X139745784Y-105573456D01*
X139581812Y-105641376D01*
X139442933Y-105669000D01*
X139407742Y-105676000D01*
X139230258Y-105676000D01*
X139195067Y-105669000D01*
X139056188Y-105641376D01*
X138892216Y-105573456D01*
X138744646Y-105474853D01*
X138619147Y-105349354D01*
X138520544Y-105201784D01*
X138452624Y-105037812D01*
X138418000Y-104863741D01*
X138418000Y-104686259D01*
X138452624Y-104512188D01*
X138520544Y-104348216D01*
X138619147Y-104200646D01*
X138744646Y-104075147D01*
X138892216Y-103976544D01*
X139056188Y-103908624D01*
X139205488Y-103878927D01*
X139230258Y-103874000D01*
X139407742Y-103874000D01*
X139432512Y-103878927D01*
G37*
G36*
X141972512Y-103878927D02*
G01*
X142121812Y-103908624D01*
X142285784Y-103976544D01*
X142433354Y-104075147D01*
X142558853Y-104200646D01*
X142657456Y-104348216D01*
X142725376Y-104512188D01*
X142760000Y-104686259D01*
X142760000Y-104863741D01*
X142725376Y-105037812D01*
X142657456Y-105201784D01*
X142558853Y-105349354D01*
X142433354Y-105474853D01*
X142285784Y-105573456D01*
X142121812Y-105641376D01*
X141982933Y-105669000D01*
X141947742Y-105676000D01*
X141770258Y-105676000D01*
X141735067Y-105669000D01*
X141596188Y-105641376D01*
X141432216Y-105573456D01*
X141284646Y-105474853D01*
X141159147Y-105349354D01*
X141060544Y-105201784D01*
X140992624Y-105037812D01*
X140958000Y-104863741D01*
X140958000Y-104686259D01*
X140992624Y-104512188D01*
X141060544Y-104348216D01*
X141159147Y-104200646D01*
X141284646Y-104075147D01*
X141432216Y-103976544D01*
X141596188Y-103908624D01*
X141745488Y-103878927D01*
X141770258Y-103874000D01*
X141947742Y-103874000D01*
X141972512Y-103878927D01*
G37*
G36*
X136892512Y-103878927D02*
G01*
X137041812Y-103908624D01*
X137205784Y-103976544D01*
X137353354Y-104075147D01*
X137478853Y-104200646D01*
X137577456Y-104348216D01*
X137645376Y-104512188D01*
X137680000Y-104686259D01*
X137680000Y-104863741D01*
X137645376Y-105037812D01*
X137577456Y-105201784D01*
X137478853Y-105349354D01*
X137353354Y-105474853D01*
X137205784Y-105573456D01*
X137041812Y-105641376D01*
X136902933Y-105669000D01*
X136867742Y-105676000D01*
X136690258Y-105676000D01*
X136655067Y-105669000D01*
X136516188Y-105641376D01*
X136352216Y-105573456D01*
X136204646Y-105474853D01*
X136079147Y-105349354D01*
X135980544Y-105201784D01*
X135912624Y-105037812D01*
X135878000Y-104863741D01*
X135878000Y-104686259D01*
X135912624Y-104512188D01*
X135980544Y-104348216D01*
X136079147Y-104200646D01*
X136204646Y-104075147D01*
X136352216Y-103976544D01*
X136516188Y-103908624D01*
X136665488Y-103878927D01*
X136690258Y-103874000D01*
X136867742Y-103874000D01*
X136892512Y-103878927D01*
G37*
G36*
X165712000Y-104706000D02*
G01*
X164460000Y-104706000D01*
X164460000Y-104004000D01*
X165712000Y-104004000D01*
X165712000Y-104706000D01*
G37*
G36*
X158863591Y-103364085D02*
G01*
X158897569Y-103374393D01*
X158928890Y-103391134D01*
X158956339Y-103413661D01*
X158978866Y-103441110D01*
X158995607Y-103472431D01*
X159005915Y-103506409D01*
X159010000Y-103547890D01*
X159010000Y-104224110D01*
X159005915Y-104265591D01*
X158995607Y-104299569D01*
X158978866Y-104330890D01*
X158956339Y-104358339D01*
X158928890Y-104380866D01*
X158897569Y-104397607D01*
X158863591Y-104407915D01*
X158822110Y-104412000D01*
X158220890Y-104412000D01*
X158179409Y-104407915D01*
X158145431Y-104397607D01*
X158114110Y-104380866D01*
X158086661Y-104358339D01*
X158064134Y-104330890D01*
X158047393Y-104299569D01*
X158037085Y-104265591D01*
X158033000Y-104224110D01*
X158033000Y-103547890D01*
X158037085Y-103506409D01*
X158047393Y-103472431D01*
X158064134Y-103441110D01*
X158086661Y-103413661D01*
X158114110Y-103391134D01*
X158145431Y-103374393D01*
X158179409Y-103364085D01*
X158220890Y-103360000D01*
X158822110Y-103360000D01*
X158863591Y-103364085D01*
G37*
G36*
X157288591Y-103364085D02*
G01*
X157322569Y-103374393D01*
X157353890Y-103391134D01*
X157381339Y-103413661D01*
X157403866Y-103441110D01*
X157420607Y-103472431D01*
X157430915Y-103506409D01*
X157435000Y-103547890D01*
X157435000Y-104224110D01*
X157430915Y-104265591D01*
X157420607Y-104299569D01*
X157403866Y-104330890D01*
X157381339Y-104358339D01*
X157353890Y-104380866D01*
X157322569Y-104397607D01*
X157288591Y-104407915D01*
X157247110Y-104412000D01*
X156645890Y-104412000D01*
X156604409Y-104407915D01*
X156570431Y-104397607D01*
X156539110Y-104380866D01*
X156511661Y-104358339D01*
X156489134Y-104330890D01*
X156472393Y-104299569D01*
X156462085Y-104265591D01*
X156458000Y-104224110D01*
X156458000Y-103547890D01*
X156462085Y-103506409D01*
X156472393Y-103472431D01*
X156489134Y-103441110D01*
X156511661Y-103413661D01*
X156539110Y-103391134D01*
X156570431Y-103374393D01*
X156604409Y-103364085D01*
X156645890Y-103360000D01*
X157247110Y-103360000D01*
X157288591Y-103364085D01*
G37*
G36*
X163776000Y-103995000D02*
G01*
X162274000Y-103995000D01*
X162274000Y-102893000D01*
X163776000Y-102893000D01*
X163776000Y-103995000D01*
G37*
G36*
X161576000Y-103995000D02*
G01*
X160074000Y-103995000D01*
X160074000Y-102893000D01*
X161576000Y-102893000D01*
X161576000Y-103995000D01*
G37*
G36*
X131719213Y-102312502D02*
G01*
X131790321Y-102319505D01*
X131927172Y-102361019D01*
X131927175Y-102361020D01*
X132053294Y-102428432D01*
X132163843Y-102519157D01*
X132254568Y-102629706D01*
X132321980Y-102755825D01*
X132321981Y-102755828D01*
X132363495Y-102892679D01*
X132377512Y-103035000D01*
X132363495Y-103177321D01*
X132359345Y-103191000D01*
X132321980Y-103314175D01*
X132254568Y-103440294D01*
X132163843Y-103550843D01*
X132053294Y-103641568D01*
X131927175Y-103708980D01*
X131927172Y-103708981D01*
X131790321Y-103750495D01*
X131719213Y-103757498D01*
X131683660Y-103761000D01*
X131262340Y-103761000D01*
X131226787Y-103757498D01*
X131155679Y-103750495D01*
X131018828Y-103708981D01*
X131018825Y-103708980D01*
X130892706Y-103641568D01*
X130782157Y-103550843D01*
X130691432Y-103440294D01*
X130624020Y-103314175D01*
X130586655Y-103191000D01*
X130582505Y-103177321D01*
X130568488Y-103035000D01*
X130582505Y-102892679D01*
X130624019Y-102755828D01*
X130624020Y-102755825D01*
X130691432Y-102629706D01*
X130782157Y-102519157D01*
X130892706Y-102428432D01*
X131018825Y-102361020D01*
X131018828Y-102361019D01*
X131155679Y-102319505D01*
X131226787Y-102312502D01*
X131262340Y-102309000D01*
X131683660Y-102309000D01*
X131719213Y-102312502D01*
G37*
G36*
X165712000Y-103436000D02*
G01*
X164460000Y-103436000D01*
X164460000Y-102734000D01*
X165712000Y-102734000D01*
X165712000Y-103436000D01*
G37*
G36*
X134790818Y-102132696D02*
G01*
X134904105Y-102167062D01*
X135008512Y-102222869D01*
X135100027Y-102297973D01*
X135175131Y-102389488D01*
X135230938Y-102493895D01*
X135265304Y-102607182D01*
X135276907Y-102725000D01*
X135265304Y-102842818D01*
X135230938Y-102956105D01*
X135175131Y-103060512D01*
X135100027Y-103152027D01*
X135008512Y-103227131D01*
X134904105Y-103282938D01*
X134790818Y-103317304D01*
X134702519Y-103326000D01*
X134243481Y-103326000D01*
X134155182Y-103317304D01*
X134041895Y-103282938D01*
X133937488Y-103227131D01*
X133845973Y-103152027D01*
X133770869Y-103060512D01*
X133715062Y-102956105D01*
X133680696Y-102842818D01*
X133669093Y-102725000D01*
X133680696Y-102607182D01*
X133715062Y-102493895D01*
X133770869Y-102389488D01*
X133845973Y-102297973D01*
X133937488Y-102222869D01*
X134041895Y-102167062D01*
X134155182Y-102132696D01*
X134243481Y-102124000D01*
X134702519Y-102124000D01*
X134790818Y-102132696D01*
G37*
G36*
X178687000Y-103191000D02*
G01*
X177785000Y-103191000D01*
X177785000Y-102549000D01*
X178687000Y-102549000D01*
X178687000Y-103191000D01*
G37*
G36*
X162114591Y-101205085D02*
G01*
X162148569Y-101215393D01*
X162179890Y-101232134D01*
X162207339Y-101254661D01*
X162229866Y-101282110D01*
X162246607Y-101313431D01*
X162256915Y-101347409D01*
X162261000Y-101388890D01*
X162261000Y-102065110D01*
X162256915Y-102106591D01*
X162246607Y-102140569D01*
X162229866Y-102171890D01*
X162207339Y-102199339D01*
X162179890Y-102221866D01*
X162148569Y-102238607D01*
X162114591Y-102248915D01*
X162073110Y-102253000D01*
X161471890Y-102253000D01*
X161430409Y-102248915D01*
X161396431Y-102238607D01*
X161365110Y-102221866D01*
X161337661Y-102199339D01*
X161315134Y-102171890D01*
X161298393Y-102140569D01*
X161288085Y-102106591D01*
X161284000Y-102065110D01*
X161284000Y-101388890D01*
X161288085Y-101347409D01*
X161298393Y-101313431D01*
X161315134Y-101282110D01*
X161337661Y-101254661D01*
X161365110Y-101232134D01*
X161396431Y-101215393D01*
X161430409Y-101205085D01*
X161471890Y-101201000D01*
X162073110Y-101201000D01*
X162114591Y-101205085D01*
G37*
G36*
X163689591Y-101205085D02*
G01*
X163723569Y-101215393D01*
X163754890Y-101232134D01*
X163782339Y-101254661D01*
X163804866Y-101282110D01*
X163821607Y-101313431D01*
X163831915Y-101347409D01*
X163836000Y-101388890D01*
X163836000Y-102065110D01*
X163831915Y-102106591D01*
X163821607Y-102140569D01*
X163804866Y-102171890D01*
X163782339Y-102199339D01*
X163754890Y-102221866D01*
X163723569Y-102238607D01*
X163689591Y-102248915D01*
X163648110Y-102253000D01*
X163046890Y-102253000D01*
X163005409Y-102248915D01*
X162971431Y-102238607D01*
X162940110Y-102221866D01*
X162912661Y-102199339D01*
X162890134Y-102171890D01*
X162873393Y-102140569D01*
X162863085Y-102106591D01*
X162859000Y-102065110D01*
X162859000Y-101388890D01*
X162863085Y-101347409D01*
X162873393Y-101313431D01*
X162890134Y-101282110D01*
X162912661Y-101254661D01*
X162940110Y-101232134D01*
X162971431Y-101215393D01*
X163005409Y-101205085D01*
X163046890Y-101201000D01*
X163648110Y-101201000D01*
X163689591Y-101205085D01*
G37*
G36*
X165712000Y-102166000D02*
G01*
X164460000Y-102166000D01*
X164460000Y-101464000D01*
X165712000Y-101464000D01*
X165712000Y-102166000D01*
G37*
G36*
X165712000Y-100896000D02*
G01*
X164460000Y-100896000D01*
X164460000Y-100194000D01*
X165712000Y-100194000D01*
X165712000Y-100896000D01*
G37*
G36*
X162114591Y-99681085D02*
G01*
X162148569Y-99691393D01*
X162179890Y-99708134D01*
X162207339Y-99730661D01*
X162229866Y-99758110D01*
X162246607Y-99789431D01*
X162256915Y-99823409D01*
X162261000Y-99864890D01*
X162261000Y-100541110D01*
X162256915Y-100582591D01*
X162246607Y-100616569D01*
X162229866Y-100647890D01*
X162207339Y-100675339D01*
X162179890Y-100697866D01*
X162148569Y-100714607D01*
X162114591Y-100724915D01*
X162073110Y-100729000D01*
X161471890Y-100729000D01*
X161430409Y-100724915D01*
X161396431Y-100714607D01*
X161365110Y-100697866D01*
X161337661Y-100675339D01*
X161315134Y-100647890D01*
X161298393Y-100616569D01*
X161288085Y-100582591D01*
X161284000Y-100541110D01*
X161284000Y-99864890D01*
X161288085Y-99823409D01*
X161298393Y-99789431D01*
X161315134Y-99758110D01*
X161337661Y-99730661D01*
X161365110Y-99708134D01*
X161396431Y-99691393D01*
X161430409Y-99681085D01*
X161471890Y-99677000D01*
X162073110Y-99677000D01*
X162114591Y-99681085D01*
G37*
G36*
X163689591Y-99681085D02*
G01*
X163723569Y-99691393D01*
X163754890Y-99708134D01*
X163782339Y-99730661D01*
X163804866Y-99758110D01*
X163821607Y-99789431D01*
X163831915Y-99823409D01*
X163836000Y-99864890D01*
X163836000Y-100541110D01*
X163831915Y-100582591D01*
X163821607Y-100616569D01*
X163804866Y-100647890D01*
X163782339Y-100675339D01*
X163754890Y-100697866D01*
X163723569Y-100714607D01*
X163689591Y-100724915D01*
X163648110Y-100729000D01*
X163046890Y-100729000D01*
X163005409Y-100724915D01*
X162971431Y-100714607D01*
X162940110Y-100697866D01*
X162912661Y-100675339D01*
X162890134Y-100647890D01*
X162873393Y-100616569D01*
X162863085Y-100582591D01*
X162859000Y-100541110D01*
X162859000Y-99864890D01*
X162863085Y-99823409D01*
X162873393Y-99789431D01*
X162890134Y-99758110D01*
X162912661Y-99730661D01*
X162940110Y-99708134D01*
X162971431Y-99691393D01*
X163005409Y-99681085D01*
X163046890Y-99677000D01*
X163648110Y-99677000D01*
X163689591Y-99681085D01*
G37*
G36*
X165712000Y-99626000D02*
G01*
X164460000Y-99626000D01*
X164460000Y-98924000D01*
X165712000Y-98924000D01*
X165712000Y-99626000D01*
G37*
G36*
X163689591Y-98220585D02*
G01*
X163723569Y-98230893D01*
X163754890Y-98247634D01*
X163782339Y-98270161D01*
X163804866Y-98297610D01*
X163821607Y-98328931D01*
X163831915Y-98362909D01*
X163836000Y-98404390D01*
X163836000Y-99080610D01*
X163831915Y-99122091D01*
X163821607Y-99156069D01*
X163804866Y-99187390D01*
X163782339Y-99214839D01*
X163754890Y-99237366D01*
X163723569Y-99254107D01*
X163689591Y-99264415D01*
X163648110Y-99268500D01*
X163046890Y-99268500D01*
X163005409Y-99264415D01*
X162971431Y-99254107D01*
X162940110Y-99237366D01*
X162912661Y-99214839D01*
X162890134Y-99187390D01*
X162873393Y-99156069D01*
X162863085Y-99122091D01*
X162859000Y-99080610D01*
X162859000Y-98404390D01*
X162863085Y-98362909D01*
X162873393Y-98328931D01*
X162890134Y-98297610D01*
X162912661Y-98270161D01*
X162940110Y-98247634D01*
X162971431Y-98230893D01*
X163005409Y-98220585D01*
X163046890Y-98216500D01*
X163648110Y-98216500D01*
X163689591Y-98220585D01*
G37*
G36*
X162114591Y-98220585D02*
G01*
X162148569Y-98230893D01*
X162179890Y-98247634D01*
X162207339Y-98270161D01*
X162229866Y-98297610D01*
X162246607Y-98328931D01*
X162256915Y-98362909D01*
X162261000Y-98404390D01*
X162261000Y-99080610D01*
X162256915Y-99122091D01*
X162246607Y-99156069D01*
X162229866Y-99187390D01*
X162207339Y-99214839D01*
X162179890Y-99237366D01*
X162148569Y-99254107D01*
X162114591Y-99264415D01*
X162073110Y-99268500D01*
X161471890Y-99268500D01*
X161430409Y-99264415D01*
X161396431Y-99254107D01*
X161365110Y-99237366D01*
X161337661Y-99214839D01*
X161315134Y-99187390D01*
X161298393Y-99156069D01*
X161288085Y-99122091D01*
X161284000Y-99080610D01*
X161284000Y-98404390D01*
X161288085Y-98362909D01*
X161298393Y-98328931D01*
X161315134Y-98297610D01*
X161337661Y-98270161D01*
X161365110Y-98247634D01*
X161396431Y-98230893D01*
X161430409Y-98220585D01*
X161471890Y-98216500D01*
X162073110Y-98216500D01*
X162114591Y-98220585D01*
G37*
G36*
X134790818Y-97292696D02*
G01*
X134904105Y-97327062D01*
X135008512Y-97382869D01*
X135100027Y-97457973D01*
X135175131Y-97549488D01*
X135230938Y-97653895D01*
X135265304Y-97767182D01*
X135276907Y-97885000D01*
X135265304Y-98002818D01*
X135230938Y-98116105D01*
X135175131Y-98220512D01*
X135100027Y-98312027D01*
X135008512Y-98387131D01*
X134904105Y-98442938D01*
X134790818Y-98477304D01*
X134702519Y-98486000D01*
X134243481Y-98486000D01*
X134155182Y-98477304D01*
X134041895Y-98442938D01*
X133937488Y-98387131D01*
X133845973Y-98312027D01*
X133770869Y-98220512D01*
X133715062Y-98116105D01*
X133680696Y-98002818D01*
X133669093Y-97885000D01*
X133680696Y-97767182D01*
X133715062Y-97653895D01*
X133770869Y-97549488D01*
X133845973Y-97457973D01*
X133937488Y-97382869D01*
X134041895Y-97327062D01*
X134155182Y-97292696D01*
X134243481Y-97284000D01*
X134702519Y-97284000D01*
X134790818Y-97292696D01*
G37*
G36*
X165712000Y-98356000D02*
G01*
X164460000Y-98356000D01*
X164460000Y-97654000D01*
X165712000Y-97654000D01*
X165712000Y-98356000D01*
G37*
G36*
X131719213Y-96852502D02*
G01*
X131790321Y-96859505D01*
X131924175Y-96900110D01*
X131927175Y-96901020D01*
X132053294Y-96968432D01*
X132163843Y-97059157D01*
X132254568Y-97169706D01*
X132321980Y-97295825D01*
X132321981Y-97295828D01*
X132363495Y-97432679D01*
X132377512Y-97575000D01*
X132363495Y-97717321D01*
X132321981Y-97854172D01*
X132321980Y-97854175D01*
X132254568Y-97980294D01*
X132163843Y-98090843D01*
X132053294Y-98181568D01*
X131927175Y-98248980D01*
X131927172Y-98248981D01*
X131790321Y-98290495D01*
X131719213Y-98297498D01*
X131683660Y-98301000D01*
X131262340Y-98301000D01*
X131226787Y-98297498D01*
X131155679Y-98290495D01*
X131018828Y-98248981D01*
X131018825Y-98248980D01*
X130892706Y-98181568D01*
X130782157Y-98090843D01*
X130691432Y-97980294D01*
X130624020Y-97854175D01*
X130624019Y-97854172D01*
X130582505Y-97717321D01*
X130568488Y-97575000D01*
X130582505Y-97432679D01*
X130624019Y-97295828D01*
X130624020Y-97295825D01*
X130691432Y-97169706D01*
X130782157Y-97059157D01*
X130892706Y-96968432D01*
X131018825Y-96901020D01*
X131021825Y-96900110D01*
X131155679Y-96859505D01*
X131226787Y-96852502D01*
X131262340Y-96849000D01*
X131683660Y-96849000D01*
X131719213Y-96852502D01*
G37*
G36*
X178687000Y-98111000D02*
G01*
X177785000Y-98111000D01*
X177785000Y-97469000D01*
X178687000Y-97469000D01*
X178687000Y-98111000D01*
G37*
G36*
X162177591Y-96823085D02*
G01*
X162211569Y-96833393D01*
X162242890Y-96850134D01*
X162270339Y-96872661D01*
X162292866Y-96900110D01*
X162309607Y-96931431D01*
X162319915Y-96965409D01*
X162324000Y-97006890D01*
X162324000Y-97608110D01*
X162319915Y-97649591D01*
X162309607Y-97683569D01*
X162292866Y-97714890D01*
X162270339Y-97742339D01*
X162242890Y-97764866D01*
X162211569Y-97781607D01*
X162177591Y-97791915D01*
X162136110Y-97796000D01*
X161459890Y-97796000D01*
X161418409Y-97791915D01*
X161384431Y-97781607D01*
X161353110Y-97764866D01*
X161325661Y-97742339D01*
X161303134Y-97714890D01*
X161286393Y-97683569D01*
X161276085Y-97649591D01*
X161272000Y-97608110D01*
X161272000Y-97006890D01*
X161276085Y-96965409D01*
X161286393Y-96931431D01*
X161303134Y-96900110D01*
X161325661Y-96872661D01*
X161353110Y-96850134D01*
X161384431Y-96833393D01*
X161418409Y-96823085D01*
X161459890Y-96819000D01*
X162136110Y-96819000D01*
X162177591Y-96823085D01*
G37*
G36*
X163701591Y-96823085D02*
G01*
X163735569Y-96833393D01*
X163766890Y-96850134D01*
X163794339Y-96872661D01*
X163816866Y-96900110D01*
X163833607Y-96931431D01*
X163843915Y-96965409D01*
X163848000Y-97006890D01*
X163848000Y-97608110D01*
X163843915Y-97649591D01*
X163833607Y-97683569D01*
X163816866Y-97714890D01*
X163794339Y-97742339D01*
X163766890Y-97764866D01*
X163735569Y-97781607D01*
X163701591Y-97791915D01*
X163660110Y-97796000D01*
X162983890Y-97796000D01*
X162942409Y-97791915D01*
X162908431Y-97781607D01*
X162877110Y-97764866D01*
X162849661Y-97742339D01*
X162827134Y-97714890D01*
X162810393Y-97683569D01*
X162800085Y-97649591D01*
X162796000Y-97608110D01*
X162796000Y-97006890D01*
X162800085Y-96965409D01*
X162810393Y-96931431D01*
X162827134Y-96900110D01*
X162849661Y-96872661D01*
X162877110Y-96850134D01*
X162908431Y-96833393D01*
X162942409Y-96823085D01*
X162983890Y-96819000D01*
X163660110Y-96819000D01*
X163701591Y-96823085D01*
G37*
G36*
X160791500Y-97767000D02*
G01*
X159289500Y-97767000D01*
X159289500Y-96665000D01*
X160791500Y-96665000D01*
X160791500Y-97767000D01*
G37*
G36*
X158591500Y-97687000D02*
G01*
X157089500Y-97687000D01*
X157089500Y-96385000D01*
X158591500Y-96385000D01*
X158591500Y-97687000D01*
G37*
G36*
X163701591Y-95248085D02*
G01*
X163735569Y-95258393D01*
X163766890Y-95275134D01*
X163794339Y-95297661D01*
X163816866Y-95325110D01*
X163833607Y-95356431D01*
X163843915Y-95390409D01*
X163848000Y-95431890D01*
X163848000Y-96033110D01*
X163843915Y-96074591D01*
X163833607Y-96108569D01*
X163816866Y-96139890D01*
X163794339Y-96167339D01*
X163766890Y-96189866D01*
X163735569Y-96206607D01*
X163701591Y-96216915D01*
X163660110Y-96221000D01*
X162983890Y-96221000D01*
X162942409Y-96216915D01*
X162908431Y-96206607D01*
X162877110Y-96189866D01*
X162849661Y-96167339D01*
X162827134Y-96139890D01*
X162810393Y-96108569D01*
X162800085Y-96074591D01*
X162796000Y-96033110D01*
X162796000Y-95431890D01*
X162800085Y-95390409D01*
X162810393Y-95356431D01*
X162827134Y-95325110D01*
X162849661Y-95297661D01*
X162877110Y-95275134D01*
X162908431Y-95258393D01*
X162942409Y-95248085D01*
X162983890Y-95244000D01*
X163660110Y-95244000D01*
X163701591Y-95248085D01*
G37*
G36*
X162177591Y-95248085D02*
G01*
X162211569Y-95258393D01*
X162242890Y-95275134D01*
X162270339Y-95297661D01*
X162292866Y-95325110D01*
X162309607Y-95356431D01*
X162319915Y-95390409D01*
X162324000Y-95431890D01*
X162324000Y-96033110D01*
X162319915Y-96074591D01*
X162309607Y-96108569D01*
X162292866Y-96139890D01*
X162270339Y-96167339D01*
X162242890Y-96189866D01*
X162211569Y-96206607D01*
X162177591Y-96216915D01*
X162136110Y-96221000D01*
X161459890Y-96221000D01*
X161418409Y-96216915D01*
X161384431Y-96206607D01*
X161353110Y-96189866D01*
X161325661Y-96167339D01*
X161303134Y-96139890D01*
X161286393Y-96108569D01*
X161276085Y-96074591D01*
X161272000Y-96033110D01*
X161272000Y-95431890D01*
X161276085Y-95390409D01*
X161286393Y-95356431D01*
X161303134Y-95325110D01*
X161325661Y-95297661D01*
X161353110Y-95275134D01*
X161384431Y-95258393D01*
X161418409Y-95248085D01*
X161459890Y-95244000D01*
X162136110Y-95244000D01*
X162177591Y-95248085D01*
G37*
G36*
X160791500Y-95867000D02*
G01*
X159289500Y-95867000D01*
X159289500Y-94765000D01*
X160791500Y-94765000D01*
X160791500Y-95867000D01*
G37*
G36*
X158591500Y-95867000D02*
G01*
X157089500Y-95867000D01*
X157089500Y-94765000D01*
X158591500Y-94765000D01*
X158591500Y-95867000D01*
G37*
G36*
X165225591Y-94664085D02*
G01*
X165259569Y-94674393D01*
X165290890Y-94691134D01*
X165318339Y-94713661D01*
X165340866Y-94741110D01*
X165357607Y-94772431D01*
X165367915Y-94806409D01*
X165372000Y-94847890D01*
X165372000Y-95449110D01*
X165367915Y-95490591D01*
X165357607Y-95524569D01*
X165340866Y-95555890D01*
X165318339Y-95583339D01*
X165290890Y-95605866D01*
X165259569Y-95622607D01*
X165225591Y-95632915D01*
X165184110Y-95637000D01*
X164507890Y-95637000D01*
X164466409Y-95632915D01*
X164432431Y-95622607D01*
X164401110Y-95605866D01*
X164373661Y-95583339D01*
X164351134Y-95555890D01*
X164334393Y-95524569D01*
X164324085Y-95490591D01*
X164320000Y-95449110D01*
X164320000Y-94847890D01*
X164324085Y-94806409D01*
X164334393Y-94772431D01*
X164351134Y-94741110D01*
X164373661Y-94713661D01*
X164401110Y-94691134D01*
X164432431Y-94674393D01*
X164466409Y-94664085D01*
X164507890Y-94660000D01*
X165184110Y-94660000D01*
X165225591Y-94664085D01*
G37*
G36*
X156450591Y-94537585D02*
G01*
X156484569Y-94547893D01*
X156515890Y-94564634D01*
X156543339Y-94587161D01*
X156565866Y-94614610D01*
X156582607Y-94645931D01*
X156592915Y-94679909D01*
X156597000Y-94721390D01*
X156597000Y-95397610D01*
X156592915Y-95439091D01*
X156582607Y-95473069D01*
X156565866Y-95504390D01*
X156543339Y-95531839D01*
X156515890Y-95554366D01*
X156484569Y-95571107D01*
X156450591Y-95581415D01*
X156409110Y-95585500D01*
X155807890Y-95585500D01*
X155766409Y-95581415D01*
X155732431Y-95571107D01*
X155701110Y-95554366D01*
X155673661Y-95531839D01*
X155651134Y-95504390D01*
X155634393Y-95473069D01*
X155624085Y-95439091D01*
X155620000Y-95397610D01*
X155620000Y-94721390D01*
X155624085Y-94679909D01*
X155634393Y-94645931D01*
X155651134Y-94614610D01*
X155673661Y-94587161D01*
X155701110Y-94564634D01*
X155732431Y-94547893D01*
X155766409Y-94537585D01*
X155807890Y-94533500D01*
X156409110Y-94533500D01*
X156450591Y-94537585D01*
G37*
G36*
X154875591Y-94537585D02*
G01*
X154909569Y-94547893D01*
X154940890Y-94564634D01*
X154968339Y-94587161D01*
X154990866Y-94614610D01*
X155007607Y-94645931D01*
X155017915Y-94679909D01*
X155022000Y-94721390D01*
X155022000Y-95397610D01*
X155017915Y-95439091D01*
X155007607Y-95473069D01*
X154990866Y-95504390D01*
X154968339Y-95531839D01*
X154940890Y-95554366D01*
X154909569Y-95571107D01*
X154875591Y-95581415D01*
X154834110Y-95585500D01*
X154232890Y-95585500D01*
X154191409Y-95581415D01*
X154157431Y-95571107D01*
X154126110Y-95554366D01*
X154098661Y-95531839D01*
X154076134Y-95504390D01*
X154059393Y-95473069D01*
X154049085Y-95439091D01*
X154045000Y-95397610D01*
X154045000Y-94721390D01*
X154049085Y-94679909D01*
X154059393Y-94645931D01*
X154076134Y-94614610D01*
X154098661Y-94587161D01*
X154126110Y-94564634D01*
X154157431Y-94547893D01*
X154191409Y-94537585D01*
X154232890Y-94533500D01*
X154834110Y-94533500D01*
X154875591Y-94537585D01*
G37*
G36*
X178156821Y-89646144D02*
G01*
X178333500Y-89681287D01*
X178471373Y-89738396D01*
X178666355Y-89819160D01*
X178666356Y-89819161D01*
X178965920Y-90019323D01*
X179220677Y-90274080D01*
X179220678Y-90274082D01*
X179420840Y-90573645D01*
X179558713Y-90906501D01*
X179629000Y-91259858D01*
X179629000Y-91620142D01*
X179558713Y-91973499D01*
X179420840Y-92306355D01*
X179397951Y-92340610D01*
X179220677Y-92605920D01*
X178965920Y-92860677D01*
X178815120Y-92961438D01*
X178666355Y-93060840D01*
X178563142Y-93103592D01*
X178333500Y-93198713D01*
X178237000Y-93217908D01*
X178219424Y-93221404D01*
X178195975Y-93228517D01*
X178174364Y-93240068D01*
X178155422Y-93255613D01*
X178139877Y-93274555D01*
X178128326Y-93296166D01*
X178121213Y-93319615D01*
X178118811Y-93344001D01*
X178121213Y-93368387D01*
X178128326Y-93391836D01*
X178139877Y-93413447D01*
X178155422Y-93432389D01*
X178174364Y-93447934D01*
X178195975Y-93459485D01*
X178219424Y-93466598D01*
X178243810Y-93469000D01*
X179717000Y-93469000D01*
X179717000Y-94971000D01*
X177915000Y-94971000D01*
X177915000Y-93393999D01*
X177912598Y-93369613D01*
X177905485Y-93346164D01*
X177893934Y-93324553D01*
X177878389Y-93305611D01*
X177859447Y-93290066D01*
X177837836Y-93278515D01*
X177814387Y-93271402D01*
X177790001Y-93269000D01*
X177619858Y-93269000D01*
X177416336Y-93228517D01*
X177266500Y-93198713D01*
X177036858Y-93103592D01*
X176933645Y-93060840D01*
X176784880Y-92961438D01*
X176634080Y-92860677D01*
X176379323Y-92605920D01*
X176202049Y-92340610D01*
X176179160Y-92306355D01*
X176041287Y-91973499D01*
X175971000Y-91620142D01*
X175971000Y-91259858D01*
X176041287Y-90906501D01*
X176179160Y-90573645D01*
X176379322Y-90274082D01*
X176379323Y-90274080D01*
X176634080Y-90019323D01*
X176933644Y-89819161D01*
X176933645Y-89819160D01*
X177128627Y-89738396D01*
X177266500Y-89681287D01*
X177443179Y-89646144D01*
X177619858Y-89611000D01*
X177980142Y-89611000D01*
X178156821Y-89646144D01*
G37*
G36*
X163701591Y-93838585D02*
G01*
X163735569Y-93848893D01*
X163766890Y-93865634D01*
X163794339Y-93888161D01*
X163816866Y-93915610D01*
X163833607Y-93946931D01*
X163843915Y-93980909D01*
X163848000Y-94022390D01*
X163848000Y-94623610D01*
X163843915Y-94665091D01*
X163833607Y-94699069D01*
X163816866Y-94730390D01*
X163794339Y-94757839D01*
X163766890Y-94780366D01*
X163735569Y-94797107D01*
X163701591Y-94807415D01*
X163660110Y-94811500D01*
X162983890Y-94811500D01*
X162942409Y-94807415D01*
X162908431Y-94797107D01*
X162877110Y-94780366D01*
X162849661Y-94757839D01*
X162827134Y-94730390D01*
X162810393Y-94699069D01*
X162800085Y-94665091D01*
X162796000Y-94623610D01*
X162796000Y-94022390D01*
X162800085Y-93980909D01*
X162810393Y-93946931D01*
X162827134Y-93915610D01*
X162849661Y-93888161D01*
X162877110Y-93865634D01*
X162908431Y-93848893D01*
X162942409Y-93838585D01*
X162983890Y-93834500D01*
X163660110Y-93834500D01*
X163701591Y-93838585D01*
G37*
G36*
X169957000Y-94336000D02*
G01*
X168555000Y-94336000D01*
X168555000Y-93784000D01*
X169957000Y-93784000D01*
X169957000Y-94336000D01*
G37*
G36*
X167957000Y-94336000D02*
G01*
X166555000Y-94336000D01*
X166555000Y-93784000D01*
X167957000Y-93784000D01*
X167957000Y-94336000D01*
G37*
G36*
X165225591Y-93089085D02*
G01*
X165259569Y-93099393D01*
X165290890Y-93116134D01*
X165318339Y-93138661D01*
X165340866Y-93166110D01*
X165357607Y-93197431D01*
X165367915Y-93231409D01*
X165372000Y-93272890D01*
X165372000Y-93874110D01*
X165367915Y-93915591D01*
X165357607Y-93949569D01*
X165340866Y-93980890D01*
X165318339Y-94008339D01*
X165290890Y-94030866D01*
X165259569Y-94047607D01*
X165225591Y-94057915D01*
X165184110Y-94062000D01*
X164507890Y-94062000D01*
X164466409Y-94057915D01*
X164432431Y-94047607D01*
X164401110Y-94030866D01*
X164373661Y-94008339D01*
X164351134Y-93980890D01*
X164334393Y-93949569D01*
X164324085Y-93915591D01*
X164320000Y-93874110D01*
X164320000Y-93272890D01*
X164324085Y-93231409D01*
X164334393Y-93197431D01*
X164351134Y-93166110D01*
X164373661Y-93138661D01*
X164401110Y-93116134D01*
X164432431Y-93099393D01*
X164466409Y-93089085D01*
X164507890Y-93085000D01*
X165184110Y-93085000D01*
X165225591Y-93089085D01*
G37*
G36*
X132436821Y-89646144D02*
G01*
X132613500Y-89681287D01*
X132751373Y-89738396D01*
X132946355Y-89819160D01*
X132946356Y-89819161D01*
X133245920Y-90019323D01*
X133500677Y-90274080D01*
X133500678Y-90274082D01*
X133700840Y-90573645D01*
X133838713Y-90906501D01*
X133909000Y-91259858D01*
X133909000Y-91620142D01*
X133838713Y-91973499D01*
X133700840Y-92306355D01*
X133677951Y-92340610D01*
X133500677Y-92605920D01*
X133245920Y-92860677D01*
X133095120Y-92961438D01*
X132946355Y-93060840D01*
X132843142Y-93103592D01*
X132613500Y-93198713D01*
X132463664Y-93228517D01*
X132260142Y-93269000D01*
X131899858Y-93269000D01*
X131696336Y-93228517D01*
X131546500Y-93198713D01*
X131316858Y-93103592D01*
X131213645Y-93060840D01*
X131064880Y-92961438D01*
X130914080Y-92860677D01*
X130659323Y-92605920D01*
X130482049Y-92340610D01*
X130459160Y-92306355D01*
X130321287Y-91973499D01*
X130251000Y-91620142D01*
X130251000Y-91259858D01*
X130321287Y-90906501D01*
X130459160Y-90573645D01*
X130659322Y-90274082D01*
X130659323Y-90274080D01*
X130914080Y-90019323D01*
X131213644Y-89819161D01*
X131213645Y-89819160D01*
X131408627Y-89738396D01*
X131546500Y-89681287D01*
X131723179Y-89646144D01*
X131899858Y-89611000D01*
X132260142Y-89611000D01*
X132436821Y-89646144D01*
G37*
G36*
X163701591Y-92263585D02*
G01*
X163735569Y-92273893D01*
X163766890Y-92290634D01*
X163794339Y-92313161D01*
X163816866Y-92340610D01*
X163833607Y-92371931D01*
X163843915Y-92405909D01*
X163848000Y-92447390D01*
X163848000Y-93048610D01*
X163843915Y-93090091D01*
X163833607Y-93124069D01*
X163816866Y-93155390D01*
X163794339Y-93182839D01*
X163766890Y-93205366D01*
X163735569Y-93222107D01*
X163701591Y-93232415D01*
X163660110Y-93236500D01*
X162983890Y-93236500D01*
X162942409Y-93232415D01*
X162908431Y-93222107D01*
X162877110Y-93205366D01*
X162849661Y-93182839D01*
X162827134Y-93155390D01*
X162810393Y-93124069D01*
X162800085Y-93090091D01*
X162796000Y-93048610D01*
X162796000Y-92447390D01*
X162800085Y-92405909D01*
X162810393Y-92371931D01*
X162827134Y-92340610D01*
X162849661Y-92313161D01*
X162877110Y-92290634D01*
X162908431Y-92273893D01*
X162942409Y-92263585D01*
X162983890Y-92259500D01*
X163660110Y-92259500D01*
X163701591Y-92263585D01*
G37*
G36*
X174103512Y-89273927D02*
G01*
X174252812Y-89303624D01*
X174416784Y-89371544D01*
X174564354Y-89470147D01*
X174689853Y-89595646D01*
X174788456Y-89743216D01*
X174856376Y-89907188D01*
X174891000Y-90081259D01*
X174891000Y-90258741D01*
X174856376Y-90432812D01*
X174788456Y-90596784D01*
X174689853Y-90744354D01*
X174564354Y-90869853D01*
X174416784Y-90968456D01*
X174252812Y-91036376D01*
X174103512Y-91066073D01*
X174078742Y-91071000D01*
X173901258Y-91071000D01*
X173876488Y-91066073D01*
X173727188Y-91036376D01*
X173563216Y-90968456D01*
X173415646Y-90869853D01*
X173290147Y-90744354D01*
X173191544Y-90596784D01*
X173123624Y-90432812D01*
X173089000Y-90258741D01*
X173089000Y-90081259D01*
X173123624Y-89907188D01*
X173191544Y-89743216D01*
X173290147Y-89595646D01*
X173415646Y-89470147D01*
X173563216Y-89371544D01*
X173727188Y-89303624D01*
X173876488Y-89273927D01*
X173901258Y-89269000D01*
X174078742Y-89269000D01*
X174103512Y-89273927D01*
G37*
G36*
X148703512Y-89273927D02*
G01*
X148852812Y-89303624D01*
X149016784Y-89371544D01*
X149164354Y-89470147D01*
X149289853Y-89595646D01*
X149388456Y-89743216D01*
X149456376Y-89907188D01*
X149491000Y-90081259D01*
X149491000Y-90258741D01*
X149456376Y-90432812D01*
X149388456Y-90596784D01*
X149289853Y-90744354D01*
X149164354Y-90869853D01*
X149016784Y-90968456D01*
X148852812Y-91036376D01*
X148703512Y-91066073D01*
X148678742Y-91071000D01*
X148501258Y-91071000D01*
X148476488Y-91066073D01*
X148327188Y-91036376D01*
X148163216Y-90968456D01*
X148015646Y-90869853D01*
X147890147Y-90744354D01*
X147791544Y-90596784D01*
X147723624Y-90432812D01*
X147689000Y-90258741D01*
X147689000Y-90081259D01*
X147723624Y-89907188D01*
X147791544Y-89743216D01*
X147890147Y-89595646D01*
X148015646Y-89470147D01*
X148163216Y-89371544D01*
X148327188Y-89303624D01*
X148476488Y-89273927D01*
X148501258Y-89269000D01*
X148678742Y-89269000D01*
X148703512Y-89273927D01*
G37*
G36*
X151243512Y-89273927D02*
G01*
X151392812Y-89303624D01*
X151556784Y-89371544D01*
X151704354Y-89470147D01*
X151829853Y-89595646D01*
X151928456Y-89743216D01*
X151996376Y-89907188D01*
X152031000Y-90081259D01*
X152031000Y-90258741D01*
X151996376Y-90432812D01*
X151928456Y-90596784D01*
X151829853Y-90744354D01*
X151704354Y-90869853D01*
X151556784Y-90968456D01*
X151392812Y-91036376D01*
X151243512Y-91066073D01*
X151218742Y-91071000D01*
X151041258Y-91071000D01*
X151016488Y-91066073D01*
X150867188Y-91036376D01*
X150703216Y-90968456D01*
X150555646Y-90869853D01*
X150430147Y-90744354D01*
X150331544Y-90596784D01*
X150263624Y-90432812D01*
X150229000Y-90258741D01*
X150229000Y-90081259D01*
X150263624Y-89907188D01*
X150331544Y-89743216D01*
X150430147Y-89595646D01*
X150555646Y-89470147D01*
X150703216Y-89371544D01*
X150867188Y-89303624D01*
X151016488Y-89273927D01*
X151041258Y-89269000D01*
X151218742Y-89269000D01*
X151243512Y-89273927D01*
G37*
G36*
X153783512Y-89273927D02*
G01*
X153932812Y-89303624D01*
X154096784Y-89371544D01*
X154244354Y-89470147D01*
X154369853Y-89595646D01*
X154468456Y-89743216D01*
X154536376Y-89907188D01*
X154571000Y-90081259D01*
X154571000Y-90258741D01*
X154536376Y-90432812D01*
X154468456Y-90596784D01*
X154369853Y-90744354D01*
X154244354Y-90869853D01*
X154096784Y-90968456D01*
X153932812Y-91036376D01*
X153783512Y-91066073D01*
X153758742Y-91071000D01*
X153581258Y-91071000D01*
X153556488Y-91066073D01*
X153407188Y-91036376D01*
X153243216Y-90968456D01*
X153095646Y-90869853D01*
X152970147Y-90744354D01*
X152871544Y-90596784D01*
X152803624Y-90432812D01*
X152769000Y-90258741D01*
X152769000Y-90081259D01*
X152803624Y-89907188D01*
X152871544Y-89743216D01*
X152970147Y-89595646D01*
X153095646Y-89470147D01*
X153243216Y-89371544D01*
X153407188Y-89303624D01*
X153556488Y-89273927D01*
X153581258Y-89269000D01*
X153758742Y-89269000D01*
X153783512Y-89273927D01*
G37*
G36*
X156323512Y-89273927D02*
G01*
X156472812Y-89303624D01*
X156636784Y-89371544D01*
X156784354Y-89470147D01*
X156909853Y-89595646D01*
X157008456Y-89743216D01*
X157076376Y-89907188D01*
X157111000Y-90081259D01*
X157111000Y-90258741D01*
X157076376Y-90432812D01*
X157008456Y-90596784D01*
X156909853Y-90744354D01*
X156784354Y-90869853D01*
X156636784Y-90968456D01*
X156472812Y-91036376D01*
X156323512Y-91066073D01*
X156298742Y-91071000D01*
X156121258Y-91071000D01*
X156096488Y-91066073D01*
X155947188Y-91036376D01*
X155783216Y-90968456D01*
X155635646Y-90869853D01*
X155510147Y-90744354D01*
X155411544Y-90596784D01*
X155343624Y-90432812D01*
X155309000Y-90258741D01*
X155309000Y-90081259D01*
X155343624Y-89907188D01*
X155411544Y-89743216D01*
X155510147Y-89595646D01*
X155635646Y-89470147D01*
X155783216Y-89371544D01*
X155947188Y-89303624D01*
X156096488Y-89273927D01*
X156121258Y-89269000D01*
X156298742Y-89269000D01*
X156323512Y-89273927D01*
G37*
G36*
X158863512Y-89273927D02*
G01*
X159012812Y-89303624D01*
X159176784Y-89371544D01*
X159324354Y-89470147D01*
X159449853Y-89595646D01*
X159548456Y-89743216D01*
X159616376Y-89907188D01*
X159651000Y-90081259D01*
X159651000Y-90258741D01*
X159616376Y-90432812D01*
X159548456Y-90596784D01*
X159449853Y-90744354D01*
X159324354Y-90869853D01*
X159176784Y-90968456D01*
X159012812Y-91036376D01*
X158863512Y-91066073D01*
X158838742Y-91071000D01*
X158661258Y-91071000D01*
X158636488Y-91066073D01*
X158487188Y-91036376D01*
X158323216Y-90968456D01*
X158175646Y-90869853D01*
X158050147Y-90744354D01*
X157951544Y-90596784D01*
X157883624Y-90432812D01*
X157849000Y-90258741D01*
X157849000Y-90081259D01*
X157883624Y-89907188D01*
X157951544Y-89743216D01*
X158050147Y-89595646D01*
X158175646Y-89470147D01*
X158323216Y-89371544D01*
X158487188Y-89303624D01*
X158636488Y-89273927D01*
X158661258Y-89269000D01*
X158838742Y-89269000D01*
X158863512Y-89273927D01*
G37*
G36*
X161403512Y-89273927D02*
G01*
X161552812Y-89303624D01*
X161716784Y-89371544D01*
X161864354Y-89470147D01*
X161989853Y-89595646D01*
X162088456Y-89743216D01*
X162156376Y-89907188D01*
X162191000Y-90081259D01*
X162191000Y-90258741D01*
X162156376Y-90432812D01*
X162088456Y-90596784D01*
X161989853Y-90744354D01*
X161864354Y-90869853D01*
X161716784Y-90968456D01*
X161552812Y-91036376D01*
X161403512Y-91066073D01*
X161378742Y-91071000D01*
X161201258Y-91071000D01*
X161176488Y-91066073D01*
X161027188Y-91036376D01*
X160863216Y-90968456D01*
X160715646Y-90869853D01*
X160590147Y-90744354D01*
X160491544Y-90596784D01*
X160423624Y-90432812D01*
X160389000Y-90258741D01*
X160389000Y-90081259D01*
X160423624Y-89907188D01*
X160491544Y-89743216D01*
X160590147Y-89595646D01*
X160715646Y-89470147D01*
X160863216Y-89371544D01*
X161027188Y-89303624D01*
X161176488Y-89273927D01*
X161201258Y-89269000D01*
X161378742Y-89269000D01*
X161403512Y-89273927D01*
G37*
G36*
X163943512Y-89273927D02*
G01*
X164092812Y-89303624D01*
X164256784Y-89371544D01*
X164404354Y-89470147D01*
X164529853Y-89595646D01*
X164628456Y-89743216D01*
X164696376Y-89907188D01*
X164731000Y-90081259D01*
X164731000Y-90258741D01*
X164696376Y-90432812D01*
X164628456Y-90596784D01*
X164529853Y-90744354D01*
X164404354Y-90869853D01*
X164256784Y-90968456D01*
X164092812Y-91036376D01*
X163943512Y-91066073D01*
X163918742Y-91071000D01*
X163741258Y-91071000D01*
X163716488Y-91066073D01*
X163567188Y-91036376D01*
X163403216Y-90968456D01*
X163255646Y-90869853D01*
X163130147Y-90744354D01*
X163031544Y-90596784D01*
X162963624Y-90432812D01*
X162929000Y-90258741D01*
X162929000Y-90081259D01*
X162963624Y-89907188D01*
X163031544Y-89743216D01*
X163130147Y-89595646D01*
X163255646Y-89470147D01*
X163403216Y-89371544D01*
X163567188Y-89303624D01*
X163716488Y-89273927D01*
X163741258Y-89269000D01*
X163918742Y-89269000D01*
X163943512Y-89273927D01*
G37*
G36*
X166483512Y-89273927D02*
G01*
X166632812Y-89303624D01*
X166796784Y-89371544D01*
X166944354Y-89470147D01*
X167069853Y-89595646D01*
X167168456Y-89743216D01*
X167236376Y-89907188D01*
X167271000Y-90081259D01*
X167271000Y-90258741D01*
X167236376Y-90432812D01*
X167168456Y-90596784D01*
X167069853Y-90744354D01*
X166944354Y-90869853D01*
X166796784Y-90968456D01*
X166632812Y-91036376D01*
X166483512Y-91066073D01*
X166458742Y-91071000D01*
X166281258Y-91071000D01*
X166256488Y-91066073D01*
X166107188Y-91036376D01*
X165943216Y-90968456D01*
X165795646Y-90869853D01*
X165670147Y-90744354D01*
X165571544Y-90596784D01*
X165503624Y-90432812D01*
X165469000Y-90258741D01*
X165469000Y-90081259D01*
X165503624Y-89907188D01*
X165571544Y-89743216D01*
X165670147Y-89595646D01*
X165795646Y-89470147D01*
X165943216Y-89371544D01*
X166107188Y-89303624D01*
X166256488Y-89273927D01*
X166281258Y-89269000D01*
X166458742Y-89269000D01*
X166483512Y-89273927D01*
G37*
G36*
X169023512Y-89273927D02*
G01*
X169172812Y-89303624D01*
X169336784Y-89371544D01*
X169484354Y-89470147D01*
X169609853Y-89595646D01*
X169708456Y-89743216D01*
X169776376Y-89907188D01*
X169811000Y-90081259D01*
X169811000Y-90258741D01*
X169776376Y-90432812D01*
X169708456Y-90596784D01*
X169609853Y-90744354D01*
X169484354Y-90869853D01*
X169336784Y-90968456D01*
X169172812Y-91036376D01*
X169023512Y-91066073D01*
X168998742Y-91071000D01*
X168821258Y-91071000D01*
X168796488Y-91066073D01*
X168647188Y-91036376D01*
X168483216Y-90968456D01*
X168335646Y-90869853D01*
X168210147Y-90744354D01*
X168111544Y-90596784D01*
X168043624Y-90432812D01*
X168009000Y-90258741D01*
X168009000Y-90081259D01*
X168043624Y-89907188D01*
X168111544Y-89743216D01*
X168210147Y-89595646D01*
X168335646Y-89470147D01*
X168483216Y-89371544D01*
X168647188Y-89303624D01*
X168796488Y-89273927D01*
X168821258Y-89269000D01*
X168998742Y-89269000D01*
X169023512Y-89273927D01*
G37*
G36*
X146163512Y-89273927D02*
G01*
X146312812Y-89303624D01*
X146476784Y-89371544D01*
X146624354Y-89470147D01*
X146749853Y-89595646D01*
X146848456Y-89743216D01*
X146916376Y-89907188D01*
X146951000Y-90081259D01*
X146951000Y-90258741D01*
X146916376Y-90432812D01*
X146848456Y-90596784D01*
X146749853Y-90744354D01*
X146624354Y-90869853D01*
X146476784Y-90968456D01*
X146312812Y-91036376D01*
X146163512Y-91066073D01*
X146138742Y-91071000D01*
X145961258Y-91071000D01*
X145936488Y-91066073D01*
X145787188Y-91036376D01*
X145623216Y-90968456D01*
X145475646Y-90869853D01*
X145350147Y-90744354D01*
X145251544Y-90596784D01*
X145183624Y-90432812D01*
X145149000Y-90258741D01*
X145149000Y-90081259D01*
X145183624Y-89907188D01*
X145251544Y-89743216D01*
X145350147Y-89595646D01*
X145475646Y-89470147D01*
X145623216Y-89371544D01*
X145787188Y-89303624D01*
X145936488Y-89273927D01*
X145961258Y-89269000D01*
X146138742Y-89269000D01*
X146163512Y-89273927D01*
G37*
G36*
X171563512Y-89273927D02*
G01*
X171712812Y-89303624D01*
X171876784Y-89371544D01*
X172024354Y-89470147D01*
X172149853Y-89595646D01*
X172248456Y-89743216D01*
X172316376Y-89907188D01*
X172351000Y-90081259D01*
X172351000Y-90258741D01*
X172316376Y-90432812D01*
X172248456Y-90596784D01*
X172149853Y-90744354D01*
X172024354Y-90869853D01*
X171876784Y-90968456D01*
X171712812Y-91036376D01*
X171563512Y-91066073D01*
X171538742Y-91071000D01*
X171361258Y-91071000D01*
X171336488Y-91066073D01*
X171187188Y-91036376D01*
X171023216Y-90968456D01*
X170875646Y-90869853D01*
X170750147Y-90744354D01*
X170651544Y-90596784D01*
X170583624Y-90432812D01*
X170549000Y-90258741D01*
X170549000Y-90081259D01*
X170583624Y-89907188D01*
X170651544Y-89743216D01*
X170750147Y-89595646D01*
X170875646Y-89470147D01*
X171023216Y-89371544D01*
X171187188Y-89303624D01*
X171336488Y-89273927D01*
X171361258Y-89269000D01*
X171538742Y-89269000D01*
X171563512Y-89273927D01*
G37*
M02*
