M48
; DRILL file {KiCad (5.1.5)-3} date 12/24/2019 4:56:44 PM
; FORMAT={-:-/ absolute / inch / decimal}
; #@! TF.CreationDate,2019-12-24T16:56:44-08:00
; #@! TF.GenerationSoftware,Kicad,Pcbnew,(5.1.5)-3
; #@! TF.FileFunction,Plated,1,4,PTH
FMAT,2
INCH
T1C0.0157
T2C0.0256
T3C0.0276
T4C0.0394
%
G90
G05
T1
X5.4175Y-3.74
X5.5035Y-3.9353
X5.535Y-4.045
X5.555Y-3.82
X5.565Y-3.9275
X5.5947Y-3.7168
X5.6075Y-3.5475
X5.62Y-3.99
X5.63Y-3.59
X5.635Y-4.185
X5.6565Y-4.1
X5.6566Y-3.7416
X5.675Y-4.22
X5.69Y-4.01
X5.7089Y-4.1961
X5.7675Y-4.245
X5.81Y-4.0
X5.84Y-4.24
X5.8475Y-4.03
X5.88Y-3.86
X5.9382Y-4.0128
X5.9424Y-4.0937
X5.9501Y-4.0503
X5.96Y-3.98
X5.963Y-4.1272
X6.015Y-3.6475
X6.0225Y-3.6925
X6.0801Y-3.6975
X6.085Y-3.65
X6.1125Y-3.78
X6.1391Y-4.0494
X6.152Y-3.9523
X6.1558Y-3.8794
X6.1684Y-3.989
X6.1782Y-3.8085
X6.19Y-4.14
X6.265Y-3.7
X6.28Y-4.005
X6.29Y-4.135
X6.31Y-3.91
X6.3534Y-4.2384
X6.375Y-3.7394
X6.4059Y-4.2345
X6.4548Y-3.988
X6.5Y-3.5858
X6.5375Y-3.74
X6.5525Y-4.07
X6.59Y-3.6035
X6.59Y-3.74
X6.6204Y-4.0
X6.6225Y-4.165
X6.65Y-4.04
X6.665Y-3.9075
X6.6925Y-3.6575
X6.71Y-4.27
X6.74Y-4.2
X6.76Y-4.27
X6.78Y-3.85
X6.8075Y-4.26
X6.86Y-4.25
X6.88Y-3.6625
X6.88Y-3.8
X6.9225Y-3.9775
X6.9525Y-3.9075
X6.98Y-3.71
X6.9825Y-3.9775
X6.985Y-4.2
X7.0Y-4.1
X7.0125Y-3.9175
X7.0225Y-3.7975
X7.0425Y-3.9775
T4
X5.385Y-4.125
X5.385Y-4.225
X5.485Y-4.125
X5.485Y-4.225
X5.585Y-4.125
X5.585Y-4.225
X5.75Y-3.55
X5.85Y-3.55
X5.95Y-3.55
X6.05Y-3.55
X6.15Y-3.55
X6.25Y-3.55
X6.35Y-3.55
X6.45Y-3.55
X6.55Y-3.55
X6.65Y-3.55
X6.75Y-3.55
X6.85Y-3.55
X5.35Y-4.35
X5.45Y-4.35
X5.55Y-4.35
X5.65Y-4.35
X5.75Y-4.35
X5.85Y-4.35
X5.95Y-4.35
X6.05Y-4.35
X6.15Y-4.35
X6.25Y-4.35
X6.35Y-4.35
X6.45Y-4.35
X6.55Y-4.35
X6.65Y-4.35
X6.75Y-4.35
X6.85Y-4.35
T2
G00X5.2863Y-3.8537
M15
G01X5.3021Y-3.8537
M16
G05
G00X5.2863Y-4.0443
M15
G01X5.3021Y-4.0443
M16
G05
T3
G00X5.1663Y-3.8415
M15
G01X5.1859Y-3.8415
M16
G05
G00X5.1663Y-4.0565
M15
G01X5.1859Y-4.0565
M16
G05
T0
M30
