G04 #@! TF.GenerationSoftware,KiCad,Pcbnew,(5.1.5)-3*
G04 #@! TF.CreationDate,2019-12-24T16:56:49-08:00*
G04 #@! TF.ProjectId,NBIoT Wing,4e42496f-5420-4576-996e-672e6b696361,rev?*
G04 #@! TF.SameCoordinates,Original*
G04 #@! TF.FileFunction,Legend,Bot*
G04 #@! TF.FilePolarity,Positive*
%FSLAX46Y46*%
G04 Gerber Fmt 4.6, Leading zero omitted, Abs format (unit mm)*
G04 Created by KiCad (PCBNEW (5.1.5)-3) date 2019-12-24 16:56:49*
%MOMM*%
%LPD*%
G04 APERTURE LIST*
%ADD10C,0.200000*%
%ADD11C,0.120000*%
%ADD12C,0.177800*%
G04 APERTURE END LIST*
D10*
X177666000Y-106690000D02*
X170136000Y-106690000D01*
X177666000Y-94010000D02*
X170136000Y-94010000D01*
X166366000Y-94030000D02*
X165693986Y-94030000D01*
X166366000Y-106740000D02*
X164656000Y-106740000D01*
X164656000Y-104930000D02*
X164656000Y-106740000D01*
X164916000Y-96085034D02*
X164916000Y-97460000D01*
X180106000Y-106740000D02*
X180106000Y-94010000D01*
X165693986Y-96085034D02*
X165693986Y-94030000D01*
X164916000Y-96085034D02*
X165693986Y-96085034D01*
D11*
X157740500Y-94716000D02*
X160140500Y-94716000D01*
X160140500Y-97816000D02*
X157190500Y-97816000D01*
X162722779Y-98232500D02*
X162397221Y-98232500D01*
X162722779Y-99252500D02*
X162397221Y-99252500D01*
X162722779Y-100713000D02*
X162397221Y-100713000D01*
X162722779Y-99693000D02*
X162397221Y-99693000D01*
X165356000Y-94523779D02*
X165356000Y-94198221D01*
X164336000Y-94523779D02*
X164336000Y-94198221D01*
X162722779Y-102237000D02*
X162397221Y-102237000D01*
X162722779Y-101217000D02*
X162397221Y-101217000D01*
X155158221Y-95569500D02*
X155483779Y-95569500D01*
X155158221Y-94549500D02*
X155483779Y-94549500D01*
X163125000Y-105944000D02*
X160175000Y-105944000D01*
X160725000Y-102844000D02*
X163125000Y-102844000D01*
X157896779Y-104396000D02*
X157571221Y-104396000D01*
X157896779Y-103376000D02*
X157571221Y-103376000D01*
X163832000Y-93698279D02*
X163832000Y-93372721D01*
X162812000Y-93698279D02*
X162812000Y-93372721D01*
X163832000Y-96682779D02*
X163832000Y-96357221D01*
X162812000Y-96682779D02*
X162812000Y-96357221D01*
X161288000Y-96682779D02*
X161288000Y-96357221D01*
X162308000Y-96682779D02*
X162308000Y-96357221D01*
D12*
X178308000Y-99658714D02*
X178308000Y-100203000D01*
X178344285Y-100311857D01*
X178416857Y-100384428D01*
X178525714Y-100420714D01*
X178598285Y-100420714D01*
X177582285Y-99658714D02*
X177945142Y-99658714D01*
X177981428Y-100021571D01*
X177945142Y-99985285D01*
X177872571Y-99949000D01*
X177691142Y-99949000D01*
X177618571Y-99985285D01*
X177582285Y-100021571D01*
X177546000Y-100094142D01*
X177546000Y-100275571D01*
X177582285Y-100348142D01*
X177618571Y-100384428D01*
X177691142Y-100420714D01*
X177872571Y-100420714D01*
X177945142Y-100384428D01*
X177981428Y-100348142D01*
M02*
